<svg xmlns="http://www.w3.org/2000/svg" width="225" height="80" viewBox="0 0 225 80">
    <g fill="none" fill-rule="evenodd">
        <path fill="#A9A9A9" fill-rule="nonzero" d="M87.408 15.883c-.76-.695-1.718-.888-2.703-.547-2.086.724-3.34 4.845-3.833 12.595-.075 1.184-.262 1.648-.353 1.808-.211-.128-.399-.297-.553-.498-.096-.134-2.38-3.325-3.742-5.756-1.172-2.091-.946-5.184-.824-6.846l.03-.42c.081-1.23-.095-3.698-1.265-5.14-.535-.658-1.198-1.02-1.972-1.073-2.305-.148-3.259 2.635-3.452 4.303-.005.042-.007.083-.007.125 0 .01-.005 1.203-.205 5.085-.086 1.671-.471 1.96-.472 1.962-.052.002-.103-.01-.15-.036-.052-.036-.108-.067-.166-.092-.02-.007-2.104-.874-3.756-1.448-1.492-.517-2.697-.444-3.58.224-.838.632-1.289 1.732-1.34 3.267-.108 3.307 2.908 4.258 5.33 5.022.557.175 1.083.342 1.559.528 2.316.9 5.635 4.83 6.576 6.92 1.022 2.27 4.6 9.313 4.753 9.612.248.487.814.665 1.265.399.249-.149.421-.411.469-.714l7.748-3.107c.277.248.663.3.989.136.326-.166.534-.52.535-.909 0-.317-.012-.815-.027-1.459-.073-3.11-.227-9.58.531-14.957.629-4.472.152-7.579-1.385-8.984m78.527 7.513c-.05-1.536-.502-2.636-1.34-3.27-.882-.664-2.088-.738-3.581-.22-1.261.45-2.512.932-3.752 1.446-.054.022-.106.05-.155.084v-.001c-.05.03-.105.046-.162.047-.004-.002-.388-.289-.474-1.962-.2-3.883-.205-5.074-.205-5.085 0-.041-.002-.083-.007-.124-.19-1.673-1.13-4.458-3.453-4.305-.773.055-1.436.416-1.971 1.074-1.17 1.441-1.346 3.908-1.265 5.139.008.126.018.267.03.42.122 1.662.347 4.754-.824 6.845-1.327 2.37-3.492 5.406-3.73 5.737-.158.208-.35.382-.566.515-.091-.16-.279-.623-.354-1.806-.492-7.75-1.745-11.87-3.831-12.594-.984-.341-1.944-.148-2.703.547-1.537 1.406-2.015 4.513-1.385 8.983.757 5.376.604 11.846.53 14.96-.013.484-.022.969-.026 1.453.001.39.21.743.535.909.326.165.71.113.989-.134l7.749 3.108c.065.422.372.753.763.824.391.071.78-.134.97-.51.152-.3 3.728-7.338 4.753-9.613.94-2.089 4.26-6.019 6.576-6.919.477-.186 1.002-.352 1.559-.527 2.422-.765 5.437-1.717 5.33-5.021"/>
        <path fill="#DDD" fill-rule="nonzero" d="M89.542 53.204c4.597-1.5 9.147.392 11.792 4.742 1.674 2.75 2.553 5.97 3.213 9.182.969 4.718 1.527 10.9 7.07 11.25.25.017.49.008.729-.008h.01v-.018c.029-.003.058-.003.085-.006v.012l.06.004.058-.004v-.011c.028.002.057.002.084.005v.018h.012c.238.016.48.025.729.009 5.543-.35 6.102-6.533 7.07-11.25.659-3.214 1.539-6.433 3.212-9.183 2.646-4.35 7.196-6.242 11.792-4.742 7.965 2.596 12.665 13.657 14.888 21.495.497 1.753.954 3.522 1.387 5.3h9.225c-.15-3.719-.856-7.273-1.945-11.07-1.133-3.947-2.333-7.878-3.771-11.716-.921-2.458.697-2.76 4.385-1.139 1.645.724 17.047 7.253 16.614 1.481-.13-1.733-1.086-3.487-2.017-4.878-2.45-3.656-6.126-6.19-9.79-8.311-4.232-2.449-8.747-4.278-13.212-6.182-12.196-5.201-25.393-8.137-38.579-8.18-.047-.004-.095-.002-.143-.002l-.143-.002c-13.186.047-26.382 2.983-38.579 8.183-4.464 1.905-8.98 3.734-13.21 6.183-3.666 2.12-7.342 4.655-9.79 8.31-.932 1.392-1.889 3.146-2.02 4.878-.432 5.773 14.972-.756 16.616-1.48 3.687-1.621 5.306-1.319 4.385 1.139-1.438 3.838-2.638 7.77-3.772 11.717-1.088 3.796-1.794 7.35-1.945 11.07h9.225c.434-1.78.89-3.548 1.387-5.3 2.223-7.839 6.924-18.9 14.888-21.496z"/>
        <path fill="#F3F3F3" fill-rule="nonzero" d="M150.483 74.565c-2.23-8.038-6.949-19.382-14.942-22.044-4.611-1.538-9.18.402-11.835 4.863-1.679 2.82-2.562 6.122-3.224 9.417-.971 4.838-1.532 11.179-7.095 11.537-.251.017-.492.008-.731-.008h-.011c-.049-.004-.097-.005-.145-.009-.047.004-.096.005-.144.009h-.01c-.24.016-.483.025-.732.008-5.564-.358-6.125-6.7-7.096-11.537-.662-3.295-1.544-6.597-3.225-9.417-2.653-4.46-7.222-6.4-11.835-4.863-7.992 2.662-12.71 14.006-14.94 22.044-.496 1.802-.961 3.614-1.393 5.435h78.75c-.435-1.824-.894-3.637-1.391-5.435"/>
        <path fill="#A9A9A9" fill-rule="nonzero" d="M114.167 70.06c-.97-.094-1.952-.066-2.92.005-.923.068-1.84.213-2.739.432-1.55.375-4.056 1.28-3.401 3.404.736 2.086 1.867 3.848 3.91 4.623l-.005.005s.058.021.157.053c.435.15.913.257 1.433.314.997.141 2.01.139 3.005-.008 2.801-.347 4.281-2.158 5.197-4.457l.047-.12.02-.057c1.076-2.805-2.657-3.995-4.704-4.194M137.21 74.035c1.199-1.337 1.85-3.24 1.394-5.344-.755-3.488-4.323-5.372-7.334-4.464-4.602 1.388-5.03 8.284-1.069 10.922 2.364 1.574 5.267.828 7.01-1.114"/>
        <path fill="#FFF" fill-rule="nonzero" d="M132.188 67c0 .553-.42 1-.938 1-.517 0-.938-.448-.938-1s.42-1 .938-1 .938.448.938 1"/>
        <path stroke="#FFF" d="M132.188 67c0 .553-.42 1-.938 1-.517 0-.938-.448-.938-1s.42-1 .938-1 .938.448.938 1z"/>
        <path fill="#CACACA" fill-rule="nonzero" d="M120.845 38.49l-.028-.098c-.403-1.322-1.268-2.316-2.21-3.073-1.116-.9-2.35-1.655-3.656-2.033-1.39-.402-2.84-.35-4.237-.03-.783.18-1.553.444-2.305.768-.583.242-1.142.56-1.669.95-.482.371-.93.805-1.337 1.295-1.007 1.193-1.8 2.855-1.036 4.553.64 1.428 2.193 2.019 3.364 1.268.942-.603 1.894-1.997 2.207-3.363l.115.008c.103 1.032.566 2.222.961 3.006.522 1.036 1.31 1.896 2.294 2.161.358.096.74.124 1.111.072 2.464-.472 2.014-3.346 2.014-3.346s1.268 1.774 2.976 1.19c.252-.12.487-.287.697-.497.666-.676 1.01-1.807.739-2.83"/>
        <path fill="#A9A9A9" fill-rule="nonzero" d="M98.291 67.082c-.754-3.779-4.322-5.82-7.334-4.836-4.602 1.503-5.028 8.974-1.068 11.832 2.363 1.705 5.266.897 7.008-1.206 1.2-1.449 1.85-3.51 1.394-5.79z"/>
        <path fill="#FFF" fill-rule="nonzero" d="M90 68c-.518 0-.938-.448-.938-1s.42-1 .938-1c.517 0 .938.448.938 1 0 .553-.42 1-.938 1z"/>
        <path stroke="#FFF" d="M90.938 67c0 .553-.42 1-.938 1s-.938-.448-.938-1 .42-1 .938-1c.517 0 .938.448.938 1z"/>
        <path fill="#DDD" fill-rule="nonzero" d="M48.587 75.606c-2.536-2.784-6.62-2.91-9.973-2.322-3.17.558-6.877 2.076-7.579 5.891-.027.15-.05.301-.068.453-.015.128-.02.25-.03.372h19.688c-.243-1.657-.955-3.192-2.038-4.394m133.465-2.322c-3.172.558-6.877 2.076-7.58 5.891-.028.15-.05.301-.067.453-.016.128-.022.25-.03.372h19.688c-.244-1.657-.956-3.192-2.039-4.394-2.536-2.784-6.62-2.91-9.972-2.322z"/>
        <path d="M0 0H225V80H0z"/>
    </g>
</svg>
