<svg xmlns="http://www.w3.org/2000/svg" width="348" height="286" viewBox="0 0 348 286">
    <path fill="#FF9333" fill-rule="evenodd" d="M345.871 283.161a1.161 1.161 0 1 1 0 2.323 1.161 1.161 0 0 1 0-2.323zm-9.29 0a1.161 1.161 0 1 1 0 2.323 1.161 1.161 0 0 1 0-2.323zm-9.29 0a1.161 1.161 0 1 1 0 2.323 1.161 1.161 0 0 1 0-2.323zm-9.291 0a1.161 1.161 0 1 1 0 2.323 1.161 1.161 0 0 1 0-2.323zm-9.29 0a1.161 1.161 0 1 1 0 2.323 1.161 1.161 0 0 1 0-2.323zm-9.29 0a1.161 1.161 0 1 1 0 2.323 1.161 1.161 0 0 1 0-2.323zm-9.291 0a1.161 1.161 0 1 1 0 2.323 1.161 1.161 0 0 1 0-2.323zm-9.29 0a1.161 1.161 0 1 1 0 2.323 1.161 1.161 0 0 1 0-2.323zm-9.29 0a1.161 1.161 0 1 1 0 2.323 1.161 1.161 0 0 1 0-2.323zm-9.29 0a1.161 1.161 0 1 1 0 2.323 1.161 1.161 0 0 1 0-2.323zm-9.291 0a1.161 1.161 0 1 1 0 2.323 1.161 1.161 0 0 1 0-2.323zm-9.29 0a1.161 1.161 0 1 1 0 2.323 1.161 1.161 0 0 1 0-2.323zm-9.29 0a1.161 1.161 0 1 1 0 2.323 1.161 1.161 0 0 1 0-2.323zm-9.291 0a1.161 1.161 0 1 1 0 2.323 1.161 1.161 0 0 1 0-2.323zm-9.29 0a1.161 1.161 0 1 1 0 2.323 1.161 1.161 0 0 1 0-2.323zm-9.29 0a1.161 1.161 0 1 1 0 2.323 1.161 1.161 0 0 1 0-2.323zm-9.291 0a1.161 1.161 0 1 1 0 2.323 1.161 1.161 0 0 1 0-2.323zm-9.29 0a1.161 1.161 0 1 1 0 2.323 1.161 1.161 0 0 1 0-2.323zm-9.29 0a1.161 1.161 0 1 1 0 2.323 1.161 1.161 0 0 1 0-2.323zm-9.291 0a1.161 1.161 0 1 1 0 2.323 1.161 1.161 0 0 1 0-2.323zm-9.29 0a1.161 1.161 0 1 1 0 2.323 1.161 1.161 0 0 1 0-2.323zm-9.29 0a1.161 1.161 0 1 1 0 2.323 1.161 1.161 0 0 1 0-2.323zm-9.291 0a1.161 1.161 0 1 1 0 2.323 1.161 1.161 0 0 1 0-2.323zm-9.29 0a1.161 1.161 0 1 1 0 2.323 1.161 1.161 0 0 1 0-2.323zm-9.29 0a1.161 1.161 0 1 1 0 2.323 1.161 1.161 0 0 1 0-2.323zm-9.291 0a1.161 1.161 0 1 1 0 2.323 1.161 1.161 0 0 1 0-2.323zm-9.29 0a1.161 1.161 0 1 1 0 2.323 1.161 1.161 0 0 1 0-2.323zm-9.29 0a1.161 1.161 0 1 1 0 2.323 1.161 1.161 0 0 1 0-2.323zm-9.291 0a1.161 1.161 0 1 1 0 2.323 1.161 1.161 0 0 1 0-2.323zm-9.29 0a1.161 1.161 0 1 1 0 2.323 1.161 1.161 0 0 1 0-2.323zm-9.29 0a1.161 1.161 0 1 1 0 2.323 1.161 1.161 0 0 1 0-2.323zm-9.291 0a1.161 1.161 0 1 1 0 2.323 1.161 1.161 0 0 1 0-2.323zm-9.29 0a1.161 1.161 0 1 1 0 2.323 1.161 1.161 0 0 1 0-2.323zm-9.29 0a1.161 1.161 0 1 1 0 2.323 1.161 1.161 0 0 1 0-2.323zm-9.291 0a1.161 1.161 0 1 1 0 2.323 1.161 1.161 0 0 1 0-2.323zm-9.29 0a1.161 1.161 0 1 1 0 2.323 1.161 1.161 0 0 1 0-2.323zm-9.29 0a1.161 1.161 0 1 1 0 2.323 1.161 1.161 0 0 1 0-2.323zm-9.291 0a1.161 1.161 0 1 1 0 2.323 1.161 1.161 0 0 1 0-2.323zm343.742-8.129a1.161 1.161 0 1 1 0 2.323 1.161 1.161 0 0 1 0-2.323zm-9.29 0a1.161 1.161 0 1 1 0 2.323 1.161 1.161 0 0 1 0-2.323zm-9.29 0a1.161 1.161 0 1 1 0 2.323 1.161 1.161 0 0 1 0-2.323zm-9.291 0a1.161 1.161 0 1 1 0 2.323 1.161 1.161 0 0 1 0-2.323zm-9.29 0a1.161 1.161 0 1 1 0 2.323 1.161 1.161 0 0 1 0-2.323zm-9.29 0a1.161 1.161 0 1 1 0 2.323 1.161 1.161 0 0 1 0-2.323zm-9.291 0a1.161 1.161 0 1 1 0 2.323 1.161 1.161 0 0 1 0-2.323zm-9.29 0a1.161 1.161 0 1 1 0 2.323 1.161 1.161 0 0 1 0-2.323zm-9.29 0a1.161 1.161 0 1 1 0 2.323 1.161 1.161 0 0 1 0-2.323zm-9.29 0a1.161 1.161 0 1 1 0 2.323 1.161 1.161 0 0 1 0-2.323zm-9.291 0a1.161 1.161 0 1 1 0 2.323 1.161 1.161 0 0 1 0-2.323zm-9.29 0a1.161 1.161 0 1 1 0 2.323 1.161 1.161 0 0 1 0-2.323zm-9.29 0a1.161 1.161 0 1 1 0 2.323 1.161 1.161 0 0 1 0-2.323zm-9.291 0a1.161 1.161 0 1 1 0 2.323 1.161 1.161 0 0 1 0-2.323zm-9.29 0a1.161 1.161 0 1 1 0 2.323 1.161 1.161 0 0 1 0-2.323zm-9.29 0a1.161 1.161 0 1 1 0 2.323 1.161 1.161 0 0 1 0-2.323zm-9.291 0a1.161 1.161 0 1 1 0 2.323 1.161 1.161 0 0 1 0-2.323zm-9.29 0a1.161 1.161 0 1 1 0 2.323 1.161 1.161 0 0 1 0-2.323zm-9.29 0a1.161 1.161 0 1 1 0 2.323 1.161 1.161 0 0 1 0-2.323zm-9.291 0a1.161 1.161 0 1 1 0 2.323 1.161 1.161 0 0 1 0-2.323zm-9.29 0a1.161 1.161 0 1 1 0 2.323 1.161 1.161 0 0 1 0-2.323zm-9.29 0a1.161 1.161 0 1 1 0 2.323 1.161 1.161 0 0 1 0-2.323zm-9.291 0a1.161 1.161 0 1 1 0 2.323 1.161 1.161 0 0 1 0-2.323zm-9.29 0a1.161 1.161 0 1 1 0 2.323 1.161 1.161 0 0 1 0-2.323zm-9.29 0a1.161 1.161 0 1 1 0 2.323 1.161 1.161 0 0 1 0-2.323zm-9.291 0a1.161 1.161 0 1 1 0 2.323 1.161 1.161 0 0 1 0-2.323zm-9.29 0a1.161 1.161 0 1 1 0 2.323 1.161 1.161 0 0 1 0-2.323zm-9.29 0a1.161 1.161 0 1 1 0 2.323 1.161 1.161 0 0 1 0-2.323zm-9.291 0a1.161 1.161 0 1 1 0 2.323 1.161 1.161 0 0 1 0-2.323zm-9.29 0a1.161 1.161 0 1 1 0 2.323 1.161 1.161 0 0 1 0-2.323zm-9.29 0a1.161 1.161 0 1 1 0 2.323 1.161 1.161 0 0 1 0-2.323zm-9.291 0a1.161 1.161 0 1 1 0 2.323 1.161 1.161 0 0 1 0-2.323zm-9.29 0a1.161 1.161 0 1 1 0 2.323 1.161 1.161 0 0 1 0-2.323zm-9.29 0a1.161 1.161 0 1 1 0 2.323 1.161 1.161 0 0 1 0-2.323zm-9.291 0a1.161 1.161 0 1 1 0 2.323 1.161 1.161 0 0 1 0-2.323zm-9.29 0a1.161 1.161 0 1 1 0 2.323 1.161 1.161 0 0 1 0-2.323zm-9.29 0a1.161 1.161 0 1 1 0 2.323 1.161 1.161 0 0 1 0-2.323zm-9.291 0a1.161 1.161 0 1 1 0 2.323 1.161 1.161 0 0 1 0-2.323zm343.742-8.129a1.161 1.161 0 1 1 0 2.323 1.161 1.161 0 0 1 0-2.323zm-9.29 0a1.161 1.161 0 1 1 0 2.323 1.161 1.161 0 0 1 0-2.323zm-9.29 0a1.161 1.161 0 1 1 0 2.323 1.161 1.161 0 0 1 0-2.323zm-9.291 0a1.161 1.161 0 1 1 0 2.323 1.161 1.161 0 0 1 0-2.323zm-9.29 0a1.161 1.161 0 1 1 0 2.323 1.161 1.161 0 0 1 0-2.323zm-9.29 0a1.161 1.161 0 1 1 0 2.323 1.161 1.161 0 0 1 0-2.323zm-9.291 0a1.161 1.161 0 1 1 0 2.323 1.161 1.161 0 0 1 0-2.323zm-9.29 0a1.161 1.161 0 1 1 0 2.323 1.161 1.161 0 0 1 0-2.323zm-9.29 0a1.161 1.161 0 1 1 0 2.323 1.161 1.161 0 0 1 0-2.323zm-9.29 0a1.161 1.161 0 1 1 0 2.323 1.161 1.161 0 0 1 0-2.323zm-9.291 0a1.161 1.161 0 1 1 0 2.323 1.161 1.161 0 0 1 0-2.323zm-9.29 0a1.161 1.161 0 1 1 0 2.323 1.161 1.161 0 0 1 0-2.323zm-9.29 0a1.161 1.161 0 1 1 0 2.323 1.161 1.161 0 0 1 0-2.323zm-9.291 0a1.161 1.161 0 1 1 0 2.323 1.161 1.161 0 0 1 0-2.323zm-9.29 0a1.161 1.161 0 1 1 0 2.323 1.161 1.161 0 0 1 0-2.323zm-9.29 0a1.161 1.161 0 1 1 0 2.323 1.161 1.161 0 0 1 0-2.323zm-9.291 0a1.161 1.161 0 1 1 0 2.323 1.161 1.161 0 0 1 0-2.323zm-9.29 0a1.161 1.161 0 1 1 0 2.323 1.161 1.161 0 0 1 0-2.323zm-9.29 0a1.161 1.161 0 1 1 0 2.323 1.161 1.161 0 0 1 0-2.323zm-9.291 0a1.161 1.161 0 1 1 0 2.323 1.161 1.161 0 0 1 0-2.323zm-9.29 0a1.161 1.161 0 1 1 0 2.323 1.161 1.161 0 0 1 0-2.323zm-9.29 0a1.161 1.161 0 1 1 0 2.323 1.161 1.161 0 0 1 0-2.323zm-9.291 0a1.161 1.161 0 1 1 0 2.323 1.161 1.161 0 0 1 0-2.323zm-9.29 0a1.161 1.161 0 1 1 0 2.323 1.161 1.161 0 0 1 0-2.323zm-9.29 0a1.161 1.161 0 1 1 0 2.323 1.161 1.161 0 0 1 0-2.323zm-9.291 0a1.161 1.161 0 1 1 0 2.323 1.161 1.161 0 0 1 0-2.323zm-9.29 0a1.161 1.161 0 1 1 0 2.323 1.161 1.161 0 0 1 0-2.323zm-9.29 0a1.161 1.161 0 1 1 0 2.323 1.161 1.161 0 0 1 0-2.323zm-9.291 0a1.161 1.161 0 1 1 0 2.323 1.161 1.161 0 0 1 0-2.323zm-9.29 0a1.161 1.161 0 1 1 0 2.323 1.161 1.161 0 0 1 0-2.323zm-9.29 0a1.161 1.161 0 1 1 0 2.323 1.161 1.161 0 0 1 0-2.323zm-9.291 0a1.161 1.161 0 1 1 0 2.323 1.161 1.161 0 0 1 0-2.323zm-9.29 0a1.161 1.161 0 1 1 0 2.323 1.161 1.161 0 0 1 0-2.323zm-9.29 0a1.161 1.161 0 1 1 0 2.323 1.161 1.161 0 0 1 0-2.323zm-9.291 0a1.161 1.161 0 1 1 0 2.323 1.161 1.161 0 0 1 0-2.323zm-9.29 0a1.161 1.161 0 1 1 0 2.323 1.161 1.161 0 0 1 0-2.323zm-9.29 0a1.161 1.161 0 1 1 0 2.323 1.161 1.161 0 0 1 0-2.323zm-9.291 0a1.161 1.161 0 1 1 0 2.323 1.161 1.161 0 0 1 0-2.323zm343.742-8.129a1.161 1.161 0 1 1 0 2.323 1.161 1.161 0 0 1 0-2.323zm-9.29 0a1.161 1.161 0 1 1 0 2.323 1.161 1.161 0 0 1 0-2.323zm-9.29 0a1.161 1.161 0 1 1 0 2.323 1.161 1.161 0 0 1 0-2.323zm-9.291 0a1.161 1.161 0 1 1 0 2.323 1.161 1.161 0 0 1 0-2.323zm-9.29 0a1.161 1.161 0 1 1 0 2.323 1.161 1.161 0 0 1 0-2.323zm-9.29 0a1.161 1.161 0 1 1 0 2.323 1.161 1.161 0 0 1 0-2.323zm-9.291 0a1.161 1.161 0 1 1 0 2.323 1.161 1.161 0 0 1 0-2.323zm-9.29 0a1.161 1.161 0 1 1 0 2.323 1.161 1.161 0 0 1 0-2.323zm-9.29 0a1.161 1.161 0 1 1 0 2.323 1.161 1.161 0 0 1 0-2.323zm-9.29 0a1.161 1.161 0 1 1 0 2.323 1.161 1.161 0 0 1 0-2.323zm-9.291 0a1.161 1.161 0 1 1 0 2.323 1.161 1.161 0 0 1 0-2.323zm-9.29 0a1.161 1.161 0 1 1 0 2.323 1.161 1.161 0 0 1 0-2.323zm-9.29 0a1.161 1.161 0 1 1 0 2.323 1.161 1.161 0 0 1 0-2.323zm-9.291 0a1.161 1.161 0 1 1 0 2.323 1.161 1.161 0 0 1 0-2.323zm-9.29 0a1.161 1.161 0 1 1 0 2.323 1.161 1.161 0 0 1 0-2.323zm-9.29 0a1.161 1.161 0 1 1 0 2.323 1.161 1.161 0 0 1 0-2.323zm-9.291 0a1.161 1.161 0 1 1 0 2.323 1.161 1.161 0 0 1 0-2.323zm-9.29 0a1.161 1.161 0 1 1 0 2.323 1.161 1.161 0 0 1 0-2.323zm-9.29 0a1.161 1.161 0 1 1 0 2.323 1.161 1.161 0 0 1 0-2.323zm-9.291 0a1.161 1.161 0 1 1 0 2.323 1.161 1.161 0 0 1 0-2.323zm-9.29 0a1.161 1.161 0 1 1 0 2.323 1.161 1.161 0 0 1 0-2.323zm-9.29 0a1.161 1.161 0 1 1 0 2.323 1.161 1.161 0 0 1 0-2.323zm-9.291 0a1.161 1.161 0 1 1 0 2.323 1.161 1.161 0 0 1 0-2.323zm-9.29 0a1.161 1.161 0 1 1 0 2.323 1.161 1.161 0 0 1 0-2.323zm-9.29 0a1.161 1.161 0 1 1 0 2.323 1.161 1.161 0 0 1 0-2.323zm-9.291 0a1.161 1.161 0 1 1 0 2.323 1.161 1.161 0 0 1 0-2.323zm-9.29 0a1.161 1.161 0 1 1 0 2.323 1.161 1.161 0 0 1 0-2.323zm-9.29 0a1.161 1.161 0 1 1 0 2.323 1.161 1.161 0 0 1 0-2.323zm-9.291 0a1.161 1.161 0 1 1 0 2.323 1.161 1.161 0 0 1 0-2.323zm-9.29 0a1.161 1.161 0 1 1 0 2.323 1.161 1.161 0 0 1 0-2.323zm-9.29 0a1.161 1.161 0 1 1 0 2.323 1.161 1.161 0 0 1 0-2.323zm-9.291 0a1.161 1.161 0 1 1 0 2.323 1.161 1.161 0 0 1 0-2.323zm-9.29 0a1.161 1.161 0 1 1 0 2.323 1.161 1.161 0 0 1 0-2.323zm-9.29 0a1.161 1.161 0 1 1 0 2.323 1.161 1.161 0 0 1 0-2.323zm-9.291 0a1.161 1.161 0 1 1 0 2.323 1.161 1.161 0 0 1 0-2.323zm-9.29 0a1.161 1.161 0 1 1 0 2.323 1.161 1.161 0 0 1 0-2.323zm-9.29 0a1.161 1.161 0 1 1 0 2.323 1.161 1.161 0 0 1 0-2.323zm-9.291 0a1.161 1.161 0 1 1 0 2.323 1.161 1.161 0 0 1 0-2.323zm343.742-8.129a1.161 1.161 0 1 1 0 2.323 1.161 1.161 0 0 1 0-2.323zm-9.29 0a1.161 1.161 0 1 1 0 2.323 1.161 1.161 0 0 1 0-2.323zm-9.29 0a1.161 1.161 0 1 1 0 2.323 1.161 1.161 0 0 1 0-2.323zm-9.291 0a1.161 1.161 0 1 1 0 2.323 1.161 1.161 0 0 1 0-2.323zm-9.29 0a1.161 1.161 0 1 1 0 2.323 1.161 1.161 0 0 1 0-2.323zm-9.29 0a1.161 1.161 0 1 1 0 2.323 1.161 1.161 0 0 1 0-2.323zm-9.291 0a1.161 1.161 0 1 1 0 2.323 1.161 1.161 0 0 1 0-2.323zm-9.29 0a1.161 1.161 0 1 1 0 2.323 1.161 1.161 0 0 1 0-2.323zm-9.29 0a1.161 1.161 0 1 1 0 2.323 1.161 1.161 0 0 1 0-2.323zm-9.29 0a1.161 1.161 0 1 1 0 2.323 1.161 1.161 0 0 1 0-2.323zm-9.291 0a1.161 1.161 0 1 1 0 2.323 1.161 1.161 0 0 1 0-2.323zm-9.29 0a1.161 1.161 0 1 1 0 2.323 1.161 1.161 0 0 1 0-2.323zm-9.29 0a1.161 1.161 0 1 1 0 2.323 1.161 1.161 0 0 1 0-2.323zm-9.291 0a1.161 1.161 0 1 1 0 2.323 1.161 1.161 0 0 1 0-2.323zm-9.29 0a1.161 1.161 0 1 1 0 2.323 1.161 1.161 0 0 1 0-2.323zm-9.29 0a1.161 1.161 0 1 1 0 2.323 1.161 1.161 0 0 1 0-2.323zm-9.291 0a1.161 1.161 0 1 1 0 2.323 1.161 1.161 0 0 1 0-2.323zm-9.29 0a1.161 1.161 0 1 1 0 2.323 1.161 1.161 0 0 1 0-2.323zm-9.29 0a1.161 1.161 0 1 1 0 2.323 1.161 1.161 0 0 1 0-2.323zm-9.291 0a1.161 1.161 0 1 1 0 2.323 1.161 1.161 0 0 1 0-2.323zm-9.29 0a1.161 1.161 0 1 1 0 2.323 1.161 1.161 0 0 1 0-2.323zm-9.29 0a1.161 1.161 0 1 1 0 2.323 1.161 1.161 0 0 1 0-2.323zm-9.291 0a1.161 1.161 0 1 1 0 2.323 1.161 1.161 0 0 1 0-2.323zm-9.29 0a1.161 1.161 0 1 1 0 2.323 1.161 1.161 0 0 1 0-2.323zm-9.29 0a1.161 1.161 0 1 1 0 2.323 1.161 1.161 0 0 1 0-2.323zm-9.291 0a1.161 1.161 0 1 1 0 2.323 1.161 1.161 0 0 1 0-2.323zm-9.29 0a1.161 1.161 0 1 1 0 2.323 1.161 1.161 0 0 1 0-2.323zm-9.29 0a1.161 1.161 0 1 1 0 2.323 1.161 1.161 0 0 1 0-2.323zm-9.291 0a1.161 1.161 0 1 1 0 2.323 1.161 1.161 0 0 1 0-2.323zm-9.29 0a1.161 1.161 0 1 1 0 2.323 1.161 1.161 0 0 1 0-2.323zm-9.29 0a1.161 1.161 0 1 1 0 2.323 1.161 1.161 0 0 1 0-2.323zm-9.291 0a1.161 1.161 0 1 1 0 2.323 1.161 1.161 0 0 1 0-2.323zm-9.29 0a1.161 1.161 0 1 1 0 2.323 1.161 1.161 0 0 1 0-2.323zm-9.29 0a1.161 1.161 0 1 1 0 2.323 1.161 1.161 0 0 1 0-2.323zm-9.291 0a1.161 1.161 0 1 1 0 2.323 1.161 1.161 0 0 1 0-2.323zm-9.29 0a1.161 1.161 0 1 1 0 2.323 1.161 1.161 0 0 1 0-2.323zm-9.29 0a1.161 1.161 0 1 1 0 2.323 1.161 1.161 0 0 1 0-2.323zm-9.291 0a1.161 1.161 0 1 1 0 2.323 1.161 1.161 0 0 1 0-2.323zm343.742-8.129a1.161 1.161 0 1 1 0 2.323 1.161 1.161 0 0 1 0-2.323zm-9.29 0a1.161 1.161 0 1 1 0 2.323 1.161 1.161 0 0 1 0-2.323zm-9.29 0a1.161 1.161 0 1 1 0 2.323 1.161 1.161 0 0 1 0-2.323zm-9.291 0a1.161 1.161 0 1 1 0 2.323 1.161 1.161 0 0 1 0-2.323zm-9.29 0a1.161 1.161 0 1 1 0 2.323 1.161 1.161 0 0 1 0-2.323zm-9.29 0a1.161 1.161 0 1 1 0 2.323 1.161 1.161 0 0 1 0-2.323zm-9.291 0a1.161 1.161 0 1 1 0 2.323 1.161 1.161 0 0 1 0-2.323zm-9.29 0a1.161 1.161 0 1 1 0 2.323 1.161 1.161 0 0 1 0-2.323zm-9.29 0a1.161 1.161 0 1 1 0 2.323 1.161 1.161 0 0 1 0-2.323zm-9.29 0a1.161 1.161 0 1 1 0 2.323 1.161 1.161 0 0 1 0-2.323zm-9.291 0a1.161 1.161 0 1 1 0 2.323 1.161 1.161 0 0 1 0-2.323zm-9.29 0a1.161 1.161 0 1 1 0 2.323 1.161 1.161 0 0 1 0-2.323zm-9.29 0a1.161 1.161 0 1 1 0 2.323 1.161 1.161 0 0 1 0-2.323zm-9.291 0a1.161 1.161 0 1 1 0 2.323 1.161 1.161 0 0 1 0-2.323zm-9.29 0a1.161 1.161 0 1 1 0 2.323 1.161 1.161 0 0 1 0-2.323zm-9.29 0a1.161 1.161 0 1 1 0 2.323 1.161 1.161 0 0 1 0-2.323zm-9.291 0a1.161 1.161 0 1 1 0 2.323 1.161 1.161 0 0 1 0-2.323zm-9.29 0a1.161 1.161 0 1 1 0 2.323 1.161 1.161 0 0 1 0-2.323zm-9.29 0a1.161 1.161 0 1 1 0 2.323 1.161 1.161 0 0 1 0-2.323zm-9.291 0a1.161 1.161 0 1 1 0 2.323 1.161 1.161 0 0 1 0-2.323zm-9.29 0a1.161 1.161 0 1 1 0 2.323 1.161 1.161 0 0 1 0-2.323zm-9.29 0a1.161 1.161 0 1 1 0 2.323 1.161 1.161 0 0 1 0-2.323zm-9.291 0a1.161 1.161 0 1 1 0 2.323 1.161 1.161 0 0 1 0-2.323zm-9.29 0a1.161 1.161 0 1 1 0 2.323 1.161 1.161 0 0 1 0-2.323zm-9.29 0a1.161 1.161 0 1 1 0 2.323 1.161 1.161 0 0 1 0-2.323zm-9.291 0a1.161 1.161 0 1 1 0 2.323 1.161 1.161 0 0 1 0-2.323zm-9.29 0a1.161 1.161 0 1 1 0 2.323 1.161 1.161 0 0 1 0-2.323zm-9.29 0a1.161 1.161 0 1 1 0 2.323 1.161 1.161 0 0 1 0-2.323zm-9.291 0a1.161 1.161 0 1 1 0 2.323 1.161 1.161 0 0 1 0-2.323zm-9.29 0a1.161 1.161 0 1 1 0 2.323 1.161 1.161 0 0 1 0-2.323zm-9.29 0a1.161 1.161 0 1 1 0 2.323 1.161 1.161 0 0 1 0-2.323zm-9.291 0a1.161 1.161 0 1 1 0 2.323 1.161 1.161 0 0 1 0-2.323zm-9.29 0a1.161 1.161 0 1 1 0 2.323 1.161 1.161 0 0 1 0-2.323zm-9.29 0a1.161 1.161 0 1 1 0 2.323 1.161 1.161 0 0 1 0-2.323zm-9.291 0a1.161 1.161 0 1 1 0 2.323 1.161 1.161 0 0 1 0-2.323zm-9.29 0a1.161 1.161 0 1 1 0 2.323 1.161 1.161 0 0 1 0-2.323zm-9.29 0a1.161 1.161 0 1 1 0 2.323 1.161 1.161 0 0 1 0-2.323zm-9.291 0a1.161 1.161 0 1 1 0 2.323 1.161 1.161 0 0 1 0-2.323zm343.742-8.129a1.161 1.161 0 1 1 0 2.323 1.161 1.161 0 0 1 0-2.323zm-9.29 0a1.161 1.161 0 1 1 0 2.323 1.161 1.161 0 0 1 0-2.323zm-9.29 0a1.161 1.161 0 1 1 0 2.323 1.161 1.161 0 0 1 0-2.323zm-9.291 0a1.161 1.161 0 1 1 0 2.323 1.161 1.161 0 0 1 0-2.323zm-9.29 0a1.161 1.161 0 1 1 0 2.323 1.161 1.161 0 0 1 0-2.323zm-9.29 0a1.161 1.161 0 1 1 0 2.323 1.161 1.161 0 0 1 0-2.323zm-9.291 0a1.161 1.161 0 1 1 0 2.323 1.161 1.161 0 0 1 0-2.323zm-9.29 0a1.161 1.161 0 1 1 0 2.323 1.161 1.161 0 0 1 0-2.323zm-9.29 0a1.161 1.161 0 1 1 0 2.323 1.161 1.161 0 0 1 0-2.323zm-9.29 0a1.161 1.161 0 1 1 0 2.323 1.161 1.161 0 0 1 0-2.323zm-9.291 0a1.161 1.161 0 1 1 0 2.323 1.161 1.161 0 0 1 0-2.323zm-9.29 0a1.161 1.161 0 1 1 0 2.323 1.161 1.161 0 0 1 0-2.323zm-9.29 0a1.161 1.161 0 1 1 0 2.323 1.161 1.161 0 0 1 0-2.323zm-9.291 0a1.161 1.161 0 1 1 0 2.323 1.161 1.161 0 0 1 0-2.323zm-9.29 0a1.161 1.161 0 1 1 0 2.323 1.161 1.161 0 0 1 0-2.323zm-9.29 0a1.161 1.161 0 1 1 0 2.323 1.161 1.161 0 0 1 0-2.323zm-9.291 0a1.161 1.161 0 1 1 0 2.323 1.161 1.161 0 0 1 0-2.323zm-9.29 0a1.161 1.161 0 1 1 0 2.323 1.161 1.161 0 0 1 0-2.323zm-9.29 0a1.161 1.161 0 1 1 0 2.323 1.161 1.161 0 0 1 0-2.323zm-9.291 0a1.161 1.161 0 1 1 0 2.323 1.161 1.161 0 0 1 0-2.323zm-9.29 0a1.161 1.161 0 1 1 0 2.323 1.161 1.161 0 0 1 0-2.323zm-9.29 0a1.161 1.161 0 1 1 0 2.323 1.161 1.161 0 0 1 0-2.323zm-9.291 0a1.161 1.161 0 1 1 0 2.323 1.161 1.161 0 0 1 0-2.323zm-9.29 0a1.161 1.161 0 1 1 0 2.323 1.161 1.161 0 0 1 0-2.323zm-9.29 0a1.161 1.161 0 1 1 0 2.323 1.161 1.161 0 0 1 0-2.323zm-9.291 0a1.161 1.161 0 1 1 0 2.323 1.161 1.161 0 0 1 0-2.323zm-9.29 0a1.161 1.161 0 1 1 0 2.323 1.161 1.161 0 0 1 0-2.323zm-9.29 0a1.161 1.161 0 1 1 0 2.323 1.161 1.161 0 0 1 0-2.323zm-9.291 0a1.161 1.161 0 1 1 0 2.323 1.161 1.161 0 0 1 0-2.323zm-9.29 0a1.161 1.161 0 1 1 0 2.323 1.161 1.161 0 0 1 0-2.323zm-9.29 0a1.161 1.161 0 1 1 0 2.323 1.161 1.161 0 0 1 0-2.323zm-9.291 0a1.161 1.161 0 1 1 0 2.323 1.161 1.161 0 0 1 0-2.323zm-9.29 0a1.161 1.161 0 1 1 0 2.323 1.161 1.161 0 0 1 0-2.323zm-9.29 0a1.161 1.161 0 1 1 0 2.323 1.161 1.161 0 0 1 0-2.323zm-9.291 0a1.161 1.161 0 1 1 0 2.323 1.161 1.161 0 0 1 0-2.323zm-9.29 0a1.161 1.161 0 1 1 0 2.323 1.161 1.161 0 0 1 0-2.323zm-9.29 0a1.161 1.161 0 1 1 0 2.323 1.161 1.161 0 0 1 0-2.323zm-9.291 0a1.161 1.161 0 1 1 0 2.323 1.161 1.161 0 0 1 0-2.323zm343.742-8.129a1.161 1.161 0 1 1 0 2.323 1.161 1.161 0 0 1 0-2.323zm-9.29 0a1.161 1.161 0 1 1 0 2.323 1.161 1.161 0 0 1 0-2.323zm-9.29 0a1.161 1.161 0 1 1 0 2.323 1.161 1.161 0 0 1 0-2.323zm-9.291 0a1.161 1.161 0 1 1 0 2.323 1.161 1.161 0 0 1 0-2.323zm-9.29 0a1.161 1.161 0 1 1 0 2.323 1.161 1.161 0 0 1 0-2.323zm-9.29 0a1.161 1.161 0 1 1 0 2.323 1.161 1.161 0 0 1 0-2.323zm-9.291 0a1.161 1.161 0 1 1 0 2.323 1.161 1.161 0 0 1 0-2.323zm-9.29 0a1.161 1.161 0 1 1 0 2.323 1.161 1.161 0 0 1 0-2.323zm-9.29 0a1.161 1.161 0 1 1 0 2.323 1.161 1.161 0 0 1 0-2.323zm-9.29 0a1.161 1.161 0 1 1 0 2.323 1.161 1.161 0 0 1 0-2.323zm-9.291 0a1.161 1.161 0 1 1 0 2.323 1.161 1.161 0 0 1 0-2.323zm-9.29 0a1.161 1.161 0 1 1 0 2.323 1.161 1.161 0 0 1 0-2.323zm-9.29 0a1.161 1.161 0 1 1 0 2.323 1.161 1.161 0 0 1 0-2.323zm-9.291 0a1.161 1.161 0 1 1 0 2.323 1.161 1.161 0 0 1 0-2.323zm-9.29 0a1.161 1.161 0 1 1 0 2.323 1.161 1.161 0 0 1 0-2.323zm-9.29 0a1.161 1.161 0 1 1 0 2.323 1.161 1.161 0 0 1 0-2.323zm-9.291 0a1.161 1.161 0 1 1 0 2.323 1.161 1.161 0 0 1 0-2.323zm-9.29 0a1.161 1.161 0 1 1 0 2.323 1.161 1.161 0 0 1 0-2.323zm-9.29 0a1.161 1.161 0 1 1 0 2.323 1.161 1.161 0 0 1 0-2.323zm-9.291 0a1.161 1.161 0 1 1 0 2.323 1.161 1.161 0 0 1 0-2.323zm-9.29 0a1.161 1.161 0 1 1 0 2.323 1.161 1.161 0 0 1 0-2.323zm-9.29 0a1.161 1.161 0 1 1 0 2.323 1.161 1.161 0 0 1 0-2.323zm-9.291 0a1.161 1.161 0 1 1 0 2.323 1.161 1.161 0 0 1 0-2.323zm-9.29 0a1.161 1.161 0 1 1 0 2.323 1.161 1.161 0 0 1 0-2.323zm-9.29 0a1.161 1.161 0 1 1 0 2.323 1.161 1.161 0 0 1 0-2.323zm-9.291 0a1.161 1.161 0 1 1 0 2.323 1.161 1.161 0 0 1 0-2.323zm-9.29 0a1.161 1.161 0 1 1 0 2.323 1.161 1.161 0 0 1 0-2.323zm-9.29 0a1.161 1.161 0 1 1 0 2.323 1.161 1.161 0 0 1 0-2.323zm-9.291 0a1.161 1.161 0 1 1 0 2.323 1.161 1.161 0 0 1 0-2.323zm-9.29 0a1.161 1.161 0 1 1 0 2.323 1.161 1.161 0 0 1 0-2.323zm-9.29 0a1.161 1.161 0 1 1 0 2.323 1.161 1.161 0 0 1 0-2.323zm-9.291 0a1.161 1.161 0 1 1 0 2.323 1.161 1.161 0 0 1 0-2.323zm-9.29 0a1.161 1.161 0 1 1 0 2.323 1.161 1.161 0 0 1 0-2.323zm-9.29 0a1.161 1.161 0 1 1 0 2.323 1.161 1.161 0 0 1 0-2.323zm-9.291 0a1.161 1.161 0 1 1 0 2.323 1.161 1.161 0 0 1 0-2.323zm-9.29 0a1.161 1.161 0 1 1 0 2.323 1.161 1.161 0 0 1 0-2.323zm-9.29 0a1.161 1.161 0 1 1 0 2.323 1.161 1.161 0 0 1 0-2.323zm-9.291 0a1.161 1.161 0 1 1 0 2.323 1.161 1.161 0 0 1 0-2.323zm343.742-8.129a1.161 1.161 0 1 1 0 2.323 1.161 1.161 0 0 1 0-2.323zm-9.29 0a1.161 1.161 0 1 1 0 2.323 1.161 1.161 0 0 1 0-2.323zm-9.29 0a1.161 1.161 0 1 1 0 2.323 1.161 1.161 0 0 1 0-2.323zm-9.291 0a1.161 1.161 0 1 1 0 2.323 1.161 1.161 0 0 1 0-2.323zm-9.29 0a1.161 1.161 0 1 1 0 2.323 1.161 1.161 0 0 1 0-2.323zm-9.29 0a1.161 1.161 0 1 1 0 2.323 1.161 1.161 0 0 1 0-2.323zm-9.291 0a1.161 1.161 0 1 1 0 2.323 1.161 1.161 0 0 1 0-2.323zm-9.29 0a1.161 1.161 0 1 1 0 2.323 1.161 1.161 0 0 1 0-2.323zm-9.29 0a1.161 1.161 0 1 1 0 2.323 1.161 1.161 0 0 1 0-2.323zm-9.29 0a1.161 1.161 0 1 1 0 2.323 1.161 1.161 0 0 1 0-2.323zm-9.291 0a1.161 1.161 0 1 1 0 2.323 1.161 1.161 0 0 1 0-2.323zm-9.29 0a1.161 1.161 0 1 1 0 2.323 1.161 1.161 0 0 1 0-2.323zm-9.29 0a1.161 1.161 0 1 1 0 2.323 1.161 1.161 0 0 1 0-2.323zm-9.291 0a1.161 1.161 0 1 1 0 2.323 1.161 1.161 0 0 1 0-2.323zm-9.29 0a1.161 1.161 0 1 1 0 2.323 1.161 1.161 0 0 1 0-2.323zm-9.29 0a1.161 1.161 0 1 1 0 2.323 1.161 1.161 0 0 1 0-2.323zm-9.291 0a1.161 1.161 0 1 1 0 2.323 1.161 1.161 0 0 1 0-2.323zm-9.29 0a1.161 1.161 0 1 1 0 2.323 1.161 1.161 0 0 1 0-2.323zm-9.29 0a1.161 1.161 0 1 1 0 2.323 1.161 1.161 0 0 1 0-2.323zm-9.291 0a1.161 1.161 0 1 1 0 2.323 1.161 1.161 0 0 1 0-2.323zm-9.29 0a1.161 1.161 0 1 1 0 2.323 1.161 1.161 0 0 1 0-2.323zm-9.29 0a1.161 1.161 0 1 1 0 2.323 1.161 1.161 0 0 1 0-2.323zm-9.291 0a1.161 1.161 0 1 1 0 2.323 1.161 1.161 0 0 1 0-2.323zm-9.29 0a1.161 1.161 0 1 1 0 2.323 1.161 1.161 0 0 1 0-2.323zm-9.29 0a1.161 1.161 0 1 1 0 2.323 1.161 1.161 0 0 1 0-2.323zm-9.291 0a1.161 1.161 0 1 1 0 2.323 1.161 1.161 0 0 1 0-2.323zm-9.29 0a1.161 1.161 0 1 1 0 2.323 1.161 1.161 0 0 1 0-2.323zm-9.29 0a1.161 1.161 0 1 1 0 2.323 1.161 1.161 0 0 1 0-2.323zm-9.291 0a1.161 1.161 0 1 1 0 2.323 1.161 1.161 0 0 1 0-2.323zm-9.29 0a1.161 1.161 0 1 1 0 2.323 1.161 1.161 0 0 1 0-2.323zm-9.29 0a1.161 1.161 0 1 1 0 2.323 1.161 1.161 0 0 1 0-2.323zm-9.291 0a1.161 1.161 0 1 1 0 2.323 1.161 1.161 0 0 1 0-2.323zm-9.29 0a1.161 1.161 0 1 1 0 2.323 1.161 1.161 0 0 1 0-2.323zm-9.29 0a1.161 1.161 0 1 1 0 2.323 1.161 1.161 0 0 1 0-2.323zm-9.291 0a1.161 1.161 0 1 1 0 2.323 1.161 1.161 0 0 1 0-2.323zm-9.29 0a1.161 1.161 0 1 1 0 2.323 1.161 1.161 0 0 1 0-2.323zm-9.29 0a1.161 1.161 0 1 1 0 2.323 1.161 1.161 0 0 1 0-2.323zm-9.291 0a1.161 1.161 0 1 1 0 2.323 1.161 1.161 0 0 1 0-2.323zM345.871 210a1.161 1.161 0 1 1 0 2.323 1.161 1.161 0 0 1 0-2.323zm-9.29 0a1.161 1.161 0 1 1 0 2.323 1.161 1.161 0 0 1 0-2.323zm-9.29 0a1.161 1.161 0 1 1 0 2.323 1.161 1.161 0 0 1 0-2.323zM318 210a1.161 1.161 0 1 1 0 2.323 1.161 1.161 0 0 1 0-2.323zm-9.29 0a1.161 1.161 0 1 1 0 2.323 1.161 1.161 0 0 1 0-2.323zm-9.29 0a1.161 1.161 0 1 1 0 2.323 1.161 1.161 0 0 1 0-2.323zm-9.291 0a1.161 1.161 0 1 1 0 2.323 1.161 1.161 0 0 1 0-2.323zm-9.29 0a1.161 1.161 0 1 1 0 2.323 1.161 1.161 0 0 1 0-2.323zm-9.29 0a1.161 1.161 0 1 1 0 2.323 1.161 1.161 0 0 1 0-2.323zm-9.29 0a1.161 1.161 0 1 1 0 2.323 1.161 1.161 0 0 1 0-2.323zm-9.291 0a1.161 1.161 0 1 1 0 2.323 1.161 1.161 0 0 1 0-2.323zm-9.29 0a1.161 1.161 0 1 1 0 2.323 1.161 1.161 0 0 1 0-2.323zm-9.29 0a1.161 1.161 0 1 1 0 2.323 1.161 1.161 0 0 1 0-2.323zm-9.291 0a1.161 1.161 0 1 1 0 2.323 1.161 1.161 0 0 1 0-2.323zm-9.29 0a1.161 1.161 0 1 1 0 2.323 1.161 1.161 0 0 1 0-2.323zm-9.29 0a1.161 1.161 0 1 1 0 2.323 1.161 1.161 0 0 1 0-2.323zm-9.291 0a1.161 1.161 0 1 1 0 2.323 1.161 1.161 0 0 1 0-2.323zm-9.29 0a1.161 1.161 0 1 1 0 2.323 1.161 1.161 0 0 1 0-2.323zm-9.29 0a1.161 1.161 0 1 1 0 2.323 1.161 1.161 0 0 1 0-2.323zm-9.291 0a1.161 1.161 0 1 1 0 2.323 1.161 1.161 0 0 1 0-2.323zm-9.29 0a1.161 1.161 0 1 1 0 2.323 1.161 1.161 0 0 1 0-2.323zm-9.29 0a1.161 1.161 0 1 1 0 2.323 1.161 1.161 0 0 1 0-2.323zm-9.291 0a1.161 1.161 0 1 1 0 2.323 1.161 1.161 0 0 1 0-2.323zm-9.29 0a1.161 1.161 0 1 1 0 2.323 1.161 1.161 0 0 1 0-2.323zm-9.29 0a1.161 1.161 0 1 1 0 2.323 1.161 1.161 0 0 1 0-2.323zm-9.291 0a1.161 1.161 0 1 1 0 2.323 1.161 1.161 0 0 1 0-2.323zm-9.29 0a1.161 1.161 0 1 1 0 2.323 1.161 1.161 0 0 1 0-2.323zm-9.29 0a1.161 1.161 0 1 1 0 2.323 1.161 1.161 0 0 1 0-2.323zm-9.291 0a1.161 1.161 0 1 1 0 2.323 1.161 1.161 0 0 1 0-2.323zm-9.29 0a1.161 1.161 0 1 1 0 2.323 1.161 1.161 0 0 1 0-2.323zm-9.29 0a1.161 1.161 0 1 1 0 2.323 1.161 1.161 0 0 1 0-2.323zm-9.291 0a1.161 1.161 0 1 1 0 2.323 1.161 1.161 0 0 1 0-2.323zm-9.29 0a1.161 1.161 0 1 1 0 2.323 1.161 1.161 0 0 1 0-2.323zm-9.29 0a1.161 1.161 0 1 1 0 2.323 1.161 1.161 0 0 1 0-2.323zM30 210a1.161 1.161 0 1 1 0 2.323A1.161 1.161 0 0 1 30 210zm-9.29 0a1.161 1.161 0 1 1 0 2.323 1.161 1.161 0 0 1 0-2.323zm-9.29 0a1.161 1.161 0 1 1 0 2.323 1.161 1.161 0 0 1 0-2.323zm-9.291 0a1.161 1.161 0 1 1 0 2.323 1.161 1.161 0 0 1 0-2.323zm343.742-8.129a1.161 1.161 0 1 1 0 2.323 1.161 1.161 0 0 1 0-2.323zm-9.29 0a1.161 1.161 0 1 1 0 2.323 1.161 1.161 0 0 1 0-2.323zm-9.29 0a1.161 1.161 0 1 1 0 2.323 1.161 1.161 0 0 1 0-2.323zm-9.291 0a1.161 1.161 0 1 1 0 2.323 1.161 1.161 0 0 1 0-2.323zm-9.29 0a1.161 1.161 0 1 1 0 2.323 1.161 1.161 0 0 1 0-2.323zm-9.29 0a1.161 1.161 0 1 1 0 2.323 1.161 1.161 0 0 1 0-2.323zm-9.291 0a1.161 1.161 0 1 1 0 2.323 1.161 1.161 0 0 1 0-2.323zm-9.29 0a1.161 1.161 0 1 1 0 2.323 1.161 1.161 0 0 1 0-2.323zm-9.29 0a1.161 1.161 0 1 1 0 2.323 1.161 1.161 0 0 1 0-2.323zm-9.29 0a1.161 1.161 0 1 1 0 2.323 1.161 1.161 0 0 1 0-2.323zm-9.291 0a1.161 1.161 0 1 1 0 2.323 1.161 1.161 0 0 1 0-2.323zm-9.29 0a1.161 1.161 0 1 1 0 2.323 1.161 1.161 0 0 1 0-2.323zm-9.29 0a1.161 1.161 0 1 1 0 2.323 1.161 1.161 0 0 1 0-2.323zm-9.291 0a1.161 1.161 0 1 1 0 2.323 1.161 1.161 0 0 1 0-2.323zm-9.29 0a1.161 1.161 0 1 1 0 2.323 1.161 1.161 0 0 1 0-2.323zm-9.29 0a1.161 1.161 0 1 1 0 2.323 1.161 1.161 0 0 1 0-2.323zm-9.291 0a1.161 1.161 0 1 1 0 2.323 1.161 1.161 0 0 1 0-2.323zm-9.29 0a1.161 1.161 0 1 1 0 2.323 1.161 1.161 0 0 1 0-2.323zm-9.29 0a1.161 1.161 0 1 1 0 2.323 1.161 1.161 0 0 1 0-2.323zm-9.291 0a1.161 1.161 0 1 1 0 2.323 1.161 1.161 0 0 1 0-2.323zm-9.29 0a1.161 1.161 0 1 1 0 2.323 1.161 1.161 0 0 1 0-2.323zm-9.29 0a1.161 1.161 0 1 1 0 2.323 1.161 1.161 0 0 1 0-2.323zm-9.291 0a1.161 1.161 0 1 1 0 2.323 1.161 1.161 0 0 1 0-2.323zm-9.29 0a1.161 1.161 0 1 1 0 2.323 1.161 1.161 0 0 1 0-2.323zm-9.29 0a1.161 1.161 0 1 1 0 2.323 1.161 1.161 0 0 1 0-2.323zm-9.291 0a1.161 1.161 0 1 1 0 2.323 1.161 1.161 0 0 1 0-2.323zm-9.29 0a1.161 1.161 0 1 1 0 2.323 1.161 1.161 0 0 1 0-2.323zm-9.29 0a1.161 1.161 0 1 1 0 2.323 1.161 1.161 0 0 1 0-2.323zm-9.291 0a1.161 1.161 0 1 1 0 2.323 1.161 1.161 0 0 1 0-2.323zm-9.29 0a1.161 1.161 0 1 1 0 2.323 1.161 1.161 0 0 1 0-2.323zm-9.29 0a1.161 1.161 0 1 1 0 2.323 1.161 1.161 0 0 1 0-2.323zm-9.291 0a1.161 1.161 0 1 1 0 2.323 1.161 1.161 0 0 1 0-2.323zm-9.29 0a1.161 1.161 0 1 1 0 2.323 1.161 1.161 0 0 1 0-2.323zm-9.29 0a1.161 1.161 0 1 1 0 2.323 1.161 1.161 0 0 1 0-2.323zm-9.291 0a1.161 1.161 0 1 1 0 2.323 1.161 1.161 0 0 1 0-2.323zm-9.29 0a1.161 1.161 0 1 1 0 2.323 1.161 1.161 0 0 1 0-2.323zm-9.29 0a1.161 1.161 0 1 1 0 2.323 1.161 1.161 0 0 1 0-2.323zm-9.291 0a1.161 1.161 0 1 1 0 2.323 1.161 1.161 0 0 1 0-2.323zm343.742-8.13a1.161 1.161 0 1 1 0 2.324 1.161 1.161 0 0 1 0-2.323zm-9.29 0a1.161 1.161 0 1 1 0 2.324 1.161 1.161 0 0 1 0-2.323zm-9.29 0a1.161 1.161 0 1 1 0 2.324 1.161 1.161 0 0 1 0-2.323zm-9.291 0a1.161 1.161 0 1 1 0 2.324 1.161 1.161 0 0 1 0-2.323zm-9.29 0a1.161 1.161 0 1 1 0 2.324 1.161 1.161 0 0 1 0-2.323zm-9.29 0a1.161 1.161 0 1 1 0 2.324 1.161 1.161 0 0 1 0-2.323zm-9.291 0a1.161 1.161 0 1 1 0 2.324 1.161 1.161 0 0 1 0-2.323zm-9.29 0a1.161 1.161 0 1 1 0 2.324 1.161 1.161 0 0 1 0-2.323zm-9.29 0a1.161 1.161 0 1 1 0 2.324 1.161 1.161 0 0 1 0-2.323zm-9.29 0a1.161 1.161 0 1 1 0 2.324 1.161 1.161 0 0 1 0-2.323zm-9.291 0a1.161 1.161 0 1 1 0 2.324 1.161 1.161 0 0 1 0-2.323zm-9.29 0a1.161 1.161 0 1 1 0 2.324 1.161 1.161 0 0 1 0-2.323zm-9.29 0a1.161 1.161 0 1 1 0 2.324 1.161 1.161 0 0 1 0-2.323zm-9.291 0a1.161 1.161 0 1 1 0 2.324 1.161 1.161 0 0 1 0-2.323zm-9.29 0a1.161 1.161 0 1 1 0 2.324 1.161 1.161 0 0 1 0-2.323zm-9.29 0a1.161 1.161 0 1 1 0 2.324 1.161 1.161 0 0 1 0-2.323zm-9.291 0a1.161 1.161 0 1 1 0 2.324 1.161 1.161 0 0 1 0-2.323zm-9.29 0a1.161 1.161 0 1 1 0 2.324 1.161 1.161 0 0 1 0-2.323zm-9.29 0a1.161 1.161 0 1 1 0 2.324 1.161 1.161 0 0 1 0-2.323zm-9.291 0a1.161 1.161 0 1 1 0 2.324 1.161 1.161 0 0 1 0-2.323zm-9.29 0a1.161 1.161 0 1 1 0 2.324 1.161 1.161 0 0 1 0-2.323zm-9.29 0a1.161 1.161 0 1 1 0 2.324 1.161 1.161 0 0 1 0-2.323zm-9.291 0a1.161 1.161 0 1 1 0 2.324 1.161 1.161 0 0 1 0-2.323zm-9.29 0a1.161 1.161 0 1 1 0 2.324 1.161 1.161 0 0 1 0-2.323zm-9.29 0a1.161 1.161 0 1 1 0 2.324 1.161 1.161 0 0 1 0-2.323zm-9.291 0a1.161 1.161 0 1 1 0 2.324 1.161 1.161 0 0 1 0-2.323zm-9.29 0a1.161 1.161 0 1 1 0 2.324 1.161 1.161 0 0 1 0-2.323zm-9.29 0a1.161 1.161 0 1 1 0 2.324 1.161 1.161 0 0 1 0-2.323zm-9.291 0a1.161 1.161 0 1 1 0 2.324 1.161 1.161 0 0 1 0-2.323zm-9.29 0a1.161 1.161 0 1 1 0 2.324 1.161 1.161 0 0 1 0-2.323zm-9.29 0a1.161 1.161 0 1 1 0 2.324 1.161 1.161 0 0 1 0-2.323zm-9.291 0a1.161 1.161 0 1 1 0 2.324 1.161 1.161 0 0 1 0-2.323zm-9.29 0a1.161 1.161 0 1 1 0 2.324 1.161 1.161 0 0 1 0-2.323zm-9.29 0a1.161 1.161 0 1 1 0 2.324 1.161 1.161 0 0 1 0-2.323zm-9.291 0a1.161 1.161 0 1 1 0 2.324 1.161 1.161 0 0 1 0-2.323zm-9.29 0a1.161 1.161 0 1 1 0 2.324 1.161 1.161 0 0 1 0-2.323zm-9.29 0a1.161 1.161 0 1 1 0 2.324 1.161 1.161 0 0 1 0-2.323zm-9.291 0a1.161 1.161 0 1 1 0 2.324 1.161 1.161 0 0 1 0-2.323zm343.742-8.128a1.161 1.161 0 1 1 0 2.322 1.161 1.161 0 0 1 0-2.322zm-9.29 0a1.161 1.161 0 1 1 0 2.322 1.161 1.161 0 0 1 0-2.322zm-9.29 0a1.161 1.161 0 1 1 0 2.322 1.161 1.161 0 0 1 0-2.322zm-9.291 0a1.161 1.161 0 1 1 0 2.322 1.161 1.161 0 0 1 0-2.322zm-9.29 0a1.161 1.161 0 1 1 0 2.322 1.161 1.161 0 0 1 0-2.322zm-9.29 0a1.161 1.161 0 1 1 0 2.322 1.161 1.161 0 0 1 0-2.322zm-9.291 0a1.161 1.161 0 1 1 0 2.322 1.161 1.161 0 0 1 0-2.322zm-9.29 0a1.161 1.161 0 1 1 0 2.322 1.161 1.161 0 0 1 0-2.322zm-9.29 0a1.161 1.161 0 1 1 0 2.322 1.161 1.161 0 0 1 0-2.322zm-9.29 0a1.161 1.161 0 1 1 0 2.322 1.161 1.161 0 0 1 0-2.322zm-9.291 0a1.161 1.161 0 1 1 0 2.322 1.161 1.161 0 0 1 0-2.322zm-9.29 0a1.161 1.161 0 1 1 0 2.322 1.161 1.161 0 0 1 0-2.322zm-9.29 0a1.161 1.161 0 1 1 0 2.322 1.161 1.161 0 0 1 0-2.322zm-9.291 0a1.161 1.161 0 1 1 0 2.322 1.161 1.161 0 0 1 0-2.322zm-9.29 0a1.161 1.161 0 1 1 0 2.322 1.161 1.161 0 0 1 0-2.322zm-9.29 0a1.161 1.161 0 1 1 0 2.322 1.161 1.161 0 0 1 0-2.322zm-9.291 0a1.161 1.161 0 1 1 0 2.322 1.161 1.161 0 0 1 0-2.322zm-9.29 0a1.161 1.161 0 1 1 0 2.322 1.161 1.161 0 0 1 0-2.322zm-9.29 0a1.161 1.161 0 1 1 0 2.322 1.161 1.161 0 0 1 0-2.322zm-9.291 0a1.161 1.161 0 1 1 0 2.322 1.161 1.161 0 0 1 0-2.322zm-9.29 0a1.161 1.161 0 1 1 0 2.322 1.161 1.161 0 0 1 0-2.322zm-9.29 0a1.161 1.161 0 1 1 0 2.322 1.161 1.161 0 0 1 0-2.322zm-9.291 0a1.161 1.161 0 1 1 0 2.322 1.161 1.161 0 0 1 0-2.322zm-9.29 0a1.161 1.161 0 1 1 0 2.322 1.161 1.161 0 0 1 0-2.322zm-9.29 0a1.161 1.161 0 1 1 0 2.322 1.161 1.161 0 0 1 0-2.322zm-9.291 0a1.161 1.161 0 1 1 0 2.322 1.161 1.161 0 0 1 0-2.322zm-9.29 0a1.161 1.161 0 1 1 0 2.322 1.161 1.161 0 0 1 0-2.322zm-9.29 0a1.161 1.161 0 1 1 0 2.322 1.161 1.161 0 0 1 0-2.322zm-9.291 0a1.161 1.161 0 1 1 0 2.322 1.161 1.161 0 0 1 0-2.322zm-9.29 0a1.161 1.161 0 1 1 0 2.322 1.161 1.161 0 0 1 0-2.322zm-9.29 0a1.161 1.161 0 1 1 0 2.322 1.161 1.161 0 0 1 0-2.322zm-9.291 0a1.161 1.161 0 1 1 0 2.322 1.161 1.161 0 0 1 0-2.322zm-9.29 0a1.161 1.161 0 1 1 0 2.322 1.161 1.161 0 0 1 0-2.322zm-9.29 0a1.161 1.161 0 1 1 0 2.322 1.161 1.161 0 0 1 0-2.322zm-9.291 0a1.161 1.161 0 1 1 0 2.322 1.161 1.161 0 0 1 0-2.322zm-9.29 0a1.161 1.161 0 1 1 0 2.322 1.161 1.161 0 0 1 0-2.322zm-9.29 0a1.161 1.161 0 1 1 0 2.322 1.161 1.161 0 0 1 0-2.322zm-9.291 0a1.161 1.161 0 1 1 0 2.322 1.161 1.161 0 0 1 0-2.322zm343.742-8.13a1.161 1.161 0 1 1 0 2.323 1.161 1.161 0 0 1 0-2.322zm-9.29 0a1.161 1.161 0 1 1 0 2.323 1.161 1.161 0 0 1 0-2.322zm-9.29 0a1.161 1.161 0 1 1 0 2.323 1.161 1.161 0 0 1 0-2.322zm-9.291 0a1.161 1.161 0 1 1 0 2.323 1.161 1.161 0 0 1 0-2.322zm-9.29 0a1.161 1.161 0 1 1 0 2.323 1.161 1.161 0 0 1 0-2.322zm-9.29 0a1.161 1.161 0 1 1 0 2.323 1.161 1.161 0 0 1 0-2.322zm-9.291 0a1.161 1.161 0 1 1 0 2.323 1.161 1.161 0 0 1 0-2.322zm-9.29 0a1.161 1.161 0 1 1 0 2.323 1.161 1.161 0 0 1 0-2.322zm-9.29 0a1.161 1.161 0 1 1 0 2.323 1.161 1.161 0 0 1 0-2.322zm-9.29 0a1.161 1.161 0 1 1 0 2.323 1.161 1.161 0 0 1 0-2.322zm-9.291 0a1.161 1.161 0 1 1 0 2.323 1.161 1.161 0 0 1 0-2.322zm-9.29 0a1.161 1.161 0 1 1 0 2.323 1.161 1.161 0 0 1 0-2.322zm-9.29 0a1.161 1.161 0 1 1 0 2.323 1.161 1.161 0 0 1 0-2.322zm-9.291 0a1.161 1.161 0 1 1 0 2.323 1.161 1.161 0 0 1 0-2.322zm-9.29 0a1.161 1.161 0 1 1 0 2.323 1.161 1.161 0 0 1 0-2.322zm-9.29 0a1.161 1.161 0 1 1 0 2.323 1.161 1.161 0 0 1 0-2.322zm-9.291 0a1.161 1.161 0 1 1 0 2.323 1.161 1.161 0 0 1 0-2.322zm-9.29 0a1.161 1.161 0 1 1 0 2.323 1.161 1.161 0 0 1 0-2.322zm-9.29 0a1.161 1.161 0 1 1 0 2.323 1.161 1.161 0 0 1 0-2.322zm-9.291 0a1.161 1.161 0 1 1 0 2.323 1.161 1.161 0 0 1 0-2.322zm-9.29 0a1.161 1.161 0 1 1 0 2.323 1.161 1.161 0 0 1 0-2.322zm-9.29 0a1.161 1.161 0 1 1 0 2.323 1.161 1.161 0 0 1 0-2.322zm-9.291 0a1.161 1.161 0 1 1 0 2.323 1.161 1.161 0 0 1 0-2.322zm-9.29 0a1.161 1.161 0 1 1 0 2.323 1.161 1.161 0 0 1 0-2.322zm-9.29 0a1.161 1.161 0 1 1 0 2.323 1.161 1.161 0 0 1 0-2.322zm-9.291 0a1.161 1.161 0 1 1 0 2.323 1.161 1.161 0 0 1 0-2.322zm-9.29 0a1.161 1.161 0 1 1 0 2.323 1.161 1.161 0 0 1 0-2.322zm-9.29 0a1.161 1.161 0 1 1 0 2.323 1.161 1.161 0 0 1 0-2.322zm-9.291 0a1.161 1.161 0 1 1 0 2.323 1.161 1.161 0 0 1 0-2.322zm-9.29 0a1.161 1.161 0 1 1 0 2.323 1.161 1.161 0 0 1 0-2.322zm-9.29 0a1.161 1.161 0 1 1 0 2.323 1.161 1.161 0 0 1 0-2.322zm-9.291 0a1.161 1.161 0 1 1 0 2.323 1.161 1.161 0 0 1 0-2.322zm-9.29 0a1.161 1.161 0 1 1 0 2.323 1.161 1.161 0 0 1 0-2.322zm-9.29 0a1.161 1.161 0 1 1 0 2.323 1.161 1.161 0 0 1 0-2.322zm-9.291 0a1.161 1.161 0 1 1 0 2.323 1.161 1.161 0 0 1 0-2.322zm-9.29 0a1.161 1.161 0 1 1 0 2.323 1.161 1.161 0 0 1 0-2.322zm-9.29 0a1.161 1.161 0 1 1 0 2.323 1.161 1.161 0 0 1 0-2.322zm-9.291 0a1.161 1.161 0 1 1 0 2.323 1.161 1.161 0 0 1 0-2.322zm343.742-9.29a1.161 1.161 0 1 1 0 2.323 1.161 1.161 0 0 1 0-2.322zm-9.29 0a1.161 1.161 0 1 1 0 2.323 1.161 1.161 0 0 1 0-2.322zm-9.29 0a1.161 1.161 0 1 1 0 2.323 1.161 1.161 0 0 1 0-2.322zm-9.291 0a1.161 1.161 0 1 1 0 2.323 1.161 1.161 0 0 1 0-2.322zm-9.29 0a1.161 1.161 0 1 1 0 2.323 1.161 1.161 0 0 1 0-2.322zm-9.29 0a1.161 1.161 0 1 1 0 2.323 1.161 1.161 0 0 1 0-2.322zm-9.291 0a1.161 1.161 0 1 1 0 2.323 1.161 1.161 0 0 1 0-2.322zm-9.29 0a1.161 1.161 0 1 1 0 2.323 1.161 1.161 0 0 1 0-2.322zm-9.29 0a1.161 1.161 0 1 1 0 2.323 1.161 1.161 0 0 1 0-2.322zm-9.29 0a1.161 1.161 0 1 1 0 2.323 1.161 1.161 0 0 1 0-2.322zm-9.291 0a1.161 1.161 0 1 1 0 2.323 1.161 1.161 0 0 1 0-2.322zm-9.29 0a1.161 1.161 0 1 1 0 2.323 1.161 1.161 0 0 1 0-2.322zm-9.29 0a1.161 1.161 0 1 1 0 2.323 1.161 1.161 0 0 1 0-2.322zm-9.291 0a1.161 1.161 0 1 1 0 2.323 1.161 1.161 0 0 1 0-2.322zm-9.29 0a1.161 1.161 0 1 1 0 2.323 1.161 1.161 0 0 1 0-2.322zm-9.29 0a1.161 1.161 0 1 1 0 2.323 1.161 1.161 0 0 1 0-2.322zm-9.291 0a1.161 1.161 0 1 1 0 2.323 1.161 1.161 0 0 1 0-2.322zm-9.29 0a1.161 1.161 0 1 1 0 2.323 1.161 1.161 0 0 1 0-2.322zm-9.29 0a1.161 1.161 0 1 1 0 2.323 1.161 1.161 0 0 1 0-2.322zm-9.291 0a1.161 1.161 0 1 1 0 2.323 1.161 1.161 0 0 1 0-2.322zm-9.29 0a1.161 1.161 0 1 1 0 2.323 1.161 1.161 0 0 1 0-2.322zm-9.29 0a1.161 1.161 0 1 1 0 2.323 1.161 1.161 0 0 1 0-2.322zm-9.291 0a1.161 1.161 0 1 1 0 2.323 1.161 1.161 0 0 1 0-2.322zm-9.29 0a1.161 1.161 0 1 1 0 2.323 1.161 1.161 0 0 1 0-2.322zm-9.29 0a1.161 1.161 0 1 1 0 2.323 1.161 1.161 0 0 1 0-2.322zm-9.291 0a1.161 1.161 0 1 1 0 2.323 1.161 1.161 0 0 1 0-2.322zm-9.29 0a1.161 1.161 0 1 1 0 2.323 1.161 1.161 0 0 1 0-2.322zm-9.29 0a1.161 1.161 0 1 1 0 2.323 1.161 1.161 0 0 1 0-2.322zm-9.291 0a1.161 1.161 0 1 1 0 2.323 1.161 1.161 0 0 1 0-2.322zm-9.29 0a1.161 1.161 0 1 1 0 2.323 1.161 1.161 0 0 1 0-2.322zm-9.29 0a1.161 1.161 0 1 1 0 2.323 1.161 1.161 0 0 1 0-2.322zm-9.291 0a1.161 1.161 0 1 1 0 2.323 1.161 1.161 0 0 1 0-2.322zm-9.29 0a1.161 1.161 0 1 1 0 2.323 1.161 1.161 0 0 1 0-2.322zm-9.29 0a1.161 1.161 0 1 1 0 2.323 1.161 1.161 0 0 1 0-2.322zm-9.291 0a1.161 1.161 0 1 1 0 2.323 1.161 1.161 0 0 1 0-2.322zm-9.29 0a1.161 1.161 0 1 1 0 2.323 1.161 1.161 0 0 1 0-2.322zm-9.29 0a1.161 1.161 0 1 1 0 2.323 1.161 1.161 0 0 1 0-2.322zm-9.291 0a1.161 1.161 0 1 1 0 2.323 1.161 1.161 0 0 1 0-2.322zm343.742-9.29a1.161 1.161 0 1 1 0 2.323 1.161 1.161 0 0 1 0-2.323zm-9.29 0a1.161 1.161 0 1 1 0 2.323 1.161 1.161 0 0 1 0-2.323zm-9.29 0a1.161 1.161 0 1 1 0 2.323 1.161 1.161 0 0 1 0-2.323zm-9.291 0a1.161 1.161 0 1 1 0 2.323 1.161 1.161 0 0 1 0-2.323zm-9.29 0a1.161 1.161 0 1 1 0 2.323 1.161 1.161 0 0 1 0-2.323zm-9.29 0a1.161 1.161 0 1 1 0 2.323 1.161 1.161 0 0 1 0-2.323zm-9.291 0a1.161 1.161 0 1 1 0 2.323 1.161 1.161 0 0 1 0-2.323zm-9.29 0a1.161 1.161 0 1 1 0 2.323 1.161 1.161 0 0 1 0-2.323zm-9.29 0a1.161 1.161 0 1 1 0 2.323 1.161 1.161 0 0 1 0-2.323zm-9.29 0a1.161 1.161 0 1 1 0 2.323 1.161 1.161 0 0 1 0-2.323zm-9.291 0a1.161 1.161 0 1 1 0 2.323 1.161 1.161 0 0 1 0-2.323zm-9.29 0a1.161 1.161 0 1 1 0 2.323 1.161 1.161 0 0 1 0-2.323zm-9.29 0a1.161 1.161 0 1 1 0 2.323 1.161 1.161 0 0 1 0-2.323zm-9.291 0a1.161 1.161 0 1 1 0 2.323 1.161 1.161 0 0 1 0-2.323zm-9.29 0a1.161 1.161 0 1 1 0 2.323 1.161 1.161 0 0 1 0-2.323zm-9.29 0a1.161 1.161 0 1 1 0 2.323 1.161 1.161 0 0 1 0-2.323zm-9.291 0a1.161 1.161 0 1 1 0 2.323 1.161 1.161 0 0 1 0-2.323zm-9.29 0a1.161 1.161 0 1 1 0 2.323 1.161 1.161 0 0 1 0-2.323zm-9.29 0a1.161 1.161 0 1 1 0 2.323 1.161 1.161 0 0 1 0-2.323zm-9.291 0a1.161 1.161 0 1 1 0 2.323 1.161 1.161 0 0 1 0-2.323zm-9.29 0a1.161 1.161 0 1 1 0 2.323 1.161 1.161 0 0 1 0-2.323zm-9.29 0a1.161 1.161 0 1 1 0 2.323 1.161 1.161 0 0 1 0-2.323zm-9.291 0a1.161 1.161 0 1 1 0 2.323 1.161 1.161 0 0 1 0-2.323zm-9.29 0a1.161 1.161 0 1 1 0 2.323 1.161 1.161 0 0 1 0-2.323zm-9.29 0a1.161 1.161 0 1 1 0 2.323 1.161 1.161 0 0 1 0-2.323zm-9.291 0a1.161 1.161 0 1 1 0 2.323 1.161 1.161 0 0 1 0-2.323zm-9.29 0a1.161 1.161 0 1 1 0 2.323 1.161 1.161 0 0 1 0-2.323zm-9.29 0a1.161 1.161 0 1 1 0 2.323 1.161 1.161 0 0 1 0-2.323zm-9.291 0a1.161 1.161 0 1 1 0 2.323 1.161 1.161 0 0 1 0-2.323zm-9.29 0a1.161 1.161 0 1 1 0 2.323 1.161 1.161 0 0 1 0-2.323zm-9.29 0a1.161 1.161 0 1 1 0 2.323 1.161 1.161 0 0 1 0-2.323zm-9.291 0a1.161 1.161 0 1 1 0 2.323 1.161 1.161 0 0 1 0-2.323zm-9.29 0a1.161 1.161 0 1 1 0 2.323 1.161 1.161 0 0 1 0-2.323zm-9.29 0a1.161 1.161 0 1 1 0 2.323 1.161 1.161 0 0 1 0-2.323zm-9.291 0a1.161 1.161 0 1 1 0 2.323 1.161 1.161 0 0 1 0-2.323zm-9.29 0a1.161 1.161 0 1 1 0 2.323 1.161 1.161 0 0 1 0-2.323zm-9.29 0a1.161 1.161 0 1 1 0 2.323 1.161 1.161 0 0 1 0-2.323zm-9.291 0a1.161 1.161 0 1 1 0 2.323 1.161 1.161 0 0 1 0-2.323zm343.742-9.29a1.161 1.161 0 1 1 0 2.322 1.161 1.161 0 0 1 0-2.322zm-9.29 0a1.161 1.161 0 1 1 0 2.322 1.161 1.161 0 0 1 0-2.322zm-9.29 0a1.161 1.161 0 1 1 0 2.322 1.161 1.161 0 0 1 0-2.322zm-9.291 0a1.161 1.161 0 1 1 0 2.322 1.161 1.161 0 0 1 0-2.322zm-9.29 0a1.161 1.161 0 1 1 0 2.322 1.161 1.161 0 0 1 0-2.322zm-9.29 0a1.161 1.161 0 1 1 0 2.322 1.161 1.161 0 0 1 0-2.322zm-9.291 0a1.161 1.161 0 1 1 0 2.322 1.161 1.161 0 0 1 0-2.322zm-9.29 0a1.161 1.161 0 1 1 0 2.322 1.161 1.161 0 0 1 0-2.322zm-9.29 0a1.161 1.161 0 1 1 0 2.322 1.161 1.161 0 0 1 0-2.322zm-9.29 0a1.161 1.161 0 1 1 0 2.322 1.161 1.161 0 0 1 0-2.322zm-9.291 0a1.161 1.161 0 1 1 0 2.322 1.161 1.161 0 0 1 0-2.322zm-9.29 0a1.161 1.161 0 1 1 0 2.322 1.161 1.161 0 0 1 0-2.322zm-9.29 0a1.161 1.161 0 1 1 0 2.322 1.161 1.161 0 0 1 0-2.322zm-9.291 0a1.161 1.161 0 1 1 0 2.322 1.161 1.161 0 0 1 0-2.322zm-9.29 0a1.161 1.161 0 1 1 0 2.322 1.161 1.161 0 0 1 0-2.322zm-9.29 0a1.161 1.161 0 1 1 0 2.322 1.161 1.161 0 0 1 0-2.322zm-9.291 0a1.161 1.161 0 1 1 0 2.322 1.161 1.161 0 0 1 0-2.322zm-9.29 0a1.161 1.161 0 1 1 0 2.322 1.161 1.161 0 0 1 0-2.322zm-9.29 0a1.161 1.161 0 1 1 0 2.322 1.161 1.161 0 0 1 0-2.322zm-9.291 0a1.161 1.161 0 1 1 0 2.322 1.161 1.161 0 0 1 0-2.322zm-9.29 0a1.161 1.161 0 1 1 0 2.322 1.161 1.161 0 0 1 0-2.322zm-9.29 0a1.161 1.161 0 1 1 0 2.322 1.161 1.161 0 0 1 0-2.322zm-9.291 0a1.161 1.161 0 1 1 0 2.322 1.161 1.161 0 0 1 0-2.322zm-9.29 0a1.161 1.161 0 1 1 0 2.322 1.161 1.161 0 0 1 0-2.322zm-9.29 0a1.161 1.161 0 1 1 0 2.322 1.161 1.161 0 0 1 0-2.322zm-9.291 0a1.161 1.161 0 1 1 0 2.322 1.161 1.161 0 0 1 0-2.322zm-9.29 0a1.161 1.161 0 1 1 0 2.322 1.161 1.161 0 0 1 0-2.322zm-9.29 0a1.161 1.161 0 1 1 0 2.322 1.161 1.161 0 0 1 0-2.322zm-9.291 0a1.161 1.161 0 1 1 0 2.322 1.161 1.161 0 0 1 0-2.322zm-9.29 0a1.161 1.161 0 1 1 0 2.322 1.161 1.161 0 0 1 0-2.322zm-9.29 0a1.161 1.161 0 1 1 0 2.322 1.161 1.161 0 0 1 0-2.322zm-9.291 0a1.161 1.161 0 1 1 0 2.322 1.161 1.161 0 0 1 0-2.322zm-9.29 0a1.161 1.161 0 1 1 0 2.322 1.161 1.161 0 0 1 0-2.322zm-9.29 0a1.161 1.161 0 1 1 0 2.322 1.161 1.161 0 0 1 0-2.322zm-9.291 0a1.161 1.161 0 1 1 0 2.322 1.161 1.161 0 0 1 0-2.322zm-9.29 0a1.161 1.161 0 1 1 0 2.322 1.161 1.161 0 0 1 0-2.322zm-9.29 0a1.161 1.161 0 1 1 0 2.322 1.161 1.161 0 0 1 0-2.322zm-9.291 0a1.161 1.161 0 1 1 0 2.322 1.161 1.161 0 0 1 0-2.322zm343.742-9.29a1.161 1.161 0 1 1 0 2.322 1.161 1.161 0 0 1 0-2.322zm-9.29 0a1.161 1.161 0 1 1 0 2.322 1.161 1.161 0 0 1 0-2.322zm-9.29 0a1.161 1.161 0 1 1 0 2.322 1.161 1.161 0 0 1 0-2.322zm-9.291 0a1.161 1.161 0 1 1 0 2.322 1.161 1.161 0 0 1 0-2.322zm-9.29 0a1.161 1.161 0 1 1 0 2.322 1.161 1.161 0 0 1 0-2.322zm-9.29 0a1.161 1.161 0 1 1 0 2.322 1.161 1.161 0 0 1 0-2.322zm-9.291 0a1.161 1.161 0 1 1 0 2.322 1.161 1.161 0 0 1 0-2.322zm-9.29 0a1.161 1.161 0 1 1 0 2.322 1.161 1.161 0 0 1 0-2.322zm-9.29 0a1.161 1.161 0 1 1 0 2.322 1.161 1.161 0 0 1 0-2.322zm-9.29 0a1.161 1.161 0 1 1 0 2.322 1.161 1.161 0 0 1 0-2.322zm-9.291 0a1.161 1.161 0 1 1 0 2.322 1.161 1.161 0 0 1 0-2.322zm-9.29 0a1.161 1.161 0 1 1 0 2.322 1.161 1.161 0 0 1 0-2.322zm-9.29 0a1.161 1.161 0 1 1 0 2.322 1.161 1.161 0 0 1 0-2.322zm-9.291 0a1.161 1.161 0 1 1 0 2.322 1.161 1.161 0 0 1 0-2.322zm-9.29 0a1.161 1.161 0 1 1 0 2.322 1.161 1.161 0 0 1 0-2.322zm-9.29 0a1.161 1.161 0 1 1 0 2.322 1.161 1.161 0 0 1 0-2.322zm-9.291 0a1.161 1.161 0 1 1 0 2.322 1.161 1.161 0 0 1 0-2.322zm-9.29 0a1.161 1.161 0 1 1 0 2.322 1.161 1.161 0 0 1 0-2.322zm-9.29 0a1.161 1.161 0 1 1 0 2.322 1.161 1.161 0 0 1 0-2.322zm-9.291 0a1.161 1.161 0 1 1 0 2.322 1.161 1.161 0 0 1 0-2.322zm-9.29 0a1.161 1.161 0 1 1 0 2.322 1.161 1.161 0 0 1 0-2.322zm-9.29 0a1.161 1.161 0 1 1 0 2.322 1.161 1.161 0 0 1 0-2.322zm-9.291 0a1.161 1.161 0 1 1 0 2.322 1.161 1.161 0 0 1 0-2.322zm-9.29 0a1.161 1.161 0 1 1 0 2.322 1.161 1.161 0 0 1 0-2.322zm-9.29 0a1.161 1.161 0 1 1 0 2.322 1.161 1.161 0 0 1 0-2.322zm-9.291 0a1.161 1.161 0 1 1 0 2.322 1.161 1.161 0 0 1 0-2.322zm-9.29 0a1.161 1.161 0 1 1 0 2.322 1.161 1.161 0 0 1 0-2.322zm-9.29 0a1.161 1.161 0 1 1 0 2.322 1.161 1.161 0 0 1 0-2.322zm-9.291 0a1.161 1.161 0 1 1 0 2.322 1.161 1.161 0 0 1 0-2.322zm-9.29 0a1.161 1.161 0 1 1 0 2.322 1.161 1.161 0 0 1 0-2.322zm-9.29 0a1.161 1.161 0 1 1 0 2.322 1.161 1.161 0 0 1 0-2.322zm-9.291 0a1.161 1.161 0 1 1 0 2.322 1.161 1.161 0 0 1 0-2.322zm-9.29 0a1.161 1.161 0 1 1 0 2.322 1.161 1.161 0 0 1 0-2.322zm-9.29 0a1.161 1.161 0 1 1 0 2.322 1.161 1.161 0 0 1 0-2.322zm-9.291 0a1.161 1.161 0 1 1 0 2.322 1.161 1.161 0 0 1 0-2.322zm-9.29 0a1.161 1.161 0 1 1 0 2.322 1.161 1.161 0 0 1 0-2.322zm-9.29 0a1.161 1.161 0 1 1 0 2.322 1.161 1.161 0 0 1 0-2.322zm-9.291 0a1.161 1.161 0 1 1 0 2.322 1.161 1.161 0 0 1 0-2.322zm343.742-9.29a1.161 1.161 0 1 1 0 2.322 1.161 1.161 0 0 1 0-2.323zm-9.29 0a1.161 1.161 0 1 1 0 2.322 1.161 1.161 0 0 1 0-2.323zm-9.29 0a1.161 1.161 0 1 1 0 2.322 1.161 1.161 0 0 1 0-2.323zm-9.291 0a1.161 1.161 0 1 1 0 2.322 1.161 1.161 0 0 1 0-2.323zm-9.29 0a1.161 1.161 0 1 1 0 2.322 1.161 1.161 0 0 1 0-2.323zm-9.29 0a1.161 1.161 0 1 1 0 2.322 1.161 1.161 0 0 1 0-2.323zm-9.291 0a1.161 1.161 0 1 1 0 2.322 1.161 1.161 0 0 1 0-2.323zm-9.29 0a1.161 1.161 0 1 1 0 2.322 1.161 1.161 0 0 1 0-2.323zm-9.29 0a1.161 1.161 0 1 1 0 2.322 1.161 1.161 0 0 1 0-2.323zm-9.29 0a1.161 1.161 0 1 1 0 2.322 1.161 1.161 0 0 1 0-2.323zm-9.291 0a1.161 1.161 0 1 1 0 2.322 1.161 1.161 0 0 1 0-2.323zm-9.29 0a1.161 1.161 0 1 1 0 2.322 1.161 1.161 0 0 1 0-2.323zm-9.29 0a1.161 1.161 0 1 1 0 2.322 1.161 1.161 0 0 1 0-2.323zm-9.291 0a1.161 1.161 0 1 1 0 2.322 1.161 1.161 0 0 1 0-2.323zm-9.29 0a1.161 1.161 0 1 1 0 2.322 1.161 1.161 0 0 1 0-2.323zm-9.29 0a1.161 1.161 0 1 1 0 2.322 1.161 1.161 0 0 1 0-2.323zm-9.291 0a1.161 1.161 0 1 1 0 2.322 1.161 1.161 0 0 1 0-2.323zm-9.29 0a1.161 1.161 0 1 1 0 2.322 1.161 1.161 0 0 1 0-2.323zm-9.29 0a1.161 1.161 0 1 1 0 2.322 1.161 1.161 0 0 1 0-2.323zm-9.291 0a1.161 1.161 0 1 1 0 2.322 1.161 1.161 0 0 1 0-2.323zm-9.29 0a1.161 1.161 0 1 1 0 2.322 1.161 1.161 0 0 1 0-2.323zm-9.29 0a1.161 1.161 0 1 1 0 2.322 1.161 1.161 0 0 1 0-2.323zm-9.291 0a1.161 1.161 0 1 1 0 2.322 1.161 1.161 0 0 1 0-2.323zm-9.29 0a1.161 1.161 0 1 1 0 2.322 1.161 1.161 0 0 1 0-2.323zm-9.29 0a1.161 1.161 0 1 1 0 2.322 1.161 1.161 0 0 1 0-2.323zm-9.291 0a1.161 1.161 0 1 1 0 2.322 1.161 1.161 0 0 1 0-2.323zm-9.29 0a1.161 1.161 0 1 1 0 2.322 1.161 1.161 0 0 1 0-2.323zm-9.29 0a1.161 1.161 0 1 1 0 2.322 1.161 1.161 0 0 1 0-2.323zm-9.291 0a1.161 1.161 0 1 1 0 2.322 1.161 1.161 0 0 1 0-2.323zm-9.29 0a1.161 1.161 0 1 1 0 2.322 1.161 1.161 0 0 1 0-2.323zm-9.29 0a1.161 1.161 0 1 1 0 2.322 1.161 1.161 0 0 1 0-2.323zm-9.291 0a1.161 1.161 0 1 1 0 2.322 1.161 1.161 0 0 1 0-2.323zm-9.29 0a1.161 1.161 0 1 1 0 2.322 1.161 1.161 0 0 1 0-2.323zm-9.29 0a1.161 1.161 0 1 1 0 2.322 1.161 1.161 0 0 1 0-2.323zm-9.291 0a1.161 1.161 0 1 1 0 2.322 1.161 1.161 0 0 1 0-2.323zm-9.29 0a1.161 1.161 0 1 1 0 2.322 1.161 1.161 0 0 1 0-2.323zm-9.29 0a1.161 1.161 0 1 1 0 2.322 1.161 1.161 0 0 1 0-2.323zm-9.291 0a1.161 1.161 0 1 1 0 2.322 1.161 1.161 0 0 1 0-2.323zm343.742-9.291a1.161 1.161 0 1 1 0 2.323 1.161 1.161 0 0 1 0-2.323zm-9.29 0a1.161 1.161 0 1 1 0 2.323 1.161 1.161 0 0 1 0-2.323zm-9.29 0a1.161 1.161 0 1 1 0 2.323 1.161 1.161 0 0 1 0-2.323zm-9.291 0a1.161 1.161 0 1 1 0 2.323 1.161 1.161 0 0 1 0-2.323zm-9.29 0a1.161 1.161 0 1 1 0 2.323 1.161 1.161 0 0 1 0-2.323zm-9.29 0a1.161 1.161 0 1 1 0 2.323 1.161 1.161 0 0 1 0-2.323zm-9.291 0a1.161 1.161 0 1 1 0 2.323 1.161 1.161 0 0 1 0-2.323zm-9.29 0a1.161 1.161 0 1 1 0 2.323 1.161 1.161 0 0 1 0-2.323zm-9.29 0a1.161 1.161 0 1 1 0 2.323 1.161 1.161 0 0 1 0-2.323zm-9.29 0a1.161 1.161 0 1 1 0 2.323 1.161 1.161 0 0 1 0-2.323zm-9.291 0a1.161 1.161 0 1 1 0 2.323 1.161 1.161 0 0 1 0-2.323zm-9.29 0a1.161 1.161 0 1 1 0 2.323 1.161 1.161 0 0 1 0-2.323zm-9.29 0a1.161 1.161 0 1 1 0 2.323 1.161 1.161 0 0 1 0-2.323zm-9.291 0a1.161 1.161 0 1 1 0 2.323 1.161 1.161 0 0 1 0-2.323zm-9.29 0a1.161 1.161 0 1 1 0 2.323 1.161 1.161 0 0 1 0-2.323zm-9.29 0a1.161 1.161 0 1 1 0 2.323 1.161 1.161 0 0 1 0-2.323zm-9.291 0a1.161 1.161 0 1 1 0 2.323 1.161 1.161 0 0 1 0-2.323zm-9.29 0a1.161 1.161 0 1 1 0 2.323 1.161 1.161 0 0 1 0-2.323zm-9.29 0a1.161 1.161 0 1 1 0 2.323 1.161 1.161 0 0 1 0-2.323zm-9.291 0a1.161 1.161 0 1 1 0 2.323 1.161 1.161 0 0 1 0-2.323zm-9.29 0a1.161 1.161 0 1 1 0 2.323 1.161 1.161 0 0 1 0-2.323zm-9.29 0a1.161 1.161 0 1 1 0 2.323 1.161 1.161 0 0 1 0-2.323zm-9.291 0a1.161 1.161 0 1 1 0 2.323 1.161 1.161 0 0 1 0-2.323zm-9.29 0a1.161 1.161 0 1 1 0 2.323 1.161 1.161 0 0 1 0-2.323zm-9.29 0a1.161 1.161 0 1 1 0 2.323 1.161 1.161 0 0 1 0-2.323zm-9.291 0a1.161 1.161 0 1 1 0 2.323 1.161 1.161 0 0 1 0-2.323zm-9.29 0a1.161 1.161 0 1 1 0 2.323 1.161 1.161 0 0 1 0-2.323zm-9.29 0a1.161 1.161 0 1 1 0 2.323 1.161 1.161 0 0 1 0-2.323zm-9.291 0a1.161 1.161 0 1 1 0 2.323 1.161 1.161 0 0 1 0-2.323zm-9.29 0a1.161 1.161 0 1 1 0 2.323 1.161 1.161 0 0 1 0-2.323zm-9.29 0a1.161 1.161 0 1 1 0 2.323 1.161 1.161 0 0 1 0-2.323zm-9.291 0a1.161 1.161 0 1 1 0 2.323 1.161 1.161 0 0 1 0-2.323zm-9.29 0a1.161 1.161 0 1 1 0 2.323 1.161 1.161 0 0 1 0-2.323zm-9.29 0a1.161 1.161 0 1 1 0 2.323 1.161 1.161 0 0 1 0-2.323zm-9.291 0a1.161 1.161 0 1 1 0 2.323 1.161 1.161 0 0 1 0-2.323zm-9.29 0a1.161 1.161 0 1 1 0 2.323 1.161 1.161 0 0 1 0-2.323zm-9.29 0a1.161 1.161 0 1 1 0 2.323 1.161 1.161 0 0 1 0-2.323zm-9.291 0a1.161 1.161 0 1 1 0 2.323 1.161 1.161 0 0 1 0-2.323zm343.742-9.29a1.161 1.161 0 1 1 0 2.322 1.161 1.161 0 0 1 0-2.322zm-9.29 0a1.161 1.161 0 1 1 0 2.322 1.161 1.161 0 0 1 0-2.322zm-9.29 0a1.161 1.161 0 1 1 0 2.322 1.161 1.161 0 0 1 0-2.322zm-9.291 0a1.161 1.161 0 1 1 0 2.322 1.161 1.161 0 0 1 0-2.322zm-9.29 0a1.161 1.161 0 1 1 0 2.322 1.161 1.161 0 0 1 0-2.322zm-9.29 0a1.161 1.161 0 1 1 0 2.322 1.161 1.161 0 0 1 0-2.322zm-9.291 0a1.161 1.161 0 1 1 0 2.322 1.161 1.161 0 0 1 0-2.322zm-9.29 0a1.161 1.161 0 1 1 0 2.322 1.161 1.161 0 0 1 0-2.322zm-9.29 0a1.161 1.161 0 1 1 0 2.322 1.161 1.161 0 0 1 0-2.322zm-9.29 0a1.161 1.161 0 1 1 0 2.322 1.161 1.161 0 0 1 0-2.322zm-9.291 0a1.161 1.161 0 1 1 0 2.322 1.161 1.161 0 0 1 0-2.322zm-9.29 0a1.161 1.161 0 1 1 0 2.322 1.161 1.161 0 0 1 0-2.322zm-9.29 0a1.161 1.161 0 1 1 0 2.322 1.161 1.161 0 0 1 0-2.322zm-9.291 0a1.161 1.161 0 1 1 0 2.322 1.161 1.161 0 0 1 0-2.322zm-9.29 0a1.161 1.161 0 1 1 0 2.322 1.161 1.161 0 0 1 0-2.322zm-9.29 0a1.161 1.161 0 1 1 0 2.322 1.161 1.161 0 0 1 0-2.322zm-9.291 0a1.161 1.161 0 1 1 0 2.322 1.161 1.161 0 0 1 0-2.322zm-9.29 0a1.161 1.161 0 1 1 0 2.322 1.161 1.161 0 0 1 0-2.322zm-9.29 0a1.161 1.161 0 1 1 0 2.322 1.161 1.161 0 0 1 0-2.322zm-9.291 0a1.161 1.161 0 1 1 0 2.322 1.161 1.161 0 0 1 0-2.322zm-9.29 0a1.161 1.161 0 1 1 0 2.322 1.161 1.161 0 0 1 0-2.322zm-9.29 0a1.161 1.161 0 1 1 0 2.322 1.161 1.161 0 0 1 0-2.322zm-9.291 0a1.161 1.161 0 1 1 0 2.322 1.161 1.161 0 0 1 0-2.322zm-9.29 0a1.161 1.161 0 1 1 0 2.322 1.161 1.161 0 0 1 0-2.322zm-9.29 0a1.161 1.161 0 1 1 0 2.322 1.161 1.161 0 0 1 0-2.322zm-9.291 0a1.161 1.161 0 1 1 0 2.322 1.161 1.161 0 0 1 0-2.322zm-9.29 0a1.161 1.161 0 1 1 0 2.322 1.161 1.161 0 0 1 0-2.322zm-9.29 0a1.161 1.161 0 1 1 0 2.322 1.161 1.161 0 0 1 0-2.322zm-9.291 0a1.161 1.161 0 1 1 0 2.322 1.161 1.161 0 0 1 0-2.322zm-9.29 0a1.161 1.161 0 1 1 0 2.322 1.161 1.161 0 0 1 0-2.322zm-9.29 0a1.161 1.161 0 1 1 0 2.322 1.161 1.161 0 0 1 0-2.322zm-9.291 0a1.161 1.161 0 1 1 0 2.322 1.161 1.161 0 0 1 0-2.322zm-9.29 0a1.161 1.161 0 1 1 0 2.322 1.161 1.161 0 0 1 0-2.322zm-9.29 0a1.161 1.161 0 1 1 0 2.322 1.161 1.161 0 0 1 0-2.322zm-9.291 0a1.161 1.161 0 1 1 0 2.322 1.161 1.161 0 0 1 0-2.322zm-9.29 0a1.161 1.161 0 1 1 0 2.322 1.161 1.161 0 0 1 0-2.322zm-9.29 0a1.161 1.161 0 1 1 0 2.322 1.161 1.161 0 0 1 0-2.322zm-9.291 0a1.161 1.161 0 1 1 0 2.322 1.161 1.161 0 0 1 0-2.322zm343.742-9.29a1.161 1.161 0 1 1 0 2.322 1.161 1.161 0 0 1 0-2.323zm-9.29 0a1.161 1.161 0 1 1 0 2.322 1.161 1.161 0 0 1 0-2.323zm-9.29 0a1.161 1.161 0 1 1 0 2.322 1.161 1.161 0 0 1 0-2.323zm-9.291 0a1.161 1.161 0 1 1 0 2.322 1.161 1.161 0 0 1 0-2.323zm-9.29 0a1.161 1.161 0 1 1 0 2.322 1.161 1.161 0 0 1 0-2.323zm-9.29 0a1.161 1.161 0 1 1 0 2.322 1.161 1.161 0 0 1 0-2.323zm-9.291 0a1.161 1.161 0 1 1 0 2.322 1.161 1.161 0 0 1 0-2.323zm-9.29 0a1.161 1.161 0 1 1 0 2.322 1.161 1.161 0 0 1 0-2.323zm-9.29 0a1.161 1.161 0 1 1 0 2.322 1.161 1.161 0 0 1 0-2.323zm-9.29 0a1.161 1.161 0 1 1 0 2.322 1.161 1.161 0 0 1 0-2.323zm-9.291 0a1.161 1.161 0 1 1 0 2.322 1.161 1.161 0 0 1 0-2.323zm-9.29 0a1.161 1.161 0 1 1 0 2.322 1.161 1.161 0 0 1 0-2.323zm-9.29 0a1.161 1.161 0 1 1 0 2.322 1.161 1.161 0 0 1 0-2.323zm-9.291 0a1.161 1.161 0 1 1 0 2.322 1.161 1.161 0 0 1 0-2.323zm-9.29 0a1.161 1.161 0 1 1 0 2.322 1.161 1.161 0 0 1 0-2.323zm-9.29 0a1.161 1.161 0 1 1 0 2.322 1.161 1.161 0 0 1 0-2.323zm-9.291 0a1.161 1.161 0 1 1 0 2.322 1.161 1.161 0 0 1 0-2.323zm-9.29 0a1.161 1.161 0 1 1 0 2.322 1.161 1.161 0 0 1 0-2.323zm-9.29 0a1.161 1.161 0 1 1 0 2.322 1.161 1.161 0 0 1 0-2.323zm-9.291 0a1.161 1.161 0 1 1 0 2.322 1.161 1.161 0 0 1 0-2.323zm-9.29 0a1.161 1.161 0 1 1 0 2.322 1.161 1.161 0 0 1 0-2.323zm-9.29 0a1.161 1.161 0 1 1 0 2.322 1.161 1.161 0 0 1 0-2.323zm-9.291 0a1.161 1.161 0 1 1 0 2.322 1.161 1.161 0 0 1 0-2.323zm-9.29 0a1.161 1.161 0 1 1 0 2.322 1.161 1.161 0 0 1 0-2.323zm-9.29 0a1.161 1.161 0 1 1 0 2.322 1.161 1.161 0 0 1 0-2.323zm-9.291 0a1.161 1.161 0 1 1 0 2.322 1.161 1.161 0 0 1 0-2.323zm-9.29 0a1.161 1.161 0 1 1 0 2.322 1.161 1.161 0 0 1 0-2.323zm-9.29 0a1.161 1.161 0 1 1 0 2.322 1.161 1.161 0 0 1 0-2.323zm-9.291 0a1.161 1.161 0 1 1 0 2.322 1.161 1.161 0 0 1 0-2.323zm-9.29 0a1.161 1.161 0 1 1 0 2.322 1.161 1.161 0 0 1 0-2.323zm-9.29 0a1.161 1.161 0 1 1 0 2.322 1.161 1.161 0 0 1 0-2.323zm-9.291 0a1.161 1.161 0 1 1 0 2.322 1.161 1.161 0 0 1 0-2.323zm-9.29 0a1.161 1.161 0 1 1 0 2.322 1.161 1.161 0 0 1 0-2.323zm-9.29 0a1.161 1.161 0 1 1 0 2.322 1.161 1.161 0 0 1 0-2.323zm-9.291 0a1.161 1.161 0 1 1 0 2.322 1.161 1.161 0 0 1 0-2.323zm-9.29 0a1.161 1.161 0 1 1 0 2.322 1.161 1.161 0 0 1 0-2.323zm-9.29 0a1.161 1.161 0 1 1 0 2.322 1.161 1.161 0 0 1 0-2.323zm-9.291 0a1.161 1.161 0 1 1 0 2.322 1.161 1.161 0 0 1 0-2.323zm343.742-9.291a1.161 1.161 0 1 1 0 2.323 1.161 1.161 0 0 1 0-2.323zm-9.29 0a1.161 1.161 0 1 1 0 2.323 1.161 1.161 0 0 1 0-2.323zm-9.29 0a1.161 1.161 0 1 1 0 2.323 1.161 1.161 0 0 1 0-2.323zm-9.291 0a1.161 1.161 0 1 1 0 2.323 1.161 1.161 0 0 1 0-2.323zm-9.29 0a1.161 1.161 0 1 1 0 2.323 1.161 1.161 0 0 1 0-2.323zm-9.29 0a1.161 1.161 0 1 1 0 2.323 1.161 1.161 0 0 1 0-2.323zm-9.291 0a1.161 1.161 0 1 1 0 2.323 1.161 1.161 0 0 1 0-2.323zm-9.29 0a1.161 1.161 0 1 1 0 2.323 1.161 1.161 0 0 1 0-2.323zm-9.29 0a1.161 1.161 0 1 1 0 2.323 1.161 1.161 0 0 1 0-2.323zm-9.29 0a1.161 1.161 0 1 1 0 2.323 1.161 1.161 0 0 1 0-2.323zm-9.291 0a1.161 1.161 0 1 1 0 2.323 1.161 1.161 0 0 1 0-2.323zm-9.29 0a1.161 1.161 0 1 1 0 2.323 1.161 1.161 0 0 1 0-2.323zm-9.29 0a1.161 1.161 0 1 1 0 2.323 1.161 1.161 0 0 1 0-2.323zm-9.291 0a1.161 1.161 0 1 1 0 2.323 1.161 1.161 0 0 1 0-2.323zm-9.29 0a1.161 1.161 0 1 1 0 2.323 1.161 1.161 0 0 1 0-2.323zm-9.29 0a1.161 1.161 0 1 1 0 2.323 1.161 1.161 0 0 1 0-2.323zm-9.291 0a1.161 1.161 0 1 1 0 2.323 1.161 1.161 0 0 1 0-2.323zm-9.29 0a1.161 1.161 0 1 1 0 2.323 1.161 1.161 0 0 1 0-2.323zm-9.29 0a1.161 1.161 0 1 1 0 2.323 1.161 1.161 0 0 1 0-2.323zm-9.291 0a1.161 1.161 0 1 1 0 2.323 1.161 1.161 0 0 1 0-2.323zm-9.29 0a1.161 1.161 0 1 1 0 2.323 1.161 1.161 0 0 1 0-2.323zm-9.29 0a1.161 1.161 0 1 1 0 2.323 1.161 1.161 0 0 1 0-2.323zm-9.291 0a1.161 1.161 0 1 1 0 2.323 1.161 1.161 0 0 1 0-2.323zm-9.29 0a1.161 1.161 0 1 1 0 2.323 1.161 1.161 0 0 1 0-2.323zm-9.29 0a1.161 1.161 0 1 1 0 2.323 1.161 1.161 0 0 1 0-2.323zm-9.291 0a1.161 1.161 0 1 1 0 2.323 1.161 1.161 0 0 1 0-2.323zm-9.29 0a1.161 1.161 0 1 1 0 2.323 1.161 1.161 0 0 1 0-2.323zm-9.29 0a1.161 1.161 0 1 1 0 2.323 1.161 1.161 0 0 1 0-2.323zm-9.291 0a1.161 1.161 0 1 1 0 2.323 1.161 1.161 0 0 1 0-2.323zm-9.29 0a1.161 1.161 0 1 1 0 2.323 1.161 1.161 0 0 1 0-2.323zm-9.29 0a1.161 1.161 0 1 1 0 2.323 1.161 1.161 0 0 1 0-2.323zm-9.291 0a1.161 1.161 0 1 1 0 2.323 1.161 1.161 0 0 1 0-2.323zm-9.29 0a1.161 1.161 0 1 1 0 2.323 1.161 1.161 0 0 1 0-2.323zm-9.29 0a1.161 1.161 0 1 1 0 2.323 1.161 1.161 0 0 1 0-2.323zm-9.291 0a1.161 1.161 0 1 1 0 2.323 1.161 1.161 0 0 1 0-2.323zm-9.29 0a1.161 1.161 0 1 1 0 2.323 1.161 1.161 0 0 1 0-2.323zm-9.29 0a1.161 1.161 0 1 1 0 2.323 1.161 1.161 0 0 1 0-2.323zm-9.291 0a1.161 1.161 0 1 1 0 2.323 1.161 1.161 0 0 1 0-2.323zm343.742-9.29a1.161 1.161 0 1 1 0 2.322 1.161 1.161 0 0 1 0-2.322zm-9.29 0a1.161 1.161 0 1 1 0 2.322 1.161 1.161 0 0 1 0-2.322zm-9.29 0a1.161 1.161 0 1 1 0 2.322 1.161 1.161 0 0 1 0-2.322zm-9.291 0a1.161 1.161 0 1 1 0 2.322 1.161 1.161 0 0 1 0-2.322zm-9.29 0a1.161 1.161 0 1 1 0 2.322 1.161 1.161 0 0 1 0-2.322zm-9.29 0a1.161 1.161 0 1 1 0 2.322 1.161 1.161 0 0 1 0-2.322zm-9.291 0a1.161 1.161 0 1 1 0 2.322 1.161 1.161 0 0 1 0-2.322zm-9.29 0a1.161 1.161 0 1 1 0 2.322 1.161 1.161 0 0 1 0-2.322zm-9.29 0a1.161 1.161 0 1 1 0 2.322 1.161 1.161 0 0 1 0-2.322zm-9.29 0a1.161 1.161 0 1 1 0 2.322 1.161 1.161 0 0 1 0-2.322zm-9.291 0a1.161 1.161 0 1 1 0 2.322 1.161 1.161 0 0 1 0-2.322zm-9.29 0a1.161 1.161 0 1 1 0 2.322 1.161 1.161 0 0 1 0-2.322zm-9.29 0a1.161 1.161 0 1 1 0 2.322 1.161 1.161 0 0 1 0-2.322zm-9.291 0a1.161 1.161 0 1 1 0 2.322 1.161 1.161 0 0 1 0-2.322zm-9.29 0a1.161 1.161 0 1 1 0 2.322 1.161 1.161 0 0 1 0-2.322zm-9.29 0a1.161 1.161 0 1 1 0 2.322 1.161 1.161 0 0 1 0-2.322zm-9.291 0a1.161 1.161 0 1 1 0 2.322 1.161 1.161 0 0 1 0-2.322zm-9.29 0a1.161 1.161 0 1 1 0 2.322 1.161 1.161 0 0 1 0-2.322zm-9.29 0a1.161 1.161 0 1 1 0 2.322 1.161 1.161 0 0 1 0-2.322zm-9.291 0a1.161 1.161 0 1 1 0 2.322 1.161 1.161 0 0 1 0-2.322zm-9.29 0a1.161 1.161 0 1 1 0 2.322 1.161 1.161 0 0 1 0-2.322zm-9.29 0a1.161 1.161 0 1 1 0 2.322 1.161 1.161 0 0 1 0-2.322zm-9.291 0a1.161 1.161 0 1 1 0 2.322 1.161 1.161 0 0 1 0-2.322zm-9.29 0a1.161 1.161 0 1 1 0 2.322 1.161 1.161 0 0 1 0-2.322zm-9.29 0a1.161 1.161 0 1 1 0 2.322 1.161 1.161 0 0 1 0-2.322zm-9.291 0a1.161 1.161 0 1 1 0 2.322 1.161 1.161 0 0 1 0-2.322zm-9.29 0a1.161 1.161 0 1 1 0 2.322 1.161 1.161 0 0 1 0-2.322zm-9.29 0a1.161 1.161 0 1 1 0 2.322 1.161 1.161 0 0 1 0-2.322zm-9.291 0a1.161 1.161 0 1 1 0 2.322 1.161 1.161 0 0 1 0-2.322zm-9.29 0a1.161 1.161 0 1 1 0 2.322 1.161 1.161 0 0 1 0-2.322zm-9.29 0a1.161 1.161 0 1 1 0 2.322 1.161 1.161 0 0 1 0-2.322zm-9.291 0a1.161 1.161 0 1 1 0 2.322 1.161 1.161 0 0 1 0-2.322zm-9.29 0a1.161 1.161 0 1 1 0 2.322 1.161 1.161 0 0 1 0-2.322zm-9.29 0a1.161 1.161 0 1 1 0 2.322 1.161 1.161 0 0 1 0-2.322zm-9.291 0a1.161 1.161 0 1 1 0 2.322 1.161 1.161 0 0 1 0-2.322zm-9.29 0a1.161 1.161 0 1 1 0 2.322 1.161 1.161 0 0 1 0-2.322zm-9.29 0a1.161 1.161 0 1 1 0 2.322 1.161 1.161 0 0 1 0-2.322zm-9.291 0a1.161 1.161 0 1 1 0 2.322 1.161 1.161 0 0 1 0-2.322zm343.742-9.29a1.161 1.161 0 1 1 0 2.322 1.161 1.161 0 0 1 0-2.323zm-9.29 0a1.161 1.161 0 1 1 0 2.322 1.161 1.161 0 0 1 0-2.323zm-9.29 0a1.161 1.161 0 1 1 0 2.322 1.161 1.161 0 0 1 0-2.323zm-9.291 0a1.161 1.161 0 1 1 0 2.322 1.161 1.161 0 0 1 0-2.323zm-9.29 0a1.161 1.161 0 1 1 0 2.322 1.161 1.161 0 0 1 0-2.323zm-9.29 0a1.161 1.161 0 1 1 0 2.322 1.161 1.161 0 0 1 0-2.323zm-9.291 0a1.161 1.161 0 1 1 0 2.322 1.161 1.161 0 0 1 0-2.323zm-9.29 0a1.161 1.161 0 1 1 0 2.322 1.161 1.161 0 0 1 0-2.323zm-9.29 0a1.161 1.161 0 1 1 0 2.322 1.161 1.161 0 0 1 0-2.323zm-9.29 0a1.161 1.161 0 1 1 0 2.322 1.161 1.161 0 0 1 0-2.323zm-9.291 0a1.161 1.161 0 1 1 0 2.322 1.161 1.161 0 0 1 0-2.323zm-9.29 0a1.161 1.161 0 1 1 0 2.322 1.161 1.161 0 0 1 0-2.323zm-9.29 0a1.161 1.161 0 1 1 0 2.322 1.161 1.161 0 0 1 0-2.323zm-9.291 0a1.161 1.161 0 1 1 0 2.322 1.161 1.161 0 0 1 0-2.323zm-9.29 0a1.161 1.161 0 1 1 0 2.322 1.161 1.161 0 0 1 0-2.323zm-9.29 0a1.161 1.161 0 1 1 0 2.322 1.161 1.161 0 0 1 0-2.323zm-9.291 0a1.161 1.161 0 1 1 0 2.322 1.161 1.161 0 0 1 0-2.323zm-9.29 0a1.161 1.161 0 1 1 0 2.322 1.161 1.161 0 0 1 0-2.323zm-9.29 0a1.161 1.161 0 1 1 0 2.322 1.161 1.161 0 0 1 0-2.323zm-9.291 0a1.161 1.161 0 1 1 0 2.322 1.161 1.161 0 0 1 0-2.323zm-9.29 0a1.161 1.161 0 1 1 0 2.322 1.161 1.161 0 0 1 0-2.323zm-9.29 0a1.161 1.161 0 1 1 0 2.322 1.161 1.161 0 0 1 0-2.323zm-9.291 0a1.161 1.161 0 1 1 0 2.322 1.161 1.161 0 0 1 0-2.323zm-9.29 0a1.161 1.161 0 1 1 0 2.322 1.161 1.161 0 0 1 0-2.323zm-9.29 0a1.161 1.161 0 1 1 0 2.322 1.161 1.161 0 0 1 0-2.323zm-9.291 0a1.161 1.161 0 1 1 0 2.322 1.161 1.161 0 0 1 0-2.323zm-9.29 0a1.161 1.161 0 1 1 0 2.322 1.161 1.161 0 0 1 0-2.323zm-9.29 0a1.161 1.161 0 1 1 0 2.322 1.161 1.161 0 0 1 0-2.323zm-9.291 0a1.161 1.161 0 1 1 0 2.322 1.161 1.161 0 0 1 0-2.323zm-9.29 0a1.161 1.161 0 1 1 0 2.322 1.161 1.161 0 0 1 0-2.323zm-9.29 0a1.161 1.161 0 1 1 0 2.322 1.161 1.161 0 0 1 0-2.323zm-9.291 0a1.161 1.161 0 1 1 0 2.322 1.161 1.161 0 0 1 0-2.323zm-9.29 0a1.161 1.161 0 1 1 0 2.322 1.161 1.161 0 0 1 0-2.323zm-9.29 0a1.161 1.161 0 1 1 0 2.322 1.161 1.161 0 0 1 0-2.323zm-9.291 0a1.161 1.161 0 1 1 0 2.322 1.161 1.161 0 0 1 0-2.323zm-9.29 0a1.161 1.161 0 1 1 0 2.322 1.161 1.161 0 0 1 0-2.323zm-9.29 0a1.161 1.161 0 1 1 0 2.322 1.161 1.161 0 0 1 0-2.323zm-9.291 0a1.161 1.161 0 1 1 0 2.322 1.161 1.161 0 0 1 0-2.323zM345.871 66a1.161 1.161 0 1 1 0 2.323 1.161 1.161 0 0 1 0-2.323zm-9.29 0a1.161 1.161 0 1 1 0 2.323 1.161 1.161 0 0 1 0-2.323zm-9.29 0a1.161 1.161 0 1 1 0 2.323 1.161 1.161 0 0 1 0-2.323zM318 66a1.161 1.161 0 1 1 0 2.323A1.161 1.161 0 0 1 318 66zm-9.29 0a1.161 1.161 0 1 1 0 2.323 1.161 1.161 0 0 1 0-2.323zm-9.29 0a1.161 1.161 0 1 1 0 2.323 1.161 1.161 0 0 1 0-2.323zm-9.291 0a1.161 1.161 0 1 1 0 2.323 1.161 1.161 0 0 1 0-2.323zm-9.29 0a1.161 1.161 0 1 1 0 2.323 1.161 1.161 0 0 1 0-2.323zm-9.29 0a1.161 1.161 0 1 1 0 2.323 1.161 1.161 0 0 1 0-2.323zm-9.29 0a1.161 1.161 0 1 1 0 2.323 1.161 1.161 0 0 1 0-2.323zm-9.291 0a1.161 1.161 0 1 1 0 2.323 1.161 1.161 0 0 1 0-2.323zm-9.29 0a1.161 1.161 0 1 1 0 2.323 1.161 1.161 0 0 1 0-2.323zm-9.29 0a1.161 1.161 0 1 1 0 2.323 1.161 1.161 0 0 1 0-2.323zm-9.291 0a1.161 1.161 0 1 1 0 2.323 1.161 1.161 0 0 1 0-2.323zm-9.29 0a1.161 1.161 0 1 1 0 2.323 1.161 1.161 0 0 1 0-2.323zm-9.29 0a1.161 1.161 0 1 1 0 2.323 1.161 1.161 0 0 1 0-2.323zm-9.291 0a1.161 1.161 0 1 1 0 2.323 1.161 1.161 0 0 1 0-2.323zm-9.29 0a1.161 1.161 0 1 1 0 2.323 1.161 1.161 0 0 1 0-2.323zm-9.29 0a1.161 1.161 0 1 1 0 2.323 1.161 1.161 0 0 1 0-2.323zm-9.291 0a1.161 1.161 0 1 1 0 2.323 1.161 1.161 0 0 1 0-2.323zm-9.29 0a1.161 1.161 0 1 1 0 2.323 1.161 1.161 0 0 1 0-2.323zm-9.29 0a1.161 1.161 0 1 1 0 2.323 1.161 1.161 0 0 1 0-2.323zm-9.291 0a1.161 1.161 0 1 1 0 2.323 1.161 1.161 0 0 1 0-2.323zm-9.29 0a1.161 1.161 0 1 1 0 2.323 1.161 1.161 0 0 1 0-2.323zm-9.29 0a1.161 1.161 0 1 1 0 2.323 1.161 1.161 0 0 1 0-2.323zm-9.291 0a1.161 1.161 0 1 1 0 2.323 1.161 1.161 0 0 1 0-2.323zm-9.29 0a1.161 1.161 0 1 1 0 2.323 1.161 1.161 0 0 1 0-2.323zm-9.29 0a1.161 1.161 0 1 1 0 2.323 1.161 1.161 0 0 1 0-2.323zm-9.291 0a1.161 1.161 0 1 1 0 2.323 1.161 1.161 0 0 1 0-2.323zm-9.29 0a1.161 1.161 0 1 1 0 2.323 1.161 1.161 0 0 1 0-2.323zm-9.29 0a1.161 1.161 0 1 1 0 2.323 1.161 1.161 0 0 1 0-2.323zm-9.291 0a1.161 1.161 0 1 1 0 2.323 1.161 1.161 0 0 1 0-2.323zm-9.29 0a1.161 1.161 0 1 1 0 2.323 1.161 1.161 0 0 1 0-2.323zm-9.29 0a1.161 1.161 0 1 1 0 2.323 1.161 1.161 0 0 1 0-2.323zM30 66a1.161 1.161 0 1 1 0 2.323A1.161 1.161 0 0 1 30 66zm-9.29 0a1.161 1.161 0 1 1 0 2.323 1.161 1.161 0 0 1 0-2.323zm-9.29 0a1.161 1.161 0 1 1 0 2.323 1.161 1.161 0 0 1 0-2.323zm-9.291 0a1.161 1.161 0 1 1 0 2.323 1.161 1.161 0 0 1 0-2.323zm343.742-9.29a1.161 1.161 0 1 1 0 2.322 1.161 1.161 0 0 1 0-2.322zm-9.29 0a1.161 1.161 0 1 1 0 2.322 1.161 1.161 0 0 1 0-2.322zm-9.29 0a1.161 1.161 0 1 1 0 2.322 1.161 1.161 0 0 1 0-2.322zm-9.291 0a1.161 1.161 0 1 1 0 2.322 1.161 1.161 0 0 1 0-2.322zm-9.29 0a1.161 1.161 0 1 1 0 2.322 1.161 1.161 0 0 1 0-2.322zm-9.29 0a1.161 1.161 0 1 1 0 2.322 1.161 1.161 0 0 1 0-2.322zm-9.291 0a1.161 1.161 0 1 1 0 2.322 1.161 1.161 0 0 1 0-2.322zm-9.29 0a1.161 1.161 0 1 1 0 2.322 1.161 1.161 0 0 1 0-2.322zm-9.29 0a1.161 1.161 0 1 1 0 2.322 1.161 1.161 0 0 1 0-2.322zm-9.29 0a1.161 1.161 0 1 1 0 2.322 1.161 1.161 0 0 1 0-2.322zm-9.291 0a1.161 1.161 0 1 1 0 2.322 1.161 1.161 0 0 1 0-2.322zm-9.29 0a1.161 1.161 0 1 1 0 2.322 1.161 1.161 0 0 1 0-2.322zm-9.29 0a1.161 1.161 0 1 1 0 2.322 1.161 1.161 0 0 1 0-2.322zm-9.291 0a1.161 1.161 0 1 1 0 2.322 1.161 1.161 0 0 1 0-2.322zm-9.29 0a1.161 1.161 0 1 1 0 2.322 1.161 1.161 0 0 1 0-2.322zm-9.29 0a1.161 1.161 0 1 1 0 2.322 1.161 1.161 0 0 1 0-2.322zm-9.291 0a1.161 1.161 0 1 1 0 2.322 1.161 1.161 0 0 1 0-2.322zm-9.29 0a1.161 1.161 0 1 1 0 2.322 1.161 1.161 0 0 1 0-2.322zm-9.29 0a1.161 1.161 0 1 1 0 2.322 1.161 1.161 0 0 1 0-2.322zm-9.291 0a1.161 1.161 0 1 1 0 2.322 1.161 1.161 0 0 1 0-2.322zm-9.29 0a1.161 1.161 0 1 1 0 2.322 1.161 1.161 0 0 1 0-2.322zm-9.29 0a1.161 1.161 0 1 1 0 2.322 1.161 1.161 0 0 1 0-2.322zm-9.291 0a1.161 1.161 0 1 1 0 2.322 1.161 1.161 0 0 1 0-2.322zm-9.29 0a1.161 1.161 0 1 1 0 2.322 1.161 1.161 0 0 1 0-2.322zm-9.29 0a1.161 1.161 0 1 1 0 2.322 1.161 1.161 0 0 1 0-2.322zm-9.291 0a1.161 1.161 0 1 1 0 2.322 1.161 1.161 0 0 1 0-2.322zm-9.29 0a1.161 1.161 0 1 1 0 2.322 1.161 1.161 0 0 1 0-2.322zm-9.29 0a1.161 1.161 0 1 1 0 2.322 1.161 1.161 0 0 1 0-2.322zm-9.291 0a1.161 1.161 0 1 1 0 2.322 1.161 1.161 0 0 1 0-2.322zm-9.29 0a1.161 1.161 0 1 1 0 2.322 1.161 1.161 0 0 1 0-2.322zm-9.29 0a1.161 1.161 0 1 1 0 2.322 1.161 1.161 0 0 1 0-2.322zm-9.291 0a1.161 1.161 0 1 1 0 2.322 1.161 1.161 0 0 1 0-2.322zm-9.29 0a1.161 1.161 0 1 1 0 2.322 1.161 1.161 0 0 1 0-2.322zm-9.29 0a1.161 1.161 0 1 1 0 2.322 1.161 1.161 0 0 1 0-2.322zm-9.291 0a1.161 1.161 0 1 1 0 2.322 1.161 1.161 0 0 1 0-2.322zm-9.29 0a1.161 1.161 0 1 1 0 2.322 1.161 1.161 0 0 1 0-2.322zm-9.29 0a1.161 1.161 0 1 1 0 2.322 1.161 1.161 0 0 1 0-2.322zm-9.291 0a1.161 1.161 0 1 1 0 2.322 1.161 1.161 0 0 1 0-2.322zm343.742-9.29a1.161 1.161 0 1 1 0 2.322 1.161 1.161 0 0 1 0-2.323zm-9.29 0a1.161 1.161 0 1 1 0 2.322 1.161 1.161 0 0 1 0-2.323zm-9.29 0a1.161 1.161 0 1 1 0 2.322 1.161 1.161 0 0 1 0-2.323zm-9.291 0a1.161 1.161 0 1 1 0 2.322 1.161 1.161 0 0 1 0-2.323zm-9.29 0a1.161 1.161 0 1 1 0 2.322 1.161 1.161 0 0 1 0-2.323zm-9.29 0a1.161 1.161 0 1 1 0 2.322 1.161 1.161 0 0 1 0-2.323zm-9.291 0a1.161 1.161 0 1 1 0 2.322 1.161 1.161 0 0 1 0-2.323zm-9.29 0a1.161 1.161 0 1 1 0 2.322 1.161 1.161 0 0 1 0-2.323zm-9.29 0a1.161 1.161 0 1 1 0 2.322 1.161 1.161 0 0 1 0-2.323zm-9.29 0a1.161 1.161 0 1 1 0 2.322 1.161 1.161 0 0 1 0-2.323zm-9.291 0a1.161 1.161 0 1 1 0 2.322 1.161 1.161 0 0 1 0-2.323zm-9.29 0a1.161 1.161 0 1 1 0 2.322 1.161 1.161 0 0 1 0-2.323zm-9.29 0a1.161 1.161 0 1 1 0 2.322 1.161 1.161 0 0 1 0-2.323zm-9.291 0a1.161 1.161 0 1 1 0 2.322 1.161 1.161 0 0 1 0-2.323zm-9.29 0a1.161 1.161 0 1 1 0 2.322 1.161 1.161 0 0 1 0-2.323zm-9.29 0a1.161 1.161 0 1 1 0 2.322 1.161 1.161 0 0 1 0-2.323zm-9.291 0a1.161 1.161 0 1 1 0 2.322 1.161 1.161 0 0 1 0-2.323zm-9.29 0a1.161 1.161 0 1 1 0 2.322 1.161 1.161 0 0 1 0-2.323zm-9.29 0a1.161 1.161 0 1 1 0 2.322 1.161 1.161 0 0 1 0-2.323zm-9.291 0a1.161 1.161 0 1 1 0 2.322 1.161 1.161 0 0 1 0-2.323zm-9.29 0a1.161 1.161 0 1 1 0 2.322 1.161 1.161 0 0 1 0-2.323zm-9.29 0a1.161 1.161 0 1 1 0 2.322 1.161 1.161 0 0 1 0-2.323zm-9.291 0a1.161 1.161 0 1 1 0 2.322 1.161 1.161 0 0 1 0-2.323zm-9.29 0a1.161 1.161 0 1 1 0 2.322 1.161 1.161 0 0 1 0-2.323zm-9.29 0a1.161 1.161 0 1 1 0 2.322 1.161 1.161 0 0 1 0-2.323zm-9.291 0a1.161 1.161 0 1 1 0 2.322 1.161 1.161 0 0 1 0-2.323zm-9.29 0a1.161 1.161 0 1 1 0 2.322 1.161 1.161 0 0 1 0-2.323zm-9.29 0a1.161 1.161 0 1 1 0 2.322 1.161 1.161 0 0 1 0-2.323zm-9.291 0a1.161 1.161 0 1 1 0 2.322 1.161 1.161 0 0 1 0-2.323zm-9.29 0a1.161 1.161 0 1 1 0 2.322 1.161 1.161 0 0 1 0-2.323zm-9.29 0a1.161 1.161 0 1 1 0 2.322 1.161 1.161 0 0 1 0-2.323zm-9.291 0a1.161 1.161 0 1 1 0 2.322 1.161 1.161 0 0 1 0-2.323zm-9.29 0a1.161 1.161 0 1 1 0 2.322 1.161 1.161 0 0 1 0-2.323zm-9.29 0a1.161 1.161 0 1 1 0 2.322 1.161 1.161 0 0 1 0-2.323zm-9.291 0a1.161 1.161 0 1 1 0 2.322 1.161 1.161 0 0 1 0-2.323zm-9.29 0a1.161 1.161 0 1 1 0 2.322 1.161 1.161 0 0 1 0-2.323zm-9.29 0a1.161 1.161 0 1 1 0 2.322 1.161 1.161 0 0 1 0-2.323zm-9.291 0a1.161 1.161 0 1 1 0 2.322 1.161 1.161 0 0 1 0-2.323zm343.742-9.291a1.161 1.161 0 1 1 0 2.323 1.161 1.161 0 0 1 0-2.323zm-9.29 0a1.161 1.161 0 1 1 0 2.323 1.161 1.161 0 0 1 0-2.323zm-9.29 0a1.161 1.161 0 1 1 0 2.323 1.161 1.161 0 0 1 0-2.323zm-9.291 0a1.161 1.161 0 1 1 0 2.323 1.161 1.161 0 0 1 0-2.323zm-9.29 0a1.161 1.161 0 1 1 0 2.323 1.161 1.161 0 0 1 0-2.323zm-9.29 0a1.161 1.161 0 1 1 0 2.323 1.161 1.161 0 0 1 0-2.323zm-9.291 0a1.161 1.161 0 1 1 0 2.323 1.161 1.161 0 0 1 0-2.323zm-9.29 0a1.161 1.161 0 1 1 0 2.323 1.161 1.161 0 0 1 0-2.323zm-9.29 0a1.161 1.161 0 1 1 0 2.323 1.161 1.161 0 0 1 0-2.323zm-9.29 0a1.161 1.161 0 1 1 0 2.323 1.161 1.161 0 0 1 0-2.323zm-9.291 0a1.161 1.161 0 1 1 0 2.323 1.161 1.161 0 0 1 0-2.323zm-9.29 0a1.161 1.161 0 1 1 0 2.323 1.161 1.161 0 0 1 0-2.323zm-9.29 0a1.161 1.161 0 1 1 0 2.323 1.161 1.161 0 0 1 0-2.323zm-9.291 0a1.161 1.161 0 1 1 0 2.323 1.161 1.161 0 0 1 0-2.323zm-9.29 0a1.161 1.161 0 1 1 0 2.323 1.161 1.161 0 0 1 0-2.323zm-9.29 0a1.161 1.161 0 1 1 0 2.323 1.161 1.161 0 0 1 0-2.323zm-9.291 0a1.161 1.161 0 1 1 0 2.323 1.161 1.161 0 0 1 0-2.323zm-9.29 0a1.161 1.161 0 1 1 0 2.323 1.161 1.161 0 0 1 0-2.323zm-9.29 0a1.161 1.161 0 1 1 0 2.323 1.161 1.161 0 0 1 0-2.323zm-9.291 0a1.161 1.161 0 1 1 0 2.323 1.161 1.161 0 0 1 0-2.323zm-9.29 0a1.161 1.161 0 1 1 0 2.323 1.161 1.161 0 0 1 0-2.323zm-9.29 0a1.161 1.161 0 1 1 0 2.323 1.161 1.161 0 0 1 0-2.323zm-9.291 0a1.161 1.161 0 1 1 0 2.323 1.161 1.161 0 0 1 0-2.323zm-9.29 0a1.161 1.161 0 1 1 0 2.323 1.161 1.161 0 0 1 0-2.323zm-9.29 0a1.161 1.161 0 1 1 0 2.323 1.161 1.161 0 0 1 0-2.323zm-9.291 0a1.161 1.161 0 1 1 0 2.323 1.161 1.161 0 0 1 0-2.323zm-9.29 0a1.161 1.161 0 1 1 0 2.323 1.161 1.161 0 0 1 0-2.323zm-9.29 0a1.161 1.161 0 1 1 0 2.323 1.161 1.161 0 0 1 0-2.323zm-9.291 0a1.161 1.161 0 1 1 0 2.323 1.161 1.161 0 0 1 0-2.323zm-9.29 0a1.161 1.161 0 1 1 0 2.323 1.161 1.161 0 0 1 0-2.323zm-9.29 0a1.161 1.161 0 1 1 0 2.323 1.161 1.161 0 0 1 0-2.323zm-9.291 0a1.161 1.161 0 1 1 0 2.323 1.161 1.161 0 0 1 0-2.323zm-9.29 0a1.161 1.161 0 1 1 0 2.323 1.161 1.161 0 0 1 0-2.323zm-9.29 0a1.161 1.161 0 1 1 0 2.323 1.161 1.161 0 0 1 0-2.323zm-9.291 0a1.161 1.161 0 1 1 0 2.323 1.161 1.161 0 0 1 0-2.323zm-9.29 0a1.161 1.161 0 1 1 0 2.323 1.161 1.161 0 0 1 0-2.323zm-9.29 0a1.161 1.161 0 1 1 0 2.323 1.161 1.161 0 0 1 0-2.323zm-9.291 0a1.161 1.161 0 1 1 0 2.323 1.161 1.161 0 0 1 0-2.323zm343.742-9.29a1.161 1.161 0 1 1 0 2.322 1.161 1.161 0 0 1 0-2.322zm-9.29 0a1.161 1.161 0 1 1 0 2.322 1.161 1.161 0 0 1 0-2.322zm-9.29 0a1.161 1.161 0 1 1 0 2.322 1.161 1.161 0 0 1 0-2.322zm-9.291 0a1.161 1.161 0 1 1 0 2.322 1.161 1.161 0 0 1 0-2.322zm-9.29 0a1.161 1.161 0 1 1 0 2.322 1.161 1.161 0 0 1 0-2.322zm-9.29 0a1.161 1.161 0 1 1 0 2.322 1.161 1.161 0 0 1 0-2.322zm-9.291 0a1.161 1.161 0 1 1 0 2.322 1.161 1.161 0 0 1 0-2.322zm-9.29 0a1.161 1.161 0 1 1 0 2.322 1.161 1.161 0 0 1 0-2.322zm-9.29 0a1.161 1.161 0 1 1 0 2.322 1.161 1.161 0 0 1 0-2.322zm-9.29 0a1.161 1.161 0 1 1 0 2.322 1.161 1.161 0 0 1 0-2.322zm-9.291 0a1.161 1.161 0 1 1 0 2.322 1.161 1.161 0 0 1 0-2.322zm-9.29 0a1.161 1.161 0 1 1 0 2.322 1.161 1.161 0 0 1 0-2.322zm-9.29 0a1.161 1.161 0 1 1 0 2.322 1.161 1.161 0 0 1 0-2.322zm-9.291 0a1.161 1.161 0 1 1 0 2.322 1.161 1.161 0 0 1 0-2.322zm-9.29 0a1.161 1.161 0 1 1 0 2.322 1.161 1.161 0 0 1 0-2.322zm-9.29 0a1.161 1.161 0 1 1 0 2.322 1.161 1.161 0 0 1 0-2.322zm-9.291 0a1.161 1.161 0 1 1 0 2.322 1.161 1.161 0 0 1 0-2.322zm-9.29 0a1.161 1.161 0 1 1 0 2.322 1.161 1.161 0 0 1 0-2.322zm-9.29 0a1.161 1.161 0 1 1 0 2.322 1.161 1.161 0 0 1 0-2.322zm-9.291 0a1.161 1.161 0 1 1 0 2.322 1.161 1.161 0 0 1 0-2.322zm-9.29 0a1.161 1.161 0 1 1 0 2.322 1.161 1.161 0 0 1 0-2.322zm-9.29 0a1.161 1.161 0 1 1 0 2.322 1.161 1.161 0 0 1 0-2.322zm-9.291 0a1.161 1.161 0 1 1 0 2.322 1.161 1.161 0 0 1 0-2.322zm-9.29 0a1.161 1.161 0 1 1 0 2.322 1.161 1.161 0 0 1 0-2.322zm-9.29 0a1.161 1.161 0 1 1 0 2.322 1.161 1.161 0 0 1 0-2.322zm-9.291 0a1.161 1.161 0 1 1 0 2.322 1.161 1.161 0 0 1 0-2.322zm-9.29 0a1.161 1.161 0 1 1 0 2.322 1.161 1.161 0 0 1 0-2.322zm-9.29 0a1.161 1.161 0 1 1 0 2.322 1.161 1.161 0 0 1 0-2.322zm-9.291 0a1.161 1.161 0 1 1 0 2.322 1.161 1.161 0 0 1 0-2.322zm-9.29 0a1.161 1.161 0 1 1 0 2.322 1.161 1.161 0 0 1 0-2.322zm-9.29 0a1.161 1.161 0 1 1 0 2.322 1.161 1.161 0 0 1 0-2.322zm-9.291 0a1.161 1.161 0 1 1 0 2.322 1.161 1.161 0 0 1 0-2.322zm-9.29 0a1.161 1.161 0 1 1 0 2.322 1.161 1.161 0 0 1 0-2.322zm-9.29 0a1.161 1.161 0 1 1 0 2.322 1.161 1.161 0 0 1 0-2.322zm-9.291 0a1.161 1.161 0 1 1 0 2.322 1.161 1.161 0 0 1 0-2.322zm-9.29 0a1.161 1.161 0 1 1 0 2.322 1.161 1.161 0 0 1 0-2.322zm-9.29 0a1.161 1.161 0 1 1 0 2.322 1.161 1.161 0 0 1 0-2.322zm-9.291 0a1.161 1.161 0 1 1 0 2.322 1.161 1.161 0 0 1 0-2.322zm343.742-9.29a1.161 1.161 0 1 1 0 2.322 1.161 1.161 0 0 1 0-2.323zm-9.29 0a1.161 1.161 0 1 1 0 2.322 1.161 1.161 0 0 1 0-2.323zm-9.29 0a1.161 1.161 0 1 1 0 2.322 1.161 1.161 0 0 1 0-2.323zm-9.291 0a1.161 1.161 0 1 1 0 2.322 1.161 1.161 0 0 1 0-2.323zm-9.29 0a1.161 1.161 0 1 1 0 2.322 1.161 1.161 0 0 1 0-2.323zm-9.29 0a1.161 1.161 0 1 1 0 2.322 1.161 1.161 0 0 1 0-2.323zm-9.291 0a1.161 1.161 0 1 1 0 2.322 1.161 1.161 0 0 1 0-2.323zm-9.29 0a1.161 1.161 0 1 1 0 2.322 1.161 1.161 0 0 1 0-2.323zm-9.29 0a1.161 1.161 0 1 1 0 2.322 1.161 1.161 0 0 1 0-2.323zm-9.29 0a1.161 1.161 0 1 1 0 2.322 1.161 1.161 0 0 1 0-2.323zm-9.291 0a1.161 1.161 0 1 1 0 2.322 1.161 1.161 0 0 1 0-2.323zm-9.29 0a1.161 1.161 0 1 1 0 2.322 1.161 1.161 0 0 1 0-2.323zm-9.29 0a1.161 1.161 0 1 1 0 2.322 1.161 1.161 0 0 1 0-2.323zm-9.291 0a1.161 1.161 0 1 1 0 2.322 1.161 1.161 0 0 1 0-2.323zm-9.29 0a1.161 1.161 0 1 1 0 2.322 1.161 1.161 0 0 1 0-2.323zm-9.29 0a1.161 1.161 0 1 1 0 2.322 1.161 1.161 0 0 1 0-2.323zm-9.291 0a1.161 1.161 0 1 1 0 2.322 1.161 1.161 0 0 1 0-2.323zm-9.29 0a1.161 1.161 0 1 1 0 2.322 1.161 1.161 0 0 1 0-2.323zm-9.29 0a1.161 1.161 0 1 1 0 2.322 1.161 1.161 0 0 1 0-2.323zm-9.291 0a1.161 1.161 0 1 1 0 2.322 1.161 1.161 0 0 1 0-2.323zm-9.29 0a1.161 1.161 0 1 1 0 2.322 1.161 1.161 0 0 1 0-2.323zm-9.29 0a1.161 1.161 0 1 1 0 2.322 1.161 1.161 0 0 1 0-2.323zm-9.291 0a1.161 1.161 0 1 1 0 2.322 1.161 1.161 0 0 1 0-2.323zm-9.29 0a1.161 1.161 0 1 1 0 2.322 1.161 1.161 0 0 1 0-2.323zm-9.29 0a1.161 1.161 0 1 1 0 2.322 1.161 1.161 0 0 1 0-2.323zm-9.291 0a1.161 1.161 0 1 1 0 2.322 1.161 1.161 0 0 1 0-2.323zm-9.29 0a1.161 1.161 0 1 1 0 2.322 1.161 1.161 0 0 1 0-2.323zm-9.29 0a1.161 1.161 0 1 1 0 2.322 1.161 1.161 0 0 1 0-2.323zm-9.291 0a1.161 1.161 0 1 1 0 2.322 1.161 1.161 0 0 1 0-2.323zm-9.29 0a1.161 1.161 0 1 1 0 2.322 1.161 1.161 0 0 1 0-2.323zm-9.29 0a1.161 1.161 0 1 1 0 2.322 1.161 1.161 0 0 1 0-2.323zm-9.291 0a1.161 1.161 0 1 1 0 2.322 1.161 1.161 0 0 1 0-2.323zm-9.29 0a1.161 1.161 0 1 1 0 2.322 1.161 1.161 0 0 1 0-2.323zm-9.29 0a1.161 1.161 0 1 1 0 2.322 1.161 1.161 0 0 1 0-2.323zm-9.291 0a1.161 1.161 0 1 1 0 2.322 1.161 1.161 0 0 1 0-2.323zm-9.29 0a1.161 1.161 0 1 1 0 2.322 1.161 1.161 0 0 1 0-2.323zm-9.29 0a1.161 1.161 0 1 1 0 2.322 1.161 1.161 0 0 1 0-2.323zm-9.291 0a1.161 1.161 0 1 1 0 2.322 1.161 1.161 0 0 1 0-2.323zm343.742-9.29a1.161 1.161 0 1 1 0 2.322 1.161 1.161 0 0 1 0-2.323zm-9.29 0a1.161 1.161 0 1 1 0 2.322 1.161 1.161 0 0 1 0-2.323zm-9.29 0a1.161 1.161 0 1 1 0 2.322 1.161 1.161 0 0 1 0-2.323zm-9.291 0a1.161 1.161 0 1 1 0 2.322 1.161 1.161 0 0 1 0-2.323zm-9.29 0a1.161 1.161 0 1 1 0 2.322 1.161 1.161 0 0 1 0-2.323zm-9.29 0a1.161 1.161 0 1 1 0 2.322 1.161 1.161 0 0 1 0-2.323zm-9.291 0a1.161 1.161 0 1 1 0 2.322 1.161 1.161 0 0 1 0-2.323zm-9.29 0a1.161 1.161 0 1 1 0 2.322 1.161 1.161 0 0 1 0-2.323zm-9.29 0a1.161 1.161 0 1 1 0 2.322 1.161 1.161 0 0 1 0-2.323zm-9.29 0a1.161 1.161 0 1 1 0 2.322 1.161 1.161 0 0 1 0-2.323zm-9.291 0a1.161 1.161 0 1 1 0 2.322 1.161 1.161 0 0 1 0-2.323zm-9.29 0a1.161 1.161 0 1 1 0 2.322 1.161 1.161 0 0 1 0-2.323zm-9.29 0a1.161 1.161 0 1 1 0 2.322 1.161 1.161 0 0 1 0-2.323zm-9.291 0a1.161 1.161 0 1 1 0 2.322 1.161 1.161 0 0 1 0-2.323zm-9.29 0a1.161 1.161 0 1 1 0 2.322 1.161 1.161 0 0 1 0-2.323zm-9.29 0a1.161 1.161 0 1 1 0 2.322 1.161 1.161 0 0 1 0-2.323zm-9.291 0a1.161 1.161 0 1 1 0 2.322 1.161 1.161 0 0 1 0-2.323zm-9.29 0a1.161 1.161 0 1 1 0 2.322 1.161 1.161 0 0 1 0-2.323zm-9.29 0a1.161 1.161 0 1 1 0 2.322 1.161 1.161 0 0 1 0-2.323zm-9.291 0a1.161 1.161 0 1 1 0 2.322 1.161 1.161 0 0 1 0-2.323zm-9.29 0a1.161 1.161 0 1 1 0 2.322 1.161 1.161 0 0 1 0-2.323zm-9.29 0a1.161 1.161 0 1 1 0 2.322 1.161 1.161 0 0 1 0-2.323zm-9.291 0a1.161 1.161 0 1 1 0 2.322 1.161 1.161 0 0 1 0-2.323zm-9.29 0a1.161 1.161 0 1 1 0 2.322 1.161 1.161 0 0 1 0-2.323zm-9.29 0a1.161 1.161 0 1 1 0 2.322 1.161 1.161 0 0 1 0-2.323zm-9.291 0a1.161 1.161 0 1 1 0 2.322 1.161 1.161 0 0 1 0-2.323zm-9.29 0a1.161 1.161 0 1 1 0 2.322 1.161 1.161 0 0 1 0-2.323zm-9.29 0a1.161 1.161 0 1 1 0 2.322 1.161 1.161 0 0 1 0-2.323zm-9.291 0a1.161 1.161 0 1 1 0 2.322 1.161 1.161 0 0 1 0-2.323zm-9.29 0a1.161 1.161 0 1 1 0 2.322 1.161 1.161 0 0 1 0-2.323zm-9.29 0a1.161 1.161 0 1 1 0 2.322 1.161 1.161 0 0 1 0-2.323zm-9.291 0a1.161 1.161 0 1 1 0 2.322 1.161 1.161 0 0 1 0-2.323zm-9.29 0a1.161 1.161 0 1 1 0 2.322 1.161 1.161 0 0 1 0-2.323zm-9.29 0a1.161 1.161 0 1 1 0 2.322 1.161 1.161 0 0 1 0-2.323zm-9.291 0a1.161 1.161 0 1 1 0 2.322 1.161 1.161 0 0 1 0-2.323zm-9.29 0a1.161 1.161 0 1 1 0 2.322 1.161 1.161 0 0 1 0-2.323zm-9.29 0a1.161 1.161 0 1 1 0 2.322 1.161 1.161 0 0 1 0-2.323zm-9.291 0a1.161 1.161 0 1 1 0 2.322 1.161 1.161 0 0 1 0-2.323zM345.871.967a1.161 1.161 0 1 1 0 2.322 1.161 1.161 0 0 1 0-2.322zm-9.29 0a1.161 1.161 0 1 1 0 2.322 1.161 1.161 0 0 1 0-2.322zm-9.29 0a1.161 1.161 0 1 1 0 2.322 1.161 1.161 0 0 1 0-2.322zm-9.291 0a1.161 1.161 0 1 1 0 2.322 1.161 1.161 0 0 1 0-2.322zm-9.29 0a1.161 1.161 0 1 1 0 2.322 1.161 1.161 0 0 1 0-2.322zm-9.29 0a1.161 1.161 0 1 1 0 2.322 1.161 1.161 0 0 1 0-2.322zm-9.291 0a1.161 1.161 0 1 1 0 2.322 1.161 1.161 0 0 1 0-2.322zm-9.29 0a1.161 1.161 0 1 1 0 2.322 1.161 1.161 0 0 1 0-2.322zm-9.29 0a1.161 1.161 0 1 1 0 2.322 1.161 1.161 0 0 1 0-2.322zm-9.29 0a1.161 1.161 0 1 1 0 2.322 1.161 1.161 0 0 1 0-2.322zm-9.291 0a1.161 1.161 0 1 1 0 2.322 1.161 1.161 0 0 1 0-2.322zm-9.29 0a1.161 1.161 0 1 1 0 2.322 1.161 1.161 0 0 1 0-2.322zm-9.29 0a1.161 1.161 0 1 1 0 2.322 1.161 1.161 0 0 1 0-2.322zm-9.291 0a1.161 1.161 0 1 1 0 2.322 1.161 1.161 0 0 1 0-2.322zm-9.29 0a1.161 1.161 0 1 1 0 2.322 1.161 1.161 0 0 1 0-2.322zm-9.29 0a1.161 1.161 0 1 1 0 2.322 1.161 1.161 0 0 1 0-2.322zm-9.291 0a1.161 1.161 0 1 1 0 2.322 1.161 1.161 0 0 1 0-2.322zm-9.29 0a1.161 1.161 0 1 1 0 2.322 1.161 1.161 0 0 1 0-2.322zm-9.29 0a1.161 1.161 0 1 1 0 2.322 1.161 1.161 0 0 1 0-2.322zm-9.291 0a1.161 1.161 0 1 1 0 2.322 1.161 1.161 0 0 1 0-2.322zm-9.29 0a1.161 1.161 0 1 1 0 2.322 1.161 1.161 0 0 1 0-2.322zm-9.29 0a1.161 1.161 0 1 1 0 2.322 1.161 1.161 0 0 1 0-2.322zm-9.291 0a1.161 1.161 0 1 1 0 2.322 1.161 1.161 0 0 1 0-2.322zm-9.29 0a1.161 1.161 0 1 1 0 2.322 1.161 1.161 0 0 1 0-2.322zm-9.29 0a1.161 1.161 0 1 1 0 2.322 1.161 1.161 0 0 1 0-2.322zm-9.291 0a1.161 1.161 0 1 1 0 2.322 1.161 1.161 0 0 1 0-2.322zm-9.29 0a1.161 1.161 0 1 1 0 2.322 1.161 1.161 0 0 1 0-2.322zm-9.29 0a1.161 1.161 0 1 1 0 2.322 1.161 1.161 0 0 1 0-2.322zm-9.291 0a1.161 1.161 0 1 1 0 2.322 1.161 1.161 0 0 1 0-2.322zm-9.29 0a1.161 1.161 0 1 1 0 2.322 1.161 1.161 0 0 1 0-2.322zm-9.29 0a1.161 1.161 0 1 1 0 2.322 1.161 1.161 0 0 1 0-2.322zm-9.291 0a1.161 1.161 0 1 1 0 2.322 1.161 1.161 0 0 1 0-2.322zm-9.29 0a1.161 1.161 0 1 1 0 2.322 1.161 1.161 0 0 1 0-2.322zm-9.29 0a1.161 1.161 0 1 1 0 2.322 1.161 1.161 0 0 1 0-2.322zM30 .968a1.161 1.161 0 1 1 0 2.322 1.161 1.161 0 0 1 0-2.322zm-9.29 0a1.161 1.161 0 1 1 0 2.322 1.161 1.161 0 0 1 0-2.322zm-9.29 0a1.161 1.161 0 1 1 0 2.322 1.161 1.161 0 0 1 0-2.322zm-9.291 0a1.161 1.161 0 1 1 0 2.322 1.161 1.161 0 0 1 0-2.322z"/>
</svg>
