<svg xmlns="http://www.w3.org/2000/svg" xmlns:xlink="http://www.w3.org/1999/xlink" width="272" height="109" viewBox="0 0 272 109">
    <defs>
        <rect id="3u3fl9v2ia" width="26.122" height="25.736" x="0" y=".745" rx="12.868"/>
        <rect id="w9mp5rt9yc" width="26.138" height="25.752" x="0" y=".757" rx="12.876"/>
        <rect id="uv7spviqkd" width="33.172" height="33.306" x="0" y="0" rx="16.108"/>
        <rect id="msryr9qxlf" width="33.172" height="33.306" x="0" y="0" rx="16.108"/>
    </defs>
    <g fill="none" fill-rule="evenodd">
        <g>
            <g>
                <path d="M0 0H272V109H0z" transform="translate(-39 -193) translate(39 193)"/>
                <g transform="translate(-39 -193) translate(39 193) translate(207)">
                    <rect width="63.039" height="109" fill="#FFF" rx="4.002"/>
                    <path fill="#DDD" fill-rule="nonzero" d="M55.125 89.168c.53 0 .96.424.96.946 0 .49-.378.893-.862.942l-.098.004H7.107c-.53 0-.96-.423-.96-.946 0-.49.377-.893.862-.941l.098-.005h48.018zm-17.228 8.273c.53 0 .96.424.96.947 0 .49-.377.892-.861.94l-.099.006H7.107c-.53 0-.96-.424-.96-.946 0-.49.377-.893.862-.942l.098-.005h30.79zm17.228-16.549c.53 0 .96.424.96.946 0 .49-.378.893-.862.942l-.098.004H7.107c-.53 0-.96-.423-.96-.946 0-.49.377-.893.862-.941l.098-.005h48.018zm0-8.276c.53 0 .96.424.96.946 0 .49-.378.893-.862.942l-.098.005H7.107c-.53 0-.96-.424-.96-.947 0-.49.377-.892.862-.94l.098-.006h48.018zM29.157 64.34c.53 0 .96.424.96.946 0 .49-.378.893-.862.942l-.098.005H7.107c-.53 0-.96-.424-.96-.947 0-.49.377-.892.862-.94l.098-.006h22.05z"/>
                    <g fill="#FFEEDF">
                        <path d="M4.002 0h54.266c2.21 0 4.002 1.792 4.002 4.002v36.873H0V4.002C0 1.792 1.792 0 4.002 0z" transform="translate(.769)"/>
                    </g>
                    <g transform="translate(18.439 28.764)">
                        <mask id="4s73eltj4b" fill="#fff">
                            <use xlink:href="#3u3fl9v2ia"/>
                        </mask>
                        <use fill="#F3F3F3" xlink:href="#3u3fl9v2ia"/>
                        <g mask="url(#4s73eltj4b)">
                            <g>
                                <path fill="#F3F3F3" d="M0 0H24.585V24.222H0z" transform="translate(.769 1.502)"/>
                                <g>
                                    <path fill="#A9A9A9" d="M6.764 1.066C6.634.956 6.47.926 6.3.98c-.358.113-.573.76-.658 1.979-.013.186-.045.259-.06.284-.025-.012-.066-.043-.095-.078-.017-.022-.409-.523-.643-.905-.201-.329-.162-.815-.141-1.076l.005-.066c.014-.193-.016-.58-.217-.807-.092-.104-.206-.16-.339-.169-.395-.023-.56.414-.592.676l-.002.02c0 .002 0 .189-.035.8-.014.262-.08.307-.08.307-.005.001-.02-.002-.026-.005l-.03-.015c-.003-.001-.36-.137-.644-.227-.256-.082-.463-.07-.614.035-.144.1-.222.272-.23.513-.019.52.499.67.915.79.095.027.186.053.267.082.398.141.968.76 1.13 1.087.175.357.789 1.464.815 1.51.028.051.082.083.14.083.027 0 .054-.007.077-.02.044-.023.073-.065.08-.112l1.33-.488c.029.023.065.036.102.036.089 0 .16-.07.16-.157l-.004-.23c-.013-.488-.04-1.505.09-2.35.109-.702.027-1.19-.237-1.411M20.295 2.246c-.009-.241-.086-.414-.23-.513-.151-.105-.358-.117-.615-.035-.283.09-.64.226-.644.227-.008.003-.017.007-.026.013-.01.005-.024.008-.028.007 0 0-.067-.045-.081-.308-.035-.61-.036-.797-.036-.799v-.02c-.034-.262-.195-.7-.594-.676-.132.009-.246.065-.338.169-.2.226-.23.614-.217.807l.005.066c.02.261.06.747-.141 1.076-.228.372-.6.85-.64.902-.032.037-.073.068-.098.08-.015-.025-.047-.097-.06-.283-.085-1.218-.3-1.866-.658-1.98-.17-.053-.334-.022-.464.087-.264.22-.346.709-.238 1.411.13.845.104 1.862.091 2.35l-.004.23c0 .087.071.157.16.157.037 0 .073-.013.101-.036l1.33.488c.008.047.037.089.08.112.024.013.05.02.078.02.058 0 .112-.032.14-.082.026-.047.64-1.153.816-1.51.161-.329.731-.947 1.128-1.088.082-.03.173-.055.268-.083.416-.12.934-.27.915-.789" transform="translate(.769 1.502) translate(1.23 4.844)"/>
                                    <path fill="#DDD" d="M11.053 19.397c4.093 0 7.719-1.974 9.95-5.007-.064-.13-.13-.26-.2-.388-.407-.75-.744-1.506-.976-2.329-.099-.357-.2-.714-.306-1.07-.298-.995-.592-2.014-.98-2.98-.16-.398.121-.447.761-.184.286.118 2.96 1.176 2.885.24-.023-.28-.189-.565-.35-.79-.426-.593-1.064-1.004-1.7-1.347-.735-.397-1.518-.694-2.293-1.002-1.786-.71-3.682-1.153-5.604-1.287-2.68-.188-5.404.298-7.89 1.287-.775.308-1.558.605-2.293 1.002-.636.343-1.274.754-1.7 1.347-.161.225-.327.51-.35.79-.075.936 2.599-.122 2.884-.24.64-.263.921-.214.761.185-.387.965-.68 1.984-.98 2.98-.114.38-.22.763-.327 1.146l.008-.077c-.232.823-.569 1.58-.976 2.33-.08.147-.156.296-.23.447 2.235 3 5.84 4.947 9.906 4.947" transform="translate(.769 1.502) translate(1.23 4.844)"/>
                                    <path fill="#FFF" d="M17.692 10.458c-.386-1.27-1.202-3.063-2.585-3.484-.798-.243-1.588.063-2.047.768-.29.446-.443.968-.558 1.489-.168.764-.265 1.766-1.227 1.823-.056.003-.11.001-.163-.003v-.003l-.015.002-.015-.002v.003c-.053.004-.107.006-.163.003-.963-.057-1.06-1.059-1.228-1.823-.114-.521-.267-1.043-.557-1.489-.46-.705-1.25-1.01-2.047-.768-1.383.42-2.199 2.213-2.585 3.484-.501 1.651-.81 3.381-1.025 5.111-.047.384-.09.768-.13 1.15 2.108 1.675 4.788 2.678 7.706 2.678 2.955 0 5.667-1.029 7.786-2.742-.037-.362-.077-.724-.122-1.086-.214-1.73-.524-3.46-1.025-5.111" transform="translate(.769 1.502) translate(1.23 4.844)"/>
                                    <path fill="#A9A9A9" d="M11.455 9.595c-.163-.016-.327-.011-.49 0-.154.011-.308.036-.458.071-.26.062-.68.21-.57.56.123.343.313.633.655.76v.001l.025.009c.073.025.153.042.24.052.134.018.308.027.504-.002.47-.057.717-.355.87-.733l.008-.02.004-.009c.18-.461-.445-.657-.788-.69" transform="translate(.769 1.502) translate(1.23 4.844)"/>
                                    <path fill="#DDD" d="M6.72 11.169c-.352 0-.638.1-.638.224s.286.225.638.225c.352 0 .638-.1.638-.225 0-.124-.286-.224-.638-.224M15.463 11.117c-.352.017-.632.132-.625.255.006.124.296.21.648.193.352-.018.632-.132.626-.256-.007-.124-.297-.21-.649-.192M8.78 12.476c.242-.396 4.356-.584 4.739-.206.383.377-.383 2.128-2.335 2.402-1.95.275-2.717-1.682-2.404-2.196" transform="translate(.769 1.502) translate(1.23 4.844)"/>
                                    <path fill="#A9A9A9" d="M11.858 13.15c.422.126.804.353 1.17.595.55-.584.712-1.258.49-1.475-.382-.378-4.496-.19-4.738.206-.159.261-.04.894.372 1.418.672-.706 1.76-1.025 2.706-.744M12.383 4.63l-.005-.014c-.072-.19-.227-.332-.396-.44-.2-.13-.421-.238-.655-.292-.249-.057-.509-.05-.759-.004-.14.026-.278.063-.413.11-.104.036-.204.079-.299.136-.087.053-.165.115-.24.185-.18.171-.321.41-.185.653.115.204.393.289.603.181.169-.086.339-.286.395-.481h.02c.019.149.102.319.173.432.093.148.234.271.41.31.065.013.133.017.2.01.441-.068.36-.48.36-.48s.228.254.534.17c.046-.018.089-.041.125-.07.119-.098.18-.26.132-.406M15.524 9.349c-.128-.529-.733-.814-1.244-.677-.78.21-.853 1.255-.181 1.654.4.239.893.126 1.189-.168.203-.203.313-.49.236-.81" transform="translate(.769 1.502) translate(1.23 4.844)"/>
                                    <path fill="#FFF" d="M14.26 9.025c-.125 0-.226.1-.226.223 0 .122.101.222.225.222.125 0 .226-.1.226-.222 0-.123-.101-.223-.226-.223" transform="translate(.769 1.502) translate(1.23 4.844)"/>
                                    <path fill="#A9A9A9" d="M8.649 9.498c-.128-.529-.733-.814-1.244-.676-.78.21-.853 1.254-.181 1.653.4.239.893.126 1.189-.168.203-.203.313-.49.236-.81" transform="translate(.769 1.502) translate(1.23 4.844)"/>
                                    <path fill="#FFF" d="M7.384 9.174c-.124 0-.225.1-.225.223 0 .122.1.222.225.222.124 0 .226-.1.226-.222 0-.123-.102-.223-.226-.223" transform="translate(.769 1.502) translate(1.23 4.844)"/>
                                </g>
                            </g>
                        </g>
                        <rect width="25.137" height="24.751" x=".5" y="1.257" stroke="#FFF" stroke-width="1.001" rx="12.376"/>
                    </g>
                    <path fill="#DDD" fill-rule="nonzero" d="M59.927 0C61.624 0 63 1.356 63 3.028v102.944c0 1.672-1.376 3.028-3.073 3.028H3.073C1.376 109 0 107.644 0 105.972V3.028C0 1.356 1.376 0 3.073 0h56.854zm0 .757H3.073c-1.227 0-2.23.945-2.3 2.137l-.005.134v102.944c0 1.21.96 2.198 2.17 2.267l.135.004h56.854c1.227 0 2.23-.945 2.3-2.137l.005-.134V3.028c0-1.21-.96-2.198-2.17-2.267l-.135-.004z"/>
                    <g fill="#FFD6B2" transform="translate(16.902 9.659)">
                        <ellipse cx="9.393" cy="2.057" rx="2.087" ry="2.057"/>
                        <path d="M4.453 10.928c1.608-1.994 4.572-2.363 6.616-.828L8.91 8.48c2.046 1.536 5.056 1.198 6.721-.756l1.331-1.562c1.666-1.954 4.169-1.814 5.592.314l6.67 9.977H0l4.453-5.525z"/>
                    </g>
                </g>
                <g>
                    <path fill="#FFF" d="M0 0H193V109H0z" transform="translate(-39 -193) translate(39 193) translate(2)"/>
                    <g transform="translate(-39 -193) translate(39 193) translate(2) translate(96.5 4.542)">
                        <rect width="91.977" height="99.917" fill="#FFEEDF" rx="1.464"/>
                        <g fill="#FFD6B2" transform="translate(15.832 31.035)">
                            <ellipse cx="20.732" cy="4.163" rx="4.146" ry="4.163"/>
                            <path d="M13.71 20.496c.926-1.12 2.631-1.33 3.806-.469l6.717 4.922c1.176.861 2.903.674 3.865-.426l11.916-13.636c.958-1.097 2.4-1.015 3.227.191L61.066 37.09H0l13.71-16.594z"/>
                        </g>
                    </g>
                    <g fill="#DDD" fill-rule="nonzero">
                        <path d="M50.788.845c.52 0 .942.423.942.946 0 .49-.37.893-.846.941l-.096.005H23.647c-.52 0-.942-.424-.942-.946 0-.49.37-.893.846-.941l.096-.005h27.14zM73.405 9.928c.52 0 .942.424.942.946 0 .49-.37.893-.846.941l-.096.005H1.03c-.52 0-.943-.423-.943-.946 0-.49.371-.893.846-.941l.097-.005h72.375zM73.405 19.011c.52 0 .942.424.942.946 0 .49-.37.893-.846.942l-.096.005H1.03c-.52 0-.943-.424-.943-.947 0-.49.371-.892.846-.94l.097-.006h72.375zM73.405 28.095c.52 0 .942.423.942.946 0 .49-.37.893-.846.941l-.096.005H1.03c-.52 0-.943-.424-.943-.946 0-.49.371-.893.846-.942l.097-.004h72.375z" transform="translate(-39 -193) translate(39 193) translate(2) translate(11.033 60.279)"/>
                    </g>
                    <g transform="translate(-39 -193) translate(39 193) translate(2) translate(31.664 18.924)">
                        <mask id="hwihydxl1e" fill="#fff">
                            <use xlink:href="#uv7spviqkd"/>
                        </mask>
                        <use fill="#F3F3F3" xlink:href="#uv7spviqkd"/>
                        <g mask="url(#hwihydxl1e)">
                            <g>
                                <path fill="#F3F3F3" d="M0 0H30.156V30.278H0z" transform="translate(1.508 2.27)"/>
                                <g>
                                    <path fill="#A9A9A9" d="M8.297 1.332c-.16-.136-.362-.174-.57-.107-.439.142-.703.951-.806 2.473-.016.233-.056.324-.075.355-.03-.015-.08-.053-.116-.097-.02-.027-.501-.653-.788-1.13-.247-.412-.2-1.02-.174-1.345l.007-.083c.017-.242-.02-.726-.267-1.01-.112-.129-.252-.2-.415-.21-.485-.03-.686.517-.727.845l-.001.024c0 .003-.001.237-.043 1-.018.327-.1.384-.1.384-.005.002-.023-.002-.031-.007-.012-.007-.024-.013-.035-.017-.005-.002-.443-.172-.791-.285-.314-.102-.568-.087-.754.044-.176.124-.271.34-.282.642-.023.649.612.836 1.122.986.117.035.228.067.329.104.487.176 1.186.948 1.384 1.359.215.446.969 1.829 1 1.888.035.063.101.102.173.102.033 0 .065-.008.094-.024.054-.03.089-.082.099-.14l1.631-.61c.035.028.079.045.125.045.108 0 .196-.089.196-.197 0-.063-.002-.16-.005-.287-.016-.61-.048-1.881.111-2.937.133-.879.032-1.489-.291-1.765M24.894 2.808c-.01-.302-.106-.518-.282-.642-.186-.131-.44-.146-.754-.044-.348.113-.787.283-.79.284-.01.004-.021.01-.033.017-.011.006-.03.01-.034.009 0 0-.082-.057-.1-.386-.042-.762-.043-.996-.043-.999l-.001-.024c-.04-.328-.238-.876-.728-.845-.162.01-.302.081-.415.21-.246.284-.283.768-.266 1.01l.006.082c.026.327.074.934-.173 1.345-.28.466-.735 1.062-.785 1.127-.038.047-.09.086-.12.101-.019-.031-.058-.122-.074-.355-.104-1.522-.367-2.331-.807-2.473-.207-.067-.409-.03-.569.107-.323.276-.424.886-.292 1.765.16 1.056.128 2.326.112 2.938-.003.126-.005.223-.005.286 0 .108.088.197.196.197.046 0 .09-.017.124-.045l1.632.61c.01.058.045.11.099.14.029.016.061.024.094.024.072 0 .138-.04.172-.102.032-.059.785-1.441 1-1.888.199-.41.898-1.183 1.385-1.36.1-.036.211-.069.329-.103.51-.15 1.145-.337 1.122-.986" transform="translate(1.508 2.27) translate(1.508 6.056)"/>
                                    <path fill="#DDD" d="M13.557 24.247c5.022 0 9.468-2.468 12.206-6.26-.08-.163-.16-.325-.246-.484-.5-.937-.913-1.883-1.197-2.912-.121-.446-.245-.892-.375-1.337-.367-1.244-.727-2.518-1.202-3.724-.196-.498.148-.56.933-.23.35.146 3.63 1.468 3.538.299-.028-.351-.231-.706-.43-.988-.521-.74-1.304-1.254-2.084-1.684-.901-.496-1.862-.866-2.813-1.252-2.19-.889-4.516-1.44-6.873-1.609-3.287-.234-6.63.372-9.678 1.609-.95.386-1.912.756-2.813 1.252-.78.43-1.563.943-2.084 1.684-.199.282-.403.637-.43.988-.092 1.17 3.187-.153 3.538-.3.785-.328 1.13-.267.933.23-.475 1.207-.836 2.481-1.202 3.725-.14.476-.272.955-.401 1.434l.009-.097c-.284 1.03-.698 1.975-1.197 2.912-.099.184-.192.371-.283.56 2.742 3.749 7.163 6.184 12.151 6.184" transform="translate(1.508 2.27) translate(1.508 6.056)"/>
                                    <path fill="#FFF" d="M21.7 13.072c-.473-1.588-1.474-3.829-3.17-4.355-.978-.303-1.947.08-2.51.961-.357.557-.544 1.21-.685 1.86-.206.956-.325 2.208-1.505 2.28-.069.004-.135 0-.2-.005v-.002h-.037v.002c-.065.006-.131.009-.2.004-1.18-.07-1.3-1.323-1.506-2.279-.14-.65-.327-1.303-.684-1.86-.563-.881-1.532-1.264-2.51-.96-1.696.525-2.697 2.766-3.17 4.354-.616 2.065-.995 4.227-1.258 6.39-.058.48-.11.959-.158 1.437 2.584 2.094 5.871 3.348 9.45 3.348 3.626 0 6.952-1.287 9.551-3.429-.046-.451-.095-.904-.15-1.356-.263-2.163-.642-4.325-1.258-6.39" transform="translate(1.508 2.27) translate(1.508 6.056)"/>
                                    <path fill="#A9A9A9" d="M14.05 11.993c-.199-.02-.4-.013-.6.001-.19.014-.378.044-.563.089-.318.077-.833.263-.698.7.15.428.383.79.803.95l.031.012c.09.03.188.053.295.064.163.024.378.034.617-.001.576-.072.88-.444 1.068-.917l.01-.024.004-.012c.22-.576-.546-.821-.967-.862" transform="translate(1.508 2.27) translate(1.508 6.056)"/>
                                    <path fill="#DDD" d="M8.243 13.961c-.432 0-.783.126-.783.28 0 .155.35.281.783.281.432 0 .782-.126.782-.28 0-.155-.35-.281-.782-.281M18.967 13.896c-.431.021-.775.165-.767.32.008.154.364.262.795.24.432-.022.775-.165.767-.32-.007-.155-.364-.262-.795-.24M10.77 15.595c.296-.495 5.342-.73 5.812-.258.47.472-.47 2.66-2.863 3.004-2.393.343-3.334-2.103-2.949-2.746" transform="translate(1.508 2.27) translate(1.508 6.056)"/>
                                    <path fill="#A9A9A9" d="M14.545 16.438c.517.157.986.44 1.435.744.674-.73.873-1.573.602-1.845-.47-.472-5.516-.237-5.812.258-.195.326-.049 1.117.456 1.772.824-.882 2.158-1.28 3.319-.93M15.189 5.787l-.006-.017c-.089-.237-.279-.415-.486-.55-.245-.162-.516-.297-.803-.365-.305-.072-.624-.063-.931-.005-.172.032-.341.08-.507.137-.127.045-.25.1-.366.17-.108.067-.203.145-.294.232-.221.214-.395.512-.228.816.14.255.482.361.74.227.207-.108.415-.358.484-.602h.026c.022.186.124.399.21.54.115.185.288.339.505.386.078.018.162.022.244.013.541-.084.443-.599.443-.599s.278.318.653.213c.057-.022.11-.052.154-.089.146-.121.221-.324.162-.507M19.042 11.686c-.157-.66-.9-1.017-1.526-.845-.958.262-1.047 1.568-.223 2.067.492.298 1.096.157 1.459-.21.25-.254.384-.614.29-1.012" transform="translate(1.508 2.27) translate(1.508 6.056)"/>
                                    <path fill="#FFF" d="M17.49 11.282c-.152 0-.276.124-.276.277 0 .153.124.278.276.278.153 0 .277-.125.277-.278 0-.153-.124-.277-.277-.277" transform="translate(1.508 2.27) translate(1.508 6.056)"/>
                                    <path fill="#A9A9A9" d="M10.609 11.872c-.157-.66-.9-1.017-1.526-.845-.958.263-1.047 1.568-.223 2.067.492.298 1.096.157 1.459-.21.25-.254.384-.614.29-1.012" transform="translate(1.508 2.27) translate(1.508 6.056)"/>
                                    <path fill="#FFF" d="M9.057 11.468c-.152 0-.276.125-.276.278 0 .153.124.277.276.277.153 0 .277-.124.277-.277 0-.153-.124-.278-.277-.278" transform="translate(1.508 2.27) translate(1.508 6.056)"/>
                                </g>
                            </g>
                        </g>
                        <rect width="32.44" height="32.573" x=".366" y=".366" stroke="#FFF" stroke-width=".732" rx="16.108"/>
                    </g>
                    <path fill="#DDD" fill-rule="nonzero" d="M189.984 0C191.65 0 193 1.356 193 3.028v102.944c0 1.672-1.35 3.028-3.016 3.028H3.016C1.35 109 0 107.644 0 105.972V3.028C0 1.356 1.35 0 3.016 0h186.968zm0 .757H3.016C1.81.757.826 1.702.758 2.894l-.004.134v102.944c0 1.21.941 2.198 2.129 2.267l.133.004h186.968c1.205 0 2.19-.945 2.258-2.137l.004-.134V3.028c0-1.21-.941-2.198-2.129-2.267l-.133-.004z" transform="translate(-39 -193) translate(39 193) translate(2)"/>
                </g>
            </g>
        </g>
    </g>
</svg>
