<svg xmlns="http://www.w3.org/2000/svg" xmlns:xlink="http://www.w3.org/1999/xlink" width="272" height="109" viewBox="0 0 272 109">
    <defs>
        <rect id="wbu5ogh96a" width="26.122" height="25.736" x="0" y=".745" rx="12.868"/>
        <rect id="86lygg5e4c" width="26.138" height="25.752" x="0" y=".757" rx="12.876"/>
        <rect id="u0kdxaax2d" width="33.306" height="33.306" x="0" y="0" rx="16.108"/>
        <rect id="zrn7iuoq0f" width="33.306" height="33.306" x="0" y="0" rx="16.108"/>
    </defs>
    <g fill="none" fill-rule="evenodd">
        <g>
            <g>
                <path d="M0 0H272V109H0z" transform="translate(-362 -193) translate(362 193)"/>
                <g transform="translate(-362 -193) translate(362 193) translate(207)">
                    <rect width="63.039" height="109" fill="#FFF" rx="4.002"/>
                    <path fill="#DDD" fill-rule="nonzero" d="M55.125 89.168c.53 0 .96.424.96.946 0 .49-.378.893-.862.942l-.098.004H7.107c-.53 0-.96-.423-.96-.946 0-.49.377-.893.862-.941l.098-.005h48.018zm-17.228 8.273c.53 0 .96.424.96.947 0 .49-.377.892-.861.94l-.099.006H7.107c-.53 0-.96-.424-.96-.946 0-.49.377-.893.862-.942l.098-.005h30.79zm17.228-16.549c.53 0 .96.424.96.946 0 .49-.378.893-.862.942l-.098.004H7.107c-.53 0-.96-.423-.96-.946 0-.49.377-.893.862-.941l.098-.005h48.018zm0-8.276c.53 0 .96.424.96.946 0 .49-.378.893-.862.942l-.098.005H7.107c-.53 0-.96-.424-.96-.947 0-.49.377-.892.862-.94l.098-.006h48.018zM29.157 64.34c.53 0 .96.424.96.946 0 .49-.378.893-.862.942l-.098.005H7.107c-.53 0-.96-.424-.96-.947 0-.49.377-.892.862-.94l.098-.006h22.05z"/>
                    <g fill="#EEE">
                        <path d="M4.002 0h54.266c2.21 0 4.002 1.792 4.002 4.002v36.873H0V4.002C0 1.792 1.792 0 4.002 0z" transform="translate(.769)"/>
                    </g>
                    <g transform="translate(18.439 28.764)">
                        <mask id="sdzbi7qeab" fill="#fff">
                            <use xlink:href="#wbu5ogh96a"/>
                        </mask>
                        <use fill="#F3F3F3" xlink:href="#wbu5ogh96a"/>
                        <g mask="url(#sdzbi7qeab)">
                            <g>
                                <path fill="#F3F3F3" d="M0 0H24.585V24.222H0z" transform="translate(.769 1.502)"/>
                                <g>
                                    <path fill="#A9A9A9" d="M6.764 1.066C6.634.956 6.47.926 6.3.98c-.358.113-.573.76-.658 1.979-.013.186-.045.259-.06.284-.025-.012-.066-.043-.095-.078-.017-.022-.409-.523-.643-.905-.201-.329-.162-.815-.141-1.076l.005-.066c.014-.193-.016-.58-.217-.807-.092-.104-.206-.16-.339-.169-.395-.023-.56.414-.592.676l-.002.02c0 .002 0 .189-.035.8-.014.262-.08.307-.08.307-.005.001-.02-.002-.026-.005l-.03-.015c-.003-.001-.36-.137-.644-.227-.256-.082-.463-.07-.614.035-.144.1-.222.272-.23.513-.019.52.499.67.915.79.095.027.186.053.267.082.398.141.968.76 1.13 1.087.175.357.789 1.464.815 1.51.028.051.082.083.14.083.027 0 .054-.007.077-.02.044-.023.073-.065.08-.112l1.33-.488c.029.023.065.036.102.036.089 0 .16-.07.16-.157l-.004-.23c-.013-.488-.04-1.505.09-2.35.109-.702.027-1.19-.237-1.411M20.295 2.246c-.009-.241-.086-.414-.23-.513-.151-.105-.358-.117-.615-.035-.283.09-.64.226-.644.227-.008.003-.017.007-.026.013-.01.005-.024.008-.028.007 0 0-.067-.045-.081-.308-.035-.61-.036-.797-.036-.799v-.02c-.034-.262-.195-.7-.594-.676-.132.009-.246.065-.338.169-.2.226-.23.614-.217.807l.005.066c.02.261.06.747-.141 1.076-.228.372-.6.85-.64.902-.032.037-.073.068-.098.08-.015-.025-.047-.097-.06-.283-.085-1.218-.3-1.866-.658-1.98-.17-.053-.334-.022-.464.087-.264.22-.346.709-.238 1.411.13.845.104 1.862.091 2.35l-.004.23c0 .087.071.157.16.157.037 0 .073-.013.101-.036l1.33.488c.008.047.037.089.08.112.024.013.05.02.078.02.058 0 .112-.032.14-.082.026-.047.64-1.153.816-1.51.161-.329.731-.947 1.128-1.088.082-.03.173-.055.268-.083.416-.12.934-.27.915-.789" transform="translate(.769 1.502) translate(1.23 4.844)"/>
                                    <path fill="#DDD" d="M11.053 19.397c4.093 0 7.719-1.974 9.95-5.007-.064-.13-.13-.26-.2-.388-.407-.75-.744-1.506-.976-2.329-.099-.357-.2-.714-.306-1.07-.298-.995-.592-2.014-.98-2.98-.16-.398.121-.447.761-.184.286.118 2.96 1.176 2.885.24-.023-.28-.189-.565-.35-.79-.426-.593-1.064-1.004-1.7-1.347-.735-.397-1.518-.694-2.293-1.002-1.786-.71-3.682-1.153-5.604-1.287-2.68-.188-5.404.298-7.89 1.287-.775.308-1.558.605-2.293 1.002-.636.343-1.274.754-1.7 1.347-.161.225-.327.51-.35.79-.075.936 2.599-.122 2.884-.24.64-.263.921-.214.761.185-.387.965-.68 1.984-.98 2.98-.114.38-.22.763-.327 1.146l.008-.077c-.232.823-.569 1.58-.976 2.33-.08.147-.156.296-.23.447 2.235 3 5.84 4.947 9.906 4.947" transform="translate(.769 1.502) translate(1.23 4.844)"/>
                                    <path fill="#FFF" d="M17.692 10.458c-.386-1.27-1.202-3.063-2.585-3.484-.798-.243-1.588.063-2.047.768-.29.446-.443.968-.558 1.489-.168.764-.265 1.766-1.227 1.823-.056.003-.11.001-.163-.003v-.003l-.015.002-.015-.002v.003c-.053.004-.107.006-.163.003-.963-.057-1.06-1.059-1.228-1.823-.114-.521-.267-1.043-.557-1.489-.46-.705-1.25-1.01-2.047-.768-1.383.42-2.199 2.213-2.585 3.484-.501 1.651-.81 3.381-1.025 5.111-.047.384-.09.768-.13 1.15 2.108 1.675 4.788 2.678 7.706 2.678 2.955 0 5.667-1.029 7.786-2.742-.037-.362-.077-.724-.122-1.086-.214-1.73-.524-3.46-1.025-5.111" transform="translate(.769 1.502) translate(1.23 4.844)"/>
                                    <path fill="#A9A9A9" d="M11.455 9.595c-.163-.016-.327-.011-.49 0-.154.011-.308.036-.458.071-.26.062-.68.21-.57.56.123.343.313.633.655.76v.001l.025.009c.073.025.153.042.24.052.134.018.308.027.504-.002.47-.057.717-.355.87-.733l.008-.02.004-.009c.18-.461-.445-.657-.788-.69" transform="translate(.769 1.502) translate(1.23 4.844)"/>
                                    <path fill="#DDD" d="M6.72 11.169c-.352 0-.638.1-.638.224s.286.225.638.225c.352 0 .638-.1.638-.225 0-.124-.286-.224-.638-.224M15.463 11.117c-.352.017-.632.132-.625.255.006.124.296.21.648.193.352-.018.632-.132.626-.256-.007-.124-.297-.21-.649-.192M8.78 12.476c.242-.396 4.356-.584 4.739-.206.383.377-.383 2.128-2.335 2.402-1.95.275-2.717-1.682-2.404-2.196" transform="translate(.769 1.502) translate(1.23 4.844)"/>
                                    <path fill="#A9A9A9" d="M11.858 13.15c.422.126.804.353 1.17.595.55-.584.712-1.258.49-1.475-.382-.378-4.496-.19-4.738.206-.159.261-.04.894.372 1.418.672-.706 1.76-1.025 2.706-.744M12.383 4.63l-.005-.014c-.072-.19-.227-.332-.396-.44-.2-.13-.421-.238-.655-.292-.249-.057-.509-.05-.759-.004-.14.026-.278.063-.413.11-.104.036-.204.079-.299.136-.087.053-.165.115-.24.185-.18.171-.321.41-.185.653.115.204.393.289.603.181.169-.086.339-.286.395-.481h.02c.019.149.102.319.173.432.093.148.234.271.41.31.065.013.133.017.2.01.441-.068.36-.48.36-.48s.228.254.534.17c.046-.018.089-.041.125-.07.119-.098.18-.26.132-.406M15.524 9.349c-.128-.529-.733-.814-1.244-.677-.78.21-.853 1.255-.181 1.654.4.239.893.126 1.189-.168.203-.203.313-.49.236-.81" transform="translate(.769 1.502) translate(1.23 4.844)"/>
                                    <path fill="#FFF" d="M14.26 9.025c-.125 0-.226.1-.226.223 0 .122.101.222.225.222.125 0 .226-.1.226-.222 0-.123-.101-.223-.226-.223" transform="translate(.769 1.502) translate(1.23 4.844)"/>
                                    <path fill="#A9A9A9" d="M8.649 9.498c-.128-.529-.733-.814-1.244-.676-.78.21-.853 1.254-.181 1.653.4.239.893.126 1.189-.168.203-.203.313-.49.236-.81" transform="translate(.769 1.502) translate(1.23 4.844)"/>
                                    <path fill="#FFF" d="M7.384 9.174c-.124 0-.225.1-.225.223 0 .122.1.222.225.222.124 0 .226-.1.226-.222 0-.123-.102-.223-.226-.223" transform="translate(.769 1.502) translate(1.23 4.844)"/>
                                </g>
                            </g>
                        </g>
                        <rect width="25.137" height="24.751" x=".5" y="1.257" stroke="#FFF" stroke-width="1.001" rx="12.376"/>
                    </g>
                    <path fill="#DDD" fill-rule="nonzero" d="M59.927 0C61.624 0 63 1.356 63 3.028v102.944c0 1.672-1.376 3.028-3.073 3.028H3.073C1.376 109 0 107.644 0 105.972V3.028C0 1.356 1.376 0 3.073 0h56.854zm0 .757H3.073c-1.227 0-2.23.945-2.3 2.137l-.005.134v102.944c0 1.21.96 2.198 2.17 2.267l.135.004h56.854c1.227 0 2.23-.945 2.3-2.137l.005-.134V3.028c0-1.21-.96-2.198-2.17-2.267l-.135-.004z"/>
                    <g fill="#DDD" transform="translate(16.902 9.659)">
                        <ellipse cx="9.393" cy="2.057" rx="2.087" ry="2.057"/>
                        <path d="M4.453 10.928c1.608-1.994 4.572-2.363 6.616-.828L8.91 8.48c2.046 1.536 5.056 1.198 6.721-.756l1.331-1.562c1.666-1.954 4.169-1.814 5.592.314l6.67 9.977H0l4.453-5.525z"/>
                    </g>
                </g>
                <g>
                    <g transform="translate(-362 -193) translate(362 193) translate(2) translate(96.889 4.542)">
                        <rect width="92.347" height="99.917" fill="#EEE" rx="1.464"/>
                        <g fill="#DDD" transform="translate(15.896 31.035)">
                            <circle cx="20.816" cy="4.163" r="4.163"/>
                            <path d="M13.766 20.496c.93-1.12 2.641-1.33 3.807-.478l6.77 4.94c1.174.856 2.902.665 3.868-.435l11.964-13.636c.962-1.097 2.41-1.015 3.232.18L61.313 37.09H0l13.766-16.594z"/>
                        </g>
                    </g>
                    <g fill="#DDD" fill-rule="nonzero">
                        <path d="M50.992.845c.523 0 .946.423.946.946 0 .49-.372.893-.85.941l-.096.005h-27.25c-.522 0-.946-.424-.946-.946 0-.49.372-.893.85-.941l.096-.005h27.25zM73.7 9.928c.523 0 .947.424.947.946 0 .49-.373.893-.85.941l-.096.005H1.034c-.523 0-.946-.423-.946-.946 0-.49.372-.893.85-.941l.096-.005H73.7zM73.7 19.011c.523 0 .947.424.947.946 0 .49-.373.893-.85.942l-.096.005H1.034c-.523 0-.946-.424-.946-.947 0-.49.372-.892.85-.94l.096-.006H73.7zM73.7 28.095c.523 0 .947.423.947.946 0 .49-.373.893-.85.941l-.096.005H1.034c-.523 0-.946-.424-.946-.946 0-.49.372-.893.85-.942l.096-.004H73.7z" transform="translate(-362 -193) translate(362 193) translate(2) translate(11.077 60.279)"/>
                    </g>
                    <g transform="translate(-362 -193) translate(362 193) translate(2) translate(31.792 18.924)">
                        <mask id="ikqfzpubve" fill="#fff">
                            <use xlink:href="#u0kdxaax2d"/>
                        </mask>
                        <use fill="#F3F3F3" xlink:href="#u0kdxaax2d"/>
                        <g mask="url(#ikqfzpubve)">
                            <g>
                                <path fill="#F3F3F3" d="M0 0H30.278V30.278H0z" transform="translate(1.514 2.27)"/>
                                <g>
                                    <path fill="#A9A9A9" d="M8.33 1.332c-.16-.136-.363-.174-.571-.107-.441.142-.706.951-.81 2.473-.016.233-.056.324-.075.355-.03-.015-.08-.053-.117-.097-.02-.027-.503-.653-.791-1.13-.248-.412-.2-1.02-.174-1.345l.006-.083c.017-.242-.02-.726-.267-1.01-.114-.129-.254-.2-.417-.21-.488-.03-.69.517-.73.845l-.002.024c0 .003 0 .237-.043 1-.018.327-.1.384-.1.384-.005.002-.023-.002-.031-.007-.012-.007-.024-.013-.036-.017-.004-.002-.444-.172-.793-.285-.316-.102-.57-.087-.757.044-.178.124-.273.34-.284.642-.023.649.615.836 1.127.986.118.035.229.067.33.104.49.176 1.191.948 1.39 1.359.216.446.972 1.829 1.005 1.888.034.063.1.102.172.102.033 0 .066-.008.095-.024.054-.03.09-.082.1-.14l1.637-.61c.035.028.079.045.125.045.11 0 .197-.089.197-.197 0-.063-.002-.16-.005-.287-.016-.61-.048-1.881.112-2.937.133-.879.032-1.489-.293-1.765M24.994 2.808c-.01-.302-.106-.518-.283-.642-.187-.131-.441-.146-.757-.044-.35.113-.79.283-.793.284-.01.004-.021.01-.033.017-.012.006-.03.01-.034.009 0 0-.082-.057-.1-.386-.043-.762-.044-.996-.044-.999l-.001-.024c-.04-.328-.24-.876-.73-.845-.164.01-.304.081-.417.21-.247.284-.284.768-.267 1.01l.006.082c.026.327.073.934-.174 1.345-.281.466-.738 1.062-.789 1.127-.038.047-.09.086-.12.101-.019-.031-.058-.122-.074-.355-.104-1.522-.37-2.331-.81-2.473-.208-.067-.411-.03-.572.107-.324.276-.426.886-.293 1.765.16 1.056.128 2.326.113 2.938-.003.126-.006.223-.006.286 0 .108.088.197.197.197.047 0 .09-.017.125-.045l1.638.61c.01.058.046.11.1.14.029.016.061.024.094.024.072 0 .138-.04.173-.102.032-.059.788-1.441 1.005-1.888.198-.41.9-1.183 1.39-1.36.1-.036.212-.069.33-.103.512-.15 1.149-.337 1.126-.986" transform="translate(1.514 2.27) translate(1.514 6.056)"/>
                                    <path fill="#DDD" d="M13.612 24.247c5.041 0 9.506-2.468 12.255-6.26-.08-.163-.161-.325-.247-.484-.501-.937-.917-1.883-1.202-2.912-.122-.446-.246-.892-.377-1.337-.368-1.244-.73-2.518-1.207-3.724-.197-.498.15-.56.938-.23.351.146 3.644 1.468 3.552.299-.028-.351-.233-.706-.432-.988-.523-.74-1.31-1.254-2.093-1.684-.904-.496-1.87-.866-2.824-1.252-2.199-.889-4.534-1.44-6.9-1.609-3.301-.234-6.657.372-9.717 1.609-.955.386-1.92.756-2.825 1.252-.783.43-1.57.943-2.093 1.684-.199.282-.403.637-.431.988-.093 1.17 3.2-.153 3.552-.3.788-.328 1.134-.267.937.23-.477 1.207-.839 2.481-1.207 3.725-.14.476-.272.955-.403 1.434l.01-.097c-.285 1.03-.7 1.975-1.203 2.912-.098.184-.192.371-.283.56 2.753 3.749 7.192 6.184 12.2 6.184" transform="translate(1.514 2.27) translate(1.514 6.056)"/>
                                    <path fill="#FFF" d="M21.788 13.072c-.475-1.588-1.48-3.829-3.183-4.355-.983-.303-1.956.08-2.521.961-.358.557-.546 1.21-.687 1.86-.207.956-.326 2.208-1.511 2.28-.07.004-.136 0-.202-.005v-.002h-.036v.002c-.065.006-.132.009-.201.004-1.185-.07-1.305-1.323-1.512-2.279-.14-.65-.329-1.303-.687-1.86-.565-.881-1.538-1.264-2.52-.96-1.703.525-2.708 2.766-3.183 4.354-.618 2.065-1 4.227-1.263 6.39-.058.48-.11.959-.159 1.437 2.595 2.094 5.895 3.348 9.489 3.348 3.64 0 6.98-1.287 9.59-3.429-.047-.451-.096-.904-.152-1.356-.263-2.163-.644-4.325-1.262-6.39" transform="translate(1.514 2.27) translate(1.514 6.056)"/>
                                    <path fill="#A9A9A9" d="M14.107 11.993c-.2-.02-.403-.013-.603.001-.19.014-.38.044-.565.089-.32.077-.836.263-.701.7.151.428.385.79.806.95l.032.012c.09.03.188.053.295.064.165.024.38.034.62-.001.578-.072.884-.444 1.073-.917l.01-.024.003-.012c.222-.576-.548-.821-.97-.862" transform="translate(1.514 2.27) translate(1.514 6.056)"/>
                                    <path fill="#DDD" d="M8.276 13.961c-.434 0-.786.126-.786.28 0 .155.352.281.786.281.434 0 .785-.126.785-.28 0-.155-.351-.281-.785-.281M19.043 13.896c-.433.021-.777.165-.77.32.008.154.366.262.799.24.433-.022.778-.165.77-.32-.008-.155-.365-.262-.799-.24M10.813 15.595c.297-.495 5.364-.73 5.836-.258.472.472-.472 2.66-2.875 3.004-2.403.343-3.347-2.103-2.96-2.746" transform="translate(1.514 2.27) translate(1.514 6.056)"/>
                                    <path fill="#A9A9A9" d="M14.604 16.438c.52.157.99.44 1.44.744.678-.73.877-1.573.605-1.845-.472-.472-5.539-.237-5.836.258-.196.326-.049 1.117.458 1.772.827-.882 2.167-1.28 3.333-.93M15.25 5.787l-.006-.017c-.09-.237-.28-.415-.487-.55-.247-.162-.52-.297-.807-.365-.307-.072-.627-.063-.935-.005-.173.032-.343.08-.508.137-.129.045-.253.1-.369.17-.107.067-.204.145-.294.232-.223.214-.397.512-.23.816.142.255.485.361.743.227.208-.108.418-.358.487-.602h.025c.023.186.125.399.212.54.115.185.289.339.506.386.08.018.163.022.245.013.544-.084.445-.599.445-.599s.28.318.656.213c.057-.022.11-.052.154-.089.147-.121.223-.324.163-.507M19.119 11.686c-.158-.66-.904-1.017-1.533-.845-.961.262-1.05 1.568-.223 2.067.494.298 1.1.157 1.464-.21.25-.254.387-.614.292-1.012" transform="translate(1.514 2.27) translate(1.514 6.056)"/>
                                    <path fill="#FFF" d="M17.56 11.282c-.152 0-.277.124-.277.277 0 .153.125.278.278.278.153 0 .277-.125.277-.278 0-.153-.124-.277-.277-.277" transform="translate(1.514 2.27) translate(1.514 6.056)"/>
                                    <path fill="#A9A9A9" d="M10.652 11.872c-.158-.66-.904-1.017-1.533-.845-.961.263-1.05 1.568-.223 2.067.494.298 1.1.157 1.464-.21.25-.254.387-.614.292-1.012" transform="translate(1.514 2.27) translate(1.514 6.056)"/>
                                    <path fill="#FFF" d="M9.094 11.468c-.153 0-.278.125-.278.278 0 .153.125.277.278.277.153 0 .277-.124.277-.277 0-.153-.124-.278-.277-.278" transform="translate(1.514 2.27) translate(1.514 6.056)"/>
                                </g>
                            </g>
                        </g>
                        <rect width="32.573" height="32.573" x=".366" y=".366" stroke="#FFF" stroke-width=".732" rx="16.108"/>
                    </g>
                    <path fill="#DDD" fill-rule="nonzero" d="M190.75 0c1.672 0 3.028 1.356 3.028 3.028v102.944c0 1.672-1.356 3.028-3.028 3.028H3.028C1.356 109 0 107.644 0 105.972V3.028C0 1.356 1.356 0 3.028 0H190.75zm0 .757H3.028C1.818.757.83 1.702.76 2.894l-.004.134v102.944c0 1.21.945 2.198 2.137 2.267l.134.004H190.75c1.21 0 2.198-.945 2.267-2.137l.004-.134V3.028c0-1.21-.946-2.198-2.138-2.267l-.133-.004z" transform="translate(-362 -193) translate(362 193) translate(2)"/>
                </g>
            </g>
        </g>
    </g>
</svg>
