<svg xmlns="http://www.w3.org/2000/svg" xmlns:xlink="http://www.w3.org/1999/xlink" width="192" height="107" viewBox="0 0 192 107">
    <defs>
        <radialGradient id="prpyviz8vc" cx="48.268%" cy="30.281%" r="50.578%" fx="48.268%" fy="30.281%" gradientTransform="matrix(1 0 0 .706 0 .089)">
            <stop offset="8%" stop-color="#C48B65"/>
            <stop offset="61%" stop-color="#B26937"/>
        </radialGradient>
        <radialGradient id="nlq18er67d" cx="51.505%" cy="49.998%" r="62.472%" fx="51.505%" fy="49.998%" gradientTransform="matrix(1 0 0 .70178 0 .15)">
            <stop offset="0%" stop-color="#FFE4CB"/>
            <stop offset="100%" stop-color="#FFD6B2"/>
        </radialGradient>
        <linearGradient id="wbgbn7bu0e" x1="45.432%" x2="59.38%" y1="26.04%" y2="108.936%">
            <stop offset="0%" stop-color="#CEAC7C"/>
            <stop offset="66%" stop-color="#BE9B72"/>
            <stop offset="83%" stop-color="#BB9972"/>
            <stop offset="94%" stop-color="#B29272"/>
            <stop offset="100%" stop-color="#AA8B72"/>
        </linearGradient>
        <path id="i7d6xhpp6a" d="M0 0H192V107H0z"/>
    </defs>
    <g fill="none" fill-rule="evenodd">
        <g>
            <g>
                <g transform="translate(-323 -125) translate(49 53) translate(274 72)">
                    <mask id="s98mx48i0b" fill="#fff">
                        <use xlink:href="#i7d6xhpp6a"/>
                    </mask>
                    <g mask="url(#s98mx48i0b)">
                        <path stroke="#FFDE82" stroke-linecap="round" stroke-linejoin="round" stroke-width="1.587" d="M41.465 24.323L40.277 23.666"/>
                        <path stroke="#FFDE82" stroke-dasharray="2.471" stroke-linecap="round" stroke-linejoin="round" stroke-width="1.587" d="M36.676 21.679L9.681 6.778"/>
                        <path stroke="#FFDE82" stroke-linecap="round" stroke-linejoin="round" stroke-width="1.587" d="M7.881 5.783L6.693 5.128M39.708 39.992L38.35 39.906"/>
                        <path stroke="#FFDE82" stroke-dasharray="2.471" stroke-linecap="round" stroke-linejoin="round" stroke-width="1.587" d="M34.239 39.645L3.412 37.692"/>
                        <path stroke="#FFDE82" stroke-linecap="round" stroke-linejoin="round" stroke-width="1.587" d="M1.356 37.561L0 37.476M40.367 55.215L39.05 55.552"/>
                        <path stroke="#FFDE82" stroke-dasharray="2.471" stroke-linecap="round" stroke-linejoin="round" stroke-width="1.587" d="M35.062 56.574L5.149 64.229"/>
                        <path stroke="#FFDE82" stroke-linecap="round" stroke-linejoin="round" stroke-width="1.587" d="M3.156 64.738L1.839 65.075M150.535 24.323L151.723 23.666"/>
                        <path stroke="#FFDE82" stroke-dasharray="2.471" stroke-linecap="round" stroke-linejoin="round" stroke-width="1.587" d="M155.324 21.679L182.319 6.778"/>
                        <path stroke="#FFDE82" stroke-linecap="round" stroke-linejoin="round" stroke-width="1.587" d="M184.119 5.783L185.307 5.128M152.292 39.992L153.65 39.906"/>
                        <path stroke="#FFDE82" stroke-dasharray="2.471" stroke-linecap="round" stroke-linejoin="round" stroke-width="1.587" d="M157.761 39.645L188.588 37.692"/>
                        <path stroke="#FFDE82" stroke-linecap="round" stroke-linejoin="round" stroke-width="1.587" d="M190.642 37.561L192 37.476M151.633 55.215L152.95 55.552"/>
                        <path stroke="#FFDE82" stroke-dasharray="2.471" stroke-linecap="round" stroke-linejoin="round" stroke-width="1.587" d="M156.938 56.574L186.851 64.229"/>
                        <path stroke="#FFDE82" stroke-linecap="round" stroke-linejoin="round" stroke-width="1.587" d="M188.844 64.738L190.161 65.075"/>
                        <g fill-rule="nonzero" transform="translate(16.38)">
                            <rect width="7.935" height="29.143" x="53.731" y="14.082" fill="#F2F6F7" rx="2.417" transform="rotate(-180 57.699 28.654)"/>
                            <path fill="#F2F6F7" d="M57.699 43.227h8.132c1.22 0 2.209-.98 2.209-2.191v-23.39h-9.872l-.47 25.581z"/>
                            <path fill="#F2F6F7" d="M53.736 29.231L111.554 29.231 111.456 0 53.729 0z"/>
                            <g fill="#39C8D0" opacity=".28">
                                <path d="M.97.035h49.268c.535 0 .968.434.968.969v.41c0 .535-.433.969-.968.969H.97c-.535 0-.968-.434-.968-.969v-.41C.002.468.435.034.97.034z" transform="translate(57.03 7.985) rotate(-.08 25.604 1.21)"/>
                                <path d="M.977 5.447h49.269c.534 0 .968.434.968.969v.41c0 .535-.434.969-.968.969H.977c-.534 0-.968-.434-.968-.969v-.41c0-.535.434-.969.968-.969z" transform="translate(57.03 7.985) rotate(-.08 25.612 6.621)"/>
                                <path d="M.985 10.861h49.268c.535 0 .968.434.968.969v.41c0 .535-.433.969-.968.969H.985c-.535 0-.968-.434-.968-.969v-.41c0-.535.433-.969.968-.969z" transform="translate(57.03 7.985) rotate(-.08 25.62 12.035)"/>
                            </g>
                            <path fill="#FFF" d="M65.868 16.74L71.406 23.54 70.01 16.74z"/>
                            <path fill="#009EED" d="M65.72 45.858c1.057.008 2.074-.402 2.827-1.138.753-.736 1.18-1.74 1.188-2.789v-21.29c-.007-1.049-.435-2.052-1.188-2.788-.753-.737-1.77-1.146-2.827-1.138-2.202-.016-4 1.741-4.017 3.927v21.29c.017 2.184 1.815 3.942 4.017 3.926z"/>
                            <path fill="#F3F3F3" d="M69.887 93.057h57.691V20.873c0-2.234-1.693-4.05-3.781-4.05H69.806l.081 76.234z"/>
                            <path fill="#009EED" d="M65.498 43.407L68.792 43.385 68.586 41.238z"/>
                            <path fill="#39C8D0" fill-opacity=".28" d="M73.071 23.831L124.275 23.831 124.276 53.456 73.071 53.455z" transform="rotate(-.08 98.673 38.643)"/>
                            <rect width="44.02" height="2.018" x="76.603" y="31.47" fill="#FEFAF6" rx=".832"/>
                            <path fill="#FEFAF6" d="M77.494 37.634h42.356c.46 0 .832.373.832.832v.355c0 .46-.373.832-.832.832H77.494c-.46 0-.832-.373-.832-.833v-.354c0-.46.372-.832.832-.832z" transform="rotate(-.08 98.672 38.643)"/>
                            <path fill="#FEFAF6" d="M88.517 43.975h20.33c.46 0 .832.373.832.833v.354c0 .46-.372.832-.832.832h-20.33c-.46 0-.832-.373-.832-.832v-.355c0-.46.373-.832.832-.832z" transform="rotate(-.08 98.682 44.985)"/>
                            <g fill="#39C8D0" opacity=".28">
                                <path d="M.97.035h49.268c.535 0 .968.434.968.969v.41c0 .535-.433.969-.968.969H.97c-.535 0-.968-.434-.968-.969v-.41C.002.468.435.034.97.034z" transform="translate(73.096 56.539) rotate(-.08 25.604 1.21)"/>
                                <path d="M.977 5.45h49.269c.534 0 .968.433.968.968v.41c0 .536-.434.969-.968.969H.977c-.534 0-.968-.434-.968-.969v-.41c0-.535.434-.969.968-.969z" transform="translate(73.096 56.539) rotate(-.08 25.612 6.623)"/>
                                <path d="M.985 10.861h49.268c.535 0 .968.434.968.969v.41c0 .535-.433.969-.968.969H.985c-.535 0-.968-.434-.968-.969v-.41c0-.535.433-.969.968-.969z" transform="translate(73.096 56.539) rotate(-.08 25.62 12.035)"/>
                            </g>
                            <g fill="#39C8D0" opacity=".28" transform="translate(73.01 72.83)">
                                <path d="M1.08.035h49.268c.535 0 .968.434.968.969v.41c0 .535-.433.969-.968.969H1.08c-.535 0-.968-.434-.969-.969v-.41c0-.535.434-.969.969-.969z" transform="rotate(-.08 25.714 1.21)"/>
                                <rect width="51.205" height="2.347" y="5.629" rx=".968"/>
                                <path d="M1.095 10.861h49.268c.535 0 .968.434.968.969v.41c0 .535-.433.969-.968.969H1.095c-.535 0-.968-.434-.968-.969v-.41c0-.535.433-.969.968-.969z" transform="rotate(-.08 25.729 12.035)"/>
                            </g>
                            <path fill="#854C37" d="M35.909 10.488c-.422-.497-1.08-.733-1.726-.618-1.444.225-2.677 2.587-3.77 7.239-.165.71-.335.972-.41 1.06-.126-.1-.233-.222-.315-.36-.05-.093-1.238-2.271-1.894-3.891-.564-1.393-.108-3.245.136-4.242l.062-.252c.174-.738.304-2.25-.325-3.252-.26-.438-.692-.749-1.192-.86-1.5-.332-2.403 1.254-2.696 2.251-.008.024-.014.05-.018.074 0 0-.122.732-.637 3.065-.227 1.006-.506 1.141-.506 1.141-.034-.004-.067-.017-.095-.038-.031-.027-.064-.05-.1-.072-.013 0-1.299-.754-2.328-1.276-.932-.473-1.732-.556-2.378-.243-.646.313-1.02.914-1.206 1.84-.406 1.992 1.491 2.892 3.01 3.608.35.164.68.322.975.484 1.435.792 3.231 3.528 3.641 4.894.454 1.487 2.107 6.139 2.177 6.337.076.212.263.367.487.402.103.016.208.007.306-.027.18-.063.319-.204.38-.382l5.406-1.067c.095.109.225.18.368.203.338.054.657-.175.712-.511.031-.191.072-.495.127-.889.258-1.895.8-5.837 1.83-9.019.856-2.646.85-4.584-.021-5.599zM87.039 23.385c.118-.939-.07-1.652-.558-2.127-.488-.475-1.301-.675-2.335-.513-1.145.173-2.6.48-2.612.482-.038.007-.075.019-.111.033-.037.01-.075.01-.111 0 0 0-.227-.225-.118-1.24.254-2.378.367-3.103.37-3.107.002-.026.002-.051 0-.077.04-1.035-.302-2.826-1.846-2.977-.51-.05-1.019.114-1.404.45-.906.75-1.274 2.228-1.342 2.984 0 .079-.013.164-.022.259-.084 1.022-.24 2.925-1.22 4.066-1.107 1.299-2.832 2.912-3.022 3.088-.124.11-.268.196-.424.254-.043-.108-.12-.41-.052-1.125.453-4.757.024-7.39-1.277-8.05-.574-.314-1.275-.295-1.832.048-1.15.688-1.773 2.525-1.8 5.304-.034 3.344-.775 7.252-1.134 9.136-.072.387-.129.675-.16.88-.039.235.063.472.262.606.198.135.457.144.665.024l4.79 2.7c0 .264.17.498.42.583.252.084.53 0 .691-.21.13-.164 3.174-4.05 4.081-5.33.826-1.168 3.401-3.202 5.013-3.504.333-.06.694-.106 1.077-.153 1.675-.21 3.754-.468 4.01-2.484z"/>
                            <path fill="url(#prpyviz8vc)" d="M89.832 42.233c-1.256-2.55-3.444-4.53-5.668-6.25-2.567-1.984-5.383-3.61-8.162-5.28-7.586-4.562-16.068-7.809-24.84-9.249l-.095-.014-.095-.015c-8.779-1.382-17.861-.957-26.51.994-3.174.714-6.348 1.377-9.423 2.458-2.655.933-5.36 2.126-7.364 4.154-.761.771-1.587 1.766-1.84 2.837-.878 3.567 10.039 1.125 11.208.85 2.619-.62 3.666-.258 2.803 1.182-4.585 7.637-6.716 16.258-9.053 24.753-1.907 6.873-3.17 13.907-3.773 21.01-.549 6.61-.476 13.29.476 19.861 3.594 24.785 4.843 30.986 4.843 30.986s.277 11.252 6.072 10.275c0 0 4.643.304 6.076-4.831 0 0 1.723-12.206 19.219-12.08 0 0 11.252-1.888 17.185 7.721 0 0 2.494 4.028 3.122 6.197.628 2.17 2.65 2.878 5.307 2.989 0 0 3.914 1.165 5.215-4.897l-.138.034s1.244-12.613 2.884-20.865c1.639-8.251 3.865-23.708 2.927-31.503-.572-4.753-1.884-11.902-2.82-16.749-.303-1.566-.31-3.175-.021-4.743.183-.836.435-1.655.755-2.449 1.054-3.886.31-9.064-.324-12.151-.354-1.474-.737-2.943-1.064-4.42-.363-1.638.744-1.654 3.034-.245 1.02.63 10.603 6.364 10.905 2.7.093-1.089-.363-2.29-.841-3.26z"/>
                            <path fill="#854C37" d="M75.798 93.957l4.376-2.925c-.039.801-.599 2.64-1.522 3.522-1.121 1.091-2.574 1.785-4.133 1.975-1.12.151-3.305-.036-3.305-.036s.05-.922.226-2.236l4.358-.3z"/>
                            <ellipse cx="75.67" cy="104.731" fill="#FFD6B2" rx="1.679" ry="2.77" transform="rotate(-17.54 75.67 104.731)"/>
                            <path fill="#FFD6B2" d="M12.237 102.031c-.887-.277-1.98.675-2.444 2.136-.465 1.46-.123 2.862.762 3.15.884.288 1.979-.675 2.444-2.135.464-1.46.122-2.876-.762-3.15zM8.623 101.158c.062-.01.123-.023.184-.04 1.253-.374 1.766-2.347 1.133-4.413-.222-.765-.602-1.475-1.115-2.086-.594-.687-1.304-1.076-1.968-1.026.134 1.983.342 3.959.623 5.927l.227 1.514c.288.124.605.166.916.124z"/>
                            <ellipse cx="29.234" cy="50.351" fill="#DB748A" rx="1" ry="2.475" transform="rotate(-80.8 29.234 50.351)"/>
                            <path fill="#985C37" d="M55.203 27.714v-.056c-.16-.776-.662-1.422-1.24-1.944-.682-.64-1.47-1.157-2.329-1.528-.924-.36-1.914-.525-2.906-.484-.555.015-1.107.071-1.653.169-.422.07-.835.184-1.231.342-.365.152-.712.342-1.034.57-.8.548-1.494 1.38-1.134 2.405.335.874 1.295 1.342 2.197 1.07.787-.294 1.434-.87 1.814-1.615l.08.016c.01.61.14 1.212.387 1.77.245.648.743 1.17 1.38 1.45.242.093.497.148.756.162 1.734 0 1.686-1.63 1.686-1.63s.71 1.126 1.937.986c.184-.037.36-.104.523-.198.535-.295.838-.881.767-1.485z"/>
                            <ellipse cx="63.207" cy="55.809" fill="#DB748A" rx="1" ry="2.475" transform="rotate(-80.8 63.207 55.81)"/>
                            <path fill="url(#nlq18er67d)" d="M70.128 64.56c-.384-2.55-.651-5.108-.558-7.69.113-3.969.832-7.922-.358-11.85-1.109-3.663-4.009-7.213-8.144-7.292-3.498-.068-6.496 2.763-7.829 5.974-.68 1.652-1.045 3.432-1.854 5.027-.81 1.596-2.231 3.052-4.022 3.225-2.109.202-4.018-1.476-4.83-3.418-.811-1.942-.793-4.111-.877-6.21-.084-2.1-.322-4.308-1.533-6.034-2.434-3.468-7.966-3.438-11.444-.997-3.478 2.442-5.346 6.526-6.852 10.48-6.158 16.168-8.883 33.931-5.534 50.896.68 3.472 1.66 6.976 3.739 9.858 2.416 3.347 6.148 5.565 10.055 6.95 6.423 2.279 13.45 2.504 20.162 1.408 4.375-.713 8.79-2.084 12.546-4.363h-.147c.284-.13.558-.273.825-.423.913-.592 1.783-1.247 2.603-1.96 4.063-4.006 5.38-10.142 5.947-15.59.635-6.112.317-12.314-.38-18.405-.368-3.202-1.035-6.386-1.515-9.586z"/>
                            <path fill="#292929" d="M67.613 95.08c-2.22-.965-12.47-6.505-14.127-7.599l2.775-.954.882-1.163 4.696 1.14 10.476 3.99.427.162c-.227 1.917-.862 4.447-1.245 5.876-1.321-.41-2.618-.895-3.884-1.452z" opacity=".3"/>
                            <path fill="#854C37" d="M58.857 72.679v0z"/>
                            <path fill="#FFD6B2" d="M79.824 98.291c-.99-.027-1.976-.138-2.947-.333-.154 1.575.372 2.926 1.38 3.218.06.018.122.031.184.04.378.052.762-.02 1.095-.202.096-.78.182-1.575.263-2.347.1-.968.19-1.935.268-2.903-.074.836-.155 1.678-.243 2.527z"/>
                            <circle cx="43.311" cy="81.379" r="15.129" fill="#FFDE82" transform="rotate(-45 43.31 81.38)"/>
                            <ellipse cx="43.311" cy="81.378" fill="#FFC31B" rx="13.161" ry="13.063"/>
                            <path fill="#FFE498" d="M40.502 90.091l.51-2.185c-1.26-.31-2.478-1.001-3.115-1.717l.862-1.33c.795.816 1.81 1.387 2.922 1.645 1.549.354 2.8-.292 3.088-1.528.277-1.188-.404-2.12-1.866-3.139-2.022-1.375-3.163-2.684-2.72-4.568.417-1.8 2.022-2.864 4.103-2.73l.508-2.184 1.36.31-.487 2.098c.992.236 1.907.721 2.657 1.408l-.877 1.303c-.717-.681-1.608-1.154-2.576-1.366-1.68-.385-2.544.466-2.743 1.332-.263 1.125.412 1.873 2.129 3.085 2.04 1.425 2.906 2.809 2.457 4.726-.397 1.71-1.97 3.036-4.307 2.89l-.524 2.25-1.38-.3z"/>
                            <path fill="#854C37" d="M12.171 91.68h.134v-.032.032c.265-.014.54-.036.823-.06-.109-1.477-.25-4.02-.104-5.944l-.887.16-1.98.353-5.148 2.476c.78.864 1.586 1.705 2.417 2.522 1.09.36 2.612.596 4.745.493z"/>
                            <path fill="#292929" d="M29.991 84.67l-.648-1.305-4.827.248-11.043 1.976-.454.078c-.145 1.924 0 4.467.104 5.943.05 0 .1 0 .152-.013.27-.03.549-.061.832-.097.124-.029.25-.046.377-.052.875-.124 1.795-.288 2.74-.481 4.517-1.04 11.625-3.414 13.377-4.05l-.61-2.247z" opacity=".3"/>
                            <path fill="#854C37" d="M29.996 80.654l-2.895.17c.667 1.762.814 3.677.424 5.518.972-.186 1.956-.335 2.947-.479l-.453-1.67-.023-3.54z"/>
                            <path fill="#854C37" d="M30.932 85.069c-.056-.462-.578-.655-.578-.655.455-.16.737-.612.68-1.087-.034-.325-.202-.621-.464-.82.347-.163.574-.504.589-.886-.027-.396-.279-.745-1.156-.963-.559-.124-1.142-.065-1.664.167l-.293 3.49.476 1.33-.492.247.826.225c.23-.046.465-.07.7-.07l.388.037c.911.08 1.045-.556.988-1.015z"/>
                            <path fill="#B26937" d="M28.25 84.96l-.81-4.081-.29-.02v-.019c-3.137.203-7.28 0-11.254-1.622-1.279-.675-2.267-1.575-2.72-2.752-.113-.613-.156-1.236-.127-1.859l.54-26.141c-1.815 4.856-4.683 10.329-4.683 10.329l-5.27 9.154S.385 73.228.052 78.655c-.057.496-1.202 11.8 10.883 11.232 1.65-.093 3.289-.34 4.892-.74l9.042-2.175 3.174-.765c-.07-.107-.133-.218-.188-.333l.394-.913z"/>
                            <path fill="#70422B" d="M48.38 46.328c-.595-.147-1.201-.244-1.813-.29-.581-.047-1.165-.047-1.746 0-1.002.077-2.65.383-2.455 1.753.247 1.35.775 2.552 1.965 3.234l.093.047c.273.144.561.257.86.337.605.186 1.234.285 1.868.295 1.777.065 2.88-.9 3.68-2.22l.04-.07.018-.034c.946-1.62-1.256-2.725-2.51-3.052zM62.034 49.15c.932-.613 1.467-1.67 1.405-2.779-.1-2.003-2.085-3.443-4.022-3.285-2.947.243-3.929 3.983-1.782 5.882 1.281 1.132 3.134 1.05 4.399.182z"/>
                            <circle cx="58.95" cy="45.16" r="1" fill="#FFF" stroke="#FFF" stroke-width=".5"/>
                            <path fill="#70422B" d="M37.457 44.45c-.079-.014-.155-.04-.226-.077 0 0-.345-.182-.823-.38-.962-.42-2.019-.575-3.061-.45-.277.036-.553-.077-.723-.297-.17-.22-.21-.513-.103-.77.106-.256.342-.436.62-.473.852-.11 1.717-.064 2.552.135-.206-.196-.426-.379-.657-.546-1.102-.797-2.077-1.326-2.895-1.576-.283-.066-.506-.283-.578-.563-.072-.28.019-.577.235-.77.217-.193.523-.25.796-.15 1 .304 2.097.9 3.358 1.8 1.201.87 2.004 1.92 2.387 3.12.083.26.022.543-.16.748-.182.204-.459.298-.729.248h.007z"/>
                            <ellipse cx="29.457" cy="48.485" fill="#DB748A" rx="1" ry="2.337" transform="rotate(-78.56 29.457 48.485)"/>
                            <ellipse cx="61.289" cy="54.88" fill="#DB748A" rx="1" ry="2.337" transform="rotate(-78.56 61.29 54.88)"/>
                            <path fill="#DB748A" d="M41.302 54.35c.522-.618 7.616.167 8.162.92.547.755-1.242 3.57-4.659 3.518-3.416-.052-4.18-3.634-3.503-4.438z"/>
                            <path fill="#854C37" d="M46.385 56.35c.678.358 1.297.813 1.84 1.351 1.101-.86 1.564-1.978 1.246-2.414-.553-.754-7.647-1.54-8.162-.92-.344.407-.315 1.53.245 2.544 1.384-1.056 3.24-1.271 4.831-.56zM52.92 81.837l2.81.705c-.986 1.608-1.491 3.461-1.455 5.344-.92-.367-1.859-.695-2.8-1.017l.762-1.555.683-3.477z"/>
                            <path fill="#854C37" d="M51.17 85.996c.14-.45.68-.536.68-.536-.414-.243-.602-.739-.454-1.192.094-.313.314-.572.608-.718-.31-.226-.468-.604-.41-.981.099-.385.414-.675 1.316-.732.572-.017 1.134.149 1.603.473l-.37 3.483-.718 1.218.435.335-.852.07c-.22-.089-.447-.155-.68-.198l-.39-.039c-.9-.092-.918-.74-.769-1.183z"/>
                            <path fill="#B26937" d="M53.822 86.39l1.56-3.866.288.033v-.018c3.045.781 7.15 1.35 11.36.495 1.386-.425 2.515-1.125 3.202-2.196.225-.58.384-1.184.476-1.8l4.394-25.779c.866 5.106 1.426 8.576 2.215 12.1.789 3.524 2.988 7.268 3.775 9.338.786 2.07 2.04 5.351 1.36 10.736-.038.5-1.24 11.027-12.549 9.001-1.417-.252-2.947-.864-4.668-1.638l-8.47-3.812-2.982-1.35c.089-.092.171-.189.247-.29l-.208-.954z"/>
                            <path fill="#FFC31B" d="M136.454 106.856c-.054-.019-.105-.044-.154-.075-.163-.098-.277-.26-.314-.445-.037-.186.006-.379.12-.531l3.015-4.1c.247-.324.704-.405 1.05-.187.162.098.276.26.314.444.037.185-.005.378-.117.53l-3.016 4.103c-.21.272-.573.377-.898.26z"/>
                            <path fill="#FFC31B" d="M135.983 105.139c-.79-.072-1.492.493-1.587 1.273-.005.096.029.19.094.26.065.071.156.113.253.116l2.199.149c.202.018.382-.125.408-.324.02-.377-.115-.745-.372-1.022s-.616-.44-.995-.452zM143.86 107.065c.339.03.656-.169.775-.486l1.587-4.726c.057-.182.036-.38-.058-.547-.094-.167-.252-.289-.439-.337-.386-.122-.801.075-.948.45l-1.587 4.726c-.057.182-.036.38.058.546.094.167.253.288.439.336.056.019.113.032.172.038z"/>
                            <path fill="#FFC31B" d="M143.186 105.283c-.79-.083-1.5.483-1.587 1.267-.005.096.03.19.095.26.066.071.157.114.254.118l2.2.157c.201.021.382-.123.405-.324.032-.782-.58-1.443-1.367-1.478z"/>
                            <path fill="url(#wbgbn7bu0e)" d="M155.875 75.899c-2.133-5.533-6.575-9.604-12.483-10.898-2.095-.455-4.244-.618-6.384-.484-.907.056-1.893.065-2.707.52-.968.538.12 1.037.714 1.249.742.246 1.5.445 2.267.596 0 0 .351.113-.011.135-2.596.081-5.129 1.861-6.782 3.68-1.991 2.18-3.54 4.72-4.563 7.481-1.996 5.586-2.14 11.796.473 17.246 2.338 4.879 6.838 7.586 12.112 8.419.326.051.655.092.988.123h.075c.333.026.664.04.993.04 5.34.035 10.225-1.905 13.336-6.338 4.34-6.182 4.627-14.327 2.154-21.283-.066-.16-.12-.324-.182-.486z"/>
                            <path fill="#DB748A" d="M131.981 77.915c.03-.349-.41-.675-.981-.715-.572-.04-1.06.2-1.089.549-.03.348.413.675.984.715.572.04 1.064-.2 1.086-.549zM149.493 78.322c.03-.348-.41-.675-.984-.715-.573-.04-1.056.198-1.086.549-.03.351.413.675.984.713.571.039 1.059-.198 1.086-.547z"/>
                            <ellipse cx="138.797" cy="80.339" fill="#70422B" rx="1.392" ry="3.182" transform="rotate(-.3 138.797 80.34)"/>
                            <path fill="#FFC31B" d="M140.374 78.836c.176-.05.312-.19.359-.365.033-.186-.014-.377-.13-.527-.233-.378-.577-.676-.986-.855-.278-.121-.58-.182-.884-.18-.43.003-.851.131-1.208.37-.352.238-.724.607-.808 1.037-.051.195.056.396.248.463.228.083.465.139.707.167.249.044.5.073.753.088.567.038 1.137-.007 1.691-.133.054-.01.107-.022.159-.038h.018l.081-.027zM137.31 82.335c-.155.044-.274.165-.314.32-.03.162.013.33.116.46.273.44.715.751 1.225.86.509.107 1.04.003 1.47-.288.339-.203.59-.524.704-.9.015-.076.007-.154-.023-.225-.043-.079-.112-.14-.195-.173-.202-.078-.412-.132-.626-.16-.217-.039-.437-.065-.657-.077-.496-.031-.995.01-1.479.122-.047.008-.094.019-.14.034h-.016l-.066.027z"/>
                            <path fill="#70422B" d="M135.03 75.343c.43-.423.603-1.04.454-1.622-.26-1.056-1.467-1.623-2.48-1.35-1.55.43-1.682 2.52-.343 3.314.776.44 1.753.299 2.37-.342z"/>
                            <circle cx="132.977" cy="73.532" r="1" fill="#FFF" stroke="#FFF" stroke-width=".5"/>
                            <path fill="#70422B" d="M147.514 75.278c.43-.423.602-1.04.453-1.623-.26-1.055-1.467-1.622-2.48-1.35-1.55.43-1.682 2.52-.342 3.315.775.44 1.752.299 2.369-.342z"/>
                            <circle cx="145.46" cy="73.466" r="1" fill="#FFF" stroke="#FFF" stroke-width=".5"/>
                            <path fill="#4F90FF" d="M112.8 65.987l-3.443 4.212 33.652 26.756c1.156-1.373 2.267-2.813 3.457-4.202l-33.665-26.766z"/>
                            <path fill="#DB748A" d="M149.74 96.955c.166-.852-.157-1.724-.839-2.266l-2.432-1.936c-.823.952-1.6 1.931-2.38 2.892 1.62 1.21 3.84 2.126 5.651 1.31z"/>
                            <path fill="#C75C8A" d="M148.804 98.539l.453-.547c.247-.3.416-.657.49-1.037-1.814.816-4.031-.093-5.654-1.31-.356.45-.714.88-1.077 1.31l2.448 1.948c1.026.807 2.515.645 3.34-.364z"/>
                            <path fill="#3A7DE1" d="M144.122 95.602L144.138 95.582 110.237 69.123 109.357 70.199 143.009 96.955z"/>
                            <path fill="#7E7E7E" d="M108.718 64.807l-2.206-.639.022.05c.476.547.907 1.11 1.347 1.68.277-.364.555-.728.837-1.09z"/>
                            <path fill="#A9A9A9" d="M107.881 65.899c-.429-.572-.87-1.125-1.347-1.681l1.007 2.129.34-.448z"/>
                            <path fill="#F7DEAA" d="M112.8 65.987l-4.08-1.18c-.281.36-.56.724-.837 1.092.803 1.066 1.553 2.158 2.356 3.224l2.562-3.136z"/>
                            <path fill="#FCC495" d="M107.881 65.899l-.34.45 1.814 3.852.88-1.075c-.801-1.074-1.551-2.16-2.354-3.227z"/>
                            <path fill="#F6DEF8" d="M147.319 93.543l-3.306 4.102c-.022.03-.056.048-.092.052-.037.004-.074-.006-.103-.03l-1.165-.928c-.06-.046-.07-.13-.025-.19l3.206-4.18c.023-.03.057-.05.095-.053.037-.005.075.006.104.03l1.263 1.004c.06.047.07.133.023.193z"/>
                            <path fill="#EAC7ED" d="M143.657 95.206l-1.029 1.35c-.046.06-.034.144.025.19l1.165.929c.03.022.066.033.103.029.036-.005.07-.023.092-.052l1.068-1.325-1.424-1.12z"/>
                            <path fill="#AA8B72" d="M158.959 89.308c-.193-.506-.73-2.421-5.695-4.647-5.267-2.362-10.643-1.555-12.017-.69-2.58 1.615 1.36 7.779 5.054 11.534 1.875 1.904 5.25 3.14 8.232 2.476 3.59-.815 5.46-5.941 4.426-8.673zM123.049 87.63c1.321-2.926 5.593-5.768 8.352-4.94 2.913.873 1.886 9.071.088 11.119-2.754 3.15-5.24 3.656-7.765 1.944-2.272-1.544-1.9-5.423-.675-8.123z"/>
                        </g>
                    </g>
                </g>
            </g>
        </g>
    </g>
</svg>
