<svg width="40" height="40" viewBox="0 0 40 40" xmlns="http://www.w3.org/2000/svg">
    <g fill="none" fill-rule="evenodd">
        <circle stroke="#EA475B" stroke-width="2" cx="20" cy="20" r="19"/>
        <circle stroke="#EA475B" stroke-width=".5" cx="20" cy="20" r="15.75"/>
        <path d="m25.749 10.04-.664-.026.425-.51-.18-.64.617.246.552-.369-.043.663.521.411-.643.164-.23.623-.355-.562zm3.303 2.72-.619-.24.568-.345.038-.663.503.433.642-.168-.256.612.359.559-.662-.055-.42.514-.153-.646zm2.241 3.646-.507-.43.65-.14.25-.615.336.574.662.049-.442.496.157.645-.607-.268-.565.35.066-.661zM17.464 8.422l-.539.388.02-.664-.535-.393.637-.186.209-.63.373.548.665.003-.407.526.202.632-.625-.224zm4.278.118-.636.191.235-.62-.379-.547.664.032.402-.528.175.64.627.22-.556.364-.014.663-.518-.415zM14.25 29.956l-.355-.562-.23.623-.643.164.521.41-.043.664.552-.37.617.247-.18-.64.425-.51-.664-.026zm4.007 1.5-.518-.415-.014.663-.556.365.627.219.175.64.402-.528.664.032-.379-.546.235-.621-.636.191zm4.278.118-.625-.224.202.632-.407.526.665.003.373.549.209-.631.637-.186-.535-.393.02-.664-.54.388zM8.706 23.59l.067-.66-.565.349-.607-.268.157.645-.442.496.662.05.335.573.252-.615.649-.14-.507-.43zm2.242 3.645-.152-.646-.42.514-.663-.055.36.559-.257.612.642-.168.503.433.038-.663.568-.345-.62-.24z" fill="#EA475B"/>
        <text transform="rotate(30 20 20)" font-family="MicrosoftJhengHeiBold, Microsoft JhengHei" font-size="10" font-weight="bold" fill="#EA475B">
                        <tspan x="10" y="22">完成</tspan>
                    </text>
    </g>
</svg>
