<svg xmlns="http://www.w3.org/2000/svg" xmlns:xlink="http://www.w3.org/1999/xlink" width="432" height="136" viewBox="0 0 432 136">
    <defs>
        <rect id="l2lzsrgsfa" width="432" height="136" x="0" y="0" rx="4"/>
    </defs>
    <g fill="none" fill-rule="evenodd">
        <g>
            <g>
                <g transform="translate(-576.000000, -372.000000) translate(552.000000, 296.000000) translate(24.000000, 76.000000)">
                    <mask id="tk0c17tj1b" fill="#fff">
                        <use xlink:href="#l2lzsrgsfa"/>
                    </mask>
                    <use fill="#39C8D0" opacity=".2" xlink:href="#l2lzsrgsfa"/>
                    <path fill="#39C8D0" fill-opacity=".3" d="M389.5 121c.828 0 1.5.672 1.5 1.5s-.672 1.5-1.5 1.5-1.5-.672-1.5-1.5.672-1.5 1.5-1.5zm10 0c.828 0 1.5.672 1.5 1.5s-.672 1.5-1.5 1.5-1.5-.672-1.5-1.5.672-1.5 1.5-1.5zm9 0c.828 0 1.5.672 1.5 1.5s-.672 1.5-1.5 1.5-1.5-.672-1.5-1.5.672-1.5 1.5-1.5zm10 0c.828 0 1.5.672 1.5 1.5s-.672 1.5-1.5 1.5-1.5-.672-1.5-1.5.672-1.5 1.5-1.5zm-29-10c.828 0 1.5.672 1.5 1.5s-.672 1.5-1.5 1.5-1.5-.672-1.5-1.5.672-1.5 1.5-1.5zm10 0c.828 0 1.5.672 1.5 1.5s-.672 1.5-1.5 1.5-1.5-.672-1.5-1.5.672-1.5 1.5-1.5zm9 0c.828 0 1.5.672 1.5 1.5s-.672 1.5-1.5 1.5-1.5-.672-1.5-1.5.672-1.5 1.5-1.5zm10 0c.828 0 1.5.672 1.5 1.5s-.672 1.5-1.5 1.5-1.5-.672-1.5-1.5.672-1.5 1.5-1.5zm-29-9c.828 0 1.5.672 1.5 1.5s-.672 1.5-1.5 1.5-1.5-.672-1.5-1.5.672-1.5 1.5-1.5zm10 0c.828 0 1.5.672 1.5 1.5s-.672 1.5-1.5 1.5-1.5-.672-1.5-1.5.672-1.5 1.5-1.5zm9 0c.828 0 1.5.672 1.5 1.5s-.672 1.5-1.5 1.5-1.5-.672-1.5-1.5.672-1.5 1.5-1.5zm10 0c.828 0 1.5.672 1.5 1.5s-.672 1.5-1.5 1.5-1.5-.672-1.5-1.5.672-1.5 1.5-1.5zm-29-10c.828 0 1.5.672 1.5 1.5s-.672 1.5-1.5 1.5-1.5-.672-1.5-1.5.672-1.5 1.5-1.5zm10 0c.828 0 1.5.672 1.5 1.5s-.672 1.5-1.5 1.5-1.5-.672-1.5-1.5.672-1.5 1.5-1.5zm9 0c.828 0 1.5.672 1.5 1.5s-.672 1.5-1.5 1.5-1.5-.672-1.5-1.5.672-1.5 1.5-1.5zm10 0c.828 0 1.5.672 1.5 1.5s-.672 1.5-1.5 1.5-1.5-.672-1.5-1.5.672-1.5 1.5-1.5z" mask="url(#tk0c17tj1b)"/>
                    <path stroke="#39C8D0" stroke-width="3" d="M139.388 27.773c29.26-2.78 35.86-29.152 37.487-53.14C178.502-49.358 164.097-71 143.38-71S94-42.877 94-17.74c0 25.136 16.128 48.292 45.388 45.513z" mask="url(#tk0c17tj1b)" opacity=".2" transform="translate(135.500000, -21.500000) rotate(51.000000) translate(-135.500000, 21.500000)"/>
                    <circle cx="44" cy="104.5" r="4" fill="#39C8D0" mask="url(#tk0c17tj1b)" opacity=".2"/>
                    <path fill="#39C8D0" d="M397 33c4.418 0 8-3.582 8-8h-16c0 4.418 3.582 8 8 8z" mask="url(#tk0c17tj1b)" opacity=".2" transform="translate(397.000000, 29.000000) rotate(-37.000000) translate(-397.000000, -29.000000)"/>
                    <ellipse cx="24.5" cy="65" fill="#39C8D0" mask="url(#tk0c17tj1b)" opacity=".2" rx="7.5" ry="7"/>
                </g>
            </g>
        </g>
    </g>
</svg>
