<svg xmlns="http://www.w3.org/2000/svg" width="184" height="137" viewBox="0 0 184 137">
    <g fill="none" fill-rule="evenodd">
        <g>
            <g>
                <g>
                    <path d="M0 0.498L184 0.498 184 137 0 137z" transform="translate(-88.000000, -606.000000) translate(16.000000, 525.000000) translate(72.000000, 81.000000)"/>
                    <g fill-rule="nonzero" transform="translate(-88.000000, -606.000000) translate(16.000000, 525.000000) translate(72.000000, 81.000000) translate(27.735700, 0.000000)">
                        <path fill="#FFC31B" d="M115.598 2.933c.389 0 .966 2.466 1.246 2.75.28.282 2.556.768 2.553 1.115-.002.347-2.426.763-2.74 1.075-.315.312-.724 2.734-1.114 2.732-.389-.004-.71-2.377-1.073-2.747-.364-.37-2.73-.768-2.726-1.114.002-.348 2.49-.83 2.74-1.076.251-.246.724-2.737 1.114-2.735z"/>
                        <path fill="#854C37" d="M41.13 18.498c-.392-.172-.844-.12-1.187.136-.776.549-.805 2.297-.084 5.347.078.239.102.493.07.742-.103-.022-.2-.063-.289-.121-.058-.04-1.382-.974-2.236-1.734-.735-.656-1.01-1.876-1.154-2.532l-.038-.165c-.112-.485-.481-1.413-1.136-1.817-.28-.181-.62-.239-.943-.16-.973.24-1.036 1.446-.915 2.102v.049s.141.465.522 1.985c.165.657.038.816.038.816h-.067c-.027-.003-.053-.003-.08 0 0 0-.976-.067-1.732-.076-.68 0-1.17.177-1.442.546-.271.37-.326.833-.165 1.445.35 1.29 1.711 1.267 2.805 1.25h.71c1.064.049 2.91 1.135 3.548 1.82.696.743 3.015 2.997 3.116 3.093.124.12.31.148.463.07.153-.078.24-.244.218-.414l2.84-2.194c.144.06.31.03.425-.075.116-.106.16-.27.114-.419-.038-.122-.101-.312-.185-.558-.401-1.188-1.238-3.662-1.564-5.832-.274-1.804-.842-2.94-1.644-3.284m33.525-7.269c-.205-.578-.522-.951-.946-1.087-.425-.136-.952-.017-1.51.376-.613.434-1.372 1.035-1.381 1.04l-.055.053-.06.037s-.197-.06-.43-.693c-.546-1.471-.69-1.931-.693-1.934l-.017-.046c-.288-.622-1.001-1.572-1.944-1.214-.31.118-.56.358-.687.664-.312.705-.09 1.68.09 2.146l.063.158c.248.624.712 1.786.476 2.743-.269 1.084-.802 2.532-.866 2.691-.04.1-.1.192-.173.271-.166-.188-.289-.41-.36-.65-1.129-2.925-2.139-4.35-3.09-4.361-.423-.013-.82.199-1.045.558-.468.74-.288 1.997.5 3.642.954 1.973 1.664 4.488 2.004 5.696l.162.578c.046.15.174.26.33.281.154.021.309-.049.394-.18l3.58.203c.059.112.165.191.29.213.064.017.133.017.198 0 .146-.04.257-.158.289-.306.028-.136.669-3.306.822-4.315.141-.925 1.044-2.867 1.898-3.512.176-.133.372-.265.577-.405.912-.607 2.049-1.361 1.607-2.621"/>
                        <path fill="#B26937" d="M79.144 32.328c-1.474-2.217-2.957-4.498-4.617-6.575-.688-.867-.049-1.189 1.697-1.023.779.072 8.03.665 7.141-1.573-.268-.67-.883-1.245-1.442-1.677-1.475-1.135-3.327-1.665-5.122-2.023-2.074-.422-4.19-.563-6.293-.74-4.856-.412-9.747-.06-14.494 1.044-6.608 1.549-12.81 4.78-18.056 9.07-1.636 1.338-3.3 2.653-4.772 4.176-1.275 1.321-2.501 2.806-3.078 4.579-.22.673-.404 1.497-.246 2.202.528 2.35 6.174-2.249 6.775-2.752 1.344-1.124 2.06-1.214 1.976-.119-.202 2.66-.136 5.38-.1 8.044.028 2.24.146 4.474.201 6.715.035 1.488.153 2.977.33 4.456l45.983-14.286c-.693-1.318-1.443-2.601-2.245-3.861-1.22-1.877-2.386-3.787-3.626-5.648"/>
                        <path fill="#FFD6B2" d="M65.74 26.733c-2.11 0-3.783 1.346-4.354 3.418-.36 1.313-.335 2.705-.216 4.067.175 2 .7 4.532-1.576 5.393-.13.047-.263.086-.398.113h-.072c-.128.054-.259.097-.393.13-2.362.578-3.358-1.803-4.345-3.552-.672-1.19-1.442-2.355-2.475-3.231-1.642-1.385-3.78-1.543-5.522-.35-3.015 2.07-3.624 7.076-3.59 10.48.07 3.83.432 7.65 1.082 11.425l36.281-11.271c-1.592-3.47-3.446-6.815-5.545-10.003-1.896-2.827-5.225-6.613-8.88-6.607"/>
                        <path fill="#70422B" d="M58.92 35.898c-.404.09-.799.213-1.181.37-.365.142-.717.316-1.053.517-.577.347-1.48 1.026-.95 1.8.531.775 1.236 1.319 2.159 1.373h.069c.207.006.414-.011.617-.051.42-.07.829-.198 1.212-.382 1.088-.492 1.46-1.408 1.544-2.451v-.078c.083-1.266-1.572-1.278-2.427-1.102"/>
                        <path fill="#DB748A" d="M50.402 43.38c.095.304-.52.764-1.368 1.03-.848.266-1.615.23-1.708-.073-.092-.304.52-.763 1.368-1.029.848-.266 1.615-.231 1.708.072m21.731-7.598c.11.289-.48.789-1.316 1.095-.836.306-1.6.313-1.71 0-.11-.312.479-.789 1.315-1.095.837-.306 1.601-.313 1.711 0"/>
                        <path fill="#70422B" d="M51.504 39.715c.369-.677.352-1.5-.043-2.162-.71-1.199-2.386-1.444-3.514-.724-1.732 1.1-1.105 3.716.819 4.193 1.104.245 2.233-.292 2.74-1.303"/>
                        <path fill="#FFF" d="M48.827 38.1c.083.273-.069.561-.34.646-.273.085-.562-.067-.647-.339-.085-.272.066-.562.338-.648.273-.085.563.068.649.341"/>
                        <path fill="#FFF" d="M48.827 38.1l-.139.043c.011.037.017.075.017.113 0 .164-.106.309-.262.358-.114.036-.237.014-.333-.056-.095-.072-.151-.183-.152-.302.006-.181.14-.334.32-.36.18-.028.352.078.41.25l.139-.043.138-.044c-.087-.276-.343-.465-.632-.465-.066 0-.132.01-.196.029-.278.085-.467.342-.467.633 0 .066.009.133.029.197.108.35.479.544.828.436.349-.108.544-.48.435-.83l-.138.044"/>
                        <path fill="#70422B" d="M68.991 34.282c.368-.677.352-1.5-.043-2.162-.71-1.2-2.386-1.445-3.514-.725-1.732 1.1-1.106 3.716.819 4.19 1.104.245 2.233-.291 2.741-1.303"/>
                        <path fill="#FFF" d="M66.313 32.66c.084.273-.068.562-.34.647-.272.084-.56-.068-.646-.34-.085-.272.066-.562.338-.648.13-.041.273-.029.395.035.122.065.213.175.253.306"/>
                        <path fill="#FFF" d="M66.313 32.66l-.138.044c.012.036.017.075.018.112 0 .164-.107.31-.263.359-.036.011-.073.017-.11.017-.163 0-.307-.107-.355-.263-.011-.037-.017-.075-.017-.113-.004-.187.132-.348.317-.376.185-.027.362.087.413.267l.138-.044.14-.043c-.102-.331-.44-.528-.778-.453-.337.076-.559.4-.509.742.05.343.356.589.7.565.345-.025.613-.311.615-.657 0-.067-.01-.133-.029-.197l-.139.043"/>
                        <path fill="#985C37" d="M57.387 23.024l-.023-.032c-.337-.391-.788-.666-1.29-.783-.583-.177-1.192-.253-1.8-.223-.643.058-1.267.247-1.832.558-.318.17-.623.363-.912.578-.225.163-.432.35-.617.558-.168.195-.314.407-.436.633-.306.555-.468 1.246.046 1.735.446.425 1.147.425 1.593 0 .369-.403.575-.93.577-1.477h.052c.183.354.435.67.741.927.332.31.774.473 1.227.451.168-.015.332-.057.487-.124.27-.112.48-.334.576-.609.097-.276.072-.58-.068-.837.435.258.974.266 1.416.02.097-.075.18-.166.248-.268.221-.33.221-.762 0-1.093"/>
                        <path fill="#70422B" d="M62.173 45.901c-.163.14-.347.256-.545.343-.412.204-.9.175-1.286-.075-.315-.257-.465-.666-.39-1.066.016-.117.046-.233.09-.344-.075-.017-.148-.04-.217-.072-.285-.136-.5-.386-.591-.688-.122-.352-.104-.893.672-1.468.27-.194.56-.355.865-.483.169-.069.362.013.43.182.068.17-.013.362-.182.431-.438.179-1.298.69-1.154 1.121.037.125.124.23.24.289.193.07.404.07.597 0 .164-.08.362-.011.442.154.08.164.01.362-.154.441l-.04.02c-.188.104-.311.295-.329.51-.033.163.018.333.136.45.196.1.429.1.626 0 .376-.174.681-.471.866-.843l.023-.047c.051-.106.155-.177.273-.185.118-.009.231.047.297.144.066.098.075.224.024.33l-.029.058c-.156.31-.372.584-.635.81"/>
                        <path fill="#CBF1F3" d="M66.536 16.454c.073-.079.132-.171.173-.271.058-.159.591-1.607.865-2.691.237-.957-.227-2.119-.475-2.743l-.064-.159c-.18-.463-.401-1.445-.09-2.145.129-.308.378-.55.69-.667.132-.051.272-.077.413-.079.739 0 1.295.767 1.532 1.296l.017.046s.144.463.692 1.934c.234.633.43.693.43.693l.061-.037.055-.053s.764-.606 1.381-1.04c.33-.261.734-.413 1.155-.434.125 0 .25.02.37.059.423.135.74.502.945 1.086.439 1.26-.695 2.023-1.607 2.621-.207.14-.406.272-.577.405-.865.644-1.756 2.587-1.898 3.512-.035.22-.09.546-.159.919h.075c2.104.177 4.218.315 6.293.74 1.794.367 3.647.896 5.12 2.023.564.431 1.178 1.006 1.443 1.676.54 1.422-2.14 1.712-4.39 1.712-1.316 0-2.485-.098-2.773-.124-.289-.027-.549-.041-.774-.041-1.154 0-1.494.35-.92 1.064 1.668 2.078 3.15 4.355 4.617 6.575 1.24 1.861 2.405 3.771 3.626 5.647.81 1.249 1.555 2.541 2.245 3.862l-4.845 1.514-36.28 11.273-4.85 1.505c-.177-1.48-.289-2.965-.33-4.456-.051-2.238-.17-4.474-.202-6.715-.034-2.664-.1-5.384.102-8.044.04-.523-.102-.774-.407-.774-.306 0-.866.306-1.57.893-.479.402-4.177 3.416-5.917 3.416-.42.047-.802-.246-.866-.664-.158-.705.026-1.526.245-2.202.577-1.773 1.804-3.258 3.079-4.579 1.471-1.523 3.136-2.838 4.772-4.176l.058-.046c-.269-.27-.5-.506-.649-.668-.638-.685-2.482-1.772-3.549-1.821h-1.1c-1.006 0-2.106-.116-2.414-1.255-.162-.598-.107-1.08.164-1.445.271-.364.756-.546 1.417-.546h.04c.753 0 1.731.075 1.731.075.027-.003.054-.003.08 0h.067s.128-.162-.037-.815c-.381-1.523-.522-1.982-.522-1.985v-.05c-.118-.667-.055-1.864.914-2.101.323-.08.664-.022.943.159.656.405 1.025 1.333 1.137 1.818l.038.165c.147.656.424 1.876 1.154 2.532.866.76 2.181 1.697 2.236 1.734.088.058.186.099.288.121.033-.25.009-.503-.069-.742-.72-3.05-.692-4.801.084-5.348.207-.151.456-.233.713-.236.162 0 .323.034.473.098.805.343 1.373 1.48 1.644 3.283.173 1.059.411 2.105.713 3.133 3.878-2.361 8.1-4.1 12.513-5.156 2.536-.593 5.118-.97 7.718-1.125-.333-1.02-.73-2.02-1.186-2.991-.793-1.642-.967-2.89-.499-3.642.223-.357.618-.57 1.038-.558h.015c.949 0 1.962 1.445 3.09 4.362.072.24.194.462.36.65M61.665 0c-4.71.008-9.394.69-13.912 2.023C21.26 9.729 18.948 32.117 22.756 44.086c3.809 11.968 16.607 15.989 16.607 15.989l4.576-1.844 41.523-11.744C101.042 27.238 84.25 8.99 84.25 8.99 77.89 1.832 69.05 0 61.666 0"/>
                        <path fill="#7C7C71" d="M34.415 18.151c-.097 0-.194.012-.288.035-.973.24-1.036 1.445-.915 2.101v.049s.142.465.522 1.986c.165.656.038.815.038.815h-.067c-.027-.003-.053-.003-.08 0 0 0-.976-.067-1.731-.075h-.04c-.662 0-1.138.182-1.417.546-.28.364-.326.832-.165 1.445.314 1.121 1.426 1.248 2.43 1.248h1.096c1.064.05 2.911 1.137 3.548 1.822.154.162.385.398.65.667 1.734-1.415 3.566-2.706 5.482-3.864-.302-1.028-.54-2.075-.713-3.133-.274-1.803-.843-2.94-1.645-3.284-.15-.064-.31-.098-.473-.098-.256.003-.506.086-.713.237-.776.55-.804 2.298-.083 5.347.077.24.101.493.07.743-.103-.023-.201-.064-.29-.122-.057-.04-1.381-.974-2.236-1.733-.735-.656-1.01-1.877-1.154-2.532l-.037-.165c-.112-.485-.482-1.413-1.136-1.818-.196-.126-.423-.194-.656-.196M68.042 7.7c-.141 0-.281.026-.413.078-.312.118-.561.359-.69.667-.311.705-.09 1.68.09 2.146l.064.158c.248.624.712 1.786.476 2.743-.269 1.084-.802 2.532-.866 2.691-.04.1-.1.192-.173.271-.166-.188-.289-.41-.36-.65-1.129-2.925-2.139-4.35-3.09-4.361h-.015c-.42-.012-.816.2-1.038.558-.468.74-.29 1.997.499 3.642.456.971.852 1.97 1.185 2.99.94-.055 1.882-.083 2.825-.083 1.294 0 2.588.053 3.88.159.07-.373.127-.7.159-.919.142-.925 1.044-2.867 1.898-3.512.177-.133.373-.266.577-.405.912-.606 2.049-1.361 1.608-2.621-.205-.578-.523-.951-.947-1.087-.12-.038-.244-.058-.37-.057-.42.02-.823.171-1.153.433-.615.434-1.374 1.035-1.383 1.04l-.054.053-.06.037s-.197-.06-.43-.694c-.546-1.471-.69-1.93-.693-1.934l-.017-.045c-.237-.526-.794-1.295-1.533-1.295"/>
                        <path fill="#998F71" d="M51.317 26.368c-.295.003-.58-.108-.797-.309-.514-.495-.352-1.185-.046-1.735.122-.226.268-.438.436-.632.185-.212.393-.403.62-.57.29-.215.594-.409.912-.578.566-.311 1.191-.501 1.835-.558h.288c.514.008 1.025.087 1.518.235.502.117.953.392 1.29.783l.023.031c.22.331.22.762 0 1.093-.199.307-.552.477-.915.44-.268-.006-.53-.077-.765-.209.14.257.165.56.069.836-.097.276-.307.497-.576.61-.155.067-.32.109-.488.124h-.115c-.413-.015-.807-.176-1.111-.457-.305-.25-.558-.558-.744-.905h-.052c-.002.547-.208 1.075-.577 1.477-.214.207-.5.322-.797.319m15.222-7.822c-.942 0-1.884.028-2.824.084-2.6.155-5.182.532-7.718 1.125-4.414 1.055-8.635 2.794-12.513 5.155-1.916 1.159-3.747 2.45-5.482 3.865l-.058.046c-1.635 1.338-3.3 2.654-4.771 4.177-1.276 1.32-2.502 2.806-3.08 4.578-.219.674-.403 1.497-.244 2.203.064.417.445.711.865.664 1.731 0 5.436-3.015 5.918-3.416.703-.578 1.235-.893 1.57-.893.334 0 .447.255.406.775-.202 2.658-.136 5.378-.101 8.043.029 2.24.147 4.474.202 6.714.035 1.489.153 2.977.329 4.457l4.835-1.492c-.648-3.764-1.008-7.571-1.079-11.39-.034-3.405.577-8.413 3.59-10.48.737-.517 1.613-.796 2.512-.801 1.108.016 2.174.426 3.007 1.156 1.038.867 1.803 2.041 2.476 3.232.882 1.566 1.771 3.641 3.646 3.641.213-.002.424-.026.632-.075l-.086.014c-.177.036-.357.054-.537.055h-.15c-.92-.057-1.599-.623-2.158-1.373-.56-.748.37-1.444.949-1.8.336-.201.689-.374 1.053-.517.382-.156.777-.28 1.18-.37.266-.054.537-.081.808-.081.753 0 1.564.222 1.618 1.008-.005-.87-.063-1.738-.172-2.601-.119-1.361-.148-2.757.216-4.067.577-2.072 2.244-3.416 4.353-3.418 3.653 0 6.98 3.783 8.875 6.606 2.1 3.184 3.955 6.523 5.548 9.99l4.85-1.51c-.692-1.317-1.442-2.6-2.244-3.86-1.22-1.877-2.386-3.787-3.627-5.648-1.474-2.217-2.957-4.498-4.617-6.576-.576-.713-.221-1.063.921-1.063.227 0 .485.013.774.04.288.026 1.442.125 2.772.125 2.25 0 4.931-.29 4.368-1.697-.268-.67-.883-1.246-1.442-1.677-1.475-1.136-3.327-1.665-5.121-2.023-2.075-.422-4.19-.564-6.293-.74h-.075c-1.29-.106-2.584-.159-3.88-.159"/>
                        <path fill="#CBD6C1" d="M47.985 44.586c-.356 0-.607-.084-.659-.252-.095-.303.52-.763 1.368-1.029.34-.11.694-.17 1.05-.179.355 0 .609.084.658.252.095.303-.52.763-1.368 1.029-.34.11-.693.17-1.05.179m13.018 1.789c-.237.005-.47-.068-.66-.209-.315-.257-.465-.666-.39-1.066.016-.117.046-.233.09-.344-.075-.017-.148-.04-.217-.072-.285-.136-.5-.386-.591-.688-.122-.352-.104-.893.672-1.468.27-.194.56-.355.865-.483.169-.069.362.013.43.182.068.17-.013.362-.182.431-.438.179-1.298.69-1.154 1.121.037.125.124.23.24.29.078.034.163.05.248.048.119 0 .237-.021.35-.06.163-.08.36-.012.44.153.08.164.012.362-.153.442l-.04.02c-.188.104-.311.295-.329.509-.033.163.018.333.136.451.076.052.167.077.26.072.124-.002.248-.029.363-.078.376-.174.681-.472.866-.844l.023-.046c.054-.111.164-.184.288-.188.112.002.216.062.274.158.058.096.064.215.015.316l-.03.058c-.155.309-.371.584-.634.809-.164.141-.348.257-.545.344-.198.086-.411.131-.626.133m-11.685-5.289c-.186 0-.371-.022-.551-.066-1.924-.478-2.542-3.093-.82-4.195.424-.265.914-.404 1.414-.401.85-.023 1.65.407 2.1 1.13.396.662.413 1.484.044 2.162-.423.826-1.264 1.353-2.19 1.373m20.349-3.974c-.289 0-.514-.073-.577-.22-.11-.289.48-.789 1.316-1.096.368-.142.758-.221 1.154-.233.288 0 .513.072.577.22.11.288-.48.788-1.316 1.094-.369.143-.759.222-1.154.234m-2.862-1.444c-.186 0-.37-.023-.551-.067-1.925-.477-2.542-3.093-.82-4.191.424-.265.914-.404 1.414-.401.85-.023 1.65.407 2.1 1.13.396.662.412 1.484.044 2.162-.423.825-1.264 1.353-2.19 1.372m-1.056-8.922c-2.109 0-3.782 1.347-4.354 3.419-.36 1.313-.334 2.705-.216 4.067.11.863.168 1.731.173 2.601.004.058.004.115 0 .173v.082c-.084 1.043-.456 1.959-1.544 2.45-.357.172-.735.295-1.125.367-.207.049-.42.074-.631.075-1.873 0-2.764-2.075-3.647-3.641-.673-1.191-1.443-2.356-2.476-3.232-.834-.73-1.9-1.14-3.006-1.155-.9.005-1.776.284-2.513.8-3.015 2.07-3.624 7.075-3.59 10.48.064 3.82.418 7.63 1.06 11.397l36.28-11.272c-1.592-3.47-3.446-6.815-5.545-10.003-1.896-2.824-5.222-6.607-8.875-6.607"/>
                        <path fill="#6E7669" d="M59.727 35.816c-.271 0-.542.027-.808.081-.403.09-.798.214-1.18.37-.365.143-.717.316-1.053.518-.577.347-1.48 1.026-.95 1.8.531.775 1.236 1.319 2.159 1.373h.15c.18-.001.36-.02.536-.054l.087-.016c.39-.071.768-.194 1.125-.366 1.088-.491 1.46-1.407 1.544-2.451v-.075c.004-.058.004-.116 0-.174-.052-.786-.866-1.009-1.619-1.009"/>
                        <path fill="#B496A7" d="M49.741 43.129c-.356.009-.71.069-1.05.179-.848.263-1.463.725-1.367 1.029.052.165.288.252.658.252.356-.008.71-.069 1.05-.18.848-.262 1.462-.725 1.367-1.029-.052-.165-.288-.251-.658-.251m21.815-7.578c-.395.011-.786.091-1.154.233-.834.307-1.423.799-1.316 1.096.055.148.265.22.577.22.395-.013.786-.092 1.154-.235.834-.306 1.423-.797 1.316-1.095-.055-.147-.265-.22-.577-.22"/>
                        <path fill="#6E7669" d="M48.333 38.918c-.29 0-.546-.188-.631-.465-.02-.064-.03-.13-.03-.197 0-.291.19-.548.468-.633.064-.02.13-.03.196-.029.29 0 .545.189.632.465l-.138.044.138-.044c.107.35-.088.72-.435.83-.064.02-.13.029-.197.029m1.027-2.492c-.499-.003-.99.137-1.413.402-1.731 1.101-1.105 3.717.82 4.194.179.044.364.067.55.067.927-.02 1.767-.547 2.19-1.373.369-.678.352-1.5-.044-2.163-.45-.722-1.25-1.152-2.1-1.13"/>
                        <path fill="#CBF1F3" d="M48.333 37.88c-.205 0-.371.166-.372.372 0 .206.165.373.37.374.206.001.373-.164.375-.37-.001-.038-.007-.075-.018-.11-.05-.157-.194-.263-.358-.263"/>
                        <path fill="#CBF1F3" d="M48.333 38.629c-.19-.002-.349-.147-.367-.337-.018-.19.109-.363.296-.401.186-.038.371.07.429.252.01.036.017.073.017.11 0 .164-.106.309-.262.358-.035.012-.073.018-.11.018m0-1.038c-.066 0-.132.01-.196.029-.278.085-.467.342-.467.633 0 .066.009.133.029.197.07.225.255.397.485.45.23.052.472-.023.632-.197.16-.174.216-.42.146-.647l-.138.044.138-.044c-.087-.276-.343-.464-.632-.464"/>
                        <path fill="#6E7669" d="M65.818 33.484c-.338-.002-.62-.259-.654-.595-.034-.337.19-.645.52-.715.33-.07.66.121.765.443l-.138.044.138-.044c.066.202.03.424-.095.595-.124.172-.324.273-.537.272m1.03-2.492c-.5-.002-.99.137-1.414.402-1.73 1.102-1.105 3.718.82 4.192.18.044.365.066.551.066.926-.02 1.767-.547 2.19-1.373.368-.678.352-1.5-.043-2.162-.451-.722-1.25-1.152-2.1-1.13"/>
                        <path fill="#CBF1F3" d="M65.818 32.447c-.207 0-.375.166-.376.372 0 .038.006.076.017.113.049.156.193.262.355.263.038 0 .075-.006.11-.017.156-.05.263-.194.263-.358 0-.038-.007-.075-.018-.11-.049-.157-.193-.264-.357-.264"/>
                        <path fill="#CBF1F3" d="M65.818 33.195c-.164 0-.308-.107-.356-.263-.011-.037-.017-.075-.017-.113-.004-.187.132-.348.317-.376.185-.027.362.087.413.267.011.035.017.072.018.11 0 .163-.107.309-.263.358-.036.011-.073.017-.11.017m0-1.038c-.364.002-.659.298-.66.663 0 .365.295.663.66.665.212 0 .413-.1.538-.273.125-.172.16-.393.094-.595l-.139.044.14-.044c-.087-.277-.343-.467-.633-.468"/>
                        <path fill="#888771" d="M54.56 21.966h-.29c-.642.064-1.265.26-1.828.578-.318.17-.623.363-.912.578-.225.163-.432.35-.617.558-.168.195-.314.407-.436.633-.306.555-.468 1.246.046 1.735.216.2.501.312.797.309.296.003.583-.111.796-.319.369-.402.575-.93.577-1.477h.052c.183.356.435.672.741.928.304.28.698.442 1.11.457h.117c.168-.015.332-.056.487-.124.27-.112.48-.334.576-.609.097-.276.072-.58-.068-.836.233.132.496.203.764.208.36.026.707-.15.898-.457.22-.33.22-.762 0-1.093l-.024-.031c-.336-.392-.787-.666-1.29-.784-.492-.147-1.003-.226-1.517-.233"/>
                        <path fill="#6E7669" d="M60.881 42.025c-.043 0-.085.008-.124.023-.306.127-.597.29-.866.483-.776.578-.793 1.116-.672 1.468.092.302.307.551.591.688.07.032.142.056.217.072-.043.111-.073.227-.09.344-.074.4.076.809.39 1.066.191.142.424.215.66.209.216-.002.43-.047.627-.133.197-.087.381-.203.545-.344.263-.225.479-.5.635-.81l.029-.058c.051-.105.042-.232-.024-.33s-.18-.153-.297-.144c-.118.009-.222.08-.274.186l-.023.046c-.184.372-.49.67-.865.844-.115.05-.239.076-.364.078-.092.005-.183-.021-.26-.072-.117-.118-.168-.288-.135-.451.017-.215.14-.405.329-.509l.04-.02c.165-.08.233-.278.153-.443-.08-.164-.277-.233-.442-.153-.112.04-.23.06-.349.061-.085.003-.17-.014-.247-.049-.116-.06-.203-.164-.24-.289-.15-.433.71-.942 1.154-1.121.147-.059.232-.214.202-.37-.03-.155-.168-.268-.326-.266"/>
                        <path fill="#FFC31B" d="M7.274 83.53c.34-.191 2.055 1.665 2.439 1.774.383.11 2.596-.595 2.77-.289.172.306-1.732 1.864-1.856 2.292-.124.428.716 2.737.375 2.925-.34.188-1.786-1.716-2.288-1.858-.502-.142-2.752.679-2.92.376-.167-.304 1.76-1.951 1.856-2.293.095-.34-.722-2.725-.376-2.927zm94.256 31.72c-.263-.115.181-2.231.09-2.537-.093-.306-1.472-1.353-1.354-1.624.118-.272 1.907.1 2.228-.052.32-.154 1.422-1.955 1.685-1.839.262.116-.33 2.087-.208 2.486.12.399 1.59 1.401 1.468 1.677-.121.274-1.973-.07-2.227.054-.254.124-1.42 1.951-1.682 1.835zM9.04 20.207c-.124.393-3.21.078-3.632.258-.421.178-1.702 2.312-2.112 2.181-.41-.13-.145-2.742-.416-3.179-.27-.437-2.997-1.737-2.876-2.124s3.024.15 3.578-.084c.554-.234 1.756-2.485 2.166-2.355.41.13.202 2.832.416 3.178.213.348 3 1.729 2.876 2.125z"/>
                        <ellipse cx="52.912" cy="108.022" fill="#FFE498" rx="28.71" ry="28.762"/>
                        <path fill="#FFE498" d="M51.516 80.09c9.24.006 17.946 4.34 23.53 11.716 5.585 7.375 7.405 16.942 4.92 25.858 4.006-11.299.598-23.901-8.555-31.627-9.152-7.727-22.128-8.956-32.564-3.086 3.958-1.886 8.286-2.864 12.669-2.861z"/>
                        <path fill="#FFDE82" d="M60.05 130.846c-11.31-.001-21.512-6.814-25.864-17.272-4.352-10.458-2.003-22.511 5.956-30.562-9.907 5.015-15.927 15.414-15.351 26.519.576 11.105 7.64 20.823 18.012 24.782 10.373 3.96 22.1 1.413 29.907-6.492-3.923 1.994-8.26 3.03-12.66 3.025z"/>
                        <ellipse cx="39.383" cy="121.54" fill="#FFE9AB" rx="6.783" ry="6.795"/>
                        <path fill="#FFF1C8" d="M39.383 114.745c2.744-.002 5.22 1.651 6.271 4.19 1.052 2.54.473 5.463-1.466 7.407-1.94 1.945-4.858 2.527-7.393 1.476-2.536-1.051-4.189-3.53-4.189-6.278 0-3.751 3.033-6.792 6.777-6.795m0-.523c-2.955 0-5.62 1.784-6.751 4.52-1.132 2.734-.506 5.883 1.584 7.977 2.09 2.095 5.233 2.72 7.964 1.588 2.731-1.133 4.512-3.803 4.512-6.764-.004-4.043-3.274-7.318-7.309-7.322z"/>
                        <path fill="#FFE28F" d="M39.383 114.745c-2.058-.002-4.005.933-5.29 2.543 2.7-2.113 6.548-1.877 8.97.55 2.424 2.428 2.66 6.284.55 8.988 2.232-1.805 3.089-4.823 2.139-7.535-.95-2.712-3.5-4.532-6.369-4.546z"/>
                        <ellipse cx="62.038" cy="120.317" fill="#FFE9AB" rx="4.31" ry="4.318"/>
                        <path fill="#FFF1C8" d="M62.035 115.999c2.38 0 4.31 1.934 4.31 4.318 0 2.385-1.93 4.319-4.31 4.319s-4.31-1.934-4.31-4.319c0-1.145.454-2.243 1.262-3.053.809-.81 1.905-1.265 3.048-1.265m0-.332c-2.565 0-4.645 2.083-4.645 4.653 0 2.57 2.08 4.654 4.645 4.654 2.565 0 4.645-2.084 4.645-4.654-.003-2.569-2.081-4.65-4.645-4.653z"/>
                        <path fill="#FFE28F" d="M62.035 115.999c-1.309-.001-2.547.595-3.364 1.619 1.715-1.375 4.188-1.239 5.742.317 1.553 1.556 1.69 4.034.317 5.752 1.428-1.146 1.978-3.072 1.371-4.802-.607-1.73-2.238-2.887-4.069-2.886h.003z"/>
                        <ellipse cx="63.336" cy="99.435" fill="#FFE9AB" rx="5.851" ry="5.862"/>
                        <path fill="#FFF1C8" d="M63.336 93.573c2.367 0 4.502 1.43 5.407 3.62.905 2.192.402 4.714-1.273 6.39-1.675 1.675-4.193 2.174-6.379 1.264-2.186-.91-3.61-3.05-3.606-5.421 0-3.237 2.62-5.862 5.851-5.862m0-.45c-2.55 0-4.849 1.538-5.824 3.899-.976 2.36-.436 5.076 1.367 6.882 1.804 1.806 4.516 2.346 6.871 1.368 2.356-.979 3.891-3.282 3.89-5.837-.003-3.487-2.823-6.312-6.304-6.315v.003z"/>
                        <path fill="#FFE28F" d="M63.336 93.573c-1.775-.001-3.455.806-4.564 2.194 2.328-1.872 5.69-1.688 7.8.427 2.11 2.114 2.294 5.481.425 7.813 1.938-1.556 2.683-4.169 1.86-6.516-.824-2.347-3.037-3.918-5.52-3.918z"/>
                        <ellipse cx="42.309" cy="102.941" fill="#FFE9AB" rx="3.944" ry="3.951"/>
                        <path fill="#FFF1C8" d="M42.31 98.99c1.595-.005 3.037.955 3.651 2.43.614 1.477.28 3.178-.847 4.31-1.127 1.133-2.825 1.473-4.3.862-1.475-.61-2.437-2.052-2.437-3.651 0-2.183 1.765-3.951 3.944-3.951m0-.304c-2.346 0-4.247 1.905-4.247 4.255 0 2.35 1.901 4.254 4.247 4.254 2.345 0 4.247-1.904 4.247-4.254-.003-2.349-1.903-4.252-4.247-4.255z"/>
                        <path fill="#FFE28F" d="M42.31 98.99c-1.194.002-2.322.546-3.068 1.48 1.568-1.269 3.838-1.148 5.264.279 1.425 1.428 1.545 3.703.279 5.273 1.304-1.05 1.807-2.81 1.251-4.391-.555-1.582-2.045-2.64-3.718-2.641h-.009z"/>
                        <ellipse cx="48.723" cy="90.114" fill="#FFE9AB" rx="2.926" ry="2.931"/>
                        <path fill="#FFF1C8" d="M48.723 87.183c1.183 0 2.25.714 2.702 1.809.454 1.095.203 2.356-.633 3.194-.837.838-2.096 1.089-3.189.635-1.093-.453-1.806-1.522-1.806-2.707 0-1.619 1.31-2.931 2.926-2.931m0-.226c-1.275 0-2.423.77-2.911 1.949s-.218 2.536.683 3.44c.901.902 2.256 1.172 3.434.683 1.177-.488 1.945-1.639 1.945-2.915-.004-1.742-1.413-3.154-3.151-3.157z"/>
                        <path fill="#FFE28F" d="M48.723 87.183c-.888 0-1.728.403-2.282 1.098 1.164-.93 2.84-.836 3.893.219 1.052 1.055 1.146 2.734.218 3.9.968-.779 1.341-2.084.93-3.258-.411-1.173-1.517-1.959-2.76-1.96l.001.001z"/>
                        <ellipse cx="74.949" cy="111.719" fill="#FFE9AB" rx="2.839" ry="2.844"/>
                        <path fill="#FFF1C8" d="M74.949 108.875c1.568 0 2.839 1.273 2.839 2.844 0 1.57-1.271 2.844-2.839 2.844s-2.839-1.273-2.839-2.844 1.27-2.844 2.839-2.844m0-.22c-1.689 0-3.059 1.371-3.059 3.064 0 1.692 1.37 3.064 3.059 3.064s3.058-1.373 3.058-3.064c-.001-1.692-1.37-3.063-3.058-3.064z"/>
                        <path fill="#FFE28F" d="M74.949 108.875c-.86-.001-1.675.39-2.213 1.063 1.13-.904 2.758-.814 3.78.211 1.022 1.024 1.113 2.655.21 3.787.939-.757 1.3-2.023.9-3.161-.4-1.139-1.473-1.9-2.677-1.9z"/>
                        <path fill="#4BCDD4" d="M84.276 47.358s8.74 3.468 14.138-9.868l2.75 1.292s1.442 12.637-15.125 18.209"/>
                        <path fill="#4BCDD4" d="M103.477 36.157l.064-.1c.05-.079.101-.16.153-.235.144-.217.288-.43.427-.656.18-.294.307-.618.375-.956.037-.187.037-.378 0-.564-.039-.188-.14-.356-.289-.477-.258-.195-.622-.154-.83.093-.44.444-.815.948-1.114 1.496-.101.165-.19.333-.29.503-.034.075-.089.14-.157.185-.011.006-.024.006-.035 0-.026-.073-.026-.154 0-.228l.023-.078v-.043c.007-.013.013-.026.017-.04.577-1.249.603-3.281-.507-2.972-.354.139-.645.4-.82.737-.229.379-.413.782-.551 1.203-.033.092-.063.189-.092.288-.026.078-.038.206-.101.264-.013.015-.033.021-.052.017-.012-.005-.021-.014-.026-.026-.021-.06-.028-.125-.02-.188 0-.06 0-.122-.018-.179-.013-.098-.035-.195-.063-.289-.04-.146-.112-.282-.208-.399-.121-.141-.293-.228-.48-.243-.04-.007-.082-.007-.123 0-2.432.705-.323 4.335-.323 4.335l.113.223 2.64 1.07c.86.06 1.717-.15 2.452-.602.072-.051.159-.11.288-.179.37-.208.707-.468 1.002-.774.273-.254.443-.6.475-.972-.002-.113-.03-.224-.08-.326-.071-.168-.204-.302-.37-.376-.271-.042-.548.034-.761.208-.124.081-.243.171-.358.26l-.176.142c-.04.032-.141.15-.19.07-.027-.043-.027-.097 0-.14l.005-.052z"/>
                        <path fill="#A2E5E9" d="M100.814 42.742c.143-.636.247-1.28.309-1.928-1.235-.348-2.414-.87-3.502-1.55-.249.518-.505 1.003-.762 1.463 1.136.983 2.494 1.674 3.955 2.015zm-5.554.41c-.325.42-.653.806-.986 1.156 1.315 1.397 3.027 2.353 4.904 2.74.325-.582.614-1.184.866-1.8-1.945-.344-3.745-1.385-4.784-2.096zm-2.787 2.737c-.408.295-.837.561-1.283.795.965 2.062 2.654 3.696 4.746 4.59.486-.47.946-.966 1.379-1.486-2.199-.797-3.947-2.737-4.842-3.899z"/>
                        <path fill="#4BCDD4" d="M42.101 60.309s-4.55 8.243-17.169 1.355l-1.308 2.749s6.9 10.677 23.22 4.449"/>
                        <path fill="#4BCDD4" d="M20.169 63.876l-.113-.04-.266-.085c-.248-.075-.501-.145-.744-.234-.327-.115-.632-.287-.9-.509-.147-.119-.269-.266-.358-.433-.089-.169-.118-.363-.08-.55.073-.317.383-.521.703-.462.621.064 1.23.215 1.81.448.181.064.357.136.544.206.075.035.158.05.24.043.013 0 .025-.007.032-.017v-.018c0-.069-.095-.136-.15-.173l-.067-.047-.037-.023s-.037-.014-.037-.02c-1.244-.595-2.545-2.15-1.49-2.619.361-.117.751-.1 1.1.05.416.146.815.34 1.189.578l.248.156c.069.046.161.136.245.139.02.003.04-.005.052-.02.005-.013.005-.026 0-.038 0-.064-.066-.107-.104-.159-.038-.052-.07-.099-.101-.15-.054-.087-.102-.178-.141-.272-.062-.139-.093-.288-.093-.44.005-.185.083-.362.217-.491.028-.031.06-.057.098-.078 2.326-1.003 2.989 3.133 2.989 3.133l.055.243-1.348 2.5c-.626.594-1.422.977-2.276 1.095-.09 0-.19.015-.326.038-.417.075-.843.089-1.264.04-.372-.021-.723-.181-.984-.448-.068-.084-.117-.183-.144-.288-.052-.175-.035-.364.046-.526.184-.206.446-.324.721-.325.148-.016.289-.022.445-.025h.228c.052 0 .204.025.193-.067-.006-.055-.047-.1-.101-.112h-.031z"/>
                        <path fill="#A2E5E9" d="M26.397 67.257c-.513-.4-1-.831-1.46-1.292.736-1.053 1.319-2.205 1.731-3.422.52.243 1.025.457 1.515.645-.257 1.481-.87 2.877-1.786 4.069zm4.55-3.217c.518.118 1.015.206 1.492.263-.132 1.918-.85 3.747-2.057 5.24-.617-.247-1.218-.53-1.8-.85 1.292-1.496 2.004-3.442 2.365-4.653zm3.89.344c.502-.032 1.001-.1 1.494-.202.56 2.207.29 4.543-.759 6.564-.677-.054-1.351-.145-2.02-.272 1.207-2.011 1.328-4.621 1.284-6.09z"/>
                        <path fill="#4BCDD4" d="M87.794 44.221l-1.088-.488-23.886 7.61-23.993 7.266-.624 1.02c-.083.14.16.773.191.914.187.835.398 1.668.626 2.492.747 2.734 1.684 5.412 2.804 8.014 1.374 3.279 3.154 6.37 5.3 9.203 2.21 2.85 4.954 5.388 8.304 6.969 1.718.811 3.553 1.343 5.439 1.578 6.734.832 13.611-1.304 19.595-4.336l.19-.098.096-.05c.652-.337 1.292-.693 1.921-1.069 17.739-10.584 5.125-39.024 5.125-39.024z"/>
                        <path fill="#00AFB8" d="M37.644 48.845l50.226-.025c.96 0 1.739.777 1.74 1.737v.003c-.001.96-.78 1.739-1.74 1.739l-50.226.025c-.96 0-1.739-.777-1.74-1.737v-.003c.001-.96.78-1.739 1.74-1.74z" transform="translate(62.756972, 50.571926) rotate(-17.230000) translate(-62.756972, -50.571926)"/>
                        <path fill="#4BCDD4" d="M69.467 92.935c-1.408-.752-1.852-2.293-1.65-3.795.15-1.11.603-2.148.865-3.232.205-.847.367-1.702.508-2.56.289-1.674.484-3.362.638-5.053.046-.5.086-1.002.11-1.505l-10.356-2.648s-.672 9.642-.43 13.769c.243 4.127 1.129 7.57 4.675 7.957 3.546.388 4.982 1.269 4.815 2.717-.103.55-.038 1.118.184 1.63.212.331.554.556.941.618.667.154 1.339.099 1.824-.439.376-.454.636-.994.756-1.572 0-.032.014-.067.023-.101.004-.03.01-.059.02-.087.138-.612.19-1.249.288-1.749.246-1.506-.655-2.586-3.21-3.95z"/>
                        <path fill="#A2E5E9" d="M66.097 96.247c.518.12 1.018.306 1.49.555 1.3-.749 2.33-1.893 2.939-3.267-.318-.198-.666-.401-1.062-.612-.1-.056-.195-.118-.288-.185-.814 1.197-1.948 2.662-3.079 3.509zm-4.541-1.26c2.738-.263 5.421-2.298 6.636-3.341-.207-.403-.337-.84-.387-1.29-2.236 1.628-5.906 2.697-7.472 3.102.296.59.712 1.111 1.223 1.529z"/>
                        <path fill="#4BCDD4" d="M91.429 81.526c-1.573.267-2.865-.681-3.618-1.993-.56-.972-.834-2.07-1.287-3.088-.354-.794-.747-1.572-1.154-2.338-.802-1.494-1.665-2.957-2.576-4.388-.268-.424-.543-.846-.831-1.256l-9.81 4.243s5.346 8.046 8.056 11.165c2.709 3.118 5.507 5.3 8.554 3.44 3.047-1.863 4.717-2.048 5.482-.796.257.5.66.912 1.154 1.18.37.132.777.1 1.122-.087.62-.29 1.12-.743 1.175-1.463.021-.59-.103-1.177-.361-1.708l-.043-.093c-.015-.025-.028-.052-.038-.08-.265-.578-.61-1.105-.849-1.555-.74-1.359-2.117-1.668-4.976-1.183z"/>
                        <path fill="#A2E5E9" d="M90.788 86.218c.484-.222.994-.38 1.518-.472.573-1.388.69-2.924.335-4.384-.372.035-.774.09-1.212.165-.117.019-.234.031-.352.037.098 1.437.098 3.275-.289 4.654zM86.42 87.99c2.02-1.885 2.885-5.137 3.214-6.703-.408-.194-.778-.46-1.09-.787-.779 2.656-3.03 5.75-4.025 7.03.594.285 1.242.442 1.902.46z"/>
                        <path fill="#FFC31B" d="M124.628 56.41c.29-.092 1.316 1.578 1.59 1.734.274.156 2.072-.06 2.152.197.081.257-1.6 1.155-1.756 1.465-.156.31.132 2.191-.156 2.284-.289.092-1.103-1.579-1.463-1.76-.36-.183-2.199.1-2.28-.157-.08-.257 1.634-1.22 1.757-1.465.125-.246-.117-2.206.157-2.298z"/>
                    </g>
                </g>
            </g>
        </g>
    </g>
</svg>
