<svg xmlns="http://www.w3.org/2000/svg" width="370" height="274" viewBox="0 0 370 274">
    <g fill="none" fill-rule="evenodd">
        <path d="M1 .996h368.655V274H1z"/>
        <g fill-rule="nonzero" transform="translate(56)">
            <path fill="#FFC31B" d="M232.177 5.867c.78 0 1.937 4.931 2.498 5.498.56.566 5.121 1.537 5.115 2.23-.005.695-4.861 1.527-5.491 2.151-.63.625-1.451 5.469-2.231 5.463-.78-.006-1.422-4.752-2.15-5.492-.73-.74-5.47-1.537-5.463-2.23.005-.695 4.988-1.66 5.491-2.151.503-.492 1.451-5.474 2.231-5.469z"/>
            <path fill="#854C37" d="M82.975 36.996a2.382 2.382 0 0 0-2.376.271c-1.555 1.099-1.613 4.596-.168 10.695.156.478.203.986.139 1.485a1.734 1.734 0 0 1-.578-.243c-.116-.08-2.77-1.948-4.48-3.468-1.474-1.312-2.023-3.752-2.312-5.064l-.076-.33c-.225-.97-.965-2.826-2.277-3.635a2.416 2.416 0 0 0-1.89-.318c-1.948.48-2.076 2.89-1.833 4.202v.099s.283.93 1.047 3.97c.329 1.313.075 1.631.075 1.631h-.133a.82.82 0 0 0-.162 0s-1.954-.133-3.469-.15c-1.364 0-2.346.352-2.89 1.092-.543.74-.653 1.665-.33 2.89.7 2.579 3.429 2.532 5.62 2.498h1.421c2.133.098 5.833 2.271 7.11 3.641 1.394 1.486 6.041 5.995 6.244 6.186a.81.81 0 0 0 1.364-.688l5.688-4.388a.81.81 0 0 0 1.08-.988 46.834 46.834 0 0 0-.369-1.116c-.804-2.376-2.48-7.324-3.133-11.665-.55-3.607-1.688-5.879-3.295-6.567M150.162 22.498c-.41-1.156-1.046-1.902-1.896-2.173-.85-.272-1.907-.035-3.023.751-1.231.867-2.751 2.07-2.769 2.081l-.11.104-.121.075s-.393-.121-.861-1.387c-1.093-2.942-1.382-3.862-1.388-3.867l-.034-.093c-.578-1.243-2.006-3.144-3.896-2.428a2.422 2.422 0 0 0-1.376 1.33c-.625 1.41-.18 3.358.179 4.29l.127.317c.497 1.249 1.428 3.572.954 5.486-.538 2.168-1.607 5.064-1.734 5.382-.082.2-.2.384-.347.543a3.468 3.468 0 0 1-.723-1.3c-2.26-5.85-4.283-8.7-6.19-8.724a2.382 2.382 0 0 0-2.093 1.116c-.937 1.48-.578 3.994 1 7.284 1.913 3.948 3.335 8.977 4.017 11.393l.324 1.156a.81.81 0 0 0 1.451.203l7.174.404c.116.225.33.383.578.428a.827.827 0 0 0 .399 0 .81.81 0 0 0 .578-.613c.057-.271 1.34-6.613 1.647-8.63.283-1.85 2.093-5.735 3.804-7.024.352-.266.745-.531 1.156-.809 1.827-1.214 4.104-2.723 3.22-5.243"/>
            <path fill="#B26937" d="M159.14 64.656c-2.954-4.434-5.925-8.995-9.25-13.15-1.38-1.735-.098-2.377 3.4-2.047 1.56.144 16.087 1.33 14.307-3.145-.538-1.341-1.77-2.491-2.89-3.353-2.955-2.271-6.666-3.33-10.261-4.046-4.156-.844-8.394-1.127-12.608-1.48a93.542 93.542 0 0 0-29.041 2.087c-13.238 3.098-25.666 9.561-36.175 18.14-3.278 2.676-6.613 5.306-9.561 8.352-2.555 2.642-5.012 5.613-6.168 9.157-.44 1.347-.81 2.994-.492 4.405 1.058 4.7 12.37-4.498 13.573-5.504 2.694-2.248 4.128-2.427 3.96-.237-.405 5.319-.272 10.758-.202 16.088.057 4.48.294 8.948.404 13.428.07 2.977.307 5.954.66 8.914l92.13-28.574a107.396 107.396 0 0 0-4.497-7.722c-2.445-3.752-4.78-7.573-7.266-11.296"/>
            <path fill="#FFD6B2" d="M132.283 53.465c-4.226 0-7.578 2.693-8.723 6.838-.722 2.625-.67 5.41-.433 8.133.352 4 1.404 9.064-3.157 10.787a5.7 5.7 0 0 1-.797.225H119.028a5.567 5.567 0 0 1-.786.26c-4.734 1.157-6.729-3.607-8.706-7.104-1.346-2.381-2.89-4.711-4.96-6.462-3.288-2.77-7.572-3.087-11.063-.7-6.041 4.139-7.26 14.151-7.191 20.96.139 7.661.864 15.3 2.167 22.851L161.18 86.71a150.405 150.405 0 0 0-11.11-20.007c-3.798-5.653-10.469-13.226-17.793-13.214"/>
            <path fill="#70422B" d="M118.618 71.795c-.808.18-1.599.427-2.365.74-.73.286-1.436.632-2.11 1.035-1.156.693-2.965 2.052-1.901 3.6 1.063 1.55 2.474 2.637 4.324 2.747h.138c.415.011.83-.024 1.237-.104a8.96 8.96 0 0 0 2.428-.763c2.18-.983 2.925-2.816 3.093-4.902v-.156c.167-2.532-3.15-2.555-4.862-2.203"/>
            <path fill="#DB748A" d="M101.553 86.76c.191.608-1.04 1.527-2.74 2.059-1.7.532-3.237.462-3.422-.145-.185-.607 1.04-1.526 2.74-2.058 1.7-.531 3.237-.462 3.422.145M145.093 71.564c.22.578-.96 1.578-2.636 2.19-1.676.613-3.208.625-3.428 0-.22-.624.96-1.578 2.636-2.19 1.676-.613 3.208-.625 3.428 0"/>
            <path fill="#70422B" d="M103.762 79.431c.738-1.355.705-3-.087-4.324-1.422-2.399-4.78-2.89-7.04-1.45-3.47 2.202-2.215 7.433 1.64 8.387a4.948 4.948 0 0 0 5.492-2.607"/>
            <path fill="#FFF" d="M98.397 76.2a1.035 1.035 0 1 1-1.978.609 1.035 1.035 0 0 1 1.978-.61"/>
            <path fill="#FFF" d="M98.397 76.2l-.277.086a.751.751 0 0 1-.491.942.751.751 0 0 1-.972-.716.751.751 0 0 1 1.463-.22l.277-.086.278-.087a1.33 1.33 0 0 0-2.538.786 1.326 1.326 0 0 0 2.532-.786l-.278.087"/>
            <path fill="#70422B" d="M138.798 68.564c.738-1.355.705-3-.087-4.324-1.422-2.4-4.78-2.89-7.04-1.451-3.47 2.202-2.215 7.434 1.641 8.382a4.948 4.948 0 0 0 5.492-2.607"/>
            <path fill="#FFF" d="M133.433 65.32a1.035 1.035 0 1 1-1.977.61 1.035 1.035 0 0 1 1.977-.61"/>
            <path fill="#FFF" d="M133.433 65.32l-.277.087a.751.751 0 0 1-.711.977.746.746 0 0 1-.746-.751.746.746 0 0 1 1.463-.22l.277-.087.278-.086a1.324 1.324 0 1 0-2.532.774 1.324 1.324 0 0 0 2.532-.774l-.278.086"/>
            <path fill="#985C37" d="M115.548 46.048l-.046-.063a4.873 4.873 0 0 0-2.584-1.567 10.578 10.578 0 0 0-3.607-.445 9.336 9.336 0 0 0-3.67 1.116c-.638.338-1.248.725-1.827 1.156-.452.326-.866.7-1.237 1.115-.336.39-.629.814-.873 1.266-.613 1.11-.937 2.492.092 3.469a2.312 2.312 0 0 0 3.191 0 4.387 4.387 0 0 0 1.156-2.954h.104c.368.71.873 1.341 1.486 1.855.664.62 1.55.945 2.457.902.337-.03.666-.114.977-.248a2.058 2.058 0 0 0 1.017-2.89 2.856 2.856 0 0 0 2.838.04c.193-.152.36-.334.497-.538a1.965 1.965 0 0 0 0-2.185"/>
            <path fill="#70422B" d="M125.138 91.802a4.422 4.422 0 0 1-1.092.687 2.619 2.619 0 0 1-2.578-.15 2.231 2.231 0 0 1-.78-2.133 3 3 0 0 1 .178-.688 2.226 2.226 0 0 1-.433-.144 2.26 2.26 0 0 1-1.185-1.376c-.243-.705-.208-1.786 1.347-2.937a8.746 8.746 0 0 1 1.734-.965.661.661 0 0 1 .497 1.226c-.879.358-2.601 1.381-2.312 2.242a.96.96 0 0 0 .48.578c.386.14.81.14 1.196 0a.662.662 0 0 1 .578 1.191l-.08.04a1.278 1.278 0 0 0-.66 1.018.994.994 0 0 0 .272.902c.394.2.86.2 1.254 0a3.648 3.648 0 0 0 1.735-1.688l.046-.093a.662.662 0 1 1 1.19.579l-.057.115a5.231 5.231 0 0 1-1.272 1.619"/>
            <path fill="#CBF1F3" d="M133.878 32.909c.148-.159.265-.343.347-.543.116-.318 1.185-3.214 1.734-5.382.475-1.914-.456-4.237-.953-5.486l-.127-.318c-.359-.925-.804-2.89-.18-4.29a2.422 2.422 0 0 1 2.209-1.49c1.48 0 2.595 1.531 3.069 2.59l.035.092s.289.925 1.387 3.867c.468 1.266.861 1.387.861 1.387l.122-.075.11-.104s1.531-1.214 2.768-2.081a4.046 4.046 0 0 1 2.313-.867c.25 0 .5.039.74.116.85.271 1.485 1.005 1.896 2.173.878 2.52-1.393 4.046-3.22 5.243-.416.278-.815.543-1.156.81-1.734 1.288-3.52 5.173-3.804 7.023-.07.44-.18 1.092-.318 1.838h.15c4.215.353 8.452.63 12.608 1.48 3.595.734 7.307 1.792 10.26 4.046 1.128.862 2.359 2.012 2.89 3.353 1.082 2.844-4.288 3.422-8.797 3.422-2.636 0-4.977-.196-5.555-.248a17.64 17.64 0 0 0-1.55-.081c-2.312 0-2.994.699-1.844 2.127 3.342 4.156 6.313 8.711 9.25 13.15 2.485 3.723 4.82 7.544 7.266 11.296a94.284 94.284 0 0 1 4.497 7.723l-9.706 3.029-72.69 22.544-9.718 3.012a97.718 97.718 0 0 1-.659-8.914c-.104-4.474-.34-8.948-.405-13.428-.069-5.33-.202-10.77.203-16.088.08-1.046-.203-1.549-.815-1.549-.613 0-1.734.613-3.145 1.786-.96.804-8.37 6.833-11.856 6.833a1.578 1.578 0 0 1-1.734-1.33c-.318-1.41.052-3.052.491-4.404 1.156-3.544 3.613-6.515 6.168-9.157 2.948-3.046 6.284-5.676 9.561-8.353l.116-.092c-.538-.538-1-1.012-1.3-1.335-1.278-1.37-4.972-3.544-7.11-3.642h-2.204c-2.017 0-4.22-.231-4.838-2.509-.323-1.197-.214-2.162.33-2.89.543-.729 1.514-1.093 2.838-1.093h.081c1.509 0 3.468.15 3.468.15a.82.82 0 0 1 .162 0h.133s.255-.323-.075-1.63c-.763-3.046-1.046-3.965-1.046-3.97v-.1c-.237-1.334-.11-3.728 1.832-4.202a2.41 2.41 0 0 1 1.89.318c1.313.81 2.053 2.665 2.278 3.636l.075.33c.295 1.312.85 3.751 2.312 5.064 1.735 1.52 4.37 3.393 4.48 3.468.177.115.373.198.578.243.065-.5.017-1.007-.138-1.486-1.445-6.098-1.388-9.601.167-10.694a2.468 2.468 0 0 1 1.428-.474c.326 0 .649.068.948.197 1.613.687 2.752 2.96 3.295 6.566a51.73 51.73 0 0 0 1.428 6.266 87.287 87.287 0 0 1 25.07-10.312 92.12 92.12 0 0 1 15.463-2.249 51.834 51.834 0 0 0-2.375-5.983c-1.59-3.283-1.937-5.78-1-7.283a2.376 2.376 0 0 1 2.08-1.116h.03c1.901 0 3.93 2.89 6.19 8.723.144.48.39.924.723 1.3M124.12 0a99.19 99.19 0 0 0-27.873 4.046C43.164 19.457 38.533 64.234 46.164 88.171c7.63 23.938 33.273 31.979 33.273 31.979l9.168-3.688 83.194-23.487c31.215-38.499-2.428-74.997-2.428-74.997C156.625 3.665 138.913 0 124.121 0"/>
            <path fill="#7C7C71" d="M69.523 36.302c-.195 0-.389.024-.578.07-1.948.48-2.075 2.89-1.832 4.202v.098s.283.93 1.046 3.972c.33 1.312.075 1.63.075 1.63h-.133a.82.82 0 0 0-.162 0s-1.954-.133-3.468-.15h-.081c-1.324 0-2.278.364-2.838 1.092-.561.728-.653 1.665-.33 2.89.63 2.243 2.856 2.497 4.867 2.497h2.197c2.133.099 5.833 2.272 7.11 3.642.307.324.77.798 1.3 1.335a95.605 95.605 0 0 1 10.984-7.728 51.73 51.73 0 0 1-1.428-6.266c-.549-3.607-1.688-5.88-3.295-6.567a2.41 2.41 0 0 0-.948-.197 2.468 2.468 0 0 0-1.428.474c-1.555 1.099-1.612 4.596-.167 10.694.155.48.203.987.139 1.486a1.734 1.734 0 0 1-.579-.243c-.115-.08-2.768-1.948-4.48-3.468-1.474-1.312-2.023-3.752-2.312-5.064l-.075-.33c-.225-.97-.965-2.826-2.277-3.635a2.474 2.474 0 0 0-1.313-.393M136.896 15.4a2.422 2.422 0 0 0-2.208 1.491c-.625 1.41-.18 3.358.179 4.29l.127.317c.497 1.249 1.428 3.572.954 5.486-.538 2.168-1.607 5.064-1.734 5.382-.082.2-.2.384-.347.543a3.468 3.468 0 0 1-.723-1.3c-2.26-5.85-4.283-8.7-6.19-8.724h-.03a2.376 2.376 0 0 0-2.08 1.116c-.937 1.48-.579 3.994 1 7.284a51.835 51.835 0 0 1 2.375 5.982 95.572 95.572 0 0 1 13.434.15c.14-.745.255-1.398.318-1.837.284-1.85 2.093-5.735 3.804-7.024.353-.266.746-.532 1.156-.81 1.827-1.213 4.104-2.722 3.22-5.242-.41-1.156-1.046-1.902-1.896-2.174a2.399 2.399 0 0 0-.74-.115 4.046 4.046 0 0 0-2.312.867c-1.232.867-2.752 2.07-2.77 2.08l-.11.105-.12.075s-.394-.121-.862-1.387c-1.092-2.943-1.381-3.862-1.387-3.868l-.035-.092c-.474-1.052-1.59-2.59-3.07-2.59"/>
            <path fill="#998F71" d="M103.386 52.736a2.312 2.312 0 0 1-1.596-.618c-1.029-.989-.705-2.37-.092-3.469.244-.452.537-.876.873-1.265a7.752 7.752 0 0 1 1.243-1.14c.579-.43 1.19-.817 1.826-1.155a9.336 9.336 0 0 1 3.677-1.116h.578c1.03.015 2.053.173 3.04.468a4.873 4.873 0 0 1 2.584 1.567l.047.063a1.965 1.965 0 0 1 0 2.185 1.948 1.948 0 0 1-1.833.879 3.254 3.254 0 0 1-1.532-.416 2.058 2.058 0 0 1-1.017 2.89c-.31.135-.64.219-.977.249h-.231a3.468 3.468 0 0 1-2.226-.914 6.058 6.058 0 0 1-1.491-1.809h-.104a4.387 4.387 0 0 1-1.156 2.954 2.26 2.26 0 0 1-1.596.636m30.499-15.643c-1.889 0-3.775.056-5.66.168A92.12 92.12 0 0 0 112.78 39.5 87.287 87.287 0 0 0 87.71 49.81a95.605 95.605 0 0 0-10.983 7.729l-.116.092c-3.277 2.677-6.613 5.307-9.56 8.353-2.556 2.642-5.013 5.613-6.169 9.157-.44 1.347-.81 2.994-.491 4.405a1.578 1.578 0 0 0 1.734 1.33c3.468 0 10.89-6.03 11.856-6.833 1.41-1.157 2.474-1.787 3.145-1.787.67 0 .896.51.815 1.55-.405 5.318-.272 10.757-.203 16.087.058 4.48.295 8.948.405 13.428.07 2.977.306 5.954.659 8.914l9.688-2.983a150.382 150.382 0 0 1-2.162-22.781c-.069-6.81 1.156-16.827 7.191-20.96a8.867 8.867 0 0 1 5.035-1.602 9.353 9.353 0 0 1 6.024 2.312c2.08 1.735 3.613 4.082 4.96 6.463 1.768 3.133 3.549 7.284 7.306 7.284a5.78 5.78 0 0 0 1.266-.15l-.173.028c-.354.071-.715.108-1.076.11h-.3c-1.844-.115-3.203-1.248-4.324-2.746-1.121-1.497.74-2.89 1.902-3.601.674-.402 1.38-.748 2.11-1.035.766-.312 1.556-.56 2.364-.74a8.197 8.197 0 0 1 1.619-.161c1.508 0 3.133.445 3.242 2.017a43.117 43.117 0 0 0-.346-5.203c-.237-2.722-.295-5.514.433-8.133 1.156-4.145 4.497-6.833 8.723-6.838 7.318 0 13.983 7.567 17.781 13.214A150.405 150.405 0 0 1 161.18 86.71l9.717-3.018a107.396 107.396 0 0 0-4.497-7.722c-2.445-3.752-4.78-7.573-7.266-11.296-2.954-4.433-5.925-8.994-9.25-13.15-1.155-1.428-.444-2.128 1.845-2.128.455 0 .971.027 1.55.081.577.052 2.89.249 5.554.249 4.51 0 9.88-.578 8.752-3.394-.537-1.34-1.769-2.491-2.89-3.352-2.954-2.272-6.665-3.33-10.26-4.047-4.157-.844-8.394-1.127-12.608-1.48h-.15a95.132 95.132 0 0 0-7.775-.317"/>
            <path fill="#CBD6C1" d="M96.71 89.171c-.712 0-1.215-.167-1.319-.503-.19-.606 1.04-1.526 2.74-2.057a7.359 7.359 0 0 1 2.104-.359c.711 0 1.22.168 1.318.503.191.607-1.04 1.526-2.74 2.058-.68.221-1.389.342-2.104.358m26.082 3.579a2.145 2.145 0 0 1-1.323-.417 2.231 2.231 0 0 1-.78-2.133 3 3 0 0 1 .178-.688 2.226 2.226 0 0 1-.433-.144 2.26 2.26 0 0 1-1.185-1.376c-.243-.705-.208-1.786 1.347-2.936a8.746 8.746 0 0 1 1.734-.966.661.661 0 0 1 .497 1.226c-.879.358-2.601 1.381-2.312 2.243a.96.96 0 0 0 .48.578c.156.069.326.102.497.098.238-.002.474-.043.7-.121a.662.662 0 0 1 .577 1.19l-.08.04a1.278 1.278 0 0 0-.66 1.018.994.994 0 0 0 .272.902.861.861 0 0 0 .52.144c.25-.004.498-.057.729-.156a3.648 3.648 0 0 0 1.734-1.688l.046-.092a.665.665 0 0 1 .578-.376.659.659 0 0 1 .578.948l-.058.116a5.231 5.231 0 0 1-1.271 1.618 4.422 4.422 0 0 1-1.093.688 3.231 3.231 0 0 1-1.254.266M99.397 82.154a4.59 4.59 0 0 1-1.104-.133c-3.855-.954-5.093-6.185-1.642-8.388a5.29 5.29 0 0 1 2.833-.803 4.815 4.815 0 0 1 4.208 2.26 4.359 4.359 0 0 1 .087 4.324 5.052 5.052 0 0 1-4.388 2.746m40.771-7.949c-.578 0-1.029-.144-1.156-.44-.22-.577.96-1.577 2.636-2.19a7 7 0 0 1 2.312-.468c.578 0 1.029.144 1.156.44.22.577-.96 1.577-2.636 2.19a7.006 7.006 0 0 1-2.312.468m-5.734-2.89a4.59 4.59 0 0 1-1.104-.133c-3.856-.954-5.093-6.185-1.642-8.382a5.29 5.29 0 0 1 2.832-.803 4.815 4.815 0 0 1 4.209 2.26 4.359 4.359 0 0 1 .086 4.324 5.052 5.052 0 0 1-4.387 2.745m-2.116-17.844c-4.225 0-7.578 2.694-8.723 6.838-.722 2.625-.67 5.41-.433 8.134.22 1.725.336 3.462.347 5.202.007.116.007.231 0 .347v.162c-.168 2.087-.914 3.919-3.093 4.902a8.96 8.96 0 0 1-2.255.734 5.78 5.78 0 0 1-1.265.15c-3.752 0-5.538-4.15-7.307-7.283-1.347-2.382-2.89-4.712-4.96-6.463a9.353 9.353 0 0 0-6.023-2.312 8.867 8.867 0 0 0-5.035 1.6c-6.04 4.14-7.26 14.152-7.191 20.961.127 7.64.836 15.26 2.121 22.793L161.18 86.71a150.405 150.405 0 0 0-11.11-20.007c-3.798-5.647-10.463-13.214-17.781-13.214"/>
            <path fill="#6E7669" d="M120.236 71.633c-.543 0-1.085.054-1.618.162-.808.18-1.599.427-2.365.74-.73.286-1.436.632-2.11 1.035-1.156.693-2.965 2.052-1.901 3.6 1.063 1.55 2.474 2.637 4.324 2.747h.3c.361-.003.721-.04 1.075-.11l.174-.03a8.96 8.96 0 0 0 2.254-.733c2.18-.983 2.925-2.815 3.093-4.902v-.15a2.607 2.607 0 0 0 0-.347c-.104-1.573-1.734-2.018-3.243-2.018"/>
            <path fill="#B496A7" d="M100.23 86.258a7.359 7.359 0 0 0-2.104.358c-1.7.526-2.931 1.451-2.74 2.058.104.33.578.503 1.318.503a7.353 7.353 0 0 0 2.104-.358c1.7-.526 2.93-1.451 2.74-2.058-.104-.33-.578-.503-1.318-.503M143.937 71.101a7 7 0 0 0-2.313.468c-1.67.613-2.85 1.596-2.635 2.191.11.295.531.44 1.156.44a7.006 7.006 0 0 0 2.312-.469c1.67-.612 2.85-1.595 2.636-2.19-.11-.295-.532-.44-1.156-.44"/>
            <path fill="#6E7669" d="M97.409 77.836a1.324 1.324 0 1 1 .006-2.648 1.33 1.33 0 0 1 1.265.93l-.277.088.277-.087a1.33 1.33 0 0 1-.872 1.659c-.128.039-.26.058-.393.058m2.057-4.983a5.29 5.29 0 0 0-2.832.803c-3.468 2.203-2.214 7.434 1.642 8.388a4.59 4.59 0 0 0 1.104.133 5.052 5.052 0 0 0 4.387-2.746c.739-1.355.706-3-.087-4.324a4.815 4.815 0 0 0-4.208-2.26"/>
            <path fill="#CBF1F3" d="M97.409 75.76a.746.746 0 1 0 .745.752.751.751 0 0 0-.751-.746"/>
            <path fill="#CBF1F3" d="M97.409 77.258a.746.746 0 1 1 .717-.972.751.751 0 0 1-.711.971m0-2.075a1.324 1.324 0 1 0 1.26.93l-.278.088.278-.087a1.33 1.33 0 0 0-1.266-.93"/>
            <path fill="#6E7669" d="M132.44 66.968a1.324 1.324 0 1 1 1.265-1.734l-.277.087.277-.087a1.324 1.324 0 0 1-1.266 1.734m2.064-4.983a5.29 5.29 0 0 0-2.833.804c-3.468 2.202-2.214 7.434 1.642 8.382a4.59 4.59 0 0 0 1.104.133 5.052 5.052 0 0 0 4.388-2.746c.738-1.355.705-3-.087-4.324a4.815 4.815 0 0 0-4.208-2.26"/>
            <path fill="#CBF1F3" d="M132.44 64.893a.751.751 0 0 0-.718.971.746.746 0 0 0 .931.491.751.751 0 0 0 .491-.936.751.751 0 0 0-.716-.526"/>
            <path fill="#CBF1F3" d="M132.44 66.39a.746.746 0 0 1-.747-.751.746.746 0 0 1 1.463-.22.751.751 0 0 1-.711.971m0-2.075a1.33 1.33 0 0 0-1.324 1.324 1.33 1.33 0 0 0 1.324 1.33 1.324 1.324 0 0 0 1.266-1.735l-.278.087.278-.087a1.33 1.33 0 0 0-1.266-.936"/>
            <path fill="#888771" d="M109.883 43.932h-.578a9.336 9.336 0 0 0-3.665 1.157c-.637.338-1.247.725-1.826 1.156-.452.326-.866.7-1.237 1.115-.336.39-.629.814-.873 1.266-.613 1.11-.937 2.492.092 3.469a2.312 2.312 0 0 0 1.596.618 2.26 2.26 0 0 0 1.595-.636 4.387 4.387 0 0 0 1.156-2.954h.104c.368.711.873 1.342 1.486 1.856.609.56 1.398.884 2.225.913h.232c.337-.03.666-.113.977-.248a2.058 2.058 0 0 0 1.017-2.89c.468.263.995.406 1.532.416a1.948 1.948 0 0 0 1.798-.914 1.965 1.965 0 0 0 0-2.185l-.047-.063a4.873 4.873 0 0 0-2.584-1.567 11.191 11.191 0 0 0-3.04-.468"/>
            <path fill="#6E7669" d="M122.549 84.05a.66.66 0 0 0-.249.046 8.746 8.746 0 0 0-1.734.965c-1.555 1.157-1.59 2.232-1.347 2.937a2.26 2.26 0 0 0 1.185 1.376c.14.063.284.111.433.144a3 3 0 0 0-.179.688c-.148.8.151 1.618.78 2.133.384.282.85.428 1.324.416a3.231 3.231 0 0 0 1.255-.266 4.422 4.422 0 0 0 1.092-.687c.527-.45.96-1 1.272-1.619l.058-.116a.662.662 0 0 0-1.19-.578l-.047.093a3.648 3.648 0 0 1-1.734 1.688c-.23.099-.478.152-.729.156a.861.861 0 0 1-.52-.145.994.994 0 0 1-.272-.901c.035-.429.283-.811.66-1.018l.08-.04a.662.662 0 0 0-.578-1.191c-.225.079-.461.12-.7.121-.17.005-.34-.029-.496-.098a.96.96 0 0 1-.48-.578c-.3-.867 1.422-1.885 2.312-2.243a.659.659 0 0 0-.249-1.272"/>
            <path fill="#FFC31B" d="M15.145 167.06c.682-.382 4.116 3.329 4.885 3.548.769.22 5.202-1.19 5.55-.578.346.613-3.47 3.729-3.718 4.584-.248.856 1.434 5.475.752 5.85-.682.376-3.579-3.433-4.584-3.717-1.006-.283-5.515 1.359-5.85.752-.336-.607 3.526-3.902 3.717-4.584.19-.682-1.446-5.451-.752-5.856zM203.991 230.501c-.526-.231.364-4.463.18-5.075-.186-.613-2.949-2.706-2.712-3.249.237-.543 3.821.202 4.463-.104.642-.306 2.85-3.908 3.376-3.677.526.232-.66 4.174-.416 4.972.242.798 3.185 2.803 2.942 3.353-.243.549-3.954-.14-4.463.11-.508.248-2.844 3.901-3.37 3.67zM18.683 40.412c-.249.786-6.434.156-7.278.515-.844.358-3.41 4.624-4.231 4.364-.821-.26-.29-5.486-.833-6.359-.543-.873-6.006-3.474-5.763-4.248.243-.775 6.058.3 7.168-.168 1.11-.468 3.52-4.971 4.341-4.711.821.26.405 5.665.833 6.358.427.694 6.011 3.457 5.763 4.25z"/>
            <circle cx="106.583" cy="216.044" r="57.523" fill="#FFE498"/>
            <path fill="#FFE498" d="M103.785 160.18a59.222 59.222 0 0 1 57.002 75.148c8.027-22.597 1.197-47.802-17.14-63.255-18.337-15.452-44.336-17.911-65.245-6.17a58.962 58.962 0 0 1 25.383-5.723z"/>
            <path fill="#FFDE82" d="M120.884 261.693c-22.662-.003-43.1-13.628-51.82-34.544-8.72-20.917-4.014-45.024 11.934-61.125a56.158 56.158 0 1 0 65.25 89.617 55.921 55.921 0 0 1-25.364 6.052z"/>
            <circle cx="79.477" cy="243.08" r="13.59" fill="#FFE9AB"/>
            <path fill="#FFF1C8" d="M79.477 229.49A13.59 13.59 0 1 1 65.9 243.08c0-7.502 6.077-13.584 13.578-13.59m0-1.047a14.642 14.642 0 1 0 14.643 14.642c-.007-8.084-6.559-14.635-14.643-14.642z"/>
            <path fill="#FFE28F" d="M79.477 229.49a13.561 13.561 0 0 0-10.601 5.086 13.59 13.59 0 0 1 19.076 19.076 13.59 13.59 0 0 0-8.475-24.163z"/>
            <circle cx="124.867" cy="240.634" r="8.636" fill="#FFE9AB"/>
            <path fill="#FFF1C8" d="M124.86 231.998a8.636 8.636 0 1 1 0 17.273 8.636 8.636 0 0 1 0-17.273m0-.665a9.307 9.307 0 1 0 9.308 9.307 9.318 9.318 0 0 0-9.307-9.307z"/>
            <path fill="#FFE28F" d="M124.86 231.998a8.619 8.619 0 0 0-6.74 3.237 8.636 8.636 0 0 1 12.14 12.14 8.636 8.636 0 0 0-5.405-15.377h.006z"/>
            <circle cx="127.468" cy="198.87" r="11.723" fill="#FFE9AB"/>
            <path fill="#FFF1C8" d="M127.468 187.147a11.723 11.723 0 1 1-11.723 11.705c0-6.474 5.248-11.723 11.723-11.723m0-.901a12.63 12.63 0 1 0 12.63 12.624c-.006-6.973-5.657-12.624-12.63-12.63v.006z"/>
            <path fill="#FFE28F" d="M127.468 187.147a11.7 11.7 0 0 0-9.145 4.387 11.723 11.723 0 0 1 16.48 16.48 11.723 11.723 0 0 0-7.335-20.867z"/>
            <circle cx="85.339" cy="205.882" r="7.902" fill="#FFE9AB"/>
            <path fill="#FFF1C8" d="M85.339 197.98a7.902 7.902 0 1 1-7.88 7.902 7.902 7.902 0 0 1 7.903-7.903m0-.607a8.509 8.509 0 1 0 8.509 8.51 8.52 8.52 0 0 0-8.509-8.51z"/>
            <path fill="#FFE28F" d="M85.339 197.98a7.885 7.885 0 0 0-6.145 2.96A7.896 7.896 0 0 1 90.3 212.043a7.902 7.902 0 0 0-4.943-14.065h-.017z"/>
            <circle cx="98.189" cy="180.227" r="5.862" fill="#FFE9AB"/>
            <path fill="#FFF1C8" d="M98.19 174.366a5.862 5.862 0 1 1 0 11.723 5.862 5.862 0 0 1 0-11.723m0-.451a6.312 6.312 0 1 0 6.312 6.312 6.324 6.324 0 0 0-6.313-6.312z"/>
            <path fill="#FFE28F" d="M98.19 174.366a5.85 5.85 0 0 0-4.573 2.196 5.862 5.862 0 0 1 8.237 8.238 5.862 5.862 0 0 0-3.665-10.434z"/>
            <circle cx="150.735" cy="223.437" r="5.688" fill="#FFE9AB"/>
            <path fill="#FFF1C8" d="M150.735 217.75a5.688 5.688 0 1 1 0 11.375 5.688 5.688 0 0 1 0-11.376m0-.44a6.127 6.127 0 1 0 0 12.256 6.127 6.127 0 0 0 0-12.255z"/>
            <path fill="#FFE28F" d="M150.735 217.75a5.677 5.677 0 0 0-4.434 2.126 5.688 5.688 0 0 1 7.995 7.995 5.688 5.688 0 0 0-3.561-10.122z"/>
            <path fill="#4BCDD4" d="M169.423 94.715s17.51 6.937 28.325-19.735l5.51 2.584s2.89 25.273-30.303 36.418"/>
            <path fill="#4BCDD4" d="M207.893 72.315l.127-.202c.099-.156.203-.318.307-.468.289-.434.578-.862.855-1.313.36-.588.615-1.236.752-1.913a2.827 2.827 0 0 0 0-1.127 1.665 1.665 0 0 0-.578-.954 1.22 1.22 0 0 0-1.665.185c-.88.89-1.631 1.897-2.231 2.994-.203.33-.382.665-.579 1.006a.92.92 0 0 1-.317.37.08.08 0 0 1-.07 0 .682.682 0 0 1 0-.457l.046-.156v-.086a.399.399 0 0 0 .035-.081c1.156-2.497 1.208-6.561-1.017-5.943-.708.277-1.291.8-1.642 1.474a11.711 11.711 0 0 0-1.104 2.405 10.2 10.2 0 0 0-.185.578c-.052.156-.075.41-.202.526a.11.11 0 0 1-.104.035.104.104 0 0 1-.052-.052.815.815 0 0 1-.04-.376c0-.121 0-.243-.036-.358a3.78 3.78 0 0 0-.127-.578 2.156 2.156 0 0 0-.416-.798 1.41 1.41 0 0 0-.96-.486.763.763 0 0 0-.248 0c-4.873 1.41-.648 8.671-.648 8.671l.226.445 5.29 2.14a8.29 8.29 0 0 0 4.913-1.203 4.83 4.83 0 0 1 .578-.359 8.723 8.723 0 0 0 2.006-1.549 3.006 3.006 0 0 0 .953-1.942 1.52 1.52 0 0 0-.161-.653 1.44 1.44 0 0 0-.74-.752 1.942 1.942 0 0 0-1.526.416 10.8 10.8 0 0 0-.717.52l-.353.284c-.08.064-.283.3-.381.139a.26.26 0 0 1 0-.278l.011-.104z"/>
            <path fill="#A2E5E9" d="M202.558 85.483c.286-1.27.493-2.558.618-3.855a27.203 27.203 0 0 1-7.017-3.099 52.682 52.682 0 0 1-1.527 2.925 18.579 18.579 0 0 0 7.926 4.03zM191.43 86.304c-.651.84-1.31 1.611-1.977 2.312a18.694 18.694 0 0 0 9.827 5.48 33.244 33.244 0 0 0 1.734-3.6c-3.896-.689-7.503-2.77-9.584-4.192zM185.846 91.778a21.388 21.388 0 0 1-2.572 1.59 18.538 18.538 0 0 0 9.509 9.18 37.458 37.458 0 0 0 2.763-2.972c-4.405-1.595-7.908-5.474-9.7-7.798z"/>
            <path fill="#4BCDD4" d="M84.923 120.618s-9.116 16.486-34.4 2.71l-2.62 5.498s13.822 21.354 46.523 8.897"/>
            <path fill="#4BCDD4" d="M40.979 127.751l-.226-.08-.532-.169c-.497-.15-1.005-.289-1.491-.468a5.902 5.902 0 0 1-1.804-1.017 2.827 2.827 0 0 1-.716-.867 1.665 1.665 0 0 1-.162-1.099 1.22 1.22 0 0 1 1.41-.924c1.244.128 2.464.43 3.625.896.364.127.716.271 1.092.41a.92.92 0 0 0 .48.087.08.08 0 0 0 .064-.035.07.07 0 0 0 0-.035c0-.138-.191-.271-.301-.346l-.133-.093-.075-.046s-.075-.03-.075-.04c-2.492-1.191-5.099-4.301-2.983-5.238a3.139 3.139 0 0 1 2.202.098c.835.294 1.634.682 2.382 1.156l.497.313c.139.092.324.271.491.277a.11.11 0 0 0 .104-.04.104.104 0 0 0 0-.076c0-.127-.132-.213-.208-.317a4.564 4.564 0 0 1-.202-.301 3.78 3.78 0 0 1-.283-.543 2.156 2.156 0 0 1-.185-.88 1.41 1.41 0 0 1 .433-.982.763.763 0 0 1 .197-.156c4.66-2.006 5.989 6.266 5.989 6.266l.11.486-2.7 5a8.29 8.29 0 0 1-4.561 2.19c-.18 0-.382.03-.653.076a8.723 8.723 0 0 1-2.532.081 3.006 3.006 0 0 1-1.971-.896 1.52 1.52 0 0 1-.29-.578 1.44 1.44 0 0 1 .093-1.052 1.942 1.942 0 0 1 1.445-.648 8.88 8.88 0 0 1 .89-.052h.457c.104 0 .41.052.388-.133a.26.26 0 0 0-.203-.225h-.063z"/>
            <path fill="#A2E5E9" d="M53.459 134.514a31.134 31.134 0 0 1-2.925-2.584 27.203 27.203 0 0 0 3.468-6.844c1.04.486 2.052.914 3.035 1.29a18.579 18.579 0 0 1-3.578 8.138zM62.575 128.08a29.62 29.62 0 0 0 2.988.527 18.694 18.694 0 0 1-4.121 10.48 33.244 33.244 0 0 1-3.607-1.7c2.59-2.994 4.017-6.884 4.74-9.306zM70.367 128.768c1.007-.064 2.007-.199 2.994-.404a18.538 18.538 0 0 1-1.52 13.128 37.458 37.458 0 0 1-4.046-.544c2.416-4.023 2.659-9.243 2.572-12.18z"/>
            <path fill="#4BCDD4" d="M176.47 88.443l-2.18-.977-47.857 15.22-48.071 14.533-1.249 2.04c-.168.278.318 1.544.382 1.827.375 1.67.797 3.335 1.254 4.983a121.392 121.392 0 0 0 5.619 16.03 84.535 84.535 0 0 0 10.619 18.405c4.428 5.7 9.925 10.775 16.636 13.937a35.886 35.886 0 0 0 10.897 3.156c13.492 1.665 27.272-2.607 39.261-8.67l.382-.197.19-.099a71.987 71.987 0 0 0 3.85-2.138c35.54-21.169 10.267-78.05 10.267-78.05z"/>
            <rect width="107.583" height="6.96" x="72.516" y="97.664" fill="#00AFB8" rx="3.48" transform="rotate(-17.23 126.307 101.144)"/>
            <path fill="#4BCDD4" d="M139.752 185.87c-2.821-1.504-3.712-4.585-3.307-7.59.3-2.22 1.208-4.296 1.734-6.464.41-1.693.734-3.404 1.018-5.121.578-3.347.97-6.723 1.277-10.105.093-1 .174-2.005.22-3.011l-20.747-5.295s-1.347 19.284-.861 27.538c.486 8.255 2.26 15.14 9.365 15.914 7.104.775 9.983 2.538 9.647 5.434a5.59 5.59 0 0 0 .37 3.26 2.763 2.763 0 0 0 1.885 1.237c1.335.307 2.682.197 3.653-.878a7.203 7.203 0 0 0 1.515-3.145c0-.063.028-.133.046-.202.008-.059.022-.117.04-.174.278-1.225.382-2.497.578-3.497.492-3.012-1.312-5.173-6.433-7.902z"/>
            <path fill="#A2E5E9" d="M133 192.494c1.038.24 2.04.613 2.983 1.11a14.168 14.168 0 0 0 5.89-6.533 34.654 34.654 0 0 0-2.127-1.225 6.41 6.41 0 0 1-.578-.37c-1.63 2.393-3.902 5.324-6.168 7.018zM123.901 189.973c5.486-.526 10.862-4.595 13.296-6.682a7.417 7.417 0 0 1-.775-2.578c-4.48 3.254-11.833 5.393-14.972 6.202a9.376 9.376 0 0 0 2.451 3.058z"/>
            <path fill="#4BCDD4" d="M183.753 163.053c-3.15.532-5.74-1.364-7.248-3.988-1.122-1.943-1.671-4.14-2.579-6.174a76.326 76.326 0 0 0-2.312-4.677 136.167 136.167 0 0 0-5.162-8.775 61.012 61.012 0 0 0-1.665-2.514l-19.654 8.486s10.712 16.093 16.14 22.33c5.428 6.237 11.035 10.602 17.14 6.88 6.103-3.724 9.45-4.094 10.982-1.59a5.59 5.59 0 0 0 2.313 2.358c.74.265 1.557.201 2.248-.174 1.243-.578 2.243-1.485 2.353-2.924a7.203 7.203 0 0 0-.723-3.417l-.086-.185a1.006 1.006 0 0 1-.076-.162c-.531-1.156-1.22-2.208-1.7-3.11-1.485-2.716-4.242-3.335-9.97-2.364z"/>
            <path fill="#A2E5E9" d="M182.47 172.435a12.37 12.37 0 0 1 3.04-.942 14.168 14.168 0 0 0 .671-8.77c-.745.07-1.549.18-2.428.33a6.41 6.41 0 0 1-.705.075c.197 2.873.197 6.55-.578 9.307zM173.718 175.979c4.047-3.77 5.78-10.273 6.44-13.406a7.416 7.416 0 0 1-2.185-1.572c-1.56 5.312-6.07 11.498-8.064 14.058a9.376 9.376 0 0 0 3.81.92z"/>
            <rect width="58.419" height="28.256" x="105.144" y="114.217" fill="#A2E5E9" rx="5.601" transform="rotate(-17.23 134.354 128.345)"/>
            <path fill="#4BCDD4" d="M121.757 122.589l3.774 12.168 1.318-.41.989 3.173-1.324.405 1.017 3.277-4.647 1.446-1.018-3.278-5.514 1.711-.989-3.173.243-13.411z"/>
            <path fill="#A2E5E9" d="M120.884 136.196l-2.457-7.925.405 8.561z"/>
            <path fill="#4BCDD4" d="M138.838 124.196l1.925 6.208a15.4 15.4 0 0 1 .729 3.15 4.463 4.463 0 0 1-.394 2.1 4.307 4.307 0 0 1-1.375 1.733 7.047 7.047 0 0 1-2.174 1.075 8.914 8.914 0 0 1-2.89.475 3.977 3.977 0 0 1-2.133-.654 5.388 5.388 0 0 1-1.463-1.428 11.232 11.232 0 0 1-1.156-2.78l-2.017-6.497a13.064 13.064 0 0 1-.746-3.977 3.965 3.965 0 0 1 1.127-2.59 6.509 6.509 0 0 1 2.954-1.734 7.006 7.006 0 0 1 2.89-.312 4.78 4.78 0 0 1 2.209.745 4.515 4.515 0 0 1 1.347 1.486c.485.96.876 1.965 1.167 3z"/>
            <path fill="#A2E5E9" d="M133.71 124.075a7.284 7.284 0 0 0-.716-1.816.665.665 0 0 0-.786-.167.694.694 0 0 0-.578.607c.038.645.175 1.28.404 1.884l2.816 9.082c.16.67.417 1.312.763 1.907a.694.694 0 0 0 .774.127.688.688 0 0 0 .578-.578 6.11 6.11 0 0 0-.387-1.809l-2.867-9.237z"/>
            <path fill="#4BCDD4" d="M149.914 113.86l3.769 12.163 1.324-.41.982 3.173-1.318.41 1.012 3.278-4.642 1.44-1.017-3.278-5.52 1.71-.983-3.173.242-13.41z"/>
            <path fill="#A2E5E9" d="M149.041 127.462l-2.457-7.92.405 8.556z"/>
            <path fill="#FFC31B" d="M250.27 112.82c.579-.185 2.637 3.156 3.186 3.468.549.312 4.15-.121 4.312.393.162.515-3.208 2.312-3.52 2.931-.312.619.266 4.382-.312 4.567-.578.185-2.209-3.157-2.931-3.52-.723-.365-4.405.202-4.567-.313-.162-.514 3.272-2.44 3.52-2.93.25-.492-.236-4.411.313-4.596z"/>
        </g>
    </g>
</svg>
