<svg xmlns="http://www.w3.org/2000/svg" width="370" height="274" viewBox="0 0 370 274">
    <g fill="none" fill-rule="evenodd">
        <path d="M1 .996h368.655V274H1z"/>
        <g fill-rule="nonzero" transform="translate(44)">
            <path fill="#CCE6FA" d="M121.721 5.057h157.172V146.81H121.721z"/>
            <path fill="#AFD8EE" d="M243.014 43.874h31.876v99.993h-31.876z"/>
            <path fill="#A6CBE6" d="M246.888 50.2h4.121v6.044h-4.121zM253.557 50.2h4.121v6.044h-4.121zM260.227 50.2h4.121v6.044h-4.121zM266.891 50.2h4.121v6.044h-4.121zM246.888 59.513h4.121v6.044h-4.121zM253.557 59.513h4.121v6.044h-4.121zM260.227 59.513h4.121v6.044h-4.121zM266.891 59.513h4.121v6.044h-4.121zM246.888 68.821h4.121v6.044h-4.121zM253.557 68.821h4.121v6.044h-4.121zM260.227 68.821h4.121v6.044h-4.121zM266.891 68.821h4.121v6.044h-4.121zM246.888 78.129h4.121v6.044h-4.121zM253.557 78.129h4.121v6.044h-4.121zM260.227 78.129h4.121v6.044h-4.121zM266.891 78.129h4.121v6.044h-4.121zM246.888 87.443h4.121v6.044h-4.121zM253.557 87.443h4.121v6.044h-4.121zM260.227 87.443h4.121v6.044h-4.121zM266.891 87.443h4.121v6.044h-4.121zM246.888 96.751h4.121v6.044h-4.121zM253.557 96.751h4.121v6.044h-4.121zM260.227 96.751h4.121v6.044h-4.121zM266.891 96.751h4.121v6.044h-4.121zM246.888 106.059h4.121v6.044h-4.121zM253.557 106.059h4.121v6.044h-4.121zM260.227 106.059h4.121v6.044h-4.121zM266.891 106.059h4.121v6.044h-4.121zM246.888 115.368h4.121v6.044h-4.121zM253.557 115.368h4.121v6.044h-4.121zM260.227 115.368h4.121v6.044h-4.121zM266.891 115.368h4.121v6.044h-4.121zM246.888 124.681h4.121v6.044h-4.121zM253.557 124.681h4.121v6.044h-4.121zM260.227 124.681h4.121v6.044h-4.121zM266.891 124.681h4.121v6.044h-4.121zM246.888 133.989h4.121v6.044h-4.121zM253.557 133.989h4.121v6.044h-4.121zM260.227 133.989h4.121v6.044h-4.121zM266.891 133.989h4.121v6.044h-4.121z"/>
            <path fill="#AFD8EE" d="M172.603 51.863l-14.05 28.5v63.504h28.094V80.362zM147.622 34.701v-4.51h-8.164V17.427a.829.829 0 1 0-1.657 0V30.19h-3.468v4.51h-2.864v109.166h23.572V34.7h-7.42zM211.177 95.314h31.876v48.553h-31.876z"/>
            <path fill="#A6CBE6" d="M211.177 99.7h31.876v1.421h-31.876zM211.177 104.233h31.876v1.421h-31.876zM211.177 108.766h31.876v1.421h-31.876zM211.177 113.298h31.876v1.421h-31.876zM211.177 117.831h31.876v1.421h-31.876zM211.177 122.364h31.876v1.421h-31.876zM211.177 126.897h31.876v1.421h-31.876zM211.177 131.43h31.876v1.421h-31.876zM211.177 135.963h31.876v1.421h-31.876zM211.177 140.495h31.876v1.421h-31.876z"/>
            <path fill="#FFF" d="M127.1 74.826h146.41v4.234H127.1zM127.1 10.413h146.41v4.234H127.1zM127.1 18.47h146.41v4.234H127.1zM127.1 26.52h146.41v4.234H127.1zM127.1 34.571h146.41v4.234H127.1zM127.1 42.622h146.41v4.234H127.1zM127.1 50.673h146.41v4.234H127.1zM127.1 58.724h146.41v4.234H127.1zM127.1 66.775h146.41v4.234H127.1z"/>
            <path fill="#FFF" d="M160.307 12.24h1.438v65.478h-1.438zM238.865 12.24h1.438v65.478h-1.438z"/>
            <path fill="#EEE" d="M283.28 0v143.962h.05v7.905H117.72V0H283.28zm-8.35 7.904H125.679v136.058h149.25V7.904z"/>
            <path fill="#F9D7B7" d="M34.487 192.51a2.819 2.819 0 0 0 2.757 2.864h5.344a2.819 2.819 0 0 0 2.757-2.864v-5.767H34.487v5.767z"/>
            <path fill="#F9D7B7" d="M34.487 192.51a2.819 2.819 0 0 0 2.757 2.864h1.533a2.819 2.819 0 0 0 2.757-2.864v-5.767h-7.047v5.767z"/>
            <path fill="#9FCC65" d="M39.724 162.258h1v24.485h-1z"/>
            <path fill="#9FCC65" d="M40.17 158.289c-1.128 2.08-.406 4.668-.406 4.668s2.565-.79 3.704-2.87c1.139-2.08.406-4.668.406-4.668s-2.565.79-3.704 2.87z"/>
            <path fill="#9FCC65" d="M37.317 159.021c-2.08-1.127-4.668-.405-4.668-.405s.79 2.565 2.87 3.704c2.08 1.138 4.668.406 4.668.406s-.79-2.571-2.87-3.705zM43.344 164.174c-2.165.959-3.163 3.456-3.163 3.456s2.515.936 4.685 0c2.17-.935 3.163-3.456 3.163-3.456s-2.52-.958-4.685 0zM37.509 164.36c-1.934-1.37-4.584-.952-4.584-.952s.48 2.644 2.413 4.014c1.934 1.37 4.584.953 4.584.953s-.457-2.622-2.413-4.014zM38.958 172.214a2.221 2.221 0 0 0-1.455-.304 1.855 1.855 0 0 0 2.221 1.578c-.101-.5-.372-.95-.766-1.274zM41.517 174.063a2.819 2.819 0 0 0-1.387 1.274 2.345 2.345 0 0 0 3.282-1.127 2.819 2.819 0 0 0-1.895-.147zM38.371 176.414a2.819 2.819 0 0 0-1.883.057 2.345 2.345 0 0 0 3.203 1.28 2.819 2.819 0 0 0-1.32-1.337zM41.878 178.252a3.862 3.862 0 0 0-1.748 1.906 3.862 3.862 0 0 0 2.582 0 3.862 3.862 0 0 0 1.748-1.906 3.862 3.862 0 0 0-2.582 0zM37.616 180.513a4.55 4.55 0 0 0-3.022.389 4.55 4.55 0 0 0 2.34 1.95 4.55 4.55 0 0 0 3.022-.388 4.55 4.55 0 0 0-2.34-1.951z"/>
            <path fill="#EEE" d="M0 195.42h56.83v65.822H0z"/>
            <path fill="#FFF" d="M0 214.295h56.83v2.131H0zM0 236.271h56.83v2.131H0zM23.916 204.158h9.004v1.962h-9.004zM23.916 224.539h9.004v1.962h-9.004zM23.578 247.744h9.004v1.962h-9.004z"/>
            <path fill="#854C37" d="M107.272 57.613a2.91 2.91 0 0 0-2.876-.563c-2.215.716-3.552 4.786-4.076 12.442a4.183 4.183 0 0 1-.378 1.787 2.103 2.103 0 0 1-.563-.49c-.102-.135-2.532-3.287-3.98-5.683-1.247-2.063-1.004-5.12-.875-6.765 0-.153 0-.288.034-.418.085-1.217-.101-3.653-1.342-5.074a2.96 2.96 0 0 0-2.097-1.06c-2.452-.146-3.462 2.605-3.67 4.251a.987.987 0 0 0 0 .124s0 1.19-.22 5.024c-.09 1.652-.502 1.933-.502 1.933a.327.327 0 0 1-.158-.033.981.981 0 0 0-.18-.09s-2.255-.863-3.992-1.433c-1.59-.513-2.87-.44-3.805.22-.936.66-1.37 1.692-1.427 3.23-.112 3.265 3.09 4.207 5.638 4.962.592.175 1.128.338 1.658.519 2.464.89 5.993 4.77 6.99 6.833a28.19 28.19 0 0 0 2.369 3.383c1.482 1.849 3.32 3.89 5.671 4.566a7.583 7.583 0 0 0 6.095-.941c1.691-1.128 1.832-3.135 2.148-4.99.313-1.672.447-3.373.4-5.074a7.758 7.758 0 0 1 .045-1.516 58.43 58.43 0 0 1 .564-6.32c.671-4.364.164-7.431-1.471-8.824zM160.938 57.613a2.91 2.91 0 0 1 2.876-.563c2.215.716 3.552 4.786 4.076 12.442a4.183 4.183 0 0 0 .378 1.787c.215-.128.406-.294.563-.49.102-.135 2.532-3.287 3.98-5.683 1.247-2.063 1.004-5.12.875-6.765 0-.153 0-.288-.034-.418-.085-1.217.101-3.653 1.342-5.074a2.96 2.96 0 0 1 2.097-1.06c2.452-.146 3.461 2.605 3.67 4.251a.987.987 0 0 1 0 .124s0 1.19.22 5.024c.09 1.652.502 1.933.502 1.933a.327.327 0 0 0 .158-.033.981.981 0 0 1 .18-.09s2.255-.863 3.992-1.433c1.59-.513 2.87-.44 3.805.22.936.66 1.37 1.692 1.427 3.23.112 3.265-3.09 4.207-5.638 4.962-.592.175-1.128.338-1.658.519-2.464.89-5.993 4.77-6.99 6.833a28.19 28.19 0 0 1-2.369 3.383c-1.482 1.849-3.32 3.89-5.671 4.566a7.583 7.583 0 0 1-6.095-.941c-1.691-1.128-1.832-3.135-2.148-4.99a23.944 23.944 0 0 1-.4-5.074 7.758 7.758 0 0 0-.045-1.516 58.43 58.43 0 0 0-.564-6.32c-.671-4.364-.158-7.431 1.471-8.824z"/>
            <ellipse cx="133.848" cy="263.328" fill="#DDD" rx="53.407" ry="10.368"/>
            <path fill="#B26937" d="M134.356 238.425c-4.854.106-9.68.78-14.377 2.007-11.738 3.66-16.14 15.493-18.199 20.505-2.058 5.012-6.269 4.792-8.519 4.832-2.249.04-5.04-.04-6.579-2.92-1.539-2.882-2.678-11.034-2.678-11.034l-6.506-29.317a226.838 226.838 0 0 1-3.197-17.804c-2.587-18.876-2.819-38.242.26-57.078a122.015 122.015 0 0 1 2.976-13.615c1.5-5.272 2.82-10.583 4.398-15.843 1.85-6.258 3.67-12.662 6.066-18.729.993-2.503-.75-2.819-4.713-1.161-1.77.738-18.329 7.385-17.86 1.51.14-1.764 1.166-3.551 2.17-4.966 2.633-3.727 6.585-6.309 10.526-8.457 4.55-2.492 9.404-4.358 14.202-6.297 15.391-6.202 32.265-9.269 48.863-8.09a114.488 114.488 0 0 1 34.712 8.09c4.804 1.939 9.652 3.805 14.202 6.297 3.947 2.16 7.893 4.742 10.526 8.457 1.003 1.415 2.03 3.202 2.17 4.967.463 5.88-16.096-.773-17.86-1.511-3.947-1.652-5.706-1.342-4.714 1.161 2.402 6.067 4.218 12.477 6.067 18.73 1.556 5.254 2.898 10.57 4.397 15.842a122.015 122.015 0 0 1 2.977 13.615c3.09 18.836 2.847 38.202.26 57.078-.82 5.968-1.878 11.9-3.175 17.793l-6.506 29.317s-1.127 8.146-2.695 11.033c-1.567 2.887-4.335 2.966-6.579 2.92-2.244-.045-6.461.18-8.519-4.831-2.058-5.012-6.466-16.846-18.199-20.505a62.236 62.236 0 0 0-14.376-2.007"/>
            <path fill="#FFD6B2" d="M182.61 161.993c-.372-4.184-.795-8.4-1.313-12.612-1.325-10.876-3.242-21.751-6.349-32.136-2.39-7.983-7.442-19.253-16.005-21.898-4.945-1.527-9.833.4-12.68 4.832-1.798 2.82-2.746 6.083-3.456 9.353-1.043 4.804-1.64 11.107-7.6 11.462a6.884 6.884 0 0 1-1.015 0h-.18a6.884 6.884 0 0 1-1.015 0c-5.96-.355-6.562-6.658-7.6-11.462-.71-3.27-1.652-6.55-3.456-9.353-2.819-4.431-7.735-6.36-12.68-4.832-8.563 2.645-13.615 13.915-16.005 21.898-3.107 10.385-5.023 21.255-6.348 32.136a390.465 390.465 0 0 0-1.314 12.612c-1.455 16.406-2.17 34.39 8.987 47.634 7.047 8.372 19.698 15.059 39.425 15.126h.175c19.733-.073 32.378-6.765 39.426-15.126 11.174-13.255 10.458-31.228 9.003-47.634z"/>
            <path fill="#70422B" d="M136.323 111.821a18.041 18.041 0 0 0-3.027 0c-.95.072-1.893.22-2.819.446-1.607.389-4.206 1.325-3.53 3.518.677 2.193 1.94 3.974 4.054 4.78l.164.057a6.81 6.81 0 0 0 1.488.327c1.034.149 2.084.149 3.118 0 2.91-.36 4.443-2.255 5.39-4.606l.05-.124v-.057c1.106-2.903-2.768-4.132-4.888-4.34z"/>
            <path fill="#985C37" d="M75.271 211.087l.068-2.16c-.154-.098-.299-.21-.434-.332l.366 2.492z"/>
            <ellipse cx="187.223" cy="207" fill="#FFD6B2" rx="2.69" ry="4.46" transform="rotate(-17.526 187.223 207)"/>
            <path fill="#F4CCA9" d="M195.436 189.55c-.152 2.385-.366 5.21-.642 8.113.278-2.698.507-5.403.688-8.113h-.046z"/>
            <path fill="#FFD6B2" d="M190.48 194.585c-.997 3.338-.18 6.534 1.833 7.138a2.3 2.3 0 0 0 .299.067l-.361-10.582a9.28 9.28 0 0 0-1.77 3.377z"/>
            <path fill="#FFD6B2" d="M192.251 191.208l.344 10.577a2.864 2.864 0 0 0 1.759-.327c.152-1.263.293-2.532.423-3.795.282-2.903.49-5.728.643-8.113-1.05-.084-2.194.547-3.169 1.658z"/>
            <ellipse cx="79.991" cy="207.222" fill="#FFD6B2" rx="4.476" ry="2.701" transform="rotate(-72.46 79.99 207.222)"/>
            <path fill="#F4CCA9" d="M72.728 189.325c.153 2.385.367 5.21.643 8.113a224.753 224.753 0 0 1-.688-8.113h.045z"/>
            <path fill="#FFD6B2" d="M77.684 194.365c.998 3.338.18 6.535-1.832 7.138a2.3 2.3 0 0 1-.299.067l.344-10.576a9.28 9.28 0 0 1 1.787 3.371zM75.897 190.988l-.35 10.577a2.864 2.864 0 0 1-1.759-.327 216.775 216.775 0 0 1-.423-3.795c-.281-2.903-.49-5.728-.642-8.112 1.077-.085 2.215.546 3.174 1.657z"/>
            <path fill="#985C37" d="M142.074 84.247l-.034-.09a5.96 5.96 0 0 0-2.452-2.769 12.967 12.967 0 0 0-4.06-1.832 11.44 11.44 0 0 0-4.701 0c-.87.166-1.726.398-2.56.693a9.517 9.517 0 0 0-1.85.857 8.71 8.71 0 0 0-1.482 1.167c-1.128 1.077-1.996 2.571-1.128 4.099a2.864 2.864 0 0 0 3.733 1.128 5.373 5.373 0 0 0 2.447-3.028h.13a7.414 7.414 0 0 0 1.065 2.706 4.121 4.121 0 0 0 2.542 1.945c.404.089.819.112 1.23.068a2.52 2.52 0 0 0 2.255-3.016s1.403 1.595 3.303 1.07c.28-.107.54-.257.773-.445a2.407 2.407 0 0 0 .79-2.553z"/>
            <path fill="#854C37" d="M85.103 257.904c.332 1.703.86 3.362 1.573 4.944 1.54 2.887 4.336 2.966 6.58 2.92 2.244-.044 6.46.181 8.519-4.83.338-.83.744-1.845 1.234-2.978-7.481 2.08-15.058.632-17.906-.056zM183.123 257.898a22.478 22.478 0 0 1-1.573 4.945c-1.539 2.886-4.335 2.965-6.579 2.92-2.244-.045-6.461.18-8.519-4.832-.338-.828-.744-1.843-1.235-2.976 7.482 2.08 15.082.631 17.906-.057z"/>
            <path fill="#70422B" d="M136.724 111.821a18.041 18.041 0 0 0-3.028 0c-.95.072-1.893.22-2.819.446-1.607.389-4.206 1.325-3.529 3.518.677 2.193 1.94 3.974 4.054 4.78l.163.057a6.81 6.81 0 0 0 1.488.327c1.034.149 2.084.149 3.118 0 2.91-.36 4.443-2.255 5.39-4.606l.05-.124v-.057c1.111-2.903-2.762-4.132-4.887-4.34z"/>
            <ellipse cx="107.401" cy="123.131" fill="#DB748A" rx="3.952" ry="1.409"/>
            <ellipse cx="162.359" cy="123.131" fill="#DB748A" rx="3.952" ry="1.409"/>
            <path fill="#985C37" d="M113.422 94.541a1.488 1.488 0 0 1 .215-2.785l5.48-1.545a1.488 1.488 0 0 1 .806 2.864l-5.474 1.545c-.34.097-.705.07-1.027-.079zM156.479 94.541a1.488 1.488 0 0 0-.214-2.785l-5.48-1.55a1.495 1.495 0 1 0-.818 2.875l5.48 1.545c.343.097.71.066 1.032-.085zM177.75 106.697a17.98 17.98 0 0 0-.456-2.442c-.49-3.692-3.118-9.528-3.118-9.528l-.958 1.889.079 2.182-2.526 11.49c.518 1.691 3.382 3.383 4.893 2.379 1.68-1.128 2.318-3.828 2.086-5.97z"/>
            <path fill="#FFF" d="M176.933 105.665c-.192-2.7-2.385-9.934-2.48-10.239a.992.992 0 0 0-.807-.71h-.118a.992.992 0 0 0-.852.485c-.101.169-2.469 4.217-2.762 8.513-.152 2.255-.519 7.555 3.1 8.08a2.858 2.858 0 0 0 2.57-.925c1.169-1.275 1.445-3.53 1.349-5.204z"/>
            <path fill="#DCBCA9" d="M94.113 188.243c7.633-2.351 19.608-7.33 22.354-8.587 3.41-1.54 2.605-3.456 2.605-3.456l-3.98-.18-1.309-2.256-8.175 1.01-18.531 4.702-2.255.563a68.99 68.99 0 0 0 .986 9.99c.534-.067 1.083-.15 1.646-.247.457-.08.925-.17 1.404-.265.206-.064.418-.11.632-.136 1.494-.298 3.039-.693 4.623-1.138z"/>
            <path fill="#985C37" d="M81.518 180.896l-8.902 5.074s1.263 5.475 12.967 4.077l.225-.029c-.57-3.301-.9-6.64-.986-9.99l-3.304.868z"/>
            <path fill="#B26937" d="M112.12 176.64l-1.86-6.9h-.497v-.04c-5.305.721-12.369.88-19.32-1.427-2.256-1.003-4.026-2.418-4.973-4.386a14.185 14.185 0 0 1-.44-3.169l-2.255-44.82a184.854 184.854 0 0 1-6.664 18.255l-7.893 16.31s-4.882 9.438-4.798 18.763c-.034.857-.614 20.347 19.868 17.928a44.488 44.488 0 0 0 8.226-1.854l15.098-4.804 5.31-1.691c-.13-.181-.25-.37-.36-.564l.558-1.601z"/>
            <path fill="#854C37" d="M109.668 169.7l7.329-.897c1.725-.208.998 1.128.733 1.545l-.085.124-1.917 2.892 2.577 2.03c1.612 1.268.564 1.832-.18 2.058-2.374.513-4.759 1.014-7.099 1.64a16.976 16.976 0 0 0-1.358-9.392z"/>
            <path fill="#DCBCA9" d="M174.39 188.243c-7.633-2.351-19.608-7.33-22.354-8.587-3.41-1.54-2.605-3.456-2.605-3.456l3.98-.18 1.309-2.256 8.175.998 18.531 4.702 2.255.564a68.99 68.99 0 0 1-1.014 10.013 36.583 36.583 0 0 1-1.647-.248 54.69 54.69 0 0 1-1.403-.265 3.591 3.591 0 0 0-.632-.135 72.933 72.933 0 0 1-4.595-1.15z"/>
            <path fill="#985C37" d="M186.985 180.896l8.902 5.074s-1.262 5.475-12.967 4.077l-.225-.029c.57-3.301.9-6.64.986-9.99l3.304.868z"/>
            <path fill="#B26937" d="M156.383 176.64l1.86-6.9h.497v-.04c5.305.721 12.37.88 19.32-1.427 2.256-1.003 4.026-2.418 4.973-4.386.266-1.036.413-2.1.44-3.169l2.255-44.82a184.854 184.854 0 0 0 6.71 18.244l7.853 16.31s4.882 9.438 4.797 18.763c.034.857.615 20.347-19.867 17.928a44.488 44.488 0 0 1-8.226-1.855l-15.098-4.803-5.311-1.692c.13-.18.251-.369.36-.563l-.563-1.59z"/>
            <path fill="#854C37" d="M158.841 169.7l-7.33-.897c-1.724-.208-.997 1.128-.732 1.545l.084.124 1.917 2.892-2.576 2.03c-1.613 1.268-.564 1.832.18 2.058 2.374.513 4.759 1.014 7.098 1.64a16.976 16.976 0 0 1 1.36-9.392z"/>
            <path fill="#70422B" d="M106.437 112.802a.795.795 0 0 1-.203-1.561l.564-.153-1.426.186a.795.795 0 0 1-.3-1.556l.525-.13a.795.795 0 0 1 .203-1.42l2.013-.615-1.928.254a.795.795 0 0 1-.209-1.573l11.338-1.488a.795.795 0 0 1 .332 1.545l-2.012.614 1.928-.254a.795.795 0 0 1 .626 1.382l.693-.09a.795.795 0 0 1 .31 1.55l-12.245 3.264a.795.795 0 0 1-.209.045zM161.457 112.802a.795.795 0 0 0 .203-1.561l-.564-.153 1.427.186a.795.795 0 0 0 .298-1.556l-.524-.13a.795.795 0 0 0-.203-1.42l-2.013-.615 1.929.254a.795.795 0 0 0 .208-1.573l-11.338-1.488a.795.795 0 0 0-.332 1.545l2.012.614-1.928-.254a.795.795 0 0 0-.625 1.382l-.694-.09a.795.795 0 0 0-.31 1.55l12.24 3.264c.069.025.14.04.214.045z"/>
            <path fill="#565858" d="M149.178 164.44a1.612 1.612 0 0 0-.914-1.348l-1.37-.654a1.624 1.624 0 0 0-2.153.761l-1.263 2.633a.913.913 0 0 0-.237-.163l-3.146-1.438a.929.929 0 0 0-.767 1.691l3.146 1.438c.077.035.159.06.243.073l-2.16 4.51a.919.919 0 0 0-.287-.208l-3.14-1.472a.929.929 0 0 0-.767 1.692l3.146 1.437a.913.913 0 0 0 .31.08l-1.28 2.672a1.612 1.612 0 0 0 .761 2.148l1.37.654c.452.222.98.222 1.432 0 3.998 1.217 7.707.614 9.996-4.172 2.38-4.94.496-8.04-2.92-10.335zM126.998 165.51c-5.745.457-11.568 2.893-11.202 9.1.378 6.518 6.416 8.643 12.178 8.457l-.976-17.556z"/>
            <path fill="#7E7E7E" d="M130.167 174.12c.282 4.843-.722 8.84-2.255 8.93-1.534.09-2.977-3.76-3.259-8.603-.282-4.843.722-8.84 2.255-8.93 1.534-.09 2.977 3.76 3.259 8.603z"/>
            <ellipse cx="127.091" cy="170.975" fill="#565858" rx="1" ry="1.455" transform="rotate(-3.33 127.091 170.975)"/>
            <ellipse cx="127.466" cy="177.437" fill="#565858" rx="1" ry="1.455" transform="rotate(-3.33 127.466 177.437)"/>
            <path fill="#565858" d="M37.464 265.498a1.32 1.32 0 0 1-.096-2.638c10.148-.767 20.9-1.754 30.94-4.545 16.671-4.64 32.091-17.009 40.249-32.276 4.448-8.327 4.837-20.009 1.19-35.727-1.128-4.855-.705-8.581 1.257-11.068 2.091-2.65 5.356-3.224 7.73-3.247a1.322 1.322 0 1 1 0 2.644c-1.794 0-4.235.412-5.672 2.255-1.438 1.844-1.692 4.798-.756 8.83 2.424 10.44 4.905 25.697-1.437 37.57a69.988 69.988 0 0 1-41.873 33.58c-10.272 2.857-21.17 3.855-31.448 4.633l-.084-.01z"/>
            <path fill="#854C37" d="M111.066 179.104c2.34-.626 4.724-1.128 7.098-1.641.755-.226 1.793-.79.18-2.058l-2.576-2.03-5.114-.964c.573 2.183.712 4.456.412 6.693z"/>
            <path fill="#565858" d="M245.365 252.999c-.417-.637-4.933-6.247-34.39-6.8-17.478-.326-45.025-11.517-49.18-30.906-.8-3.744-.394-7.391.04-11.276.485-4.335.986-8.817-.338-13.497-1.647-5.812-4.793-11.552-9.342-17.066a1.323 1.323 0 0 0-2.036 1.692c4.319 5.226 7.29 10.644 8.84 16.101 1.184 4.184.733 8.215.254 12.483-.44 3.901-.89 7.932 0 12.099 2.571 11.986 12.668 19.8 20.685 24.242 9.545 5.294 21.142 8.564 31.009 8.745 14.466.27 22.46 1.781 26.622 3.005 4.572 1.341 5.638 2.638 5.671 2.655l-.04-.056.057-.04v.09a1.347 1.347 0 0 0 1.692 0 1.071 1.071 0 0 0 .456-1.471z"/>
            <path fill="#854C37" d="M157.426 179.104c-2.34-.626-4.725-1.128-7.098-1.641-.756-.226-1.793-.79-.18-2.058l2.576-2.03 5.136-.97a17.297 17.297 0 0 0-.434 6.699zM139.768 127.562c-1.49.547-3.047.892-4.628 1.026-1.532.12-3.072.103-4.601-.05-.823-.074-3.636-.632-3.281.986.066.303.168.596.304.874v.04c.19.361.449.683.761.947a8.457 8.457 0 0 0 7.042 2.683c3.236-.27 9.257-2.914 9.02-6.906-.056-1.911-3.816.101-4.617.4z"/>
        </g>
    </g>
</svg>
