<svg xmlns="http://www.w3.org/2000/svg" xmlns:xlink="http://www.w3.org/1999/xlink" width="370" height="274" viewBox="0 0 370 274">
    <defs>
        <radialGradient id="prefix__c" cx="52.772%" cy="32.169%" r="61.542%" fx="52.772%" fy="32.169%" gradientTransform="matrix(1 0 0 .7014 0 .096)">
            <stop offset="8.375%" stop-color="#C48B65"/>
            <stop offset="61.32%" stop-color="#B26937"/>
        </radialGradient>
        <radialGradient id="prefix__e" cx="50.057%" cy="49.99%" r="58.709%" fx="50.057%" fy="49.99%" gradientTransform="matrix(1 0 0 .75366 0 .123)">
            <stop offset="0%" stop-color="#FFE4CB"/>
            <stop offset="100%" stop-color="#FFD6B2"/>
        </radialGradient>
        <radialGradient id="prefix__f" cx="42.745%" cy="47.337%" r="33.946%" fx="42.745%" fy="47.337%">
            <stop offset="8.375%" stop-color="#C1875F"/>
            <stop offset="61.32%" stop-color="#B26937"/>
        </radialGradient>
        <linearGradient id="prefix__d" x1="49.979%" x2="49.979%" y1="93.342%" y2="-6.639%">
            <stop offset="0%" stop-color="#985C37"/>
            <stop offset="3.187%" stop-color="#9B5E37"/>
            <stop offset="21.27%" stop-color="#A86437"/>
            <stop offset="44.71%" stop-color="#B06837"/>
            <stop offset="92.69%" stop-color="#B26937"/>
        </linearGradient>
        <filter id="prefix__a" width="102.1%" height="105.6%" x="-1%" y="-2.3%" filterUnits="objectBoundingBox">
            <feOffset dy="2" in="SourceAlpha" result="shadowOffsetOuter1"/>
            <feGaussianBlur in="shadowOffsetOuter1" result="shadowBlurOuter1" stdDeviation="3"/>
            <feColorMatrix in="shadowBlurOuter1" values="0 0 0 0 0 0 0 0 0 0 0 0 0 0 0 0 0 0 0.1 0"/>
        </filter>
        <path id="prefix__b" d="M240 263H1200V617H240z"/>
    </defs>
    <g fill="none" fill-rule="evenodd" transform="translate(-385 -303)">
        <path fill="#F3F3F3" d="M0 0H1440V1120H0z"/>
        <use fill="#000" filter="url(#prefix__a)" xlink:href="#prefix__b"/>
        <use fill="#FFF" xlink:href="#prefix__b"/>
        <g fill-rule="nonzero">
            <g>
                <g>
                    <g>
                        <path fill="#000" d="M94.011 67.95L62.928 52.856 0.273 26.895 92.538 1.043 187.421 36.61 166.427 42.647 117.786 60.431z" opacity=".17" transform="translate(385 303) translate(18) translate(.155 201) translate(56.712 4.94)"/>
                        <path fill="#E2ECF2" d="M95.646 66.468L63.91 52.527 3.381 25.797 94.719 0 187.803 36.28 126.62 57.357z" transform="translate(385 303) translate(18) translate(.155 201) translate(56.712 4.94)"/>
                    </g>
                    <g>
                        <path fill="#000" d="M94.065 68.335L62.928 53.241 0.273 27.279 92.538 1.427 180.441 30.902 174.661 38.97 117.786 60.815z" opacity=".17" transform="translate(385 303) translate(18) translate(.155 201) translate(149.414)"/>
                        <path fill="#E8EBED" d="M95.646 66.853L63.91 52.911 3.381 26.181 94.883 0.274 181.259 28.871 176.461 33.975 171.607 39.025 126.62 57.741z" transform="translate(385 303) translate(18) translate(.155 201) translate(149.414)"/>
                    </g>
                    <g>
                        <path fill="#000" d="M80.16 69.707L47.987 52.472 0.327 25.303 116.095 1.427 201.817 34.634 180.823 40.726 102.844 60.047z" opacity=".17" transform="translate(385 303) translate(18) translate(.155 201) translate(0 1.098)"/>
                        <path fill="#F2F5F7" d="M77.87 64.438L48.968 52.088 3.163 23.986 118.44 0.274 202.199 34.305 111.678 56.973z" transform="translate(385 303) translate(18) translate(.155 201) translate(0 1.098)"/>
                    </g>
                    <path fill="#F2F5F7" d="M320.966 38.476s.764-4.171-.763-7.3c-1.527-3.129-2.345-3.623-2.345-3.623l12.542 1.043-9.434 10.429v-.55z" transform="translate(385 303) translate(18) translate(.155 201)"/>
                </g>
                <g>
                    <g transform="translate(385 303) translate(18) translate(72.155) translate(13.636)">
                        <path fill="#854C37" d="M46.855 6.71c-.873-.71-1.91-.928-3.055-.6-2.345.763-3.764 5.072-4.31 13.2-.108 1.254-.272 1.745-.38 1.908-.165-.054-.437-.273-.6-.545-.11-.164-2.674-3.491-4.2-6.055-1.31-2.182-1.037-5.454-.928-7.2 0-.163 0-.327.054-.436.11-1.31-.109-3.873-1.418-5.4-.6-.71-1.363-1.091-2.236-1.146-2.564-.163-3.655 2.782-3.873 4.528v.109s0 1.254-.218 5.345c-.11 1.746-.546 2.073-.546 2.073-.054 0-.109 0-.163-.055-.055-.054-.11-.054-.164-.109 0 0-2.345-.927-4.2-1.527-1.69-.545-3-.49-4.036.218-.927.655-1.418 1.8-1.527 3.437-.11 3.49 3.272 4.472 5.945 5.29.6.164 1.2.382 1.745.546 2.619.927 6.328 5.073 7.364 7.254.71 1.255 1.582 2.455 2.51 3.6 1.581 1.964 3.49 4.146 6 4.855 2.072.6 4.636.218 6.436-.982 1.8-1.2 1.909-3.327 2.29-5.29.328-1.746.491-3.6.437-5.346-.055-.71 0-1.255.054-1.637.11-2.236.273-4.581.6-6.709.655-4.581.11-7.854-1.581-9.327zM103.418 6.71c.873-.71 1.91-.928 3.055-.6 2.345.763 3.763 5.072 4.309 13.2.109 1.254.273 1.745.382 1.908.163-.054.436-.273.6-.545.109-.164 2.672-3.491 4.2-6.055 1.309-2.182 1.036-5.454.927-7.2 0-.163 0-.327-.055-.436-.109-1.31.11-3.873 1.419-5.4.6-.71 1.363-1.091 2.236-1.146 2.564-.163 3.654 2.782 3.873 4.528v.109s0 1.254.218 5.345c.109 1.746.545 2.073.545 2.073.055 0 .11 0 .164-.055.054-.054.109-.054.164-.109 0 0 2.345-.927 4.2-1.527 1.69-.545 3-.49 4.036.218.927.655 1.418 1.8 1.527 3.437.11 3.49-3.273 4.472-5.945 5.29-.6.164-1.2.382-1.746.546-2.618.927-6.327 5.073-7.363 7.254-.71 1.255-1.582 2.455-2.51 3.6-1.581 1.964-3.49 4.146-6 4.855-2.072.6-4.636.218-6.436-.982-1.8-1.2-1.909-3.327-2.29-5.29-.328-1.746-.492-3.6-.437-5.346.054-.71 0-1.255-.055-1.637-.109-2.236-.272-4.581-.6-6.709-.709-4.581-.163-7.854 1.582-9.327z"/>
                        <path fill="url(#prefix__c)" d="M75.382 198.818c-8.127.11-15.164 2.127-15.164 2.127-12.382 3.873-17.018 16.473-19.2 21.764-2.182 5.346-6.6 5.073-9 5.127-2.345.055-5.29-.054-6.927-3.109C23.455 221.673 22.255 213 22.255 213l-6.873-31.145c-1.364-6.273-2.455-12.546-3.327-18.928-2.728-20.072-3-40.636.272-60.654.818-4.855 1.8-9.71 3.164-14.455 1.582-5.618 3-11.236 4.636-16.854C22.091 64.309 24 57.49 26.51 51.054c1.036-2.672-.764-3-4.964-1.254-1.854.764-19.309 7.855-18.818 1.582.164-1.855 1.255-3.764 2.291-5.291 2.782-3.982 6.927-6.71 11.073-9 4.8-2.673 9.927-4.636 14.945-6.71 16.2-6.6 33.982-9.872 51.491-8.617 12.546.872 24.928 3.872 36.6 8.618 5.073 2.073 10.2 4.036 14.946 6.709 4.145 2.29 8.345 5.018 11.072 9 1.037 1.527 2.128 3.382 2.291 5.29.491 6.274-16.963-.817-18.818-1.581-4.2-1.745-6-1.418-4.963 1.255 2.509 6.436 4.472 13.254 6.381 19.909 1.637 5.563 3.055 11.236 4.637 16.854 1.363 4.746 2.345 9.6 3.163 14.455 3.273 20.018 3 40.582.273 60.654-.873 6.328-1.964 12.655-3.327 18.928L127.909 213s-1.2 8.673-2.836 11.727c-1.637 3.055-4.582 3.164-6.928 3.11-2.345-.055-6.818.218-9-5.128-2.181-5.345-6.818-17.89-19.2-21.764 0 0-7.036-2.018-15.163-2.127"/>
                        <path fill="url(#prefix__d)" d="M12.11 162.982c.872 6.327 1.963 12.654 3.326 18.927l6.873 31.146s1.2 8.672 2.836 11.727c1.637 3.054 4.582 3.163 6.928 3.109 2.345-.055 6.818.218 9-5.127 2.182-5.346 6.818-17.891 19.2-21.764 0 0 6.872-1.964 14.89-2.127h-.272.545-.272c8.018.163 14.89 2.127 14.89 2.127 12.382 3.873 17.019 16.473 19.2 21.764 2.182 5.29 6.6 5.072 9 5.127 2.346.054 5.291-.055 6.928-3.11 1.636-3.054 2.836-11.726 2.836-11.726l6.873-31.146c1.364-6.273 2.454-12.545 3.327-18.927 1.637-11.891 2.346-23.946 2.018-35.946H10.091c-.382 12 .382 24.055 2.018 35.946z"/>
                        <path fill="url(#prefix__e)" d="M126.218 117.6c-.382-4.473-.818-8.945-1.363-13.418-1.419-11.564-3.437-23.127-6.71-34.146-2.509-8.509-7.854-20.454-16.854-23.236-5.182-1.636-10.364.436-13.364 5.127-1.909 3-2.89 6.437-3.654 9.928-1.091 5.127-1.746 11.781-8.018 12.163h-1.31c-.327.055-.709.055-1.09 0-6.273-.382-6.928-7.09-8.019-12.163-.763-3.491-1.745-6.982-3.654-9.928-3-4.69-8.127-6.763-13.364-5.127-9 2.836-14.345 14.782-16.854 23.236-3.273 11.019-5.291 22.582-6.71 34.146-.545 4.473-.981 8.945-1.363 13.418-1.527 17.455-2.291 36.545 9.49 50.618C40.8 177.11 54.165 184.2 74.946 184.31h.219c20.781-.054 34.145-7.2 41.563-16.09C128.51 154.144 127.8 135 126.218 117.6z"/>
                        <path fill="#70422B" d="M77.455 64.31c-1.037-.11-2.128-.055-3.219 0-.981.054-2.018.217-3 .49-1.69.436-4.418 1.418-3.709 3.764.818 2.29 2.018 4.2 4.255 5.072 0 0 .054 0 .163.055.491.164.982.273 1.582.327.873.11 2.018.164 3.273 0 3.055-.382 4.69-2.345 5.673-4.909 0-.054.054-.109.054-.109v-.055c1.255-3.109-2.836-4.418-5.072-4.636z"/>
                        <path fill="#B26937" d="M74.89 198.818h.546-.545z"/>
                        <path fill="url(#prefix__f)" d="M74.89 198.818h.546-.545zM74.89 198.818h.546-.545zM74.89 198.818h.546-.545z"/>
                        <path fill="#985C37" d="M13.145 169.745l.055-2.29c-.164-.11-.327-.219-.436-.328l.381 2.618z"/>
                        <path fill="url(#prefix__f)" d="M74.89 198.818h.546-.545z"/>
                        <g transform="translate(127.636 146.727)">
                            <ellipse cx="4.454" cy="19.142" fill="#FFD6B2" rx="2.836" ry="4.745" transform="rotate(-17.266 4.454 19.142)"/>
                            <g>
                                <path fill="#F4CCA9" d="M6.11.164c-.165 2.509-.383 5.509-.655 8.618C5.727 5.89 6 3 6.109.164c.055 0 .055 0 0 0z" transform="translate(6)"/>
                                <path fill="#FFD6B2" d="M.927 5.51c-1.036 3.545-.163 6.926 1.91 7.58.108.055.218.055.327.055L2.782 1.91c-.764.927-1.473 2.182-1.855 3.6zM2.782 1.91l.382 11.235c.6.11 1.254-.054 1.854-.327.164-1.363.327-2.673.437-4.036.272-3.11.49-6.11.654-8.618-1.09-.11-2.29.545-3.327 1.745z" transform="translate(6)"/>
                            </g>
                        </g>
                        <g transform="translate(10.364 146.182)">
                            <ellipse cx="7.72" cy="19.472" fill="#FFD6B2" rx="4.745" ry="2.836" transform="rotate(-72.734 7.72 19.472)"/>
                            <path fill="#F4CCA9" d="M.055.436c.163 2.51.381 5.51.654 8.619C.491 6.218.22 3.327.055.436z"/>
                            <path fill="#FFD6B2" d="M5.29 5.782c1.037 3.545.165 6.927-1.908 7.582-.11.054-.218.054-.327.054l.381-11.236c.764.982 1.419 2.182 1.855 3.6z"/>
                            <path fill="#FFD6B2" d="M3.436 2.236l-.381 11.237c-.6.109-1.255-.055-1.855-.328-.164-1.363-.327-2.672-.436-4.036C.49 6 .273 3 .109.491 1.2.38 2.4 1.036 3.436 2.236z"/>
                        </g>
                        <path fill="#985C37" d="M83.51 35.018c0-.054 0-.054-.055-.109-.491-1.254-1.473-2.236-2.564-2.945-1.31-.873-2.727-1.582-4.255-1.964-1.636-.382-3.327-.327-4.963-.055-.928.164-1.8.437-2.673.71-.655.218-1.31.545-1.964.927-.545.327-1.09.763-1.581 1.254-1.2 1.146-2.128 2.728-1.2 4.364.763 1.364 2.563 1.91 3.927 1.2 1.09-.6 2.236-1.91 2.563-3.218h.11c.109.982.654 2.127 1.145 2.89.6.983 1.527 1.8 2.673 2.073.436.11.872.11 1.309.055 2.89-.436 2.345-3.218 2.345-3.218s1.473 1.69 3.491 1.145c.327-.109.6-.272.818-.49.819-.546 1.2-1.637.873-2.619z"/>
                        <path fill="url(#prefix__f)" d="M74.89 198.818h.546-.545z"/>
                        <path fill="#854C37" d="M23.455 219.49c.436 2.02 1.036 4.037 1.636 5.237 1.636 3.055 4.582 3.164 6.927 3.11 2.346-.055 6.818.218 9-5.128.382-.873.764-1.964 1.31-3.164-7.855 2.237-15.873.655-18.873-.054zM126.764 219.49c-.437 2.02-1.037 4.037-1.637 5.237-1.636 3.055-4.582 3.164-6.927 3.11-2.345-.055-6.818.218-9-5.128-.382-.873-.764-1.964-1.31-3.164 7.91 2.182 15.928.655 18.874-.054z"/>
                        <path fill="url(#prefix__f)" d="M74.89 198.818h.546-.545z"/>
                        <path fill="#70422B" d="M77.89 64.31c-1.035-.11-2.126-.055-3.217 0-.982.054-2.018.217-3 .49-1.691.436-4.418 1.418-3.71 3.764.819 2.29 2.019 4.2 4.255 5.072 0 0 .055 0 .164.055.49.164.982.273 1.582.327.872.11 2.018.164 3.272 0 3.055-.382 4.691-2.345 5.673-4.909 0-.054.055-.109.055-.109v-.055c1.254-3.109-2.837-4.418-5.073-4.636z"/>
                        <ellipse cx="46.964" cy="76.309" fill="#DB748A" rx="4.145" ry="1.473"/>
                        <ellipse cx="104.891" cy="76.309" fill="#DB748A" rx="4.145" ry="1.473"/>
                        <path fill="#985C37" d="M48.436 44.836c-.381-.163-.709-.545-.872-.981-.219-.819.272-1.691 1.09-1.964l5.782-1.636c.819-.219 1.691.272 1.91 1.09.218.819-.273 1.691-1.091 1.964l-5.782 1.636c-.328.11-.71.055-1.037-.109zM98.727 45.927c.382-.163.71-.545.873-.982.218-.818-.273-1.69-1.09-1.963l-5.783-1.637c-.818-.218-1.69.273-1.909 1.091-.218.819.273 1.691 1.091 1.964l5.782 1.636c.327.11.709.055 1.036-.109z"/>
                        <g>
                            <path fill="#DCBCA9" d="M33 77.29c8.018-2.508 20.673-7.8 23.564-9.108 3.6-1.637 2.727-3.655 2.727-3.655l-4.2-.163-1.364-2.4L45.11 63l-19.527 5.018-2.346.6c.11 3.6.437 7.146 1.037 10.637.545-.055 1.145-.164 1.745-.273.491-.11.982-.164 1.473-.273.109-.054.327-.109.654-.164 1.528-.327 3.164-.763 4.855-1.254z" transform="translate(0 68.182)"/>
                            <path fill="#985C37" d="M19.69 69.49l-9.38 5.4S11.617 80.728 24 79.2c.055 0 .164 0 .218-.055-.6-3.49-.927-7.036-1.036-10.636l-3.491.982z" transform="translate(0 68.182)"/>
                            <path fill="#B26937" d="M51.927 64.964l-1.963-7.31h-.546V57.6c-5.618.764-13.036.927-20.345-1.527-2.4-1.091-4.255-2.564-5.237-4.637-.272-1.09-.436-2.181-.49-3.381L21 .436C18.382 9.491 13.91 19.8 13.91 19.8L5.617 37.145S.491 47.182.545 57.055c-.054.927-.654 21.6 20.946 19.036 2.564-.327 5.454-.927 8.673-1.964C36.764 72 42 70.364 46.09 69c2.182-.71 4.036-1.31 5.618-1.8-.109-.164-.273-.382-.382-.6l.6-1.636z" transform="translate(0 68.182)"/>
                            <path fill="#854C37" d="M49.364 57.6l7.745-.927c1.8-.218 1.036 1.2.764 1.636l-.11.11-2.018 3.054 2.728 2.182c1.69 1.363.6 1.963-.164 2.181-2.509.546-5.018 1.091-7.473 1.746.6-4.473-.545-8.018-1.472-9.982z" transform="translate(0 68.182)"/>
                        </g>
                        <g>
                            <path fill="#DCBCA9" d="M26.51 77.29c-8.02-2.508-20.674-7.8-23.565-9.108-3.6-1.637-2.727-3.655-2.727-3.655l4.2-.163 1.364-2.4L14.4 63l19.527 5.018 2.346.6c-.11 3.6-.437 7.146-1.037 10.637-.545-.055-1.145-.164-1.745-.273-.491-.11-.982-.164-1.473-.273-.109-.054-.327-.109-.654-.164-1.582-.327-3.219-.763-4.855-1.254z" transform="translate(91.09 68.182)"/>
                            <path fill="#985C37" d="M39.764 69.49l9.381 5.4s-1.309 5.837-13.69 4.31c-.055 0-.164 0-.219-.055.6-3.49.928-7.036 1.037-10.636l3.49.982z" transform="translate(91.09 68.182)"/>
                            <path fill="#B26937" d="M7.527 64.964l1.964-7.31h.545V57.6c5.619.764 13.037.927 20.346-1.527 2.4-1.091 4.254-2.564 5.236-4.637.273-1.09.437-2.181.491-3.381L38.455.436c2.618 9.055 7.09 19.364 7.09 19.364l8.291 17.345s5.128 10.037 5.073 19.91c.055.927.655 21.6-20.945 19.036-2.564-.327-5.455-.927-8.673-1.964C22.69 72 17.455 70.364 13.364 69c-2.182-.71-4.037-1.31-5.619-1.8.11-.164.273-.382.382-.6l-.6-1.636z" transform="translate(91.09 68.182)"/>
                            <path fill="#854C37" d="M10.09 57.6l-7.745-.927c-1.8-.218-1.036 1.2-.763 1.636l.109.11 2.018 3.054-2.727 2.182c-1.691 1.363-.6 1.963.163 2.181 2.51.546 5.019 1.091 7.473 1.746-.545-4.473.546-8.018 1.473-9.982z" transform="translate(91.09 68.182)"/>
                        </g>
                        <path fill="#70422B" d="M45.982 65.345c-.382 0-.71-.272-.818-.6-.11-.436.163-.927.6-1.036l.6-.164-1.528.219c-.436.054-.872-.219-.927-.655-.109-.436.164-.873.6-.982l.546-.163c-.164-.11-.328-.328-.382-.546-.11-.436.163-.873.545-.982l2.127-.654-2.018.273c-.436.054-.872-.273-.927-.71-.055-.436.273-.872.71-.927l11.945-1.582c.436-.054.818.219.927.655.109.436-.164.873-.546.982l-2.127.654 2.018-.272c.437-.055.873.218.928.654.054.327-.055.6-.273.818l.709-.109c.436-.054.818.218.927.655.11.436-.163.872-.6.982l-12.927 3.49h-.11zM103.964 65.345c.381 0 .709-.272.818-.6.109-.436-.164-.927-.6-1.036l-.6-.164 1.527.219c.436.054.873-.219.927-.655.11-.436-.163-.873-.6-.982l-.545-.163c.164-.11.327-.328.382-.546.109-.436-.164-.873-.546-.982l-2.127-.654 2.018.273c.437.054.873-.273.927-.71.055-.436-.272-.872-.709-.927l-11.945-1.582c-.436-.054-.818.219-.927.655-.11.436.163.873.545.982l2.127.654-2.018-.272c-.436-.055-.873.218-.927.654-.055.327.054.6.273.818l-.71-.109c-.436-.054-.818.218-.927.655-.109.436.164.872.6.982l12.928 3.49h.109z"/>
                        <path fill="#854C37" d="M50.836 135.764c2.455-.655 4.964-1.2 7.473-1.746.818-.218 1.91-.818.164-2.182l-2.728-2.181-5.4-1.037c.546 1.964.873 4.364.491 7.146zM99.71 135.764c-2.455-.655-4.965-1.2-7.474-1.746-.818-.218-1.909-.818-.163-2.182l2.727-2.181 5.4-1.037c-.545 1.964-.873 4.364-.49 7.146z"/>
                        <path fill="#70422B" d="M81.164 88.31c.927-.874 1.527-1.91 1.527-3.055 0-2.782-3.327-5.073-7.418-5.073s-7.418 2.29-7.418 5.073c0 .927.327 1.745.981 2.509 1.964-1.091 6.71-3.055 12.328.545z"/>
                        <path fill="#DB748A" d="M75.055 88.364c2.4 0 4.745 1.145 6.109-.055-5.619-3.6-10.364-1.636-12.328-.6 1.31 1.582 4.037.655 6.219.655z"/>
                    </g>
                    <g>
                        <g>
                            <path fill="#292929" d="M2.182 43.8l34.473-5.29-.982-2.946-10.637-23.455-2.454-5.127-1.691-3.655c-.11-.382-.273-.709-.491-.982C18.982.655 14.345-.109 9.873.545c-5.291.764-8.618 3.273-8.455 5.673L2.182 43.8z" transform="translate(385 303) translate(18) translate(72.155) translate(53.455 112.91) translate(33.273)"/>
                            <g transform="translate(385 303) translate(18) translate(72.155) translate(53.455 112.91) translate(33.273) translate(0 23.455)">
                                <ellipse cx="19.921" cy="18.549" fill="#B0D1D7" stroke="#7E7E7E" stroke-width="2" rx="16.746" ry="14.673" transform="rotate(-14.052 19.92 18.55)"/>
                                <path fill="#FFF" fill-opacity=".6" d="M25.418 29.4c-.49 0-1.69-.49-1.363-1.145.109-.164.272-.328.49-.382 3.273-1.691 3.819-2.237 5.619-5.782.381-.764.545-1.746 1.472-1.91.71-.108 1.037.437 1.091 1.092.164 2.509-1.745 5.563-3.818 6.927-.982.655-2.018 1.2-3.273 1.2h-.218z"/>
                            </g>
                        </g>
                        <path fill="#292929" d="M2.727 37.636l33.546 7.746v-4.91l1.036-22.69.11-5.673.108-4.036c.11-.382.055-.71 0-1.091-.545-2.127-3.6-5.073-8.018-6-7.09-1.527-11.073.109-12 2.29L2.727 37.637z" transform="translate(385 303) translate(18) translate(72.155) translate(53.455 112.91)"/>
                        <g transform="translate(385 303) translate(18) translate(72.155) translate(53.455 112.91) translate(0 24.545)">
                            <ellipse cx="19.381" cy="17.735" fill="#B0D1D7" stroke="#7E7E7E" stroke-width="2" rx="14.618" ry="16.745" transform="rotate(-78.556 19.381 17.735)"/>
                            <path fill="#FFF" fill-opacity=".6" d="M25.69 28.036c-.49-.054-1.745-.545-1.417-1.2.109-.163.272-.272.49-.381 2.455-1.31 5.292-2.291 5.073-5.455-.054-.71-.054-1.582.873-1.636.71-.055 1.364.6 1.527 1.2.764 2.563-.927 5.181-3 6.436-.981.6-2.072 1.09-3.327 1.036h-.218z"/>
                        </g>
                    </g>
                    <path fill="#B26937" d="M112.255 133.145l1.963-7.309h.546v-.054c5.618.763 13.036.927 20.345-1.527 2.4-1.091 4.255-2.564 5.236-4.637.273-1.09.437-2.182.491-3.382l2.346-47.618c2.618 9.055 7.09 19.364 7.09 19.364l8.292 17.345s5.127 10.037 5.072 19.91c.055.927.655 21.6-20.945 19.036-2.564-.328-5.455-.928-8.673-1.964-6.6-2.127-11.836-3.764-15.927-5.127-2.182-.71-4.036-1.31-5.618-1.8.109-.164.272-.382.382-.6l-.6-1.637z" transform="translate(385 303) translate(18) translate(72.155)"/>
                    <path fill="#854C37" d="M114.818 125.782l-7.745-.927c-1.8-.219-1.037 1.2-.764 1.636l.11.109 2.017 3.055-2.727 2.181c-1.69 1.364-.6 1.964.164 2.182 2.509.546 5.018 1.091 7.472 1.746-.545-4.473.546-8.019 1.473-9.982z" transform="translate(385 303) translate(18) translate(72.155)"/>
                    <path fill="#B26937" d="M65.564 133.145l-1.964-7.309h-.545v-.054c-5.619.763-13.037.927-20.346-1.527-2.4-1.091-4.254-2.564-5.236-4.637-.273-1.09-.437-2.182-.491-3.382l-2.346-47.618c-2.618 9.055-7.09 19.364-7.09 19.364l-8.291 17.345s-5.128 10.037-5.073 19.91c-.055.927-.655 21.6 20.945 19.036 2.564-.328 5.455-.928 8.673-1.964 6.6-2.127 11.836-3.764 15.927-5.127 2.182-.71 4.037-1.31 5.618-1.8-.109-.164-.272-.382-.381-.6l.6-1.637z" transform="translate(385 303) translate(18) translate(72.155)"/>
                    <path fill="#854C37" d="M63 125.782l7.745-.927c1.8-.219 1.037 1.2.764 1.636l-.109.109-2.018 3.055 2.727 2.181c1.691 1.364.6 1.964-.164 2.182-2.509.546-5.018 1.091-7.472 1.746.6-4.473-.546-8.019-1.473-9.982z" transform="translate(385 303) translate(18) translate(72.155)"/>
                    <path fill="#B0D1D7" d="M15.164 69.982c-.11.273-4.582-.491-4.91-.546-2.454-.436-5.4-1.909-7.636-.545C-.709 70.855-.6 75.49 5.182 76.2c4.09.49 9.054-2.89 9.982-6.218zM168.11 62.127c.108-.272 3.545.71 3.817.818 1.855.546 4.037 1.964 5.946 1.037 2.89-1.418.654-4.364-1.855-5.237-3.054-1.145-6.709.6-7.909 3.382zM166.745 54.6c-.109-.382 4.528-2.127 4.855-2.236 2.51-.928 6.055-1.091 7.473-3.764 2.018-3.873-2.891-7.145-6.437-6.055-4.254 1.31-6.872 8.019-5.89 12.055zM11.236 64.145c0-.218-3.327-.927-3.545-.981-1.8-.382-4.255-.11-5.51-1.691-1.8-2.291-.49-5.618 3.764-4.528 2.946.819 5.51 4.528 5.291 7.2z" transform="translate(385 303) translate(18) translate(72.155)"/>
                </g>
                <g>
                    <path fill="#000" d="M29.608 21.615L19.973 16.885 0.487 8.745 29.175 0.66 58.621 11.77 52.126 13.695 37.024 19.25z" opacity=".17" transform="translate(385 303) translate(18) translate(251.155 236)"/>
                    <path fill="#F4F0CE" d="M30.15 21.12L20.298 16.775 1.461 8.415 29.825 0.33 58.729 11.66 39.73 18.26z" transform="translate(385 303) translate(18) translate(251.155 236)"/>
                </g>
                <g>
                    <path fill="#000" d="M27.916 20.946L18.701 15.4 0.054 5.708 29.325 0.431 57.729 13.946 51.062 15.238 35.505 19.277z" opacity=".17" transform="translate(385 303) translate(18) translate(83.155 239)"/>
                    <path fill="#F4F0CE" d="M28.458 20.515L19.026 15.346 1.03 5.492 30.03 0.162 57.837 13.892 38.323 18.577z" transform="translate(385 303) translate(18) translate(83.155 239)"/>
                </g>
                <g>
                    <path fill="#000" d="M27.916 21.89L18.701 16.28 0.054 6.38 29.325 0.99 57.729 14.795 51.062 16.115 35.505 20.24z" opacity=".17" transform="translate(385 303) translate(18) translate(54.155 235)"/>
                    <path fill="#F4E4C3" d="M28.458 20.955L19.026 15.675 1.03 5.61 30.03 0.165 57.837 14.19 38.323 18.975z" transform="translate(385 303) translate(18) translate(54.155 235)"/>
                </g>
            </g>
        </g>
    </g>
</svg>
