<svg xmlns="http://www.w3.org/2000/svg" width="370" height="274" viewBox="0 0 370 274">
    <defs>
        <radialGradient id="a" cx="51.792%" cy="31.144%" r="57.984%" fx="51.792%" fy="31.144%" gradientTransform="matrix(1 0 0 .76943 0 .072)">
            <stop offset="8%" stop-color="#C48B65"/>
            <stop offset="61%" stop-color="#B26937"/>
        </radialGradient>
        <radialGradient id="b" cx="51.53%" cy="50.019%" r="62.476%" fx="51.53%" fy="50.019%" gradientTransform="matrix(1 0 0 .6966 0 .152)">
            <stop offset="0%" stop-color="#FFE4CB"/>
            <stop offset="100%" stop-color="#FFD6B2"/>
        </radialGradient>
    </defs>
    <g fill="none" fill-rule="evenodd">
        <path d="M1 .996h368.655V274H1z"/>
        <g transform="translate(57)">
            <path fill="#EEE" fill-rule="nonzero" d="M253.574 246.05c2.161-1.411.217-2.962-1.173-3.778l-33.702-12.915L83.712 213.24 34.855 228.8s91.67 40.415 108.473 44.696c13.474 3.435 79.29-17.292 104.766-25.622.225-.096.458-.172.695-.227l4.785-1.597z"/>
            <path fill="#F9D7B7" d="M35.142 141.454l93.131-5.832v13.272z"/>
            <path fill="#F9D7B7" fill-opacity=".6" d="M221.404 141.454l-93.131-5.832v13.272z"/>
            <path fill="#854C37" fill-rule="nonzero" d="M114.06 9.6a3.158 3.158 0 0 0-2.983-1.078c-2.518.383-4.629 4.503-6.517 12.592a4.533 4.533 0 0 1-.71 1.844 2.277 2.277 0 0 1-.545-.625c-.085-.16-2.14-3.954-3.274-6.774-.977-2.428-.186-5.657.237-7.39l.106-.437c.302-1.285.504-3.924-.56-5.667a3.208 3.208 0 0 0-2.06-1.51c-2.598-.58-4.155 2.185-4.663 3.913a1.073 1.073 0 0 0-.03.13s-.212 1.27-1.104 5.34c-.382 1.747-.87 1.984-.87 1.984a.358.358 0 0 1-.162-.065 1.063 1.063 0 0 0-.176-.126s-2.242-1.31-4.03-2.221c-1.597-.796-2.992-.947-4.115-.398-1.123.549-1.763 1.596-2.085 3.208-.69 3.476 2.579 5.037 5.203 6.291.604.287 1.173.56 1.682.846 2.478 1.38 5.586 6.145 6.296 8.528.776 2.589 3.642 10.693 3.763 11.035a1.073 1.073 0 0 0 2.014 0l9.349-1.858a1.073 1.073 0 0 0 1.868-.534c.056-.338.126-.861.217-1.546.448-3.3 1.38-10.17 3.163-15.71 1.501-4.634 1.491-8.004-.015-9.772zM202.48 32.06c.207-1.632-.12-2.877-.966-3.703-.847-.826-2.247-1.168-4.03-.896-1.98.302-4.498.83-4.533.836-.066.014-.13.034-.191.06a.383.383 0 0 1-.192 0s-.393-.377-.206-2.16c.438-4.14.634-5.405.64-5.415a1.063 1.063 0 0 0 0-.131c.07-1.803-.504-4.921-3.194-5.188a3.208 3.208 0 0 0-2.438.796c-1.576 1.31-2.201 3.883-2.317 5.198 0 .136 0 .287-.04.448-.146 1.778-.418 5.092-2.11 7.087-1.915 2.262-4.896 5.072-5.224 5.38-.214.189-.462.337-.73.438a4.533 4.533 0 0 1-.09-1.975c.765-8.285.045-12.869-2.207-14.017a3.158 3.158 0 0 0-3.168.08c-1.99 1.204-3.067 4.397-3.113 9.243-.055 5.822-1.34 12.632-1.954 15.911-.126.675-.227 1.199-.282 1.511a1.073 1.073 0 0 0 1.591 1.118l8.306 4.695a1.073 1.073 0 0 0 1.92.65c.22-.288 5.494-7.052 7.05-9.288 1.426-2.015 5.879-5.581 8.664-6.105a35.76 35.76 0 0 1 1.864-.272c2.891-.333 6.482-.786 6.95-4.302z"/>
            <path fill="url(#a)" fill-rule="nonzero" d="M207.286 64.895c-2.171-4.443-5.954-7.893-9.797-10.885-4.437-3.455-9.308-6.291-14.103-9.202a121.81 121.81 0 0 0-42.944-16.118h-.332a121.715 121.715 0 0 0-45.836 1.732c-5.475 1.245-10.99 2.398-16.289 4.282-4.593 1.627-9.268 3.707-12.733 7.238-1.32 1.345-2.73 3.077-3.183 4.94-1.511 6.211 17.357 1.965 19.377 1.482 4.533-1.083 6.336-.449 4.845 2.06-7.923 13.302-11.585 28.322-15.65 43.11a201.977 201.977 0 0 0-6.547 36.598 154.364 154.364 0 0 0 .846 34.572c2.372 16.506 4.155 28.277 5.45 36.528-.217-.288-.383-.64-.504-.827a17.69 17.69 0 0 0-1.576-2.17s-12.089 2.91-14.93 6.955a20.188 20.188 0 0 0 5.148 13.53c6.75 7.424 15.382 8.366 23.754 5.666 7.47-2.408 13.423-7.953 19.99-12.089 7.868-4.986 16.008-5.585 25.16-5.54 2.83 0 5.676.09 8.497.337l-.03.06c6.548.817 15.463 3.819 21.356 13.44a87.807 87.807 0 0 1 4.2 7.74c11.082 2.151 19.166-.357 19.166-.357l.06-.604c.408-4.005 2.388-22.797 4.906-35.575 2.836-14.376 6.679-41.303 5.037-54.862-1.007-8.28-3.259-20.731-4.88-29.178a22.49 22.49 0 0 1-.036-8.26 27.113 27.113 0 0 1 1.305-4.262c1.823-6.77.533-15.785-.565-21.154-.61-2.57-1.274-5.128-1.838-7.702-.625-2.85 1.29-2.88 5.243-.423 1.768 1.093 18.334 11.081 18.858 4.71.192-1.99-.6-4.08-1.425-5.772z"/>
            <ellipse cx="182.804" cy="173.763" fill="#FFD6B2" fill-rule="nonzero" rx="2.906" ry="4.82" transform="rotate(-17.54 182.804 173.763)"/>
            <ellipse cx="71.682" cy="173.638" fill="#FFD6B2" fill-rule="nonzero" rx="4.82" ry="2.906" transform="rotate(-72.46 71.682 173.638)"/>
            <path fill="#FFD6B2" fill-rule="nonzero" d="M66.9 167.535c.106-.016.212-.04.317-.07 2.165-.65 3.052-4.09 1.974-7.687a9.993 9.993 0 0 0-1.924-3.636c-1.007-1.194-2.257-1.874-3.405-1.788.232 3.452.591 6.893 1.078 10.325l.378 2.64a2.947 2.947 0 0 0 1.581.216z"/>
            <path fill="#70422B" fill-rule="nonzero" d="M135.858 72.027a19.568 19.568 0 0 0-3.243-.504 18.984 18.984 0 0 0-3.118 0c-1.788.136-4.735.69-4.387 3.153.443 2.438 1.385 4.594 3.526 5.818l.166.085c.48.257.986.46 1.51.605 1.083.334 2.208.513 3.34.529 3.174.12 5.143-1.617 6.548-3.995l.07-.126.036-.06c1.733-2.947-2.211-4.936-4.448-5.505z"/>
            <ellipse cx="102.517" cy="79.035" fill="#DB748A" fill-rule="nonzero" rx="1.531" ry="4.281" transform="rotate(-80.8 102.517 79.035)"/>
            <path fill="#985C37" fill-rule="nonzero" d="M147.418 39.605v-.101a6.462 6.462 0 0 0-2.146-3.385 14.043 14.043 0 0 0-4.03-2.664 12.4 12.4 0 0 0-5.036-.842c-.958.027-1.913.126-2.856.298-.73.12-1.444.32-2.13.594-.631.27-1.23.608-1.789 1.007-1.385.957-2.583 2.408-1.944 4.191a3.103 3.103 0 0 0 3.798 1.869 5.828 5.828 0 0 0 3.148-2.816l.136.03a8.059 8.059 0 0 0 .67 3.083 4.468 4.468 0 0 0 2.387 2.518 4.15 4.15 0 0 0 1.305.282c3.022 0 2.916-2.84 2.916-2.84s1.23 1.954 3.35 1.717c.318-.068.624-.185.906-.347a2.61 2.61 0 0 0 1.315-2.594z"/>
            <ellipse cx="161.258" cy="88.544" fill="#DB748A" fill-rule="nonzero" rx="1.531" ry="4.281" transform="rotate(-80.8 161.258 88.544)"/>
            <path fill="url(#b)" fill-rule="nonzero" d="M173.222 103.784a72.969 72.969 0 0 1-.962-13.393c.196-6.916 1.44-13.8-.62-20.651-1.919-6.382-6.93-12.567-14.103-12.703-6.044-.116-11.232 4.815-13.539 10.406-1.184 2.876-1.808 5.979-3.208 8.754-1.4 2.775-3.859 5.314-6.951 5.616-3.647.353-6.946-2.569-8.346-5.953-1.4-3.385-1.37-7.158-1.511-10.82-.141-3.661-.554-7.5-2.65-10.506-4.21-6.044-13.775-5.994-19.79-1.738C95.53 57.052 92.3 64.16 89.697 71.05c-10.648 28.166-15.357 59.107-9.57 88.648 1.184 6.044 2.87 12.164 6.462 17.175 4.18 5.828 10.633 9.691 17.387 12.089 11.081 3.959 23.24 4.362 34.855 2.453 7.555-1.244 15.196-3.632 21.694-7.6h-.257c.504-.228.962-.474 1.425-.736a39.917 39.917 0 0 0 4.498-3.415c7.052-6.976 9.303-17.664 10.28-27.154 1.098-10.643.554-21.452-.66-32.06-.609-5.545-1.757-11.09-2.588-16.666z"/>
            <path fill="#854C37" fill-rule="nonzero" d="M153.734 117.927v0z"/>
            <path fill="#FFD6B2" fill-rule="nonzero" d="M189.984 162.544a29.717 29.717 0 0 1-5.097-.58c-.267 2.76.645 5.083 2.382 5.606.105.03.21.054.318.07a3.088 3.088 0 0 0 1.894-.352 220.6 220.6 0 0 0 .453-4.09c.176-1.682.327-3.37.463-5.036-.12 1.435-.262 2.906-.413 4.382z"/>
            <path fill="#985C37" fill-rule="nonzero" d="M187.224 156.248c1.007-1.2 2.262-1.874 3.41-1.789h.045c-.08 1.23-.176 2.453-.277 3.682.131-1.51.247-3.022.343-4.503l-13.66-10.159c-.07 3.022-.247 6.07-.554 9.066-.212 2.06-.504 4.181-.856 6.307a41.03 41.03 0 0 0 9.212 3.087 10.93 10.93 0 0 1 .408-2.08 9.993 9.993 0 0 1 1.93-3.611z"/>
            <path fill="#DCBCA9" fill-rule="nonzero" d="M190.392 158.157c.101-1.224.197-2.453.277-3.682h-.045c-1.148-.086-2.377.594-3.41 1.788a9.993 9.993 0 0 0-1.924 3.636 10.93 10.93 0 0 0-.408 2.08c1.68.34 3.385.534 5.097.58.156-1.491.297-2.962.413-4.402zM177.085 143.48l-25.567-19.015-4.186-3.717s-1.682 13.735 8.034 23.451c5.54 5.541 12.693 11.142 20.309 14.673.372-2.126.644-4.241.856-6.306.307-3.012.483-6.045.554-9.087zM131.461 116.638l13.776-4.674s-2.982 9.801-12.698 17.765c-9.716 7.963-26.992 15.518-54.901.81l.539-8.366"/>
            <path fill="#B26937" fill-rule="nonzero" d="M145.308 111.777l.08-.11-2.846-5.39-9.942 4.493a76.293 76.293 0 0 1-7.959 3.485 39.408 39.408 0 0 1-13.362 2.317c-4.533-.352-18.883-2.463-26.146-14.888-1.637-3.023-4.977-9.288-5.28-10.104-.402-1.083-2.986 6.603-2.986 6.603l2.906 3.022c0 1.088 0 2.302.07 3.566a11.55 11.55 0 0 1-2.11-2.63L72.4 125.816c-.15.665 12.19 4.745 13 5.012 10.427 3.435 22.097 6.361 33.158 3.813l.705-.177c17.382-4.71 26.046-22.686 26.046-22.686z"/>
            <path fill="#854C37" fill-rule="nonzero" d="M152.969 107.123c-.298-2.483-3.164-3.022-5.153-2.604-1.333.291-2.641.683-3.914 1.174-.12.045-1.627.544-1.622.675a6.936 6.936 0 0 0 2.972 5.6s1.763-.533 4.533-1.112a.423.423 0 0 1 .247-.076c1.662-.186 3.259-1.007 2.937-3.657z"/>
            <path fill="#70422B" fill-rule="nonzero" d="M160.237 77.064a5.636 5.636 0 0 0 2.518-4.997c-.181-3.601-3.727-6.195-7.177-5.908-5.279.433-7.017 7.167-3.184 10.577 2.277 2.065 5.581 1.914 7.843.328z"/>
            <circle cx="154.742" cy="69.913" r="1.34" fill="#FFF" fill-rule="nonzero" stroke="#FFF" stroke-width=".504" transform="rotate(-79.42 154.742 69.913)"/>
            <path fill="#70422B" fill-rule="nonzero" d="M116.35 68.632a1.395 1.395 0 0 1-.397-.141s-.62-.328-1.47-.685a10.477 10.477 0 0 0-5.47-.816 1.397 1.397 0 1 1-.369-2.77 12.592 12.592 0 0 1 4.534.241c-.369-.353-.76-.682-1.174-.982a18.49 18.49 0 0 0-5.168-2.836 1.396 1.396 0 1 1 .816-2.67 20.868 20.868 0 0 1 5.994 3.25 11.121 11.121 0 0 1 4.261 5.61 1.395 1.395 0 0 1-1.586 1.794l.03.005z"/>
            <ellipse cx="102.06" cy="75.892" fill="#DB748A" fill-rule="nonzero" rx="1.491" ry="4.176" transform="rotate(-78.56 102.06 75.892)"/>
            <ellipse cx="158.907" cy="87.397" fill="#DB748A" fill-rule="nonzero" rx="1.491" ry="4.176" transform="rotate(-78.56 158.907 87.397)"/>
            <path fill="#DB748A" fill-rule="nonzero" d="M123.216 86.442c.932-1.113 13.6.302 14.607 1.657 1.007 1.355-2.221 6.417-8.321 6.326-6.1-.09-7.5-6.537-6.286-7.983z"/>
            <path fill="#854C37" fill-rule="nonzero" d="M132.292 90.028a13.715 13.715 0 0 1 3.284 2.413c1.97-1.546 2.796-3.561 2.227-4.342-1.008-1.36-13.655-2.77-14.607-1.657-.615.735-.564 2.755.438 4.579a8.447 8.447 0 0 1 8.658-.993zM65.182 195.646c-1.648-.84-3.56-1-5.324-.444-.87.26-1.687.677-2.408 1.23-2.13 1.143-3.455 3.6-3.903 6.618l-.046.025a14.325 14.325 0 0 0-.05 3.692c1.722-3.591 14.859-8.563 14.859-8.563a10.446 10.446 0 0 0-3.128-2.558zM161.456 228.294c.471.988.87 2.008 1.193 3.053 1.083 3.777 4.584 5.037 9.177 5.208 7.128-.358 8.528-6.609 8.8-8.618-.005 0-8.07 2.513-19.17.357z"/>
            <path fill="#B26937" fill-rule="nonzero" d="M195.107 126.253c-2.453-4.533-5.823-12.622-8.175-18.525a24.917 24.917 0 0 1-1.138-5.54v-.318-.1c.065-2.902 1.249-6.614 1.249-6.614l-2.851 1.44-2.181.449-2.16 2.291s.815.877 1.848 1.854l-.766.337-.201 7.188s.84.625 1.964 1.36l-3.344 21.976.025.035h-.03v.086c-.217 0-.429-.046-.645-.066a27.703 27.703 0 0 1-12.24-2.443 31.56 31.56 0 0 1-8.285-5.54 32.941 32.941 0 0 1-3.284-3.405c-.162-.202-2.191-3.073-2.126-3.113l-5.46 3.072c-.04.85-.016 1.702.07 2.55 3.093 27.153 42.28 40.56 49.155 34.37 6.875-6.19 2.74-23.678-1.425-31.344z"/>
            <path fill="#854C37" fill-rule="nonzero" d="M153.236 114.366c.761-.749.915-1.92.372-2.84a2.604 2.604 0 0 0-.393-.645 2.14 2.14 0 0 0-1.47-.77 4.407 4.407 0 0 0-2.584.75l-.217.1v.04a5.208 5.208 0 0 0-2.327 4.67c.066 1.697.296 3.384.685 5.037 0 0 4.508-.237 5.46-3.073a6.613 6.613 0 0 1-.307-1.324c-.035-.731.25-1.44.78-1.945z"/>
            <path fill="#FDEEE1" fill-rule="nonzero" d="M221.62 228.168v-86.714l-93.347 7.44v101.628l88.724-18.243c.04-.066.312-.131.886-.197h.177l1.093-.227a3.385 3.385 0 0 0 1.944-1.264h.03c.494-.524.494-1.657.494-2.423z"/>
            <path fill="#FFF" d="M35.142 141.454l-.317 86.916v.408c.052.749.602 1.369 1.34 1.511.109.03.22.053.332.07l.176.04 90.029 19.468 1.556.66V148.894l-93.116-7.44z"/>
            <path fill="#F9D7B7" fill-opacity=".7" d="M35.142 141.454l-.317 86.916v.408c.052.749.602 1.369 1.34 1.511.109.03.22.053.332.07l.176.04 90.029 19.468 1.556.66V148.894l-93.116-7.44z"/>
            <path fill="#FDEEE1" fill-rule="nonzero" d="M128.187 148.778l-.317.086h.242z"/>
            <path fill="#FDEEE1" fill-rule="nonzero" d="M95.267 191.727c3.994-2.931 31.228-40.632 32.845-42.848h-.242l-14.315 3.833-78.539 22.791-.04 11.363c10.87 1.592 33.082 4.8 41.236 5.642 10.976 1.108 14.955 2.246 19.055-.781z" style="mix-blend-mode:multiply"/>
            <path fill="#FDEEE1" fill-rule="nonzero" d="M92.642 187.133l35.696-38.355-93.18-7.319L.65 173.846c-.363.454-2.065 2.856 2.12 3.753l.136.035 81.46 11.706s4.675.549 8.276-2.207z"/>
            <path fill="#FDEEE1" fill-rule="nonzero" d="M182.862 192.326c17.84-2.9 33.435-5.495 38.749-6.381v-14.451l-85.274-20.147-7.721-2.473h-.207l25.809 35.665c2.392 3.3 4.23 6.412 8.975 7.762 6.17 1.753 13.413 1.043 19.67.025z" style="mix-blend-mode:multiply"/>
            <path fill="#FDEEE1" fill-rule="nonzero" d="M255.221 173.77l-34.28-32.326-92.754 7.334 34.961 37.736.055-.04c.041.089.088.174.141.256l1.008 1.073c1.27 1.008 3.803 2.106 8.562 1.315a7.883 7.883 0 0 1 1.718-.161l77.885-11.253c.27-.133.569-.203.87-.206 5.184-.504 1.834-3.727 1.834-3.727z"/>
            <path fill="#854C37" fill-rule="nonzero" d="M153.236 114.366c.761-.749.915-1.92.372-2.84a2.604 2.604 0 0 0-.393-.645 2.14 2.14 0 0 0-1.47-.77 4.407 4.407 0 0 0-2.584.75l-.217.1v.04a5.208 5.208 0 0 0-2.327 4.67c.066 1.697.296 3.384.685 5.037 0 0 4.508-.237 5.46-3.073a6.613 6.613 0 0 1-.307-1.324c-.035-.731.25-1.44.78-1.945z"/>
            <path fill="#F9D7B7" fill-opacity=".7" fill-rule="nonzero" d="M175.735 158.484c0 .13-.04.262-.065.393a42.682 42.682 0 0 0 7.464 2.69l.056.055.433.07a30.644 30.644 0 0 0 5.057.78l.12.001s6.493 1.652 10.346-2.75c3.853-4.402.882-16.622.882-16.622l-12.592 8.06-8.628-6.382-21.155 1.667c5.147 4.77 11.388 9.373 17.976 12.43.066-.13.086-.261.106-.392z"/>
            <path fill="#B26937" fill-rule="nonzero" d="M195.107 126.253c-2.453-4.533-5.823-12.622-8.175-18.525a24.917 24.917 0 0 1-1.138-5.54v-.318-.1c.065-2.902 1.249-6.614 1.249-6.614l-2.851 1.44-2.181.449-2.16 2.291s.815.877 1.848 1.854l-.766.337-.201 7.188s.84.625 1.964 1.36l-3.344 21.976.025.035h-.03v.086c-.217 0-.429-.046-.645-.066a27.703 27.703 0 0 1-12.24-2.443 31.56 31.56 0 0 1-8.285-5.54 32.941 32.941 0 0 1-3.284-3.405c-.162-.202-2.191-3.073-2.126-3.113l-5.46 3.072c-.04.85-.016 1.702.07 2.55 3.093 27.153 42.28 40.56 49.155 34.37 6.875-6.19 2.74-23.678-1.425-31.344z"/>
            <path fill="#FFC31B" fill-rule="nonzero" d="M240.735 46.022l-8.265 1.798-4.432-6.13.508 8.003-5.51 5.38 7.545-1.139 6.598 7.193-2.352-9.227z"/>
            <path fill="#FFC31B" fill-rule="nonzero" d="M221.55 55.833a1.667 1.667 0 0 1 .327-1.939l4.967-4.845-.474-7.243a1.667 1.667 0 0 1 3.022-1.083l3.813 5.238 7.203-1.566a1.667 1.667 0 0 1 1.511 2.815l-5.238 5.208 2.12 8.306a1.667 1.667 0 0 1-2.846 1.541l-5.998-6.548-6.67 1.008a1.667 1.667 0 0 1-1.737-.892zm8.517-8.487l.141 2.232c.03.485-.154.96-.503 1.299l-1.809 1.768 2.428-.368c.547-.088 1.102.1 1.481.504l2.11 2.302-.71-2.77c-.147-.573.02-1.18.439-1.597l1.863-1.859-2.684.585a1.667 1.667 0 0 1-1.708-.655l-1.048-1.44zM211.789 90.386l-5.344-3.093.624-5.48-3.657 4.564-5.616.196 4.63 3.093.024 7.117 3.264-6.13z"/>
            <path fill="#FFC31B" fill-rule="nonzero" d="M202.45 97.992a1.204 1.204 0 0 1-1.203-1.204V90.31l-4.095-2.735a1.204 1.204 0 0 1 .63-2.206l5.061-.176 3.31-4.135a1.204 1.204 0 0 1 2.14.891l-.559 4.685 4.66 2.694a1.204 1.204 0 0 1-.55 2.247l-5.39.236-2.936 5.54c-.21.396-.62.642-1.068.64zm-.871-10.351l1.511 1.007c.336.225.536.603.534 1.008v2.322l1.007-1.9c.2-.376.582-.619 1.008-.639l1.949-.086-1.768-1.007a1.204 1.204 0 0 1-.57-1.209l.152-1.335-1.048 1.335c-.22.276-.549.442-.901.454l-1.874.05z"/>
        </g>
    </g>
</svg>
