<svg width="620" height="200" xmlns="http://www.w3.org/2000/svg" xmlns:xlink="http://www.w3.org/1999/xlink"><defs><path d="M0 0h620v196a4 4 0 0 1-4 4H4a4 4 0 0 1-4-4V0z" id="a"/><path id="d" d="M0 0h117.357v29.958H0z"/><path id="f" d="M0 0h117.357v29.958H0z"/><path id="h" d="M0 0h12v11H0z"/><path id="j" d="M0 0h53.705v56.588H0z"/><path id="l" d="M0 0h30.353v86.371H0z"/><path id="n" d="M0 0h2.845v9.15H0z"/><path d="M37.266 14.497c-6.755 3.022-13.59 5.942-19.947 9.723-5.507 3.275-11.003 7.143-14.533 12.523-1.343 2.047-2.7 4.613-2.783 7.092-.28 8.259 23.02-2.11 25.508-3.255 5.574-2.566 8.088-2.246 6.833 1.32-3.042 8.645-5.23 17.727-7.47 26.6-1.882 7.454-3.463 14.975-5.264 22.447-1.529 6.337-2.595 12.776-3.372 19.24-2.399 19.948-2.081 40.197.324 60.165H191.97c1.203-22.68-.19-45.588-5.001-67.8-1.38-6.368-3.045-12.685-5.16-18.86-2.495-7.28-4.774-14.628-7.347-21.883-3.061-8.635-6.09-17.484-9.929-25.82-1.584-3.44.889-3.983 6.68-1.925 2.585.917 26.76 9.163 25.707.965-.316-2.462-1.907-4.896-3.437-6.815-4.018-5.043-9.854-8.403-15.645-11.173-6.685-3.198-13.764-5.495-20.774-7.902C140.917 3.596 123.9.464 106.784.044 105.598.014 104.413 0 103.227 0c-22.691 0-45.38 5.288-65.961 14.497" id="p"/><path d="M0 7.916c.167 9.194.83 18.383 1.93 27.515h175.406c.625-11.792.549-23.645-.345-35.431L0 7.916z" id="s"/><path d="M83.244 8.096c-2.395 4.038-3.535 8.688-4.336 13.313-1.177 6.791-1.625 15.643-10.144 16.525-.497.051-.98.054-1.454.036v-.019c-.043.007-.088.009-.13.015-.043-.001-.087 0-.13-.002v.018c-.47.06-.95.1-1.451.094-8.566-.118-9.841-8.894-11.65-15.55-1.23-4.535-2.801-9.063-5.565-12.87-4.367-6.019-11.508-8.4-18.492-5.947-12.1 4.25-18.604 20.342-21.505 31.67C4.614 50.106 2.58 65.447 1.394 80.75a528.95 528.95 0 0 0-1.05 17.733c-.592 13.486-.785 27.706 2.536 40.758h136.564c3.806-15.017 2.103-31.51-.039-46.977a530.34 530.34 0 0 0-2.708-17.565c-2.615-15.132-6.076-30.227-11.212-44.556C121.534 19.12 113.549 3.676 101.102.524A16.806 16.806 0 0 0 96.972 0C91.36 0 86.296 2.952 83.245 8.096" id="u"/><path id="x" d="M0 0h.307v9.24H0z"/><path id="z" d="M0 0h1.52v4.128H0z"/><path id="B" d="M0 0h45.33v18.892H0z"/><path id="D" d="M0 0h17.453v10.803H0z"/><radialGradient cx="50%" cy="15.721%" fx="50%" fy="15.721%" r="57.808%" gradientTransform="matrix(.86493 -.00368 .00318 1 .067 .002)" id="q"><stop stop-color="#C7916D" offset="0%"/><stop stop-color="#B26937" offset="49.262%"/><stop stop-color="#B26937" offset="100%"/></radialGradient><radialGradient cx="54.28%" cy="99.988%" fx="54.28%" fy="99.988%" r="64.293%" gradientTransform="matrix(.98165 -.04468 .04268 .97121 -.033 .053)" id="v"><stop stop-color="#FFE4CA" offset="0%"/><stop stop-color="#FFD6B1" offset="100%"/></radialGradient><linearGradient x1="50%" y1="22.972%" x2="50%" y2="100%" id="c"><stop stop-color="#FFEEDF" offset="0%"/><stop stop-color="#FFD6B2" offset="100%"/></linearGradient></defs><g fill="none" fill-rule="evenodd"><mask id="b" fill="#fff"><use xlink:href="#a"/></mask><g mask="url(#b)"><path d="M629.029 130c3.899-7.77 1.588-25.788-17.99-34.274-15.955-6.915-38.413-9.922-48.968-17.33-17.394-12.206-15.17-24.946-47.68-32.582-37.958-8.916-56.534 12.708-95.4-3.632-29.927-12.581-35.113-39.948-70.899-42.06-40.145-2.368-63.555 30.386-105.748 21.08-13.907-3.066-56.887-20.668-87.367-5.407-36.778 18.416-36.611 41.813-51.721 52.35C87.5 79.132 64.35 71.735 39.49 80.972 5.286 93.681-4.742 115.854 1.955 130H629.03z" fill="url(#c)" transform="translate(-3.453 70)"/><path d="M138.638 76.578c2.75 1.32 7.338 9.089 8.652 13.086 1.407 4.28 1.511 12.747 1.51 15.236v-.04c.124.501.29 1.162.492 1.955.095-2.735.266-5.817.576-7.844.532-3.484 2.57-9.19 4.68-10.57.661-.432 1.234-.41 1.598-.317 2.972.767 2.673 11.105 1.906 14.226-1.208 4.908-5.933 9.782-7.053 10.884a.778.778 0 0 1 .05.2c.448 1.627.95 3.387 1.49 5.216.051.171.107.344.168.518.505-2.814 1.383-6.779 2.635-9.24 4.781-9.401 7.196-10.053 8.593-9.73.468.11 1.123.461 1.578 1.527 1.201 2.813.519 9.928-2.13 14.545-2.447 4.263-6.514 6.119-8.673 6.838 1.756 2.735 4.155 5.465 6.275 7.65.26-2.79.873-7.973 2.088-11.775 1.088-3.401 4.514-10.132 7.473-11.438.872-.384 1.541-.24 1.95-.053 3.35 1.544 1.537 11.794-.529 16.638-1.879 4.405-6.585 7.597-8.723 8.87a68.785 68.785 0 0 0 2.577 2.35 64.361 64.361 0 0 1 4.203 3.89c.257-3.124.827-8.347 1.891-11.182 1.704-4.54 7.812-12.74 11.39-11.595.676.216 1.183.763 1.507 1.623 1.284 3.408-.463 11.968-2.656 15.632-1.992 3.33-6.485 6.333-9.063 7.866a.865.865 0 0 1-.186.23c-.03.025-.134.116-.304.26a40.64 40.64 0 0 1 5.357 8.218c.573-3.337 1.533-8.027 2.748-10.648 2.178-4.701 9.307-12.932 12.955-11.414.68.283 1.165.92 1.443 1.896 1.083 3.801-1.04 13.382-3.85 17.375-2.657 3.777-8.693 6.26-11.386 7.219.246.648.483 1.314.714 1.998.584 1.73 1.12 3.636 1.637 5.479.579 2.06 1.176 4.19 1.846 6.088a.936.936 0 0 1-.56 1.193.92.92 0 0 1-1.182-.566c-.69-1.957-1.297-4.118-1.883-6.206-.512-1.821-1.04-3.703-1.608-5.386a59.274 59.274 0 0 0-.55-1.556c-2.61 1.983-8.362 6.101-11.915 6.765-.77.145-1.7.214-2.718.214-3.968 0-9.266-1.047-11.585-2.75-.823-.606-1.284-1.29-1.371-2.032-.45-3.87 8.663-7.128 11.765-7.502 5.302-.644 11.118.775 14.373 1.78a39.254 39.254 0 0 0-5.684-9c-2.352 1.805-6.725 4.808-11.092 5.961-.9.237-1.875.343-2.888.343-5.154 0-11.296-2.73-13.533-4.7-.902-.795-1.298-1.53-1.213-2.25.336-2.81 7.732-4.093 13.878-4.675 2.979-.28 7.335.372 10.786 1.052a67.464 67.464 0 0 0-2.457-2.193 71.14 71.14 0 0 1-3.313-3.042c-1.605.92-6.27 3.3-11.756 3.36-.074.002-.149.002-.223.002-5.32 0-11.854-2.09-13.815-4.439-.64-.768-.676-1.439-.594-1.867.714-3.692 9.034-3.624 12.582-3.425 3.477.197 7.313 1.437 10.14 2.553-1.732-1.938-3.476-4.122-4.823-6.324-1.268.328-4.456 1.056-7.792 1.056-1.721 0-3.482-.193-5.038-.735-4.518-1.574-8.944-4.944-10.294-7.841-.491-1.053-.575-2.016-.248-2.864.26-.677.793-1.186 1.539-1.473 3.006-1.153 9.394 1.473 11.603 2.583 2.302 1.157 5.893 3.67 8.366 5.47a12.141 12.141 0 0 1-.197-.606 317.42 317.42 0 0 1-1.365-4.754c-2.192-.147-8.824-.843-12.868-3.97-3.22-2.49-7.682-8.418-8.005-11.302-.073-.653.054-1.183.38-1.576 2.157-2.617 8.68 1.544 11.383 3.452 2.523 1.781 5.5 5.26 7.656 8.013a314.94 314.94 0 0 1-.704-2.74c-.002 0-.004-.002-.006-.004-.3-.276-7.358-6.797-9.508-12.593-1.674-4.51-4.234-15.874-.636-17.23.468-.174.987-.13 1.544.137zm24.046 75.687c-3.75.455-10.335 3.729-10.135 5.44.01.096.094.358.624.748 2.29 1.683 9.258 2.88 12.852 2.207 3.137-.585 8.597-4.501 11.11-6.404-2.844-.932-9.043-2.645-14.45-1.99zm29.922-22.414c-2.146 0-7.877 5.473-10.228 10.546-1.425 3.072-2.524 9.54-2.969 12.463 2.582-.938 8.056-3.229 10.345-6.48 2.471-3.513 4.511-12.506 3.58-15.776-.136-.477-.299-.657-.373-.689a.927.927 0 0 0-.355-.064zm-34.731 9.825c-.497 0-.967.02-1.402.061-7.63.722-11.996 2.232-12.215 3.045.367 1.32 9.57 6.091 15.33 4.573 3.75-.99 7.632-3.552 9.957-5.283l.3-.224a.922.922 0 0 1-.001-.106l.003-.028-.33-.357c-2.999-.68-8.024-1.68-11.642-1.68zm24.634-21.528c-1.896 0-7.05 5.684-8.864 10.52-1.05 2.799-1.603 8.406-1.83 11.319.07.014.135.03.194.045l-.206.122c2.353-1.376 6.909-4.319 8.768-7.425 2.102-3.512 3.51-11.38 2.511-14.03-.137-.365-.28-.496-.342-.517a.741.741 0 0 0-.231-.034zm-45.762 12.95c.042 1.128 6.444 4.226 12.794 4.107 4.136-.046 7.852-1.581 9.838-2.577-2.539-1.146-7.648-3.208-11.973-3.453-7.007-.395-10.447.884-10.659 1.923zm34.869-21.986a.875.875 0 0 0-.326.087c-1.949.86-5.235 6.481-6.458 10.308-1.173 3.667-1.773 8.863-2.02 11.542 2.121-1.335 5.936-4.118 7.457-7.686 2.497-5.855 2.795-13.611 1.455-14.23a.262.262 0 0 0-.108-.021zm-38.79 4.135c-.46 0-.855.053-1.163.171-.33.126-.427.287-.476.413-.175.454.012 1.028.199 1.429 1.124 2.41 5.262 5.496 9.225 6.875 3.304 1.155 7.878.477 10.402-.054-2.326-1.721-6.708-4.876-9.252-6.155-2.527-1.27-6.575-2.68-8.935-2.68zm30.644-11.275c-.346 0-2.253.427-6.498 8.774-1.43 2.807-2.37 8.019-2.759 10.516 1.908-.657 5.486-2.316 7.584-5.972 2.42-4.215 2.918-10.548 2.074-12.76-.16-.42-.313-.544-.345-.554-.006 0-.025-.004-.056-.004zm-32.536-3.416c-.3 0-.495.061-.582.167-.338 1.112 3.686 7.414 7.33 10.232 3 2.32 7.823 3.16 10.506 3.458-1.935-2.623-5.909-7.737-8.978-9.903-4.226-2.984-7.08-3.954-8.276-3.954zm24.67-8.69c-.828.2-3.198 4.98-3.871 9.385-.436 2.852-.59 8.066-.643 11.108 1.733-1.946 4.34-5.283 5.13-8.492.917-3.736.37-11.273-.616-12.001zm-17.898-11.662c-1.106.611-.652 8.297 1.768 14.82 1.402 3.779 5.261 8.082 7.451 10.324-.054-3.376-.304-9.763-1.401-13.102-1.54-4.683-6.396-11.82-7.818-12.042z" fill="#FFF"/><path d="M341.234 197.36a.928.928 0 0 1-.928-1.006c.156-1.913.192-4.021.224-6.06.03-1.828.06-3.719.18-5.46.616-8.937 3-15.485 8.503-23.354.08-.116 8.04-11.53 8.254-18.649.191-6.292.14-11.743.108-13.793l-.003-.156c.01-.514.46-.898.946-.916a.931.931 0 0 1 .915.944c.035 2.162.087 7.647-.105 13.977-.232 7.676-8.25 19.174-8.591 19.66-5.289 7.563-7.58 13.849-8.17 22.416-.116 1.69-.147 3.557-.176 5.362-.034 2.068-.069 4.207-.231 6.181a.93.93 0 0 1-.926.854" fill="#FCFDFF"/><path d="M354.48 157.615c2.094.438 5.851.925 9.63-.051 5.877-1.52 10.952-5.9 10.792-7.018-.455-.905-3.933-1.23-10.279.885-3.893 1.296-8.057 4.46-10.144 6.184m4.877 2.408c-3.948 0-6.967-.984-7.143-1.043a.936.936 0 0 1-.617-.7.953.953 0 0 1 .283-.894c.257-.237 6.337-5.804 12.168-7.746 3.239-1.08 10.944-3.23 12.526.095.185.39.32 1.045-.09 1.942-1.257 2.75-6.937 6.425-11.918 7.713-1.804.466-3.586.633-5.21.633m15.741-27.176c-2.003 0-6.131 2.758-8.45 4.844-2.005 1.805-5.217 5.772-6.95 7.971 2.468-.135 6.77-.642 9.49-2.509 3.305-2.266 6.352-6.164 6.792-8.689.073-.413.103-.984-.16-1.353-.072-.1-.194-.218-.513-.253a1.937 1.937 0 0 0-.209-.011m-16.925 14.73c-.244 0-.395-.003-.436-.005a.926.926 0 0 1-.81-.532.94.94 0 0 1 .103-.97c.22-.289 5.419-7.1 8.388-9.771 1.764-1.588 7.003-5.63 10.09-5.297.77.086 1.395.437 1.809 1.015.516.722.678 1.654.485 2.77-.533 3.054-3.79 7.314-7.574 9.91-3.921 2.688-10.317 2.88-12.055 2.88m-11.444 21.029c2.452 1.027 7.135 2.73 11.226 2.73 5.71-.022 13.145-6.754 13.175-8.153-.406-.56-4.549-.94-12.072.336-3.672.624-9.5 3.57-12.329 5.087zm11.226 4.617c-6.264 0-13.443-3.532-13.747-3.683a.946.946 0 0 1-.048-1.667c.376-.216 9.296-5.314 14.59-6.213 5.89-1.001 13.12-1.652 14.132.912.263.665.072 1.464-.581 2.444-1.923 2.88-8.802 8.185-14.277 8.207h-.069zm-14.403 8.86c2.818 1.165 8.712 3.437 11.754 3.199 3.48-.263 9.606-3.096 11.303-5.23.396-.496.395-.753.385-.82-.234-1.632-7.092-3.041-10.66-2.537-5.106.72-10.357 3.804-12.782 5.388m11.35 5.094c-4.652 0-13.29-3.87-13.67-4.042a.938.938 0 0 1-.546-.757.943.943 0 0 1 .372-.857c.307-.23 7.626-5.645 15.016-6.69 2.973-.417 12.226.379 12.766 4.13.105.727-.156 1.49-.776 2.269-2.17 2.727-8.95 5.65-12.62 5.928-.174.013-.356.02-.543.02m17.857-68.328c-.785 0-3.344 1.49-6.9 5.816-2.256 2.746-4.62 8.407-5.764 11.358 2.398-.953 6.536-2.915 8.684-5.773 2.677-3.564 4.784-10.31 4.164-11.356a.32.32 0 0 0-.184-.045m-14.241 19.676a.921.921 0 0 1-.672-.292.946.946 0 0 1-.2-.962c.14-.397 3.462-9.758 6.79-13.806 2.017-2.457 7.002-7.959 9.646-6.038.405.294.657.767.751 1.406.412 2.779-2.23 9.429-4.579 12.554-3.49 4.646-11.147 7-11.47 7.098a.904.904 0 0 1-.266.04m2.607-36.598c-1.269.622-3.999 8.37-4.27 13.008-.194 3.313 1.121 9.183 1.91 12.34 1.49-2.63 3.965-7.483 4.333-11.268.637-6.583-.807-13.75-1.973-14.08m-2.7 28.678a.939.939 0 0 1-.903-.68c-.116-.412-2.83-10.125-2.54-15.1.236-4.02 2.596-12.342 4.84-14.244.462-.391.946-.567 1.435-.516 3.716.37 4.152 11.528 3.707 16.12-.57 5.892-5.539 13.662-5.75 13.99a.941.941 0 0 1-.79.43" fill="#FCFDFF"/><path d="M343.675 130.221a.487.487 0 0 0-.214.037c-.035.03-.156.245-.18.777-.121 2.637 2.056 8.03 5.044 11.03 2.803 2.813 6.479 3.468 8.426 3.609-.982-2.231-3.105-6.745-5.097-8.959-5.312-5.9-7.367-6.494-7.979-6.494m13.948 17.356c-1.738 0-6.782-.356-10.603-4.191-3.6-3.613-5.973-10.034-5.538-12.944.166-1.114.7-1.613 1.12-1.835 1.234-.653 3.658-.657 10.422 6.856 2.914 3.238 5.874 10.506 5.998 10.814a.94.94 0 0 1-.07.844.925.925 0 0 1-.718.438 8.476 8.476 0 0 1-.61.018m-10.087-30.203c-.61 1.197.693 7.835 2.425 10.99 1.482 2.695 4.6 5.078 6.659 6.448-.799-2.78-2.192-7.417-3.274-9.884-1.62-3.698-4.803-7.391-5.81-7.554m10.622 20.397a.937.937 0 0 1-.447-.113c-.277-.15-6.817-3.734-9.385-8.409-1.217-2.215-4.394-12.012-1.725-13.51.314-.177.844-.338 1.568-.097 2.276.754 5.545 5.488 6.886 8.55 1.657 3.78 3.908 12.064 4.003 12.415a.925.925 0 0 1-.9 1.164m-20.457 1.104c-.082 0-.164.012-.214.053-1.053.873 1.193 8.09 4.86 12.792 2.256 2.893 6.402 4.527 8.712 5.252-.9-2.444-2.717-7.05-4.685-10.129-2.072-3.242-6.489-7.638-8.5-7.954a1.204 1.204 0 0 0-.173-.014m14.826 20.394a.958.958 0 0 1-.193-.021c-.318-.068-7.806-1.715-11.447-6.384-3.117-3.995-7.327-13.09-4.58-15.368.34-.281.932-.586 1.854-.442 3.078.483 7.925 5.894 9.775 8.788 2.9 4.535 5.367 11.893 5.47 12.204a.927.927 0 0 1-.878 1.223m-22.812-9.491c-.214 0-.39.04-.52.124-.044.03-.137.177-.173.536-.273 2.708 2.973 9.67 5.789 12.417 2.469 2.407 7.35 4.007 9.893 4.715-.919-2.632-2.837-7.795-4.519-10.162-2.72-3.828-8.39-7.63-10.47-7.63m16.42 20.05a.935.935 0 0 1-.198-.021c-.35-.077-8.63-1.92-12.423-5.617-2.95-2.877-6.694-10.436-6.341-13.939.112-1.114.615-1.658 1.017-1.916 3.051-1.972 10.795 4.173 13.509 7.991 2.465 3.47 5.205 11.927 5.321 12.285a.934.934 0 0 1-.885 1.218m-22.593-6.497c-.326 0-.583.062-.759.194-.052.04-.154.235-.164.69-.067 3.21 4.026 10.91 7.18 13.507 2.893 2.383 8.472 3.136 11.128 3.365-1.143-2.588-3.72-8.154-5.78-10.59-3.198-3.783-9.213-7.166-11.605-7.166m18.836 19.697c-.407-.011-9.405-.295-13.765-3.885-3.602-2.965-7.93-11.218-7.85-14.967.02-.973.322-1.687.895-2.12 3.045-2.304 11.726 3.484 14.912 7.254 2.9 3.432 6.514 12.076 6.667 12.443a.92.92 0 0 1-.093.876.934.934 0 0 1-.766.399m93.537-19.017c-1.981 0-5.728.413-7.508 3.32-3.253 5.314 7.714 15.584 12.624 19.434 2.54-.495 16.464-3.428 20.354-9.007.81-1.16 1.099-2.32.882-3.55-.606-3.424-3.625-3.936-6.055-3.765a.946.946 0 0 1-.98-.787.929.929 0 0 1 .7-1.045c6.073-1.452 8.816-3.498 8.385-6.254-.594-3.787-5.403-3.431-5.614-3.417a.928.928 0 0 1-.312-1.825c1.897-.498 7.134-2.365 8.574-4.978.392-.71.469-1.418.235-2.162-1.08-3.452-5.19-2.904-5.362-2.88a.93.93 0 0 1-.78-1.585c1.117-1.095 3.931-4.485 3.54-6.978-.16-1.017-.846-1.813-2.094-2.436-1.464-.728-2.705-.81-3.793-.24-2.497 1.297-3.693 5.787-3.942 7.409a.927.927 0 0 1-1.574.51c-.118-.118-3.018-2.953-6.72-.934-2.906 1.588-1.398 7.99-.572 10.323a.93.93 0 0 1-1.197 1.182c-.057-.02-5.813-2.138-7.64.841-1.081 1.77-.661 4.838 1.022 7.461a.931.931 0 0 1-.889 1.428c-.07-.01-.558-.065-1.284-.065m4.879 24.674a.93.93 0 0 1-.563-.191c-.748-.575-18.28-14.168-13.401-22.136 2.195-3.586 6.451-4.183 8.87-4.21-1.34-2.862-1.454-5.903-.21-7.934 1.853-3.025 5.87-2.635 8.165-2.104-.765-2.943-1.764-8.88 1.936-10.903 3.054-1.667 5.904-.828 7.667.275.541-2.11 1.857-5.85 4.6-7.277 1.628-.847 3.467-.771 5.469.226 1.802.898 2.845 2.181 3.101 3.814.4 2.56-1.347 5.33-2.68 7.016 2.002.273 4.337 1.338 5.22 4.157.387 1.238.259 2.457-.383 3.621-1.156 2.096-3.85 3.628-6.112 4.603 1.722.665 3.293 1.992 3.674 4.427.59 3.782-2.632 5.916-5.678 7.117 1.954.822 3.22 2.427 3.62 4.698.304 1.715-.096 3.378-1.187 4.942-4.705 6.743-21.246 9.72-21.948 9.844a.91.91 0 0 1-.16.015" fill="#FCFDFF"/><path d="M437.798 198.869a.93.93 0 0 1-.903-1.13c3.54-16.424 13.287-41.834 22.67-59.105a.917.917 0 0 1 1.252-.37.937.937 0 0 1 .366 1.266c-9.31 17.138-18.976 42.331-22.485 58.604a.924.924 0 0 1-.9.735" fill="#FCFDFF"/><path d="M452.546 155.497a.936.936 0 0 1-.845-.525l-3.467-7.22a.907.907 0 0 1 .448-1.218.94.94 0 0 1 1.242.438l3.11 6.476 9.278-3.16a.938.938 0 0 1 1.187.563.908.908 0 0 1-.575 1.163l-10.072 3.432a.945.945 0 0 1-.306.051m-4.837 11.314a.924.924 0 0 1-.716-.34l-6.16-7.601a.91.91 0 0 1 .14-1.286.925.925 0 0 1 1.293.139l5.796 7.153 10.225-2.388a.922.922 0 0 1 1.107.681.915.915 0 0 1-.685 1.1l-10.79 2.519a.986.986 0 0 1-.21.023m-4.697 12.823a.928.928 0 0 1-.697-.315l-8.97-10.216a.927.927 0 0 1 1.392-1.223l8.584 9.778 12.287-3.493a.926.926 0 1 1 .506 1.783l-12.85 3.651a.963.963 0 0 1-.252.035m-189.705-16.345c-2.381 0-5.655.722-6.33 4.536-.259 1.47.084 2.857 1.05 4.241 4.594 6.584 21.06 10.012 23.839 10.549 5.716-4.468 18.629-16.548 14.775-22.841-2.897-4.733-10.062-3.891-10.367-3.857a.927.927 0 0 1-.9-.428.935.935 0 0 1 .005-1c1.988-3.1 2.477-6.734 1.189-8.838-2.186-3.571-9-1.064-9.067-1.04a.924.924 0 0 1-.977-.209.934.934 0 0 1-.223-.976c.974-2.745 2.741-10.288-.736-12.187-4.402-2.407-7.851.97-7.996 1.114a.93.93 0 0 1-1.575-.514c-.01-.068-1.11-6.881-4.667-8.728-1.31-.682-2.796-.588-4.545.28-1.5.747-2.323 1.71-2.517 2.944-.467 2.964 2.846 6.959 4.162 8.247a.933.933 0 0 1-.783 1.588c-.208-.03-5.108-.686-6.403 3.453-.284.906-.19 1.768.286 2.631 2.05 3.72 9.988 5.842 10.067 5.862a.93.93 0 0 1 .68 1.059.92.92 0 0 1-.993.77c-.241-.023-5.977-.448-6.69 4.1-.515 3.297 2.711 5.731 9.867 7.442a.93.93 0 0 1 .701 1.045.944.944 0 0 1-.981.789c-.27-.02-.564-.032-.871-.032m18.797 21.248a.894.894 0 0 1-.16-.014c-.814-.143-19.998-3.596-25.436-11.389-1.246-1.784-1.703-3.68-1.357-5.634.566-3.207 2.481-4.76 4.504-5.484-3.604-1.35-7.594-3.806-6.896-8.26.458-2.93 2.438-4.45 4.534-5.161-2.676-1.113-6.003-2.924-7.39-5.438-.724-1.315-.87-2.692-.432-4.092 1.043-3.332 3.873-4.51 6.213-4.765-1.552-1.914-3.728-5.22-3.253-8.253.29-1.848 1.475-3.303 3.525-4.323 2.286-1.136 4.38-1.225 6.228-.265 3.231 1.68 4.736 6.181 5.326 8.568 2.002-1.313 5.348-2.385 8.942-.423 4.32 2.358 3.005 9.455 2.115 12.748 2.59-.634 7.407-1.228 9.582 2.324 1.452 2.371 1.279 5.957-.357 9.305 2.709.006 7.855.612 10.43 4.818 5.605 9.153-14.688 24.881-15.554 25.547a.927.927 0 0 1-.564.191" fill="#FCFDFF"/><path d="M275.872 196.606a.929.929 0 0 1-.906-.734c-4.094-18.891-15.372-48.139-26.233-68.033a.934.934 0 0 1 .367-1.265.922.922 0 0 1 1.26.37c10.934 20.027 22.292 49.49 26.419 68.532a.931.931 0 0 1-.907 1.13" fill="#FCFDFF"/><path d="M258.775 146.069a.894.894 0 0 1-.301-.053l-11.494-4.12a.953.953 0 0 1-.565-1.202.91.91 0 0 1 1.168-.582l10.713 3.84 3.605-7.899a.902.902 0 0 1 1.22-.453.959.959 0 0 1 .44 1.258l-3.955 8.668a.916.916 0 0 1-.83.543m5.341 13.2a.984.984 0 0 1-.213-.025l-12.689-3.001a.94.94 0 0 1-.693-1.13.928.928 0 0 1 1.12-.698l12.117 2.867 6.875-8.602a.93.93 0 0 1 1.31-.142c.4.325.463.915.141 1.32l-7.243 9.061a.93.93 0 0 1-.725.35m5.53 14.708a.938.938 0 0 1-.252-.035l-14.846-4.314a.946.946 0 0 1-.635-1.164.919.919 0 0 1 1.139-.65l14.285 4.152 9.98-11.623a.908.908 0 0 1 1.301-.086.957.957 0 0 1 .085 1.33l-10.365 12.07a.915.915 0 0 1-.692.32" fill="#FCFDFF"/><path d="M66.37 159.802c.684 1.134 1.592 2.64 2.073 3.144.3-.326.824-1.341 1.123-1.918.817-1.581 1.663-3.224 3.115-2.893 1.277.286 1.626 2.211 2.375 8.093.213 1.673.51 4.005.804 5.24.448-.67 1.027-1.742 1.454-2.533 1.54-2.856 2.66-4.91 4.155-4.186 2.083 1.018 1.591 4.846.948 8.745l-.093.557-.047.279c-.174 1.042-.395 2.36-.455 3.183.305-.25.667-.596.926-.843 1.105-1.057 2.777-2.653 4.305-1.37.64.537.859 1.654.669 3.415-.492 4.55-3.569 12.12-8.936 15.544.84 2.1 1.69 4.255 2.55 6.468a.935.935 0 0 1-.868 1.273.933.933 0 0 1-.869-.594 752.769 752.769 0 0 0-2.47-6.271c-1.388.583-2.888.83-4.417.83-4.839 0-9.986-2.48-12.956-4.748-2.088-1.593-3.02-2.957-2.77-4.05.307-1.35 1.913-1.282 3.603-1.074l.377.048.188.024c.601.079 1.5.174 2.06.183-.581-.87-2.165-2.577-3.375-3.881-4.434-4.782-6.445-7.217-5.727-8.896a1.868 1.868 0 0 1 1.074-1.042c1.138-.43 2.65.19 4.155.893l.475.223c.187.089.4.19.618.29-.582-.681-1.38-1.516-2.038-2.204-2.924-3.057-5.448-5.697-3.91-7.27 1.262-1.29 2.743-.573 3.628-.143.223.107.541.263.719.307a.866.866 0 0 0 .035-.075c.2-.471-.397-2.409-.791-3.693-.969-3.144-2.174-7.056.664-8.11 2.76-1.02 5.345 3.268 7.629 7.055zm-6.979-5.314c-1.19.44-.232 3.553.467 5.826.666 2.16 1.191 3.866.726 4.961-.24.564-.6.938-1.07 1.114-.784.29-1.545-.077-2.216-.402-.898-.436-1.171-.482-1.398-.303.073.53.99 1.667 1.994 2.786l.357.393c.536.586 1.072 1.146 1.494 1.588 2.489 2.602 3.577 3.798 3.291 4.863-.1.374-.345.668-.69.826-.812.37-1.81-.1-3.329-.818-.823-.388-2.746-1.293-3.178-1.054-.122 1.018 3.45 4.87 5.37 6.94 3.227 3.48 4.253 4.69 4.05 5.706-.322 1.616-2.368 1.348-4.346 1.092-.576-.076-1.445-.181-1.967-.179.443.711 1.97 2.232 4.872 3.773 1.808.96 7.883 3.82 12.62 1.813-.308-.767-.616-1.527-.922-2.28-1.584.179-2.834.307-4.013.307-1.653 0-3.166-.251-5.263-.976a.912.912 0 0 1-.57-1.166.936.936 0 0 1 1.182-.562c3.049 1.052 4.68.993 7.942.637a502.7 502.7 0 0 0-1.85-4.46l.304.084c-3.998-1.084-6.419-1.973-10.2-4.378a.953.953 0 0 1-.294-1.303.924.924 0 0 1 1.282-.298c3.004 1.91 5.11 2.813 7.964 3.664a466.213 466.213 0 0 0-3.321-7.63l.307.116c-3.01-1.083-5.013-2.71-8.297-5.488a.942.942 0 0 1-.115-1.318.918.918 0 0 1 1.303-.116c2.324 1.967 3.91 3.277 5.638 4.222a382.914 382.914 0 0 0-6.307-13.242.933.933 0 0 1 1.667-.836 386.848 386.848 0 0 1 6.42 13.488c.651-1.864.951-3.738 1.241-6.382.058-.513.526-.893 1.022-.825a.932.932 0 0 1 .818 1.032c-.394 3.584-.81 5.846-2.026 8.52a484.838 484.838 0 0 1 3.41 7.83c1.826-2.684 2.842-4.602 3.558-7.267a.933.933 0 0 1 1.142-.663.947.947 0 0 1 .653 1.16c-.865 3.22-2.157 5.48-4.49 8.811a553.7 553.7 0 0 1 1.891 4.553c2.502-2.188 4.337-4.633 5.748-7.616a.933.933 0 0 1 1.232-.442.91.91 0 0 1 .45 1.216c-1.619 3.422-3.753 6.185-6.69 8.652.274.674.55 1.355.827 2.042 3.709-2.52 6.146-7.325 7.229-11.21.776-2.784.66-4.342.489-4.626-.194-.15-1.292.899-1.76 1.346-.968.924-1.88 1.791-2.945 1.67a1.185 1.185 0 0 1-.81-.472c-.56-.745-.357-2.127.155-5.183.327-1.947 1.053-6.278.427-7.384-.518.592-1.37 2.173-1.91 3.174-1.473 2.73-2.236 4.05-3.348 4.05-1.397-.024-1.687-1.798-2.4-7.403-.265-2.073-.644-5.053-1.035-6.242-.269.362-.598.98-.848 1.463l-.103.197c-.783 1.514-1.523 2.945-2.787 3.012-1.108.053-1.864-1.152-3.663-4.133-1.322-2.193-4.074-6.752-5.38-6.27z" fill="#FFF"/><path d="M558.486 163.956c2.334 2.081-.258 5.441-2.342 8.14-.839 1.087-2.105 2.728-2.095 3.248.19.055.515.025.748.003 1.01-.095 2.698-.249 3.433 1.492.897 2.123-2.482 3.76-6.395 5.656-.808.39-1.774.86-2.547 1.278l.475-.038.255-.02.51-.04c1.61-.115 3.172-.125 4.065.683.406.367.631.862.651 1.432.065 1.911-2.743 3.538-8.718 6.548-1.58.796-3.638 1.833-4.541 2.462.52.202 1.363.404 1.93.54.126.03.252.06.378.092l.377.093c1.62.415 3.062.956 2.86 2.357-.167 1.167-1.56 2.155-4.138 2.939-3.035.922-7.552 1.438-11.631.57-2.402-.51-4.65-1.5-6.356-3.167a767.095 767.095 0 0 0-4.462 4.952.992.992 0 0 1-.946.311.989.989 0 0 1-.46-.237 1.023 1.023 0 0 1-.062-1.428 780.318 780.318 0 0 1 4.632-5.139c-3.756-5.282-3.883-13.646-2.687-18.194.472-1.788 1.099-2.799 1.918-3.09 1.837-.653 2.84 1.219 3.506 2.641l.13.278c.138.3.327.708.51 1.044.237-.821.497-2.102.704-3.122l.117-.574c.84-4.116 1.772-8.19 4.208-8.422 1.727-.167 2.037 2.252 2.451 5.6.11.878.255 2.056.423 2.863.731-1.107 1.828-3.177 2.621-4.67 2.88-5.43 3.924-7.17 5.269-6.974 1.534.236 1.734 2.128 1.93 3.972.071.665.181 1.708.361 2.19.662-.351 2.014-1.425 3.04-2.24l.422-.336.426-.337c3.343-2.637 6.938-5.227 9.03-3.356zm-8.658 5.61c-2.812 2.236-3.996 3.13-5.034 2.661-1.198-.536-1.376-2.2-1.563-3.964-.057-.54-.143-1.337-.266-1.85-.814 1.054-2.222 3.71-3.208 5.568-2.748 5.183-3.683 6.78-5.028 6.306-1.098-.401-1.338-1.965-1.736-5.18-.14-1.13-.36-2.897-.621-3.687-.964.936-1.872 5.417-2.237 7.214-.64 3.152-.956 4.568-1.777 5.093a1.19 1.19 0 0 1-.978.168c-1.076-.27-1.626-1.457-2.207-2.713-.271-.586-.836-1.804-1.155-1.894-.223.196-.919 1.736-1.186 4.826-.346 4.018.209 9.352 2.66 13.054a444.44 444.44 0 0 1 1.5-1.637c-1.863-3.478-2.86-6.956-3.126-10.884a1.012 1.012 0 0 1 .925-1.08.994.994 0 0 1 1.063.93c.231 3.408 1.057 6.45 2.581 9.473a604.816 604.816 0 0 1 3.655-3.907c-1.017-3.966-1.43-6.572-1.096-9.924a1.005 1.005 0 0 1 1.1-.901c.544.039.956.547.9 1.101-.272 2.73-.007 4.885.737 7.992a513.305 513.305 0 0 1 5.811-6.002c-.161-2.905.261-5.182 1.165-8.654.14-.532.694-.86 1.206-.714.527.138.842.68.704 1.213-.643 2.47-1.027 4.288-1.113 6.175 3.719-3.73 7.341-7.23 10.934-10.57a.983.983 0 0 1 1.404.06c.37.41.338 1.05-.068 1.427a396.116 396.116 0 0 0-10.92 10.558c1.997-.26 3.983-.925 6.923-1.95a.98.98 0 0 1 1.255.613 1 1 0 0 1-.614 1.266c-4.033 1.406-6.504 2.213-9.656 2.184a490.577 490.577 0 0 0-5.604 5.792c3.069.247 5.422.169 9.015-.54a1.008 1.008 0 0 1 .389 1.976c-4.428.874-7.066.846-11.165.426a516.297 516.297 0 0 0-3.546 3.789c3.056 1.588 4.498 2.197 7.79 2.287a.987.987 0 0 1 .963 1.033 1.006 1.006 0 0 1-1.026.98c-1.295-.033-2.352-.148-3.314-.352-1.943-.413-3.496-1.192-5.831-2.413-.555.602-1.113 1.21-1.675 1.825 3.64 3.602 10.294 3.15 12.307 2.914 3.378-.394 5.47-1.297 6.224-1.842-.494-.188-1.303-.382-1.844-.511l-.184-.045-.371-.09c-1.735-.432-3.463-1.005-3.197-2.562.184-1.077 1.606-1.876 5.957-4.068 2.558-1.289 7.317-3.686 7.613-4.72-.344-.313-2.45-.146-3.353-.074-1.712.14-2.844.232-3.492-.438a1.344 1.344 0 0 1-.363-1.09c.123-1.159 1.6-1.92 4.931-3.534 1.72-.833 4.865-2.358 5.355-3.157-.148-.215-.426-.26-1.376-.17-.762.071-1.628.152-2.28-.432-.393-.35-.602-.855-.622-1.5-.04-1.244 1.09-2.708 2.519-4.56 1.4-1.815 3.518-4.558 2.585-5.391-1.025-.91-5.292 2.47-7.339 4.096z" fill="#FCFDFF"/></g><g mask="url(#b)"><path d="M547.19 110.334a17.406 17.406 0 0 0-3.855-2.09l-97.873-38.196c-9.873-3.852-20.956.777-24.75 10.34l-48.75 122.822-25.897-10.107-1.297 3.27c-3.145 7.923.937 16.934 9.12 20.128l95.147 37.13a16.549 16.549 0 0 0 3.287 1.385c6.37 1.905 13.12-.274 17.02-5.195a14.96 14.96 0 0 0 2.206-3.812l3.536-8.911 8.72-21.97 11.069-27.888 10.583-26.665c2.015-5.078 3.897-10.208 5.93-15.28 2.454-6.121 6.46-11.61 12.507-14.824 5.069-2.694 10.596-4.858 16.873-5.365 2.292-.185 5.337-.098 9.135.261.812-1.66 1.35-4.782 1.215-6.593-.162-2.193-.705-4.496-1.686-6.501a16.693 16.693 0 0 0-2.241-1.94z" fill="#DDD"/><path fill="#210077" d="M422.297 208.713l41.407 16.28 6.54-16.605-41.406-16.28z"/><path d="M548.467 122.976l-27.47-10.395-52.034 131.648a15.01 15.01 0 0 1-2.202 3.814c-3.892 4.923-10.621 7.108-16.969 5.208a16.268 16.268 0 0 1-1.278-.438c-6.708-2.62-10.646-9.178-10.078-15.835l-71.65-27.988 51.66-130.293c3.792-9.563 14.843-14.202 24.68-10.359l97.52 38.094a17.28 17.28 0 0 1 3.84 2.086c5.502 3.974 7.832 10.82 5.515 16.908l-1.534-2.45z" fill="#F3F3F3"/><path d="M550 125.426l-29.523-11.533.52-1.312c1.468-3.7 4.45-6.407 8.084-7.79 2.383-.904 5.047-1.241 7.752-.917 1.416.17 2.84.524 4.239 1.07a17.28 17.28 0 0 1 3.84 2.086c5.502 3.975 7.991 10.823 5.674 16.912-.02.056-.042.114-.065.171l-.52 1.313z" fill="#FFF"/><path d="M550.52 124.113l-.52 1.313-29.523-11.533.52-1.312c1.468-3.7 4.45-6.407 8.084-7.79 2.383-.904 5.047-1.241 7.752-.917 1.416.17 2.84.524 4.239 1.07a17.28 17.28 0 0 1 3.84 2.086c5.502 3.975 7.991 10.823 5.674 16.912-.02.056-.042.114-.065.171" fill="#DDD"/><path fill-opacity=".25" fill="#39C8D0" d="M505.064 113.606l-76.82-30.008 1.46-3.681 76.82 30.007zm-88.485 45.659l-14.056-5.49c-1.048-.41-1.57-1.568-1.166-2.587l5.418-13.665c.403-1.018 1.58-1.513 2.63-1.103l14.055 5.49c1.048.41 1.57 1.568 1.166 2.587l-5.418 13.664c-.404 1.02-1.581 1.514-2.63 1.104m44.666 1.656l-26.51-10.355 1.46-3.681 26.51 10.355zm22.715 16.769l-51.935-20.287 1.46-3.682 51.935 20.288zm-2.711 6.836l-51.935-20.287 1.46-3.68 51.935 20.286zm-68.861-57.128c-1.048-.409-1.57-1.567-1.166-2.586l5.417-13.665c.404-1.018 1.582-1.513 2.63-1.103l14.056 5.49c1.048.41 1.57 1.568 1.166 2.587l-5.418 13.664c-.404 1.019-1.581 1.514-2.63 1.104l-14.055-5.49zm58.721 7.147l-26.51-10.355 1.46-3.682 26.51 10.356zm22.715 16.769l-51.935-20.287 1.46-3.682 51.934 20.287zm-2.711 6.836l-51.935-20.287 1.46-3.681 51.935 20.287z"/><path d="M411.55 145.216l2.136 8.768a.897.897 0 0 0 1.215.605l11.313-4.749a.847.847 0 0 0 .319-1.335l-2.215-2.624a.902.902 0 0 0-1.064-.236l-5.814 2.696a.9.9 0 0 1-1.196-.447l-1.703-3.855a.9.9 0 0 0-1.216-.437l-1.324.656a.844.844 0 0 0-.45.958m9.863-26.376l2.136 8.768a.897.897 0 0 0 1.215.605l11.313-4.749a.847.847 0 0 0 .319-1.336l-2.216-2.623a.902.902 0 0 0-1.063-.237l-5.814 2.697a.9.9 0 0 1-1.196-.447l-1.703-3.855a.9.9 0 0 0-1.216-.437l-1.325.656a.844.844 0 0 0-.45.958" fill-opacity=".5" fill="#8CA9DC"/><g transform="rotate(16 -504.407 1320.313)"><mask id="e" fill="#fff"><use xlink:href="#d"/></mask><path d="M103.304 17.516a14.903 14.903 0 0 1-.212-4.392l.345-3.5L.419 0 .074 3.5c-.837 8.484 5.549 16.02 14.265 16.835l103.018 9.623c-7.17-.67-12.763-5.888-14.053-12.442" fill="#FFF" mask="url(#e)"/></g><g transform="rotate(16 -504.407 1320.313)"><mask id="g" fill="#fff"><use xlink:href="#f"/></mask><path d="M103.304 17.516a14.903 14.903 0 0 1-.212-4.392l.345-3.5L.419 0 .074 3.5c-.837 8.484 5.549 16.02 14.265 16.835l103.018 9.623c-7.17-.67-12.763-5.888-14.053-12.442" fill="#A9A9A9" mask="url(#g)"/></g><path d="M407.347 183.548l-14.056-5.49c-1.048-.41-1.57-1.568-1.166-2.587l5.417-13.665c.404-1.018 1.582-1.513 2.63-1.103l14.056 5.49c1.048.41 1.57 1.567 1.166 2.587l-5.418 13.664c-.404 1.02-1.581 1.514-2.63 1.104m44.666 1.656l-26.51-10.355 1.46-3.682 26.51 10.356zm22.715 16.769l-51.935-20.287 1.46-3.682 51.934 20.287zm-2.711 6.837l-51.935-20.288 1.46-3.681 51.935 20.287z" fill="#39C8D0" fill-opacity=".25"/><path d="M402.318 169.5l2.136 8.767a.897.897 0 0 0 1.215.605l11.313-4.749a.847.847 0 0 0 .319-1.336l-2.216-2.623a.902.902 0 0 0-1.063-.237l-5.814 2.697a.9.9 0 0 1-1.196-.447l-1.703-3.855a.9.9 0 0 0-1.216-.437l-1.325.656a.844.844 0 0 0-.45.958" fill-opacity=".5" fill="#8CA9DC"/><path d="M141.752 146.817c-12.153-4.955-24.925-7.446-33.055-8.638-.278-.03-.58-.075-.908-.13l-.14-.02c-6.018-.989 4.928 3.488 5.883 7.33 3.615 10.768.986 29.312 17.875 37.309 16.265 7.702 31.085.282 38.668-5.29 6.57-4.83 2.142-10.285.948-11.559-5.787-5.836-16.683-13.87-29.271-19.002z" fill="#AA8B72"/><path d="M223.58 214.873c-5.07 0-9.885-2.62-14.056-7.688-3.46-4.203-5.281-8.65-5.357-8.837a2.714 2.714 0 0 1 1.505-3.536 2.725 2.725 0 0 1 3.544 1.498c.084.203 6.164 14.734 16.065 12.977a2.725 2.725 0 0 1 3.158 2.2 2.718 2.718 0 0 1-2.205 3.149 15.19 15.19 0 0 1-2.655.237m3.753-17.7a20.971 20.971 0 0 1-3.03-.84c-9.157-3.3-13.092-11.966-13.256-12.333a2.715 2.715 0 0 1 1.388-3.584 2.726 2.726 0 0 1 3.59 1.377c.058.128 3.25 6.98 10.18 9.447 4.721 1.682 10.21 1 16.312-2.023a2.727 2.727 0 0 1 3.651 1.224 2.714 2.714 0 0 1-1.227 3.642c-6.306 3.124-12.214 4.158-17.608 3.09" fill="#F7C449"/><path d="M241.505 196.91c1.449 2.721 4.847 3.76 7.576 2.315.698-.37.962-1.234.592-1.929l-3.913-7.351a1.43 1.43 0 0 0-1.933-.591 5.587 5.587 0 0 0-2.322 7.555" fill="#F7C449"/><path d="M172.247 94.462c-6.533.855-12.957 2.667-18.999 5.287-2.568 1.113-5.414 2.173-7.29 4.347-2.228 2.582 1.451 2.898 3.389 2.886 2.288-.014 5.062-.332 7.186-.632 0 0 1.136-.044.11.401l-.008.004c-7.432 2.954-12.879 10.788-15.74 17.81-3.357 8.24-5.338 17.654-5.273 26.558.136 18.338 6.293 36.563 19.63 49.683 11.936 11.742 27.832 14.903 43.981 11.8a46.326 46.326 0 0 0 2.99-.677c.038-.01.073-.022.11-.032a44.232 44.232 0 0 0 3.032-.957c15.496-5.496 27.588-16.26 31.905-32.418 6.02-22.535-1.773-46.534-16.297-64.186a62.63 62.63 0 0 0-1.05-1.242C209.434 101.01 195.029 94 179.283 94c-2.32 0-4.666.151-7.035.462" fill="#CEAC7C"/><path d="M157.475 143.715c-.287-1.046-1.9-1.515-3.605-1.05-1.704.464-2.853 1.689-2.566 2.733.286 1.046 1.9 1.516 3.604 1.05 1.704-.464 2.853-1.688 2.567-2.733m51.133-17.168c-.286-1.046-1.899-1.515-3.604-1.05-1.704.465-2.853 1.689-2.567 2.734.287 1.045 1.9 1.515 3.605 1.05 1.705-.465 2.853-1.689 2.566-2.734" fill="#DB748A"/><path d="M186.448 139.51c1.887 5.1 1.614 9.9-.609 10.717-2.223.819-5.554-2.655-7.44-7.756-1.887-5.101-1.615-9.9.608-10.718 2.223-.819 5.554 2.655 7.441 7.756" fill="#70422B"/><path d="M185.394 134.985c.45-.324.707-.875.65-1.436-.065-.627-.463-1.023-.932-1.396a6.714 6.714 0 0 0-9.618 1.293c-.768 1.058-1.45 2.522-1.24 3.863.043.274.151.546.349.742.223.221.542.324.855.346.717.05 1.522-.136 2.229-.26.766-.134 1.525-.31 2.272-.528a18.092 18.092 0 0 0 4.755-2.158c.14-.092.291-.178.42-.283l.046-.032.214-.151m-5.174 13.397a1.384 1.384 0 0 0-.565 1.258c.058.549.408.893.819 1.218a5.938 5.938 0 0 0 3.294 1.261 5.874 5.874 0 0 0 5.117-2.42c.668-.928 1.26-2.212 1.072-3.384-.039-.24-.133-.478-.307-.648-.196-.193-.475-.283-.75-.3-.626-.042-1.33.123-1.948.233-.67.12-1.334.275-1.986.47a15.847 15.847 0 0 0-4.153 1.902c-.123.08-.254.156-.368.248l-.04.029c-.062.043-.124.088-.186.133" fill="#FFC31B"/><g transform="rotate(-16 510.308 -600.335)"><mask id="i" fill="#fff"><use xlink:href="#h"/></mask><path d="M10.357 9.198c1.28-1.225 1.973-2.97 1.488-4.897C11.04 1.103 7.233-.625 4.02.208-.89 1.481-1.344 7.801 2.88 10.22c2.52 1.443 5.618.758 7.476-1.022" fill="#70422B" mask="url(#i)"/></g><path d="M191.014 119.39a1.5 1.5 0 1 1-2.883.827 1.5 1.5 0 0 1 2.883-.827" fill="#FFF"/><path d="M191.014 119.39a1.5 1.5 0 1 1-2.883.827 1.5 1.5 0 0 1 2.883-.827z" stroke="#FFF"/><path d="M162.643 134.287c-.138.04-.279.059-.418.057-.068 0-.704.003-1.545.072-1.923.158-3.623.708-5.052 1.632-.634.41-1.48.272-1.89-.305-.412-.578-.233-1.379.4-1.788a12.977 12.977 0 0 1 3.95-1.694c-.415-.11-.855-.197-1.318-.261-2.29-.317-4.183-.348-5.63-.092-.747.132-1.442-.325-1.553-1.022-.111-.695.405-1.37 1.151-1.498 1.773-.314 3.91-.29 6.536.074 2.406.332 4.367 1.179 5.834 2.516.284.156.464.416.534.837.093.552-.213 1.111-.753 1.377-.08.04-.163.071-.246.095" fill="#70422B"/><path d="M238.984 156.22l-22.393.29-8.177-.327s-.818 6.852 8.668 9.298c6.888 1.777 16.528.974 22.174-.036a64.99 64.99 0 0 0-.272-9.225" fill="#A07A72"/><g transform="translate(208.295 107.219)"><mask id="k" fill="#fff"><use xlink:href="#j"/></mask><path d="M.773 45.1c3.16-6.89 10.051-17.3 19.332-25.732 8.958-8.14 19.239-14.34 25.907-17.945.23-.114.479-.248.745-.4.039-.02.076-.04.114-.062 4.903-2.76 6.407.942 6.8 4.575.291 10.478-1.102 29.363-13.199 41.638-11.65 11.822-26.857 10.078-35.201 7.647-7.231-2.109-5.128-8.238-4.498-9.72" fill="#AA8B72" mask="url(#k)"/></g><path d="M102.149 88.053l-11.126 3.242 26.71 85.543c3.686-1.015 7.36-2.21 11.139-3.202l-26.723-85.583z" fill="#FFC31B"/><path d="M129.539 184.713c1.275-1.235 1.825-3.095 1.265-4.89l-1.932-6.187c-2.593.68-5.136 1.456-7.668 2.204 1.378 3.997 4.17 8.165 8.335 8.873" fill="#DB748A"/><path d="M125.986 186.354l1.444-.422a5.048 5.048 0 0 0 2.109-1.219c-4.165-.708-6.957-4.877-8.335-8.873a189.9 189.9 0 0 1-3.471.998l1.945 6.228c.81 2.595 3.634 4.066 6.308 3.288" fill="#C75C8A"/><g transform="translate(91.023 90.467)"><mask id="m" fill="#fff"><use xlink:href="#l"/></mask><path d="M30.3 85.338l.053-.015L2.845 0 0 .829 26.71 86.37l3.59-1.033z" fill="#E5AC33" mask="url(#m)"/></g><path d="M96.414 81.243l-3.099-3.681-.018.108c.17 1.502.269 2.992.331 4.475.927-.306 1.855-.611 2.786-.902" fill="#7E7E7E"/><path d="M93.628 82.146a63.584 63.584 0 0 0-.33-4.476l-.81 4.852 1.14-.376" fill="#A9A9A9"/><path d="M102.149 88.053l-5.735-6.81c-.931.29-1.858.596-2.786.903.118 2.78.116 5.54.239 8.32l8.282-2.413z" fill="#F7DEAA"/><g transform="translate(91.023 82.146)"><mask id="o" fill="#fff"><use xlink:href="#n"/></mask><path d="M2.606 0c-.38.126-.76.25-1.141.377L0 9.15l2.845-.829C2.72 5.541 2.723 2.78 2.605 0" fill="#FCC495" mask="url(#o)"/></g><path d="M129.41 175.995l-10.747 3.211a.296.296 0 0 1-.368-.191l-.926-2.966a.288.288 0 0 1 .19-.358l10.669-3.458a.297.297 0 0 1 .374.19l1.004 3.213a.287.287 0 0 1-.196.36" fill="#F6DEF8"/><path d="M120.985 174.58l-3.427 1.111a.286.286 0 0 0-.19.358l.927 2.965a.296.296 0 0 0 .368.192l3.471-1.037-1.149-3.588z" fill="#EAC7ED"/><path d="M105.852 136.875c1.907-2.33 6.19-.397 9.665 4.115 3.375 5.133 3.91 10.116 3.91 14.985 0 5.806-1.8 8.635-5.082 10.078-3.459 0-8.134-3.303-9.748-11.364-1.614-8.06 0-15.295 1.255-17.814z" fill="#AA8B72"/></g><g mask="url(#b)"><path d="M346.099 12.626c1.201-.908 2.676-1.11 4.155-.572 3.132 1.143 4.775 6.923 5.023 17.67.038 1.641.294 2.294.422 2.521.22-.094.597-.35.874-.649.156-.18 3.844-4.434 6.078-7.7 1.921-2.812 1.777-7.103 1.7-9.406a45.68 45.68 0 0 1-.018-.583c-.044-1.706.384-5.104 2.26-7.017.859-.875 1.893-1.328 3.076-1.35 3.522-.047 4.794 3.864 4.982 6.183a1.4 1.4 0 0 1 .003.173c0 .016-.071 1.663-.019 7.044.022 2.315.591 2.74.594 2.742a.482.482 0 0 0 .229-.039c.084-.048.173-.087.26-.115.031-.01 3.262-1.065 5.816-1.745 2.31-.615 4.142-.43 5.442.55 1.238.933 1.854 2.484 1.831 4.61-.05 4.575-4.706 5.685-8.449 6.577-.86.205-1.672.398-2.41.622-3.587 1.086-8.902 6.293-10.47 9.116-1.705 3.069-7.616 12.559-7.867 12.961a1.446 1.446 0 0 1-1.954.465 1.387 1.387 0 0 1-.669-1.017l-11.607-4.823a1.45 1.45 0 0 1-.917.279c-.784-.036-1.392-.687-1.356-1.451.02-.439.07-1.126.135-2.016.315-4.292.968-13.224.162-20.707-.67-6.223.261-10.485 2.694-12.323m-120.62 5.012c.176-2.12.935-3.608 2.254-4.427 1.387-.86 3.229-.88 5.47-.062 2.483.905 5.599 2.244 5.625 2.255.075.032.148.07.23.126a.54.54 0 0 0 .243.075c.006-.003.612-.373.852-2.68.557-5.353.641-7 .642-7.015.002-.058.009-.116.018-.169.4-2.3 2.012-6.087 5.543-5.716 1.174.127 2.162.671 2.934 1.619 1.69 2.072 1.797 5.494 1.594 7.189-.02.175-.045.369-.072.579-.293 2.288-.839 6.547.81 9.518 1.87 3.365 4.972 7.71 5.312 8.184.26.34.619.635.83.75.15-.215.465-.843.656-2.472 1.253-10.68 3.43-16.288 6.658-17.147 1.521-.405 2.971-.071 4.083.94 2.25 2.048 2.779 6.375 1.529 12.512-1.505 7.38-1.69 16.333-1.78 20.64a91.395 91.395 0 0 1-.054 2.014c-.035.765-.702 1.358-1.485 1.323a1.438 1.438 0 0 1-.887-.359l-12.012 3.767c-.09.404-.361.763-.76.954a1.45 1.45 0 0 1-.69.139 1.423 1.423 0 0 1-1.213-.777c-.212-.422-5.205-10.394-6.62-13.61-1.296-2.95-6.101-8.61-9.571-10.012-.716-.289-1.506-.554-2.342-.834-3.643-1.222-8.177-2.743-7.797-7.304" fill="#854C37"/><g transform="matrix(-1 0 0 1 403.36 29.648)"><mask id="r" fill="#fff"><use xlink:href="#p"/></mask><path d="M37.266 14.497c-6.755 3.022-13.59 5.942-19.947 9.723-5.507 3.275-11.003 7.143-14.533 12.523-1.343 2.047-2.7 4.613-2.783 7.092-.28 8.259 23.02-2.11 25.508-3.255 5.574-2.566 8.088-2.246 6.833 1.32-3.042 8.645-5.23 17.727-7.47 26.6-1.882 7.454-3.463 14.975-5.264 22.447-1.529 6.337-2.595 12.776-3.372 19.24-2.399 19.948-2.081 40.197.324 60.165H191.97c1.203-22.68-.19-45.588-5.001-67.8-1.38-6.368-3.045-12.685-5.16-18.86-2.495-7.28-4.774-14.628-7.347-21.883-3.061-8.635-6.09-17.484-9.929-25.82-1.584-3.44.889-3.983 6.68-1.925 2.585.917 26.76 9.163 25.707.965-.316-2.462-1.907-4.896-3.437-6.815-4.018-5.043-9.854-8.403-15.645-11.173-6.685-3.198-13.764-5.495-20.774-7.902C140.917 3.596 123.9.464 106.784.044 105.598.014 104.413 0 103.227 0c-22.691 0-45.38 5.288-65.961 14.497" fill="url(#q)" mask="url(#r)"/></g><g transform="matrix(-1 0 0 1 388.727 164.569)"><mask id="t" fill="#fff"><use xlink:href="#s"/></mask><path d="M0 7.916c.167 9.194.83 18.383 1.93 27.515h175.406c.625-11.792.549-23.645-.345-35.431L0 7.916z" mask="url(#t)"/></g><g transform="matrix(-1 0 0 1 370.688 60.76)"><mask id="w" fill="#fff"><use xlink:href="#u"/></mask><path d="M83.244 8.096c-2.395 4.038-3.535 8.688-4.336 13.313-1.177 6.791-1.625 15.643-10.144 16.525-.497.051-.98.054-1.454.036v-.019c-.043.007-.088.009-.13.015-.043-.001-.087 0-.13-.002v.018c-.47.06-.95.1-1.451.094-8.566-.118-9.841-8.894-11.65-15.55-1.23-4.535-2.801-9.063-5.565-12.87-4.367-6.019-11.508-8.4-18.492-5.947-12.1 4.25-18.604 20.342-21.505 31.67C4.614 50.106 2.58 65.447 1.394 80.75a528.95 528.95 0 0 0-1.05 17.733c-.592 13.486-.785 27.706 2.536 40.758h136.564c3.806-15.017 2.103-31.51-.039-46.977a530.34 530.34 0 0 0-2.708-17.565c-2.615-15.132-6.076-30.227-11.212-44.556C121.534 19.12 113.549 3.676 101.102.524A16.806 16.806 0 0 0 96.972 0C91.36 0 86.296 2.952 83.245 8.096" fill="url(#v)" mask="url(#w)"/></g><path d="M300.933 85.787c1.446-.072 2.907.034 4.343.201 1.368.159 2.72.432 4.043.807 2.28.646 5.945 2.122 4.827 5.149-1.236 2.969-3.04 5.44-6.127 6.427l.005.008s-.088.026-.237.065a10.02 10.02 0 0 1-2.152.36 16.045 16.045 0 0 1-4.469-.212c-4.144-.688-6.222-3.406-7.428-6.793a4.246 4.246 0 0 1-.06-.177c-.01-.026-.018-.055-.028-.083-1.41-4.128 4.224-5.601 7.283-5.752" fill="#70422B"/><path d="M336.565 103.234c-.051 1.09 2.442 2.088 5.57 2.228 3.126.139 5.703-.631 5.754-1.721.05-1.09-2.442-2.087-5.57-2.227-3.127-.14-5.703.63-5.754 1.72m-77.686-4.216c-.108 1.086 2.331 2.204 5.447 2.498 3.116.293 5.729-.349 5.836-1.436.108-1.086-2.331-2.205-5.447-2.497-3.116-.294-5.729.349-5.836 1.435m63.177 11.417c-1.836-3.323-35.685-6.372-38.99-3.43-3.305 2.944 2.344 17.528 18.326 20.49 15.982 2.964 23.052-12.738 20.664-17.06" fill="#DB748A"/><path d="M296.422 114.813c-3.527.868-6.76 2.582-9.875 4.43-4.31-4.977-5.386-10.54-3.481-12.237 3.304-2.944 37.154.106 38.99 3.43 1.213 2.194-.014 7.32-3.605 11.448-5.27-6.011-14.12-9.02-22.03-7.071" fill="#854C37"/><g transform="matrix(-1 0 0 1 211.504 190.76)"><mask id="y" fill="#fff"><use xlink:href="#x"/></mask><path d="M.253.002a591.978 591.978 0 0 1-.236 11.392C.151 7.6.245 3.803.29 0L.253.002" fill="#F4CCA9" mask="url(#y)"/></g><g transform="matrix(-1 0 0 1 387.177 195.872)"><mask id="A" fill="#fff"><use xlink:href="#z"/></mask><path d="M.062 0c.377 3.324.866 7.267 1.457 11.31A293.076 293.076 0 0 1 0 .003C.02.001.041.003.062 0" fill="#F4CCA9" mask="url(#A)"/></g><path d="M294.74 41.746l.05-.122c.72-1.637 2.155-2.829 3.696-3.716 1.83-1.053 3.839-1.919 5.936-2.301 2.233-.408 4.539-.24 6.74.263 1.236.283 2.445.67 3.621 1.132.91.358 1.785.777 2.599 1.316.754.5 1.421 1.082 2.048 1.726 1.532 1.577 2.693 3.726 1.38 5.813-1.102 1.752-3.607 2.388-5.426 1.358-1.463-.828-2.894-2.652-3.311-4.395l-.183.002c-.224 1.294-1.032 2.759-1.707 3.72-.89 1.269-2.194 2.297-3.777 2.56a5.607 5.607 0 0 1-1.769.012c-3.89-.77-3.007-4.36-3.007-4.36s-2.119 2.145-4.803 1.288c-.4-.177-.77-.404-1.079-.676-1.019-.9-1.498-2.35-1.008-3.62" fill="#985C37"/><path d="M377.27 175.774c5.07-5.663 10.728-10.396 16.922-14.815 2.946-2.102 5.754-4.38 8.587-6.623 9.102-7.207 17.61-15.169 25.037-24.031 7.433-8.87 13.75-18.648 18.403-29.18a90.551 90.551 0 0 0 3.15-8.168l4.253-11.393c.672-1.801-.985-1.355-1.512-1.174l-.158.057-3.67 1.336-1.577-3.271c-.986-2.046-1.87-1.077-2.31-.32-1.382 2.855-2.732 5.742-4.317 8.482a68.886 68.886 0 0 1-4.328 6.543c-4.246 5.722-9.226 10.911-14.517 15.72-7.44 6.765-17.929 12.382-28.26 12.778-2.323.09-6.692.174-8.513-1.502-1.465-1.347-1.855-4.589-2.241-6.42" fill="#B26937"/><path d="M450.786 89.248l2.863-7.672c.672-1.8-.985-1.354-1.512-1.174l-.158.058-3.67 1.336-1.576-3.27c-.987-2.047-1.871-1.079-2.31-.321-1.171 2.42-2.329 4.856-3.617 7.212 4.808.461 8.164 2.438 9.98 3.83M308.957 144.32c.446.356.701.851.72 1.397.062 1.78-1.726 5.682-2.085 6.447-.08.169-.131.261-.282.375-.004.007-.81.876-.069 3.053 1.11 3.26 2.55 15.694 2.44 19.68-.066 2.402-.499 10.39-3.291 12.37-.805.57-2.273 1.566-3.756 2.55l-.593.392c-1.672 1.104-3.252 2.12-3.798 2.414-.52.28-1.265.684-2.136.722-.322.014-.66-.02-1.012-.13-.968-.302-1.745-1.071-2.376-2.354-.256-.52-.52-1.077-.78-1.639l-.222-.481a170.892 170.892 0 0 1-1.92-4.367c-.1-.257-.778-2.26 1.085-4.863 1.57-2.193 6.97-12.236 7.964-17.313.441-2.25.837-4.247 1.146-5.803l.106-.53.144-.722.086-.43.275-1.375c-.24-.489-.861-1.616-2.12-3.097-1.744-2.051-1.757-3.515-1.461-4.38.236-.693.862-1.597 2.506-1.98 1.964-.458 3.427-.452 3.902-.434 1.328-.212 4.238-.526 5.527.499z" fill="#854C37"/><path d="M338.627 90.017c1.948-1.24 3.309-3.303 3.25-5.91-.099-4.326-4.367-7.549-8.618-7.322-6.499.347-8.863 8.359-4.268 12.58 2.741 2.52 6.807 2.453 9.636.652" fill="#70422B"/><path d="M330.252 80.836c.221-1.004 1.231-1.64 2.254-1.425 1.025.216 1.68 1.205 1.457 2.21-.222 1.004-1.231 1.64-2.254 1.425-1.025-.215-1.679-1.204-1.457-2.21z" fill="#FFF" fill-rule="nonzero"/><path d="M280.055 84.15c1.947-1.24 3.308-3.303 3.249-5.91-.098-4.326-4.366-7.55-8.618-7.322-6.499.347-8.862 8.359-4.268 12.58 2.742 2.52 6.807 2.453 9.637.652" fill="#70422B"/><path d="M271.68 74.97c.22-1.005 1.23-1.641 2.254-1.426 1.025.216 1.679 1.205 1.456 2.21-.221 1.004-1.231 1.64-2.253 1.425-1.025-.215-1.68-1.204-1.457-2.21z" fill="#FFF"/><g transform="matrix(-1 0 0 1 272.614 181.108)"><mask id="C" fill="#fff"><use xlink:href="#B"/></mask><path d="M33.083 18.651C23.001 15.622 7.182 9.177 3.553 7.577-.957 5.589.11 3.123.11 3.123l5.26-.231L7.1 0l10.796 1.29 24.476 6.066 2.958.733c-.14 4.351-.532 8.667-1.304 12.879a50.458 50.458 0 0 1-2.177-.319 67.646 67.646 0 0 1-1.854-.341c-.157-.056-.427-.113-.837-.172a104.693 104.693 0 0 1-6.075-1.485" fill="#DCBCA9" mask="url(#C)"/></g><g transform="matrix(-1 0 0 1 228.588 189.197)"><mask id="E" fill="#fff"><use xlink:href="#D"/></mask><path d="M5.692 1.087l11.761 6.578s-1.67 7.06-17.156 5.253c-.097-.012-.2-.027-.297-.04C.772 8.669 1.164 4.353 1.304 0l4.388 1.087z" fill="#985C37" mask="url(#E)"/></g><path d="M263.315 184.798l-2.454-8.899h-.653l-.001-.04c-7.01.933-16.34 1.133-25.521-1.841-2.98-1.293-5.32-3.119-6.566-5.655a17.923 17.923 0 0 1-.583-4.087l-2.956-57.791c-3.295 10.998-8.861 23.524-8.861 23.524l-10.373 21.033s-6.452 12.173-6.336 24.19c-.047 1.103-.812 26.238 26.242 23.114 3.215-.37 6.817-1.136 10.865-2.393l19.947-6.196c2.71-.84 5.029-1.561 7.018-2.179a7.5 7.5 0 0 1-.476-.706l.708-2.074z" fill="#B26937"/><path d="M260.075 175.852l9.716-1.155c2.281-.27 1.32 1.454.97 1.993l-.109.16-2.531 3.73 3.402 2.621c2.128 1.638.763 2.365-.238 2.654-3.135.663-6.286 1.305-9.38 2.114.735-5.471-.685-9.728-1.83-12.117" fill="#854C37"/></g></g></svg>