<svg width="597" height="276" xmlns="http://www.w3.org/2000/svg"><g fill="none" fill-rule="evenodd"><path d="M422.681 27.308c-5.803 2.62-7.986 5.657-7.922 13.139l-7.63-3.514c1.303-7.29 6.348-11.655 12.132-12.209l3.42 2.584zM237.598 260.354c.105 4.665 1.529 7.008 6.596 9.11l-4.558 4.14c-4.546-2.969-6.045-7.623-4.761-11.684l2.723-1.566zM539.846 58.759c1.04 4.647 2.934 6.706 8.426 7.793l-3.73 5.056c-5.144-2.06-7.577-6.415-7.107-10.735l2.41-2.114zm-71.689 209.679c.612 2.735 1.728 3.947 4.959 4.586L470.92 276c-3.027-1.212-4.46-3.776-4.183-6.318l1.42-1.244zM91.194 178.303c-1.475 2.496-1.491 4.2.494 6.97l-3.764.691c-1.425-3.057-.69-6.005 1.319-7.728l1.951.067zm483.191 67.995c-2.051 3.472-2.074 5.84.686 9.693l-5.233.961c-1.983-4.251-.96-8.35 1.834-10.746l2.713.092zM268.237 67.694c-1.475 2.497-1.491 4.2.494 6.97l-3.764.692c-1.425-3.058-.69-6.005 1.319-7.728l1.951.066zm278.911 120.12c-.38 4.288.687 6.58 5.118 9.023l-4.6 3.331c-3.864-3.184-4.765-7.603-3.175-11.195l2.657-1.159z" fill-opacity=".3" fill="#92CF53"/><path d="M241.948 22.252c3.54 1.73 5.848 1.572 9.388-1.412l1.338 5.022c-3.99 2.256-8.06 1.576-10.607-.96l-.119-2.65zM448.019 90.68c2.311 3.19 4.425 4.134 8.951 3.162l-1.176 5.061c-4.582.12-7.856-2.392-8.914-5.828l1.139-2.394zm-112.398 82.964c3.54 1.73 5.848 1.572 9.388-1.412l1.338 5.022c-3.989 2.257-8.06 1.576-10.607-.96l-.119-2.65zm242.197-55.566c3.938-.096 5.914-1.302 7.68-5.581l3.502 3.839c-2.499 3.841-6.425 5.115-9.855 4.038l-1.327-2.296zM4.45 123.542c3.596 5.148 6.938 6.71 14.18 5.287l-2.017 8.034c-7.305.063-12.454-4.03-14.045-9.536l1.882-3.785zm168.226 81.736c2.883-.89 4.088-2.188 4.499-5.709l3.38 2.101c-1.043 3.35-3.672 5.105-6.424 5.024l-1.455-1.416z" fill-opacity=".4" fill="#FFC31B"/><path d="M118.378 37.507c2.698 4.654 5.255 7.29 11.176 10.134l-4.176 3.834c-6.76-2.425-8.85-5.58-11.807-9.718l4.807-4.25zm-40.436 153.67c1.7 2.93 3.31 4.59 7.04 6.382l-2.63 2.415c-4.259-1.527-5.574-3.514-7.438-6.12l3.028-2.677zm66.528-76.082c2.797 1.912 4.966 2.716 9.103 2.725l-1.331 3.312c-4.5.458-6.545-.768-9.35-2.317l1.579-3.72zM471.521 230.43c1.699 2.931 3.31 4.591 7.039 6.382l-2.63 2.415c-4.258-1.527-5.574-3.513-7.437-6.12l3.028-2.677zm1.109-91.154c3.108-1.352 4.941-2.761 7.148-6.26l2.098 2.889c-2.005 4.054-4.13 5.133-6.933 6.685l-2.312-3.314zM309.27 0c3.368 2.639 6.035 3.83 11.248 4.18l-1.95 4.064c-5.708.208-8.184-1.504-11.59-3.686L309.27 0zm-54.69 102.893c2.638 2.127 4.736 3.1 8.86 3.435l-1.59 3.197c-4.522.1-6.463-1.282-9.136-3.048l1.867-3.584zm105.533 32.075c2.484-1.08 3.95-2.208 5.715-5.005l1.677 2.31c-1.603 3.241-3.302 4.104-5.543 5.344l-1.849-2.65zm225.065 59.016c2.822 4.868 5.497 7.625 11.69 10.6l-4.367 4.011c-7.073-2.536-9.258-5.836-12.352-10.166l5.029-4.445z" fill-opacity=".2" fill="#39C8D0"/><path d="M260.593 197.079c3.444-.241 5.686-.97 8.998-3.58l1.031 3.488c-3.306 3.213-5.715 3.526-8.936 4.063l-1.093-3.971zM32.998 251.652c2.626-2.243 3.994-4.163 5.102-8.23l2.906 2.191c-.747 4.549-2.496 6.233-4.767 8.58L33 251.652zm327.52-147.955c3.059 1.601 5.35 2.156 9.539 1.67l-.952 3.512c-4.5 1-6.716.004-9.74-1.228l1.153-3.954zM415.45 233.44c3.06 1.6 5.35 2.155 9.539 1.67l-.952 3.511c-4.5 1.001-6.716.005-9.74-1.228l1.153-3.953zM95.838 88.288c3.44-.213 5.674-.906 8.965-3.415l1.052 3.387c-3.283 3.093-5.687 3.382-8.901 3.882l-1.116-3.854zM201.46 41.769c-.625-2.948-1.512-4.793-4.107-7.318l2.797-1.346c3.099 2.443 3.658 4.486 4.504 7.203l-3.193 1.46z" fill="#FFEEDF"/></g></svg>