<svg xmlns="http://www.w3.org/2000/svg" width="116" height="40" viewBox="0 0 116 40">
    <g fill="none" fill-rule="evenodd">
        <g fill-rule="nonzero">
            <g>
                <g>
                    <path fill="#292929" fill-opacity=".5" d="M58 40c26.302 0 48.756-16.338 57.86-39.4H.14C9.244 23.662 31.7 40 58 40" transform="translate(-122 -161) translate(120 81) translate(2 80)"/>
                    <path fill="#FFF" d="M58 28.096c-3.56-.005-6.444-2.89-6.449-6.45.004-3.56 2.889-6.446 6.449-6.45 3.556 0 6.449 2.893 6.449 6.45 0 3.556-2.893 6.45-6.449 6.45m9.973-15.854H65.21v-1.609c-.005-1.159-.943-2.097-2.102-2.102H52.893c-1.159.005-2.097.943-2.102 2.102v1.61h-2.764c-1.85 0-3.36 1.51-3.36 3.357v11.996c0 1.848 1.51 3.36 3.36 3.36h19.946c1.85 0 3.36-1.512 3.36-3.36V15.6c0-1.844-1.51-3.356-3.36-3.356" transform="translate(-122 -161) translate(120 81) translate(2 80)"/>
                    <path fill="#FFF" d="M58 18.089c-1.962 0-3.56 1.593-3.56 3.558 0 1.962 1.598 3.557 3.56 3.557s3.56-1.595 3.56-3.555c0-1.967-1.6-3.562-3.56-3.562" transform="translate(-122 -161) translate(120 81) translate(2 80)"/>
                </g>
            </g>
        </g>
    </g>
</svg>
