<?xml version="1.0" encoding="UTF-8"?>
<svg width="384px" height="784px" viewBox="0 0 384 784" version="1.1" xmlns="http://www.w3.org/2000/svg" xmlns:xlink="http://www.w3.org/1999/xlink">
    <!-- Generator: Sketch 52.2 (67145) - http://www.bohemiancoding.com/sketch -->
    <title>mockup_iphone</title>
    <desc>Created with Sketch.</desc>
    <defs>
        <path d="M51.277704,-2.07168062e-15 L308.722296,2.07168062e-15 C326.552671,-1.2037061e-15 333.018396,1.85651222 339.536914,5.34265408 C346.055433,8.82879593 351.171204,13.9445674 354.657346,20.4630859 C358.143488,26.9816044 360,33.4473292 360,51.277704 L360,708.722296 C360,726.552671 358.143488,733.018396 354.657346,739.536914 C351.171204,746.055433 346.055433,751.171204 339.536914,754.657346 C333.018396,758.143488 326.552671,760 308.722296,760 L51.277704,760 C33.4473292,760 26.9816044,758.143488 20.4630859,754.657346 C13.9445674,751.171204 8.82879593,746.055433 5.34265408,739.536914 C1.85651222,733.018396 8.02470732e-16,726.552671 -1.38112041e-15,708.722296 L1.38112041e-15,51.277704 C-8.02470732e-16,33.4473292 1.85651222,26.9816044 5.34265408,20.4630859 C8.82879593,13.9445674 13.9445674,8.82879593 20.4630859,5.34265408 C26.9816044,1.85651222 33.4473292,1.2037061e-15 51.277704,-2.07168062e-15 Z" id="path-1"></path>
        <filter x="-5.3%" y="-2.2%" width="110.6%" height="105.0%" filterUnits="objectBoundingBox" id="filter-2">
            <feOffset dx="0" dy="2" in="SourceAlpha" result="shadowOffsetOuter1"></feOffset>
            <feGaussianBlur stdDeviation="6" in="shadowOffsetOuter1" result="shadowBlurOuter1"></feGaussianBlur>
            <feColorMatrix values="0 0 0 0 0.662745098   0 0 0 0 0.662745098   0 0 0 0 0.662745098  0 0 0 0.5 0" type="matrix" in="shadowBlurOuter1"></feColorMatrix>
        </filter>
    </defs>
    <g id="手機版0808" stroke="none" stroke-width="1" fill="none" fill-rule="evenodd">
        <g id="final_preview_mobile" transform="translate(-308.000000, -124.000000)">
            <g id="mockup_iphone" transform="translate(320.000000, 134.000000)">
                <g id="Outer_Body">
                    <use fill="black" fill-opacity="1" filter="url(#filter-2)" xlink:href="#path-1"></use>
                    <use fill="#FFFFFF" fill-rule="evenodd" xlink:href="#path-1"></use>
                </g>
                <path d="M180,745 C192.150264,745 202,735.150264 202,723 C202,710.849736 192.150264,701 180,701 C167.849736,701 158,710.849736 158,723 C158,735.150264 167.849736,745 180,745 Z" id="home" stroke="#DDDDDD"></path>
                <polygon id="Line-14" fill="#DDDDDD" fill-rule="nonzero" points="0 686 0 685 360 685 360 686"></polygon>
                <g id="Group-8" transform="translate(154.000000, 20.000000)" fill="#DDDDDD">
                    <circle id="Oval" cx="2.5" cy="2.5" r="2.5"></circle>
                    <path d="M16,0.5 L50,0.5 C51.1045695,0.5 52,1.3954305 52,2.5 L52,2.5 C52,3.6045695 51.1045695,4.5 50,4.5 L16,4.5 C14.8954305,4.5 14,3.6045695 14,2.5 L14,2.5 C14,1.3954305 14.8954305,0.5 16,0.5 Z" id="Rectangle-2"></path>
                </g>
            </g>
        </g>
    </g>
</svg>