<svg xmlns="http://www.w3.org/2000/svg" width="326" height="53" viewBox="0 0 326 53">
    <defs>
        <linearGradient id="a" x1="50%" x2="50%" y1="0%" y2="100%">
            <stop offset="0%" stop-color="#FFD6B2" stop-opacity=".7"/>
            <stop offset="100%" stop-color="#FFEEDF" stop-opacity=".251"/>
        </linearGradient>
    </defs>
    <g fill="none" fill-rule="evenodd">
        <g>
            <circle cx="15" cy="15" r="15" fill="url(#a)"/>
            <circle cx="15" cy="15" r="12" fill="#39C8D0" fill-opacity=".9"/>
            <path fill="#FFF" d="M15.426 21.148c-.508 0-.86-.359-.86-.89V11.5h-.039l-1.945 1.36a.834.834 0 0 1-.523.18c-.383 0-.657-.274-.657-.673 0-.289.11-.492.438-.719l2.344-1.664c.476-.336.734-.406 1.109-.406.617 0 .984.367.984.977v9.703c0 .531-.351.89-.851.89z"/>
        </g>
        <g transform="translate(141)">
            <circle cx="15" cy="15" r="15" fill="url(#a)"/>
            <circle cx="15" cy="15" r="12" fill="#39C8D0" fill-opacity=".9"/>
            <path fill="#FFF" d="M12.04 20.5c-.532 0-.83-.297-.83-.734 0-.344.102-.532.485-.914l3.524-3.563c1.469-1.5 1.828-2.078 1.828-2.976 0-1.07-.828-1.852-1.961-1.852-1.11 0-1.875.57-2.266 1.672-.156.351-.36.562-.789.562-.492 0-.773-.304-.773-.742 0-.133.015-.25.047-.367.242-1.188 1.547-2.57 3.789-2.57 2.156 0 3.68 1.328 3.68 3.187 0 1.281-.602 2.188-2.5 4.086l-2.688 2.695v.04h4.68c.476 0 .773.296.773.742 0 .437-.297.734-.773.734h-6.227z"/>
        </g>
        <g transform="translate(282)">
            <circle cx="15" cy="15" r="15" fill="url(#a)"/>
            <circle cx="15" cy="15" r="12" fill="#39C8D0" fill-opacity=".9"/>
            <path fill="#FFF" d="M14.969 21.21c-1.852 0-3.11-.718-3.735-1.858a1.734 1.734 0 0 1-.226-.844c0-.469.297-.774.789-.774.375 0 .594.172.773.578.383.899 1.117 1.438 2.407 1.438 1.367 0 2.289-.781 2.296-1.875.008-1.29-.921-2.008-2.43-2.008h-.75c-.445 0-.726-.273-.726-.68 0-.406.281-.68.727-.68h.703c1.289 0 2.164-.765 2.164-1.812 0-1.047-.672-1.742-2.008-1.742-1.14 0-1.781.477-2.172 1.414-.187.453-.375.617-.789.617-.492 0-.758-.28-.758-.75 0-.304.063-.562.211-.851.563-1.117 1.79-1.867 3.508-1.867 2.297 0 3.711 1.257 3.711 2.937 0 1.406-.992 2.36-2.375 2.649v.039c1.656.148 2.766 1.156 2.766 2.734 0 1.984-1.735 3.336-4.086 3.336z"/>
        </g>
        <text fill="#292929" font-family="MicrosoftJhengHeiRegular, Microsoft JhengHei" font-size="14" letter-spacing="1">
            <tspan x="0" y="51">上</tspan> <tspan x="15" y="51">傳</tspan>
        </text>
        <text fill="#292929" font-family="PingFangTC-Regular, PingFang TC" font-size="14" letter-spacing="1">
            <tspan x="88" y="51">於</tspan> <tspan x="103" y="51" font-family="ArialMT, Arial">ibon</tspan> <tspan x="133.469" y="51" font-family="MicrosoftJhengHeiRegular, Microsoft JhengHei">輸入取件號碼</tspan> 
        </text>
        <text fill="#292929" font-family="MicrosoftJhengHeiRegular, Microsoft JhengHei" font-size="14" letter-spacing="1">
            <tspan x="269" y="51">列</tspan> <tspan x="284" y="51">印完成</tspan>
        </text>
        <path stroke="#FFD6B2" stroke-linecap="round" stroke-width="2" d="M42 15.5h87M183 15.5h87"/>
    </g>
</svg>
