<svg xmlns="http://www.w3.org/2000/svg" xmlns:xlink="http://www.w3.org/1999/xlink" width="1320" height="240" viewBox="0 0 1320 240">
    <defs>
        <linearGradient id="b" x1="84.099%" x2="-8.991%" y1="-55.2%" y2="117.152%">
            <stop offset="0%" stop-color="#FFEEDF" stop-opacity=".36"/>
            <stop offset="100%" stop-color="#FFEEDF"/>
        </linearGradient>
        <rect id="a" width="1320" height="240" rx="4"/>
        <path id="e" d="M78 143.91c9.159-9.632 20.74-11.979 34.745-7.041 3.565 1.256 8.068.38 9.332-.675 9.751-8.137 17.912-14.612 31.834-12.925 9.95 1.207 18.502 8.185 25.652 20.935L78 143.909z"/>
        <filter id="d" width="346.2%" height="1279%" x="-123.1%" y="-636.7%" filterUnits="objectBoundingBox">
            <feOffset dy="-10" in="SourceAlpha" result="shadowOffsetOuter1"/>
            <feGaussianBlur in="shadowOffsetOuter1" result="shadowBlurOuter1" stdDeviation="40"/>
            <feColorMatrix in="shadowBlurOuter1" values="0 0 0 0 1 0 0 0 0 0.839215696 0 0 0 0 0.698039234 0 0 0 1 0"/>
        </filter>
        <path id="g" d="M458 214.826c11.684-12.357 26.459-15.368 44.324-9.033 4.547 1.612 10.292.488 11.905-.865 12.44-10.44 22.85-18.748 40.61-16.582 12.694 1.547 23.602 10.5 32.724 26.858L458 214.826z"/>
        <filter id="f" width="293%" height="1019%" x="-96.5%" y="-496.3%" filterUnits="objectBoundingBox">
            <feOffset dy="-10" in="SourceAlpha" result="shadowOffsetOuter1"/>
            <feGaussianBlur in="shadowOffsetOuter1" result="shadowBlurOuter1" stdDeviation="40"/>
            <feColorMatrix in="shadowBlurOuter1" values="0 0 0 0 1 0 0 0 0 0.839215696 0 0 0 0 0.698039234 0 0 0 1 0"/>
        </filter>
    </defs>
    <g fill="none" fill-rule="evenodd">
        <path fill="#FFC31B" d="M638.05 30.678l2.943 1.777a.2.2 0 0 1-.085.37l-4.242.375a.1.1 0 0 1-.108-.112c.063-.52.2-.969.412-1.344.22-.388.542-.742.968-1.06a.1.1 0 0 1 .111-.006z"/>
        <rect width="1320" height="240" fill="#FFF" rx="4"/>
        <mask id="c" fill="#fff">
            <use xlink:href="#a"/>
        </mask>
        <use fill="url(#b)" opacity=".697" xlink:href="#a"/>
        <g mask="url(#c)">
            <g transform="rotate(-2 813.32 -6203.658)">
                <ellipse cx="23.482" cy="23.627" fill="#FFD6B2" fill-opacity=".8" rx="22.5" ry="23.5"/>
                <path stroke="#FFD6B2" stroke-linecap="round" stroke-width="1.5" d="M24.441 48.166c-4.707 11.886-5.495 21.03-2.366 27.433 4.693 9.604 8.472 13.034.48 25.567" opacity=".6"/>
                <path fill="#FFD6B2" d="M23.327 51.353c1.617.232 4.542 1.642 3.544-1.09-.997-2.733-1.787-3.134-3.744-3.134-1.957 0-2.72.2-3.839 3.394-1.118 3.194 2.422.597 4.039.83z" opacity=".6"/>
            </g>
        </g>
        <g mask="url(#c)" opacity=".645">
            <path fill="#39C8D0" d="M1164 151.728l4.05-4.18 10.49 9.084-4.05 4.18z"/>
            <path fill="#39C8D0" d="M959 174.73l4.051-4.181 10.488 9.08-4.051 4.181z" opacity=".5"/>
            <path fill="#EA475B" d="M984.542 45.335l-4.041-4.179 9.476-10.153 4.041 4.179z" opacity=".3"/>
            <path fill="#EA475B" d="M638.28 103.163l4.324 3.887-8.746 10.79-4.322-3.887zM1236.635 187.003l4.184 4.035-9.116 10.478-4.185-4.035z" opacity=".208"/>
            <path fill="#FFC31B" fill-opacity=".5" d="M1073.869 142.66l-4.335-3.89 8.737-10.763 4.334 3.89z"/>
            <path fill="#FFC31B" d="M1154.305 74.56l3.656-4.53-11.298-8.85-3.656 4.53z"/>
            <path fill="#FFC31B" d="M583 142.562l4.335-3.89 9.823 9.783-4.335 3.891zM1268 99.402l4.335-3.891 9.823 9.784-4.335 3.89z" opacity=".5"/>
            <path fill="#39C8D0" d="M59.304 44l3.888 4.331-9.794 9.831-3.887-4.33z"/>
            <path fill="#FFC31B" fill-opacity=".5" d="M213.379 207.119l-3.905-4.322 9.814-9.79 3.904 4.321z"/>
            <path fill="#EA475B" d="M279 169.402l4.335-3.891 9.823 9.784-4.335 3.89z" opacity=".208"/>
        </g>
        <g mask="url(#c)">
            <g transform="translate(346 -132)">
                <path stroke="#FFD6B2" stroke-width="1.5" d="M349.71 121.465c-120.186 42.262-236.757 42.262-349.71 0"/>
                <circle cx="58.997" cy="144.997" r="4" fill="#FFD6B2" fill-opacity=".3" transform="rotate(103 58.997 144.997)"/>
                <circle cx="153.997" cy="157.997" r="4" fill="#FFD6B2" transform="rotate(103 153.997 157.997)"/>
                <circle cx="184.797" cy="157.797" r="4" fill="#FFC31B" fill-opacity=".3" transform="rotate(103 184.797 157.797)"/>
                <circle cx="216.998" cy="154.998" r="3.5" fill="#FFD6B2" fill-opacity=".3" transform="rotate(103 216.998 154.998)"/>
                <circle cx="86.997" cy="150.997" r="5" fill="#FFD6B2" transform="rotate(103 86.997 150.997)"/>
                <circle cx="121.087" cy="156.087" r="5" fill="#FFC31B" fill-opacity=".4" transform="rotate(89 121.087 156.087)"/>
            </g>
        </g>
        <g mask="url(#c)">
            <path fill="#FF9100" fill-opacity=".5" d="M458.923 84.888c2.027 1.043 4.088 3.207 6.184 6.492 2.066 3.237 6.518 6.9 13.355 10.986a.2.2 0 0 0 .302-.17c.057-5.925.799-10.77 2.225-14.537 1.454-3.84 2.347-6.783 2.677-8.828-4.916 1.26-8.628 2.154-11.136 2.683-2.508.53-7.043 1.654-13.607 3.374z"/>
            <path stroke="#FF9100" stroke-opacity=".5" d="M510.021 71.548c2.591 1.964 5.327 4.274 8.207 6.93 2.806 2.588 5.976 5.515 9.51 8.781a.2.2 0 0 0 .334-.119c.685-4.867 1.34-9.125 1.968-12.772a141.567 141.567 0 0 0 1.437-10.595c-4.693 1.932-8.245 3.334-10.654 4.208-2.41.873-6.01 2.062-10.802 3.567zM598.142 30.645c2.919 1.433 6.045 3.178 9.379 5.236 3.248 2.005 6.918 4.274 11.01 6.806a.2.2 0 0 0 .306-.18c-.257-4.91-.426-9.214-.506-12.914a141.566 141.566 0 0 0-.61-10.674c-4.24 2.792-7.458 4.846-9.656 6.163-2.199 1.317-5.506 3.171-9.923 5.563z"/>
            <path fill="#39C8D0" d="M553.846 54.77c2.783 1.683 5.745 3.694 8.887 6.034 3.061 2.28 6.52 4.86 10.376 7.74a.2.2 0 0 0 .32-.153c.171-4.913.379-9.216.621-12.909.249-3.788.356-7.35.322-10.687-4.466 2.412-7.85 4.178-10.156 5.299-2.305 1.12-5.762 2.679-10.37 4.677z"/>
            <path stroke="#FF9100" stroke-linecap="round" stroke-opacity=".5" stroke-width="1.5" d="M683.96-36.26C602.155 43.904 506.597 86.25 397.288 90.778c-2.412.1-1.43-5.032-3.518-5.89-4.279-1.758-31.649-1.133-29.868-4.229 3.312-5.756.267-7.756-9.132-6"/>
        </g>
        <g mask="url(#c)">
            <use fill="#000" filter="url(#d)" xlink:href="#e"/>
            <use fill="#FFF" xlink:href="#e"/>
        </g>
        <g mask="url(#c)">
            <path fill="#00AFB8" d="M371.108 128.06c5.43 4.857 8.31 5.551 17.727-1.813 9.416-7.365 10.367-13.103 11.161-21.364.423-4.4-.9-10.498-3.947-16.747a50.32 50.32 0 0 0-2.63-4.722 181994323.92 181994323.92 0 0 0-22.311 44.646z" opacity=".5"/>
            <path fill="#D8D8D8" d="M380.202 152.983l-5.302-6.055c-1.368 1.685-1.29 4.405.173 6.077 1.464 1.672 3.76 1.662 5.129-.022z"/>
            <path fill="#39C8D0" d="M360.192 122.077c.283-3.808-1.23-4.103-2.325-4.896-.731-.53-1.909-1.174-3.534-1.935-1.336-2.074-1.668-4.358-.993-6.85 1.57-4.56 6.064-6.277 10.63-4.704 2.341.806 5.063 3.21 7.145 5.43l44.508 40.654a.3.3 0 0 1-.198.521l-11.424.162c-11.921 3.389-22.175 2.255-30.761-3.4-14.376-9.469-13.15-23.608-13.048-24.982z"/>
            <path fill="#39C8D0" d="M369.513 116.697c.932 7.087 1.922 11.121 14.94 14.153 13.019 3.032 21.736-3.573 26.731-9.376 3.393-3.941 8.868-12.854 10.224-21.762l-51.895 16.985z"/>
            <path fill="#D8D8D8" d="M391.038 155.039l-8.954-5.654c-1.713 2.38-1.096 5.574 1.377 7.135 2.473 1.562 5.865.898 7.577-1.481z"/>
            <path fill="#FFC31B" d="M353.344 111.564l-5.298 2.959a.3.3 0 0 0 .109.56l7.43.923a.15.15 0 0 0 .168-.162c-.075-.913-.285-1.703-.63-2.37-.356-.687-.893-1.319-1.612-1.896a.15.15 0 0 0-.167-.014z"/>
        </g>
        <g>
            <use fill="#000" filter="url(#f)" xlink:href="#g"/>
            <use fill="#FFF" xlink:href="#g"/>
        </g>
    </g>
</svg>
