<svg xmlns="http://www.w3.org/2000/svg" xmlns:xlink="http://www.w3.org/1999/xlink" width="1024" height="340" viewBox="0 0 1024 340">
    <defs>
        <rect id="a" width="1024" height="340" rx="4"/>
        <linearGradient id="c" x1="100%" x2="0%" y1="100%" y2="-3.638%">
            <stop offset="0%" stop-color="#FFFBF7"/>
            <stop offset="100%" stop-color="#FFF5ED"/>
        </linearGradient>
        <path id="e" d="M645 499.57c13.076-14.081 29.611-17.513 49.605-10.294 5.089 1.837 11.518.557 13.323-.986 13.922-11.897 25.573-21.364 45.448-18.896C767.583 471.158 779.791 481.36 790 500l-145-.43z"/>
        <filter id="d" width="272.4%" height="906.5%" x="-86.2%" y="-435.5%" filterUnits="objectBoundingBox">
            <feOffset dy="-10" in="SourceAlpha" result="shadowOffsetOuter1"/>
            <feGaussianBlur in="shadowOffsetOuter1" result="shadowBlurOuter1" stdDeviation="40"/>
            <feColorMatrix in="shadowBlurOuter1" values="0 0 0 0 1 0 0 0 0 0.839215696 0 0 0 0 0.698039234 0 0 0 1 0"/>
        </filter>
        <path id="g" d="M360 346.764c7.755-7.722 17.562-9.604 29.421-5.645 3.018 1.007 6.831.305 7.902-.54 8.257-6.525 15.167-11.716 26.955-10.363 8.426.967 15.667 6.562 21.722 16.784l-86-.236z"/>
        <filter id="f" width="245.3%" height="835.3%" x="-72.7%" y="-397.1%" filterUnits="objectBoundingBox">
            <feOffset dy="-5" in="SourceAlpha" result="shadowOffsetOuter1"/>
            <feGaussianBlur in="shadowOffsetOuter1" result="shadowBlurOuter1" stdDeviation="20"/>
            <feColorMatrix in="shadowBlurOuter1" values="0 0 0 0 1 0 0 0 0 0.839215696 0 0 0 0 0.698039234 0 0 0 1 0"/>
        </filter>
    </defs>
    <g fill="none" fill-rule="evenodd">
        <mask id="b" fill="#fff">
            <use xlink:href="#a"/>
        </mask>
        <g mask="url(#b)">
            <g transform="translate(-44 -184)">
                <rect width="1024" height="340" x="44" y="184" fill="url(#c)" rx="4"/>
                <path fill="#FF9100" fill-opacity=".5" d="M404.597 273.326c2.079.936 4.25 2.99 6.516 6.16 2.232 3.125 6.869 6.549 13.91 10.272a.2.2 0 0 0 .294-.186c-.253-5.92.234-10.797 1.46-14.633 1.252-3.911 1.99-6.897 2.212-8.957-4.844 1.516-8.504 2.603-10.98 3.263-2.477.66-6.947 2.02-13.412 4.081zM196.034 290.511c1.688 1.532 3.12 4.156 4.294 7.871 1.157 3.662 4.51 8.351 10.055 14.068a.2.2 0 0 0 .337-.085c1.588-5.709 3.559-10.197 5.911-13.466 2.399-3.333 4.022-5.945 4.87-7.835-5.074-.056-8.891-.152-11.45-.29-2.56-.138-7.232-.225-14.017-.263z"/>
                <path stroke="#FF9100" stroke-opacity=".5" d="M447.152 259.11c2.722 1.778 5.612 3.891 8.67 6.34 2.98 2.386 6.347 5.085 10.1 8.097a.2.2 0 0 0 .325-.142c.343-4.904.7-9.196 1.072-12.878.38-3.778.612-7.334.694-10.67-4.547 2.255-7.992 3.902-10.334 4.94-2.343 1.04-5.852 2.477-10.527 4.313zM147.819 286.912c1.568 2.847 3.128 6.07 4.679 9.668 1.51 3.506 3.216 7.469 5.116 11.89a.2.2 0 0 0 .353.028c2.605-4.169 4.936-7.792 6.992-10.868a141.567 141.567 0 0 0 5.623-9.095M524.402 217.994c3.01 1.226 6.251 2.749 9.72 4.57 3.38 1.773 7.2 3.78 11.46 6.02a.2.2 0 0 0 .291-.201c-.599-4.88-1.067-9.161-1.405-12.847-.347-3.78-.799-7.315-1.354-10.605-4.033 3.08-7.1 5.354-9.202 6.821-2.102 1.467-5.272 3.548-9.51 6.242z"/>
                <path fill="#39C8D0" d="M487.96 240.493c2.894 1.483 5.989 3.283 9.287 5.399 3.212 2.06 6.843 4.393 10.89 6.996a.2.2 0 0 0 .308-.175c-.17-4.912-.264-9.22-.28-12.92a141.567 141.567 0 0 0-.425-10.683c-4.286 2.717-7.54 4.715-9.761 5.993-2.221 1.279-5.56 3.075-10.018 5.39z"/>
                <path stroke="#FF9100" stroke-linecap="round" stroke-opacity=".5" stroke-width="1.5" d="M610.333 124c-20.668 48.387-75.42 95-139.749 124.344C431.161 266.327 398.334 278 327.342 286 228.034 297.191 121.253 289.191 7 262"/>
                <g transform="scale(-1 1) rotate(4 -314.383 -8866.215)">
                    <path stroke="#FFD6B2" stroke-width="1.5" d="M439.185 152.403C320.562 216.834 193.167 224.522 57 175.465s-8.772-56.745 382.185-23.062z"/>
                    <circle cx="115.997" cy="198.997" r="4" fill="#FFD6B2" fill-opacity=".3" transform="rotate(103 115.997 198.997)"/>
                    <circle cx="210.997" cy="211.997" r="4" fill="#FFD6B2" transform="rotate(103 210.997 211.997)"/>
                    <circle cx="241.797" cy="211.797" r="4" fill="#FFC31B" fill-opacity=".3" transform="rotate(103 241.797 211.797)"/>
                    <circle cx="273.998" cy="208.998" r="3.5" fill="#FFD6B2" fill-opacity=".3" transform="rotate(103 273.998 208.998)"/>
                    <circle cx="143.997" cy="204.997" r="5" fill="#FFD6B2" transform="rotate(103 143.997 204.997)"/>
                    <circle cx="178.087" cy="210.087" r="5" fill="#FFC31B" fill-opacity=".4" transform="rotate(89 178.087 210.087)"/>
                </g>
                <g opacity=".5">
                    <path fill="#FFDF89" d="M406.559 399.53l3.463 3.598-8.104 8.724-3.464-3.598zM951.225 430.272l3.464 3.598-8.104 8.724-3.464-3.598zM142.225 432.272l3.464 3.598-8.104 8.724-3.464-3.598z"/>
                    <path fill="#EA475B" d="M701.341 322l3.767 3.27-7.341 9.388-3.767-3.27z" opacity=".3"/>
                    <path fill="#FFC31B" fill-opacity=".5" d="M483.065 313.938l3.273-3.777 9.364 7.334-3.273 3.777zM229.065 419.938l3.273-3.777 9.364 7.334-3.273 3.777z"/>
                    <path fill="#FFC31B" d="M696 235.825l7.424-9.825 3.941 3.069-7.424 9.825zM873 295.825l7.424-9.825 3.941 3.069-7.424 9.825z"/>
                </g>
                <g>
                    <use fill="#000" filter="url(#d)" xlink:href="#e"/>
                    <use fill="#FFF" xlink:href="#e"/>
                </g>
                <g transform="matrix(-1 0 0 1 806 0)">
                    <use fill="#000" filter="url(#f)" xlink:href="#g"/>
                    <use fill="#FFF" xlink:href="#g"/>
                </g>
                <path fill="#39C8D0" d="M658 281.468l3.344-3.468 8.656 7.532-3.344 3.468z" opacity=".5"/>
                <g transform="rotate(15 -448.075 2356.364)">
                    <ellipse cx="20.5" cy="21.467" fill="#FFD6B2" fill-opacity=".5" rx="20.5" ry="21.467"/>
                    <path stroke="#FFD6B2" stroke-linecap="round" stroke-width="1.215" d="M21.741 44.16c-4.054 10.728-4.734 18.982-2.038 24.762C23.746 77.59 27 80.687 20.117 92"/>
                    <path fill="#FFD6B2" d="M20.729 47.078c1.462.228 4.108 1.612 3.205-1.07-.902-2.681-1.616-3.075-3.386-3.075s-2.46.196-3.472 3.33c-1.01 3.135 2.19.587 3.653.815z"/>
                </g>
                <g>
                    <path fill="#00AFB8" d="M550.289 312.092c4.366 3.933 6.685 4.49 14.293-1.518 7.609-6.007 8.39-10.671 9.05-17.385.352-3.576-.698-8.527-3.139-13.597a40.66 40.66 0 0 0-2.108-3.83l-2.116 4.25-15.98 32.08z" opacity=".5"/>
                    <path fill="#D8D8D8" d="M557.557 332.318l-4.258-4.906c-1.108 1.372-1.052 3.583.124 4.937 1.176 1.355 3.027 1.341 4.134-.03z"/>
                    <path fill="#39C8D0" d="M541.505 307.258c.238-3.095-.98-3.33-1.862-3.972-.587-.428-1.535-.949-2.843-1.563-1.072-1.682-1.333-3.536-.784-5.563 1.277-3.708 4.904-5.115 8.58-3.849 1.886.65 4.074 2.595 5.746 4.395l35.777 32.92a.243.243 0 0 1-.16.422l-9.212.16c-9.618 2.783-17.88 1.888-24.787-2.686-11.564-7.656-10.54-19.147-10.455-20.264z"/>
                    <path fill="#39C8D0" d="M549.032 302.864c.733 5.755 1.521 9.03 12.008 11.461 10.486 2.431 17.529-2.957 21.57-7.684 2.745-3.211 7.18-10.466 8.295-17.707l-41.873 13.93z"/>
                    <path fill="#D8D8D8" d="M566.287 333.961l-7.204-4.571c-1.386 1.938-.897 4.532 1.092 5.794 1.99 1.262 4.726.715 6.112-1.223z"/>
                    <path fill="#FFC31B" d="M536.011 298.734l-4.28 2.419a.243.243 0 0 0 .09.452l5.986.732a.122.122 0 0 0 .136-.13c-.058-.743-.226-1.385-.502-1.926-.285-.557-.716-1.068-1.294-1.536a.121.121 0 0 0-.136-.01z"/>
                </g>
            </g>
        </g>
    </g>
</svg>
