<svg width="40" height="40" viewBox="0 0 40 40" xmlns="http://www.w3.org/2000/svg">
    <g fill="none" fill-rule="evenodd">
        <rect fill="#F3F3F3" width="40" height="40" rx="8"/>
        <path d="M26.419 8.178c2.729 0 4.947 1.94 4.947 4.325V30.74a1.042 1.042 0 1 1-2.086 0V12.503c0-1.214-1.31-2.238-2.861-2.238h-5.424c-1.551 0-2.862 1.024-2.862 2.238v1.964h4.082c2.393 0 4.339 1.94 4.339 4.325v11.896c0 .051-.01.152-.017.204-.017.563-.473.93-1.036.93H9.687a1.042 1.042 0 0 1-1.041-.978.903.903 0 0 1-.012-.156V18.792c0-2.385 1.946-4.325 4.339-4.325h3.073v-1.964c0-2.385 2.22-4.325 4.949-4.325zm-4.204 8.376h-9.242a2.248 2.248 0 0 0-2.253 2.238v10.943h5.58v-3.549c0-.228.186-.413.414-.413h1.278c.229 0 .414.185.414.413v3.55h6.06V18.791a2.247 2.247 0 0 0-2.251-2.238zm-7.883 9.22c.229 0 .414.185.414.412v1.272a.413.413 0 0 1-.414.412h-1.278a.413.413 0 0 1-.414-.412v-1.272c0-.227.185-.412.414-.412zm7.435 0c.23 0 .414.184.414.412v1.271a.413.413 0 0 1-.414.412H20.49a.413.413 0 0 1-.414-.412v-1.271c0-.227.185-.413.414-.413zm-7.435-3.677c.229 0 .414.185.414.412v1.272a.413.413 0 0 1-.414.412h-1.278a.413.413 0 0 1-.414-.412v-1.272c0-.227.185-.412.414-.412zm3.66 0c.229 0 .414.185.414.412v1.272a.413.413 0 0 1-.414.412h-1.278a.412.412 0 0 1-.413-.412v-1.272c0-.227.184-.412.413-.412zm3.775 0c.23 0 .414.185.414.412v1.272a.413.413 0 0 1-.414.412H20.49a.413.413 0 0 1-.414-.412v-1.272c0-.227.185-.412.414-.412zm-7.379-3.708c.23 0 .414.185.414.413v1.271a.413.413 0 0 1-.414.413H13.11a.413.413 0 0 1-.414-.413v-1.27c0-.229.186-.414.414-.414zm3.662 0c.229 0 .413.186.413.413v1.272a.412.412 0 0 1-.413.412H16.77a.412.412 0 0 1-.413-.412v-1.272c0-.227.184-.413.413-.413zm3.775 0c.228 0 .413.186.413.413v1.272a.412.412 0 0 1-.413.412h-1.278a.412.412 0 0 1-.414-.412v-1.272c0-.227.185-.413.414-.413z" fill="#DDD"/>
    </g>
</svg>
