<svg width="66" height="66" viewBox="0 0 66 66" xmlns="http://www.w3.org/2000/svg">
    <g transform="translate(1 1)" fill="none" fill-rule="evenodd">
        <ellipse fill="#F3F3F3" fill-rule="nonzero" cx="32" cy="31.999" rx="32" ry="31.999"/>
        <path d="M20.673 15.959a1.242 1.242 0 0 0-1.197-.211c-.921.296-1.46 1.946-1.649 5.044-.029.474-.11.66-.15.724a.875.875 0 0 1-.246-.197c-.043-.053-1.066-1.322-1.678-2.288-.526-.83-.437-2.07-.39-2.735 0-.06.009-.118.012-.166.03-.493-.057-1.478-.58-2.051a1.249 1.249 0 0 0-.876-.423c-1.02-.052-1.431 1.066-1.511 1.73v.05c0 .015 0 .48-.072 2.033-.032.668-.201.785-.201.785a.149.149 0 0 1-.066-.014.403.403 0 0 0-.075-.036c-.008 0-.934-.344-1.666-.568-.663-.203-1.196-.17-1.584.1-.368.256-.564.697-.58 1.31-.036 1.321 1.303 1.693 2.377 1.991.247.07.48.133.691.205 1.028.356 2.512 1.915 2.936 2.747.46.903 2.071 3.707 2.138 3.826a.424.424 0 0 0 .561.156.401.401 0 0 0 .206-.286l3.414-1.267a.42.42 0 0 0 .552-.026.408.408 0 0 0 .12-.287c0-.126-.008-.326-.018-.584-.044-1.235-.136-3.826.184-5.974.257-1.791.033-3.031-.652-3.588zm34.905 2.765c-.027-.614-.23-1.051-.603-1.304-.394-.262-.927-.288-1.586-.078-.73.238-1.648.587-1.659.593a.454.454 0 0 0-.068.033.138.138 0 0 1-.071.02s-.174-.12-.217-.783c-.103-1.552-.11-2.028-.11-2.032a.394.394 0 0 0 0-.05c-.09-.667-.517-1.777-1.54-1.709-.337.021-.65.178-.869.435-.512.579-.58 1.566-.54 2.058 0 .05.01.107.014.166.06.664.172 1.896-.339 2.74-.578.947-1.524 2.17-1.627 2.304a.903.903 0 0 1-.25.207c-.04-.064-.125-.249-.163-.721-.246-3.096-.816-4.739-1.742-5.022a1.24 1.24 0 0 0-1.203.226c-.674.566-.874 1.809-.58 3.594.356 2.147.313 4.733.292 5.977 0 .256-.007.455-.006.582a.408.408 0 0 0 .416.398.424.424 0 0 0 .26-.094l3.437 1.22a.4.4 0 0 0 .21.282.42.42 0 0 0 .568-.163c.066-.119 1.621-2.943 2.066-3.856.408-.838 1.862-2.418 2.884-2.786.21-.074.441-.143.688-.214 1.068-.313 2.4-.703 2.338-2.023z" fill="#AAA" fill-rule="nonzero" opacity=".5"/>
        <path d="M60.584 32.508c-.064-.71-.499-1.433-.922-2.004-1.11-1.5-2.764-2.533-4.413-3.395-1.903-.996-3.928-1.737-5.934-2.508a48.856 48.856 0 0 0-14.474-3.175c-6.913-.43-13.924.85-20.306 3.41-1.991.8-4.003 1.567-5.887 2.589-1.63.885-3.266 1.94-4.347 3.456-.412.576-.83 1.303-.884 2.014-.172 2.38 6.695-.356 7.428-.661 1.644-.679 2.37-.56 1.967.456-.977 2.462-1.71 5.058-2.455 7.595-.613 2.083-1.143 4.185-1.73 6.279l.021-.232a29.106 29.106 0 0 1-2.013 5.174c.236.31.481.616.735.917.048.056.096.11.143.167a31.989 31.989 0 0 0 48.74.281l.088-.106c.165-.19.326-.385.485-.58l.13-.158.028-.038c.185-.23.369-.463.547-.699a30.804 30.804 0 0 1-1.454-3.485 38.995 38.995 0 0 0-.4-1.421c-.644-2.133-1.224-4.273-1.896-6.398-.794-2.525-1.574-5.113-2.597-7.56-.422-1.01.301-1.14 1.958-.483.74.3 7.659 2.943 7.442.565z" fill="#DDD" fill-rule="nonzero"/>
        <path d="M32 64a31.875 31.875 0 0 0 20.285-7.254c-.146-1.367-.306-2.74-.491-4.114-.593-4.396-1.432-8.79-2.765-12.982-1.026-3.223-3.171-7.77-6.744-8.814-2.063-.604-4.092.19-5.259 1.99-.738 1.138-1.118 2.469-1.402 3.791-.415 1.947-.64 4.502-3.119 4.658-.14.01-.281.01-.422 0v-.005h-.076c-.14.014-.28.017-.421.01-2.488-.127-2.756-2.674-3.207-4.619-.307-1.322-.711-2.646-1.473-3.776-1.2-1.785-3.244-2.55-5.294-1.919-3.554 1.095-5.615 5.669-6.579 8.905-1.254 4.21-2.014 8.615-2.521 13.019a146.59 146.59 0 0 0-.415 4.152A31.86 31.86 0 0 0 32 63.999V64z" fill="#FFF" fill-rule="nonzero"/>
        <path d="M35.242 24.924c0-.011-.009-.023-.013-.035-.191-.48-.593-.84-1.031-1.112a5.477 5.477 0 0 0-1.695-.73 4.902 4.902 0 0 0-1.956 0 7.36 7.36 0 0 0-1.066.288c-.267.09-.525.21-.767.355-.221.135-.426.294-.612.474-.462.438-.823 1.046-.464 1.658a1.21 1.21 0 0 0 1.557.451c.48-.268.84-.708 1.008-1.231h.054c.076.39.23.762.453 1.092.237.392.62.673 1.066.78.168.035.342.043.512.023 1.136-.18.92-1.226.92-1.226s.592.643 1.378.425a1.22 1.22 0 0 0 .319-.184.956.956 0 0 0 .337-1.028z" fill="#AAA" fill-rule="nonzero" opacity=".5"/>
        <path d="M24.578 37.84c.61-.336.995-.973 1.006-1.67.019-1.25-1.185-2.225-2.418-2.207-1.887.029-2.66 2.315-1.374 3.584.767.757 1.946.783 2.786.294z" fill="#AAA" fill-rule="nonzero"/>
        <path d="M23.26 35.227a.555.555 0 0 0-1.01.136.52.52 0 0 0 .057.402.546.546 0 0 0 .478.269.548.548 0 0 0 .533-.404.52.52 0 0 0-.058-.403z" fill="#FFF" fill-rule="nonzero"/>
        <path d="M41.98 38.092a1.94 1.94 0 0 0 1.005-1.67c.019-1.249-1.185-2.226-2.418-2.208-1.887.03-2.66 2.317-1.373 3.585.766.757 1.946.782 2.785.293z" fill="#AAA" fill-rule="nonzero"/>
        <path d="M40.663 35.479a.557.557 0 0 0-1.012.135.527.527 0 0 0 .057.402.545.545 0 0 0 .479.269.548.548 0 0 0 .533-.404.53.53 0 0 0-.057-.402z" fill="#FFF" fill-rule="nonzero"/>
        <path d="M32.967 37.568a7.822 7.822 0 0 0-1.26.01 7.598 7.598 0 0 0-1.185.19c-.668.16-1.745.547-1.455 1.433.325.87.822 1.604 1.706 1.921l.067.022c.202.065.41.108.62.128.433.056.872.052 1.303-.012 1.208-.154 1.84-.916 2.226-1.88l.02-.05.009-.024c.451-1.174-1.166-1.66-2.051-1.738z" fill="#AAA" fill-rule="nonzero"/>
        <path d="M42.192 32.553c-3.45 0-5.507.637-5.507.637-1.77.522-1.509 2.377-1.304 3.566.186 1.089 1.047 3.834 3.392 4.609 3.568 1.179 6.233.119 6.233.119 2.742-.705 3.542-6.516 2.962-7.733-.58-1.216-2.326-1.199-5.776-1.199z"/>
        <path fill="#404041" fill-rule="nonzero" d="M26.726 32.961h-.052.03z"/>
        <path d="M35.56 35.343a.344.344 0 0 1-.165-.042c-2.915-1.573-6.66 0-6.698.014a.356.356 0 0 1-.276-.646c.165-.07 4.09-1.722 7.307.015a.355.355 0 0 1-.168.66zm-19.092 0a.332.332 0 0 1-.066 0l-3.987-.75a.355.355 0 1 1 .129-.69l3.992.744a.356.356 0 0 1-.064.696h-.005zm31.243 0a.355.355 0 0 1-.064-.696l3.992-.744a.354.354 0 0 1 .45.468.356.356 0 0 1-.317.221l-3.992.746a.377.377 0 0 1-.07.005z" fill="#7D7E7E" fill-rule="nonzero"/>
        <circle cx="6.044" cy="6.044" r="6.044" opacity=".2" transform="translate(35.799 29.467)" fill="#AAA" fill-rule="nonzero"/>
        <path d="M41.702 41.905a6.397 6.397 0 1 1 0-12.794 6.397 6.397 0 1 1 0 12.794zm0-12.083a5.694 5.694 0 1 0 5.694 5.692 5.7 5.7 0 0 0-5.694-5.696v.004z" fill="#7D7E7E" fill-rule="nonzero"/>
        <circle cx="6.044" cy="6.044" r="6.044" opacity=".2" transform="translate(16.587 29.467)" fill="#AAA" fill-rule="nonzero"/>
        <path d="M22.491 41.905a6.397 6.397 0 1 1 0-12.794 6.397 6.397 0 1 1 0 12.794zm0-12.083a5.693 5.693 0 1 0 5.693 5.692 5.7 5.7 0 0 0-5.692-5.696v.004z" fill="#7D7E7E" fill-rule="nonzero"/>
        <path d="M32.043 46.809c-3.088 0-5.082-2.19-5.165-2.282a.475.475 0 1 1 .71-.632c.031.034 1.815 1.966 4.46 1.966 2.644 0 4.35-1.94 4.367-1.958a.474.474 0 0 1 .721.616c-.085.094-2 2.29-5.093 2.29z" fill="#AAA" fill-rule="nonzero"/>
        <ellipse stroke="#DDD" cx="32" cy="31.999" rx="31.733" ry="31.732"/>
    </g>
</svg>
