<svg width="100" height="80" viewBox="0 0 100 80" xmlns="http://www.w3.org/2000/svg">
    <g fill="none" fill-rule="evenodd">
        <rect fill="#F3F3F3" width="100" height="80" rx="4"/>
        <path d="M57.81 29.875c2.29 0 4.15 1.969 4.15 4.39v11.47c0 2.42-1.86 4.39-4.15 4.39H42.183c-2.29 0-4.15-1.97-4.15-4.39v-11.47c0-2.421 1.86-4.39 4.15-4.39zm-4.173 10.348c-.633.673-1.498 1.645-2.331 2.58-.925 1.038-1.813 2.036-2.332 2.569a1.865 1.865 0 0 1-2.296.302l-.135-.096-2.45-1.99-3.044 3.1a1.107 1.107 0 0 1-.427.263c.342.558.914.924 1.56.924H57.81c.65 0 1.226-.37 1.568-.934zm4.174-8.098H42.18c-1.047 0-1.9.96-1.9 2.14v9.995l2.453-2.496a1.867 1.867 0 0 1 2.294-.3l.135.095 2.445 1.985c.514-.547 1.254-1.377 2.016-2.235l.23-.259.46-.516a81.42 81.42 0 0 1 2-2.183 1.932 1.932 0 0 1 1.459-.563c.548.037 1.05.31 1.382.75l4.556 5.329v-9.601c0-1.181-.852-2.141-1.9-2.141zm-11.565 2.378a2.11 2.11 0 1 1 0 4.22 2.11 2.11 0 0 1 0-4.22z" fill="#DDD"/>
    </g>
</svg>
