<svg xmlns="http://www.w3.org/2000/svg" xmlns:xlink="http://www.w3.org/1999/xlink" width="328" height="151" viewBox="0 0 328 151">
    <defs>
        <rect id="0q4f47s67c" width="39.531" height="39.417" x="0" y="0" rx="19.708"/>
        <rect id="vfxfr8zrie" width="39.531" height="39.417" x="0" y="0" rx="19.708"/>
        <rect id="lwrgnooxhf" width="34" height="34" x="0" y="0" rx="17"/>
        <rect id="os913pxenh" width="34" height="34" x="0" y="0" rx="17"/>
        <path id="i5azh6wo4a" d="M0 0H230V129H0z"/>
    </defs>
    <g fill="none" fill-rule="evenodd">
        <g>
            <g>
                <g>
                    <g>
                        <g transform="translate(-16 -2452) translate(0 1885) translate(16 567)">
                            <mask id="6gs8s0yeub" fill="#fff">
                                <use xlink:href="#i5azh6wo4a"/>
                            </mask>
                            <use fill="#FFF" xlink:href="#i5azh6wo4a"/>
                            <g mask="url(#6gs8s0yeub)">
                                <g transform="translate(116.797 18.813)">
                                    <rect width="107.813" height="104.813" fill="#EEE" rx="2"/>
                                    <g fill="#DDD" transform="translate(17.969 30.458)">
                                        <ellipse cx="24.707" cy="4.927" rx="4.941" ry="4.927"/>
                                        <path d="M16.033 24.625c1.272-1.53 3.605-1.822 5.214-.651l7.258 5.28c1.608 1.17 3.977.908 5.29-.584l13.58-15.432c1.313-1.493 3.294-1.375 4.42.257l20.978 30.4H0l16.033-19.27z"/>
                                    </g>
                                </g>
                            </g>
                            <g stroke="#DDD" stroke-linecap="round" stroke-width="2.5" mask="url(#6gs8s0yeub)">
                                <g>
                                    <path d="M26.953.896L59.297.896M0 11.646L86.25 11.646M0 22.396L86.25 22.396M0 33.146L86.25 33.146" transform="translate(14.375 77.938)"/>
                                </g>
                            </g>
                            <g mask="url(#6gs8s0yeub)">
                                <g transform="translate(37.734 28.667)">
                                    <mask id="rroxuu54rd" fill="#fff">
                                        <use xlink:href="#0q4f47s67c"/>
                                    </mask>
                                    <use fill="#F3F3F3" xlink:href="#0q4f47s67c"/>
                                    <g mask="url(#rroxuu54rd)">
                                        <g>
                                            <path fill="#A9A9A9" d="M20.156 27.712c1.382 1.666 2.188 3.744 2.576 5.978.076.437.663.252.587-.184-.408-2.35-1.281-4.534-2.733-6.285-.27-.324-.699.166-.43.49" transform="translate(5.39 7.167)"/>
                                            <path fill="#FFF" d="M7.984 23.241c-5.366 7.233-1.185 11.49-1.256 15.56-.085 4.839-.356 10.7-.132 15.54.079 1.693 1.307 1.783 2.766 2.024 1.716.284 3.097-.159 3.017-2.158-.145-3.67-.71-7.04-.373-10.702-.011.125 1.926.558 3.162.507 1.238.05 2.985-.382 2.974-.507.335 3.663-.228 7.033-.374 10.702-.08 2 1.301 2.442 3.018 2.158 1.458-.241 2.686-.331 2.765-2.023.224-4.841-.047-10.702-.132-15.542-.044-2.493-.164-4.925-.455-7.395-.13-1.103 2.754-2.044 2.517-3.113-.148-.67-2.868-4.419-3.09-5.05" transform="translate(5.39 7.167)"/>
                                            <g fill="#DDD">
                                                <path d="M15.678 23.734v.001zm0 .002zm0 .001v.002-.002zm0 .002l.001.014v-.014zm.001.014zm-5.347-.065c.001.022.001.044-.001.066.002-.023.002-.045 0-.066zm5.348.066v.001zm-5.35 0v.002-.002zm5.35.002v.001-.001zm-5.35 0v.001-.001zm0 .002zm5.35 0zm-7.593 13.29c-.298 0-.62-.028-.966-.084l-.26-.041c-1.396-.22-2.838-.446-2.931-2.398-.171-3.613-.063-7.71.042-11.673.035-1.319.07-2.606.092-3.827l.008-.445c.067-3.922.138-7.976 1.852-11.64.105-.227.372-.324.598-.217.224.107.32.376.215.602-1.633 3.488-1.7 7.445-1.767 11.271l-.008.445c-.022 1.224-.056 2.513-.092 3.835-.104 3.946-.213 8.027-.043 11.606.056 1.166.706 1.317 2.172 1.547l.265.042c.686.111 1.61.148 2.12-.308.312-.278.456-.74.43-1.374-.047-1.174-.14-2.333-.23-3.455-.197-2.445-.383-4.754-.148-7.259.023-.25.246-.43.489-.409.096.01.184.049.251.108.35.132 1.884.432 2.908.396 1.052.035 2.418-.258 2.74-.387.07-.064.16-.107.261-.117.242-.023.466.159.489.408v.001c.235 2.506.05 4.816-.147 7.26-.09 1.122-.184 2.281-.232 3.454-.025.634.12 1.096.43 1.374.51.456 1.436.42 2.121.308l.266-.042c1.465-.23 2.115-.381 2.17-1.547.17-3.576.062-7.654-.042-11.598-.036-1.324-.07-2.616-.092-3.843-.05-2.807-.196-5.131-.46-7.315-.143-1.191-.383-2.318-.575-3.166-.129-.569-.32-1.101-.525-1.666l-.072-.2c-.084-.236.036-.495.27-.58.234-.087.491.037.575.271l.072.2c.204.566.414 1.15.556 1.774.197.87.443 2.026.592 3.258.266 2.216.414 4.569.465 7.408.022 1.224.057 2.513.092 3.835.105 3.96.213 8.055.042 11.665-.093 1.952-1.535 2.179-2.93 2.398l-.262.041c-1.277.206-2.239.03-2.86-.524-.521-.467-.768-1.17-.73-2.088.048-1.19.143-2.36.233-3.489.178-2.208.346-4.304.197-6.51-.762.204-1.922.352-2.644.32-.672.028-1.97-.12-2.8-.333-.152 2.21.017 4.309.195 6.52.09 1.131.185 2.3.233 3.492.037.918-.209 1.62-.73 2.088-.453.405-1.089.608-1.895.608z" transform="translate(5.39 7.167) translate(1.989 19.737)"/>
                                                <path d="M24.034 22.244l-.365-.198c-.78-.425-1.937-.895-3.017-1.227l-.42-.13.118-.425c.868-3.13 1.003-5.995-1.616-9.311l.703-.563c2.7 3.419 2.678 6.358 1.887 9.695.727.243 1.62.586 2.394.969 1.77-3.05 1.57-6.852-.604-11.608-1.719-3.76-3.53-6.2-6.46-8.704l.58-.69c3.002 2.563 4.94 5.175 6.696 9.016 2.397 5.242 2.505 9.437.33 12.825l-.226.35zM11.728 6.414L10.863 12.936 15.729 12.949 14.754 6.414z" transform="translate(5.39 7.167) translate(1.989 19.737)"/>
                                                <path d="M10.608 4.493L12.336 7.5 14.036 7.577 15.765 4.36 14.83 4.585zM1.895 22.33l-.225-.35C-.505 18.59-.397 14.395 2 9.153 3.754 5.314 5.693 2.7 8.694.138l.58.69c-2.93 2.504-4.741 4.944-6.46 8.704C.642 14.288.443 18.09 2.212 21.14c.775-.383 1.667-.726 2.394-.968-.79-3.337-1.22-6.081 1.48-9.5l.704.562c-2.619 3.317-2.078 5.987-1.21 9.116l.119.425-.42.13c-1.08.332-2.237.802-3.018 1.227l-.365.198z" transform="translate(5.39 7.167) translate(1.989 19.737)"/>
                                            </g>
                                            <path fill="#FFF" d="M21.525 22.959c1.668-.833 3.143-2.015 4.28-3.57 1.185-1.62 1.858-3.296 2.108-4.95C29.087 6.668 20.946-.654 12.653.261 6.761.912 1.536 4.646.5 10.672-.524 16.634 4.286 21.546 9.042 23.65l6.385.513" transform="translate(5.39 7.167)"/>
                                            <path fill="#DDD" d="M13.887 18.26c-2.925 0-8.235-.297-8.462-3.698-.012-.185.126-.346.309-.358.18-.016.34.127.353.313.213 3.18 6.634 3.093 8.744 3.063 4.923-.065 7.64-1.134 7.65-3.01.002-.185.15-.334.332-.334h.002c.183 0 .33.153.33.338-.01 1.628-1.458 3.588-8.306 3.679-.273.003-.594.008-.952.008M6.685 11.067c-.206 0-.39-.149-.431-.364-.047-.244.109-.48.347-.528.745-.149 1.496-.348 2.223-.541.476-.126.961-.255 1.452-.372-1.137-.396-2.884-.544-3.667-.61l-.058-.005c-.242-.021-.422-.239-.402-.486.02-.248.228-.434.475-.412l.057.005c2.18.184 4.312.483 5.137 1.405.109.122.144.294.093.45-.052.155-.182.27-.34.299-.846.152-1.7.379-2.526.598-.74.196-1.505.399-2.276.553-.028.006-.056.008-.084.008M21.523 11.067c-.028 0-.057-.002-.085-.008-.77-.154-1.535-.357-2.275-.553-.826-.219-1.68-.446-2.526-.598-.158-.03-.288-.144-.34-.3-.052-.155-.016-.327.092-.449.826-.922 2.957-1.22 5.137-1.405l.058-.005c.245-.022.454.164.474.412.02.247-.16.465-.401.486l-.058.005c-.783.066-2.53.214-3.667.61.49.117.976.246 1.451.372.727.193 1.479.392 2.223.54.239.048.394.285.348.529-.04.215-.225.364-.431.364" transform="translate(5.39 7.167)"/>
                                            <path fill="#DDD" d="M7.82 23.61c-.06 0-.12-.012-.177-.037-5.633-2.461-8.42-7.24-7.455-12.782C1.195 5.008 6.145.804 12.8.078c4.451-.487 9.22 1.335 12.435 4.751 2.682 2.851 3.92 6.442 3.399 9.852-.274 1.792-1.015 3.514-2.203 5.12-1.144 1.546-2.647 2.785-4.466 3.683-.222.11-.488.015-.596-.209-.108-.225-.015-.495.206-.604 1.69-.835 3.085-1.983 4.143-3.412 1.099-1.486 1.784-3.073 2.035-4.716.479-3.13-.674-6.444-3.163-9.09C21.562 2.236 17.082.52 12.894.977 6.644 1.658 2 5.573 1.066 10.948c-.888 5.101 1.702 9.51 6.93 11.795.226.099.33.365.233.594-.072.17-.237.273-.41.273" transform="translate(5.39 7.167)"/>
                                            <path fill="#DDD" d="M11.128 24.304c-.341-.162-.668-.354-1.002-.597 1.045.252 2.114.394 3.186.436 1.08.044 2.168-.005 3.241-.147 1.1-.146 2.132-.292 3.156-.755-.09.201-.396.354-.577.472-.505.328-1.078.522-1.638.727-1.519.557-3.175.512-4.755.365-.56-.051-1.101-.259-1.611-.501" transform="translate(5.39 7.167)"/>
                                        </g>
                                    </g>
                                    <rect width="38.531" height="38.417" x=".5" y=".5" stroke="#FFF" rx="19.208"/>
                                </g>
                            </g>
                            <g fill-opacity=".6" mask="url(#6gs8s0yeub)">
                                <g>
                                    <path fill="#DDD" d="M226.406 0C228.391 0 230 1.604 230 3.583v121.834c0 1.979-1.609 3.583-3.594 3.583H3.594C1.609 129 0 127.396 0 125.417V3.583C0 1.604 1.609 0 3.594 0h222.812zm2.246 14.333H1.347v111.084c0 1.237 1.006 2.24 2.247 2.24h222.812c1.24 0 2.246-1.003 2.246-2.24V14.333z"/>
                                    <ellipse cx="8.984" cy="7.167" fill="#A9A9A9" opacity=".8" rx="1.797" ry="1.792"/>
                                    <ellipse cx="15.273" cy="7.167" fill="#A9A9A9" opacity=".8" rx="1.797" ry="1.792"/>
                                    <ellipse cx="21.563" cy="7.167" fill="#A9A9A9" opacity=".8" rx="1.797" ry="1.792"/>
                                </g>
                            </g>
                        </g>
                        <text fill="#7E7E7E" font-family="MicrosoftJhengHeiRegular, Microsoft JhengHei" font-size="12" transform="translate(-16 -2452) translate(0 1885) translate(16 567)">
                            <tspan x="97" y="146">電腦版</tspan>
                        </text>
                    </g>
                    <g>
                        <text fill="#7E7E7E" font-family="MicrosoftJhengHeiRegular, Microsoft JhengHei" font-size="12" transform="translate(-16 -2452) translate(0 1885) translate(16 567) translate(246)">
                            <tspan x="23" y="146">手機版</tspan>
                        </text>
                        <g transform="translate(-16 -2452) translate(0 1885) translate(16 567) translate(246)">
                            <rect width="82" height="129" fill="#FFF" rx="4"/>
                            <path fill="#EEE" d="M5 0h73c2.21 0 4 1.79 4 4v55H1V4c0-2.21 1.79-4 4-4z"/>
                            <rect width="81" height="128" x=".5" y=".5" stroke="#DDD" stroke-opacity=".6" rx="4"/>
                            <g fill="#DDD" transform="translate(24 18)">
                                <circle cx="11.5" cy="2" r="2"/>
                                <path d="M6.543 12.55c1.255-1.547 3.559-1.84 5.15-.653l.174.13c1.59 1.186 3.932.92 5.217-.577l3.639-4.241c1.291-1.505 3.237-1.39 4.35.266L33.5 20H.5l6.043-7.45z"/>
                            </g>
                            <g transform="translate(24 48)">
                                <mask id="gbsp8jz6fg" fill="#fff">
                                    <use xlink:href="#lwrgnooxhf"/>
                                </mask>
                                <use fill="#F3F3F3" xlink:href="#lwrgnooxhf"/>
                                <g mask="url(#gbsp8jz6fg)">
                                    <g>
                                        <path fill="#A9A9A9" d="M17.376 23.336c1.191 1.404 1.886 3.153 2.22 5.034.066.369.572.213.506-.155-.351-1.979-1.104-3.817-2.355-5.292-.233-.273-.603.14-.371.413" transform="translate(4 6)"/>
                                        <path fill="#FFF" d="M6.882 19.572c-4.625 6.09-1.02 9.675-1.082 13.102-.073 4.075-.307 9.01-.114 13.087.068 1.425 1.127 1.501 2.384 1.704 1.48.24 2.67-.133 2.602-1.817-.126-3.09-.612-5.928-.322-9.012-.01.105 1.66.47 2.726.427 1.067.042 2.573-.322 2.564-.427.289 3.084-.197 5.922-.323 9.012-.068 1.684 1.122 2.056 2.602 1.817 1.257-.203 2.316-.279 2.384-1.704.193-4.076-.041-9.012-.114-13.087-.038-2.1-.141-4.148-.392-6.228-.112-.929 2.374-1.721 2.17-2.62-.129-.565-2.473-3.722-2.664-4.254" transform="translate(4 6)"/>
                                        <g fill="#DDD">
                                            <path d="M13.516 19.987zm0 .001zm0 .001v.001zm0 .001v0zm0 .013zm-4.61-.055c.002.018.002.037 0 .056.002-.02.002-.038 0-.056zm4.61.056zm-4.61 0zm4.61 0v.002-.001zm-4.61 0v.002-.001zm0 .002v.001zm4.61 0v.001zM6.973 31.2c-.258 0-.535-.024-.833-.071l-.225-.035c-1.203-.185-2.446-.375-2.526-2.019-.148-3.043-.054-6.493.036-9.83.03-1.11.06-2.194.08-3.223l.006-.375c.058-3.302.119-6.717 1.597-9.802.09-.19.32-.273.516-.183.193.09.276.317.185.507-1.408 2.938-1.466 6.27-1.523 9.492l-.007.375c-.019 1.03-.049 2.116-.08 3.229-.09 3.323-.183 6.76-.037 9.773.048.982.609 1.11 1.873 1.303l.228.036c.592.093 1.389.124 1.828-.26.268-.234.393-.623.37-1.157-.04-.988-.12-1.965-.198-2.91-.17-2.058-.33-4.003-.128-6.112.02-.21.212-.363.422-.344.083.007.158.04.217.09.301.112 1.624.364 2.507.334.906.03 2.083-.218 2.36-.326.061-.054.139-.09.227-.098.208-.02.4.133.42.343h.001v.001c.203 2.11.043 4.055-.127 6.114-.078.944-.158 1.92-.2 2.908-.021.534.103.923.37 1.157.441.384 1.24.354 1.83.26l.228-.036c1.264-.194 1.824-.32 1.872-1.303.146-3.011.053-6.445-.037-9.766-.03-1.115-.06-2.204-.08-3.236-.043-2.364-.168-4.321-.395-6.16-.124-1.003-.33-1.952-.496-2.666-.112-.48-.277-.928-.453-1.404l-.062-.169c-.073-.198.031-.416.233-.487.201-.074.423.03.495.228l.062.169c.176.476.358.968.48 1.493.17.733.382 1.706.51 2.744.23 1.865.357 3.847.401 6.238.02 1.03.049 2.117.079 3.23.09 3.334.184 6.782.037 9.823-.08 1.644-1.324 1.834-2.526 2.019l-.226.035c-1.1.173-1.93.025-2.465-.442-.45-.393-.662-.985-.63-1.758.041-1.003.123-1.987.201-2.938.153-1.86.298-3.624.17-5.482-.657.171-1.657.297-2.28.27-.58.023-1.698-.102-2.414-.28-.13 1.86.015 3.627.169 5.49.078.952.159 1.937.2 2.94.032.773-.18 1.365-.63 1.758-.39.341-.937.513-1.632.513z" transform="translate(4 6) translate(1.715 16.62)"/>
                                            <path d="M20.72 18.732l-.315-.167c-.673-.358-1.67-.753-2.602-1.033l-.362-.11.102-.358c.748-2.635.865-5.048-1.393-7.84l.606-.475c2.328 2.88 2.308 5.355 1.627 8.165.627.204 1.396.493 2.064.815 1.525-2.568 1.353-5.77-.521-9.774-1.482-3.167-3.043-5.222-5.57-7.33l.501-.581c2.587 2.158 4.26 4.358 5.772 7.592 2.066 4.414 2.16 7.947.285 10.8l-.195.296zM10.11 5.402L9.364 10.893 13.56 10.904 12.719 5.402z" transform="translate(4 6) translate(1.715 16.62)"/>
                                            <path d="M9.145 3.784L10.634 6.316 12.1 6.381 13.591 3.671 12.785 3.861zM1.634 18.804l-.195-.295c-1.874-2.853-1.781-6.386.285-10.8C3.237 4.474 4.909 2.275 7.496.116l.5.581C5.47 2.806 3.91 4.86 2.427 8.027c-1.874 4.005-2.046 7.207-.52 9.775.667-.322 1.436-.611 2.063-.815-.681-2.81-1.051-5.121 1.276-8l.606.473c-2.257 2.793-1.79 5.042-1.042 7.677l.102.358-.362.11c-.932.28-1.929.675-2.602 1.032l-.314.167z" transform="translate(4 6) translate(1.715 16.62)"/>
                                        </g>
                                        <path fill="#FFF" d="M18.556 19.334c1.438-.702 2.71-1.697 3.69-3.006 1.021-1.365 1.602-2.776 1.817-4.17C25.075 5.617 18.057-.55 10.907.221 5.83.768 1.325 3.913.432 8.986c-.884 5.022 3.263 9.159 7.363 10.93l5.504.432" transform="translate(4 6)"/>
                                        <path fill="#DDD" d="M11.972 15.378c-2.522 0-7.1-.25-7.295-3.115-.01-.156.109-.291.266-.302.155-.013.294.107.304.264.184 2.679 5.72 2.604 7.538 2.58 4.244-.056 6.587-.955 6.596-2.535 0-.156.129-.282.286-.282h.001c.158.001.285.129.284.285-.007 1.371-1.256 3.022-7.16 3.098-.235.003-.512.007-.82.007M5.763 9.32c-.178 0-.337-.126-.372-.307-.04-.206.094-.405.3-.445.641-.125 1.29-.293 1.916-.455.41-.107.828-.215 1.251-.313-.98-.334-2.486-.459-3.16-.514l-.05-.005c-.209-.017-.364-.2-.347-.409.017-.209.196-.365.41-.347l.049.005c1.879.155 3.717.406 4.428 1.183.094.102.124.247.08.378-.045.132-.157.228-.293.252-.73.129-1.466.32-2.178.504-.637.165-1.297.336-1.961.466-.025.004-.05.007-.073.007M18.554 9.32c-.024 0-.048-.003-.073-.007-.664-.13-1.324-.3-1.961-.466-.712-.184-1.448-.375-2.178-.504-.136-.024-.248-.12-.293-.252-.044-.13-.014-.276.08-.378.711-.777 2.549-1.028 4.428-1.183l.05-.005c.21-.018.392.138.409.347.017.209-.138.392-.346.41l-.05.004c-.675.055-2.182.18-3.161.514.423.098.84.206 1.25.313.628.162 1.275.33 1.917.455.205.04.34.24.3.445-.035.18-.194.307-.372.307" transform="translate(4 6)"/>
                                        <path fill="#DDD" d="M6.741 19.882c-.051 0-.103-.01-.152-.031C1.733 17.778-.67 13.754.162 9.087 1.03 4.217 5.297.677 11.034.066c3.837-.41 7.949 1.124 10.72 4 2.311 2.402 3.38 5.426 2.93 8.297-.237 1.509-.876 2.96-1.9 4.312-.986 1.302-2.281 2.344-3.85 3.101-.19.092-.42.013-.514-.176-.092-.19-.013-.417.178-.509 1.458-.703 2.66-1.67 3.571-2.873.948-1.251 1.538-2.587 1.755-3.972.413-2.635-.58-5.425-2.727-7.654-2.609-2.71-6.47-4.154-10.082-3.77C5.728 1.398 1.725 4.693.92 9.22c-.765 4.296 1.468 8.01 5.974 9.933.195.083.285.307.2.5-.062.144-.203.23-.352.23" transform="translate(4 6)"/>
                                        <path fill="#DDD" d="M9.593 20.467c-.294-.137-.576-.299-.864-.504.901.213 1.823.332 2.747.368.932.037 1.869-.004 2.794-.124.948-.123 1.838-.246 2.72-.635-.077.169-.341.297-.497.397-.436.276-.93.44-1.412.612-1.31.47-2.737.432-4.1.308-.482-.044-.948-.219-1.388-.422" transform="translate(4 6)"/>
                                    </g>
                                </g>
                                <rect width="33" height="33" x=".5" y=".5" stroke="#FFF" rx="16.5"/>
                            </g>
                        </g>
                    </g>
                </g>
            </g>
        </g>
    </g>
</svg>
