<svg xmlns="http://www.w3.org/2000/svg" xmlns:xlink="http://www.w3.org/1999/xlink" width="620" height="72" viewBox="0 0 620 72">
    <defs>
        <path id="x7ngmazfua" d="M4 0h612c2.21 0 4 1.79 4 4v68H0V4c0-2.21 1.79-4 4-4z"/>
    </defs>
    <g fill="none" fill-rule="evenodd">
        <g>
            <g transform="translate(-40 -87) translate(40 87)">
                <mask id="nwyvirmt2b" fill="#fff">
                    <use xlink:href="#x7ngmazfua"/>
                </mask>
                <use fill="#FFF" opacity=".9" xlink:href="#x7ngmazfua"/>
                <path fill="#FF9100" d="M4 0h612c2.21 0 4 1.79 4 4v68H0V4c0-2.21 1.79-4 4-4z" mask="url(#nwyvirmt2b)" opacity=".9"/>
                <path stroke="#FFC31B" stroke-opacity=".8" d="M85.438-4.646L87.923 6.92 76.526 4.302l8.912-8.948z" mask="url(#nwyvirmt2b)" transform="rotate(86 82.056 .966)"/>
                <path stroke="#FFC31B" stroke-opacity=".5" d="M409.438 24.354l2.485 11.566-11.397-2.618 8.912-8.948z" mask="url(#nwyvirmt2b)" opacity=".8" transform="rotate(86 406.056 29.966)"/>
                <circle cx="197.5" cy=".5" r="9.5" fill="#FFC31B" fill-opacity=".6" mask="url(#nwyvirmt2b)"/>
                <circle cx="692" cy="455" r="458" fill="#FFC31B" mask="url(#nwyvirmt2b)" opacity=".4"/>
                <circle cx="637.5" cy="-63.5" r="161.5" fill="#FFC31B" mask="url(#nwyvirmt2b)" opacity=".4"/>
                <circle cx="229.5" cy="18.5" r="4.5" stroke="#FFC31B" stroke-opacity=".7" mask="url(#nwyvirmt2b)"/>
                <circle cx="490.5" cy="73.5" r="4.5" stroke="#FFC31B" stroke-opacity=".8" mask="url(#nwyvirmt2b)"/>
                <path fill="#FFC31B" fill-opacity=".6" d="M312.578 21.324c0 3.866 2.686 7 6 7s6-3.134 6-7" mask="url(#nwyvirmt2b)" transform="rotate(-49 318.578 24.824)"/>
            </g>
        </g>
    </g>
</svg>
