<svg width="361" height="657" xmlns="http://www.w3.org/2000/svg">
    <g fill="none" fill-rule="evenodd">
        <path fill="#FFEEDF" d="M.206 0h360v657h-360z"/>
        <path d="M2.188 257.038c1.208 0 2.187.965 2.187 2.154 0 1.19-.98 2.154-2.188 2.154-1.208 0-2.187-.964-2.187-2.154s.98-2.154 2.188-2.154zm13.124 0c1.209 0 2.188.965 2.188 2.154 0 1.19-.98 2.154-2.188 2.154-1.208 0-2.187-.964-2.187-2.154s.98-2.154 2.188-2.154zm13.126 0c1.208 0 2.187.965 2.187 2.154 0 1.19-.98 2.154-2.188 2.154-1.208 0-2.187-.964-2.187-2.154s.98-2.154 2.188-2.154zm13.125 0c1.208 0 2.187.965 2.187 2.154 0 1.19-.98 2.154-2.188 2.154-1.208 0-2.187-.964-2.187-2.154s.98-2.154 2.188-2.154zm13.124 0c1.209 0 2.188.965 2.188 2.154 0 1.19-.98 2.154-2.188 2.154-1.208 0-2.187-.964-2.187-2.154s.98-2.154 2.188-2.154zm13.126 0c1.208 0 2.187.965 2.187 2.154 0 1.19-.98 2.154-2.188 2.154-1.208 0-2.187-.964-2.187-2.154s.98-2.154 2.188-2.154zM2.186 244.115c1.209 0 2.188.964 2.188 2.154s-.98 2.154-2.188 2.154c-1.208 0-2.187-.964-2.187-2.154s.98-2.154 2.188-2.154zm13.126 0c1.208 0 2.187.964 2.187 2.154s-.98 2.154-2.188 2.154c-1.208 0-2.187-.964-2.187-2.154s.98-2.154 2.188-2.154zm13.124 0c1.209 0 2.188.964 2.188 2.154s-.98 2.154-2.188 2.154c-1.208 0-2.187-.964-2.187-2.154s.98-2.154 2.188-2.154zm13.125 0c1.209 0 2.188.964 2.188 2.154s-.98 2.154-2.188 2.154c-1.208 0-2.187-.964-2.187-2.154s.98-2.154 2.188-2.154zm13.126 0c1.208 0 2.187.964 2.187 2.154s-.98 2.154-2.188 2.154c-1.208 0-2.187-.964-2.187-2.154s.98-2.154 2.188-2.154zm13.124 0c1.209 0 2.188.964 2.188 2.154s-.98 2.154-2.188 2.154c-1.208 0-2.187-.964-2.187-2.154s.98-2.154 2.188-2.154zM2.189 231.192c1.208 0 2.187.964 2.187 2.154s-.98 2.154-2.188 2.154C.98 235.5 0 234.535 0 233.346c0-1.19.98-2.154 2.188-2.154zm13.124 0c1.209 0 2.188.964 2.188 2.154s-.98 2.154-2.188 2.154c-1.208 0-2.187-.965-2.187-2.154 0-1.19.98-2.154 2.188-2.154zm13.126 0c1.208 0 2.187.964 2.187 2.154s-.98 2.154-2.188 2.154c-1.208 0-2.187-.965-2.187-2.154 0-1.19.98-2.154 2.188-2.154zm13.125 0c1.208 0 2.187.964 2.187 2.154s-.98 2.154-2.188 2.154c-1.208 0-2.187-.965-2.187-2.154 0-1.19.98-2.154 2.188-2.154zm13.124 0c1.209 0 2.188.964 2.188 2.154s-.98 2.154-2.188 2.154c-1.208 0-2.187-.965-2.187-2.154 0-1.19.98-2.154 2.188-2.154zm13.126 0c1.208 0 2.187.964 2.187 2.154s-.98 2.154-2.188 2.154c-1.208 0-2.187-.965-2.187-2.154 0-1.19.98-2.154 2.188-2.154zM2.186 218.27c1.209 0 2.188.964 2.188 2.154s-.98 2.154-2.188 2.154c-1.208 0-2.187-.965-2.187-2.154 0-1.19.98-2.154 2.188-2.154zm13.126 0c1.208 0 2.187.964 2.187 2.154s-.98 2.154-2.188 2.154c-1.208 0-2.187-.965-2.187-2.154 0-1.19.98-2.154 2.188-2.154zm13.124 0c1.209 0 2.188.964 2.188 2.154s-.98 2.154-2.188 2.154c-1.208 0-2.187-.965-2.187-2.154 0-1.19.98-2.154 2.188-2.154zm13.125 0c1.209 0 2.188.964 2.188 2.154s-.98 2.154-2.188 2.154c-1.208 0-2.187-.965-2.187-2.154 0-1.19.98-2.154 2.188-2.154zm13.126 0c1.208 0 2.187.964 2.187 2.154s-.98 2.154-2.188 2.154c-1.208 0-2.187-.965-2.187-2.154 0-1.19.98-2.154 2.188-2.154zm13.124 0c1.209 0 2.188.964 2.188 2.154s-.98 2.154-2.188 2.154c-1.208 0-2.187-.965-2.187-2.154 0-1.19.98-2.154 2.188-2.154zM2.189 205.346c1.208 0 2.187.964 2.187 2.154s-.98 2.154-2.188 2.154C.98 209.654 0 208.689 0 207.5c0-1.19.98-2.154 2.188-2.154zm13.124 0c1.209 0 2.188.964 2.188 2.154s-.98 2.154-2.188 2.154c-1.208 0-2.187-.965-2.187-2.154 0-1.19.98-2.154 2.188-2.154zm13.126 0c1.208 0 2.187.964 2.187 2.154s-.98 2.154-2.188 2.154c-1.208 0-2.187-.965-2.187-2.154 0-1.19.98-2.154 2.188-2.154zm13.125 0c1.208 0 2.187.964 2.187 2.154s-.98 2.154-2.188 2.154c-1.208 0-2.187-.965-2.187-2.154 0-1.19.98-2.154 2.188-2.154zm13.124 0c1.209 0 2.188.964 2.188 2.154s-.98 2.154-2.188 2.154c-1.208 0-2.187-.965-2.187-2.154 0-1.19.98-2.154 2.188-2.154zm13.126 0c1.208 0 2.187.964 2.187 2.154s-.98 2.154-2.188 2.154c-1.208 0-2.187-.965-2.187-2.154 0-1.19.98-2.154 2.188-2.154z" fill="#FF7800" fill-rule="nonzero"/>
        <path d="M292.318 516.695c6.798 0 6.798 4.5 13.594 4.5 6.8 0 6.8-4.5 13.6-4.5 6.798 0 6.798 4.5 13.597 4.5 6.8 0 6.8-4.5 13.604-4.5 6.8 0 6.8 4.5 13.605 4.5m-68 2.25c6.798 0 6.798 4.5 13.594 4.5 6.8 0 6.8-4.5 13.6-4.5 6.798 0 6.798 4.5 13.597 4.5 6.8 0 6.8-4.5 13.604-4.5 6.8 0 6.8 4.5 13.605 4.5m-68 2.25c6.798 0 6.798 4.5 13.594 4.5 6.8 0 6.8-4.5 13.6-4.5 6.798 0 6.798 4.5 13.597 4.5 6.8 0 6.8-4.5 13.604-4.5 6.8 0 6.8 4.5 13.605 4.5" stroke="#FF7800" stroke-width="1.09" stroke-linecap="round"/>
        <circle fill="#FFD6B2" fill-rule="nonzero" cx="23.485" cy="577.216" r="12"/>
        <circle fill="#FF7800" fill-rule="nonzero" cx="40.421" cy="593.745" r="5"/>
    </g>
</svg>
