<svg xmlns="http://www.w3.org/2000/svg" xmlns:xlink="http://www.w3.org/1999/xlink" width="716" height="124" viewBox="0 0 716 124">
    <defs>
        <path id="a" d="M0 0h716v124H0z"/>
    </defs>
    <g fill="none" fill-rule="evenodd">
        <mask id="b" fill="#fff">
            <use xlink:href="#a"/>
        </mask>
        <g mask="url(#b)">
            <path fill="#FFF" fill-rule="nonzero" d="M-52 0h820v124H-52z"/>
            <path stroke="#EDEDED" stroke-linecap="round" stroke-width="1.5" d="M757.341 86.256c-4.772-15.034-11.8-15.034-19.366-16.711-7.567-1.677-14.323.838-17.602 2.212 1.62-4.341.702-9.948-3.307-13.254-4.01-3.306-10.292-2.776-12.93-1.957.438-2.4-.213-4.08-1.727-4.775-1.514-.696-3.605-.098-5.146 1.756-.353-2.393-.966-6.184-5.165-6.735-4.199-.551-6.011 2.057-7.18 4.342-1.375-4.209-3.4-8.302-6.56-11.403-3.16-3.104-7.579-5.114-11.984-4.67-4.406.444-8.595 3.68-9.456 8.023-1.283-.686-3.212-.687-4.16.155-.946.843-.946 2.1-.87 3.553-7.068-1.23-14.697 1.547-19.322 7.034-4.624 5.486-5.963 13.56-3.554 20.318-1.366-1.077-5.664-2.133-8.414-1.077-2.75 1.057-4.898 3.557-5.527 6.435-.734-1.48-2.098-2.71-3.978-2.84-1.88-.128-3.313.772-4.235 2.258-6.635-10.056-19.062-14.608-30.444-10.656-11.381 3.952-18.842 16.177-17.817 28.181-4.127-2.61-11.712-3.877-18.328-.507-6.616 3.37-8.24 10.119-8.24 13.978-2.936-1.951-7.5-1.393-9.932 1.16-2.519-1.022-8.255-2.409-13.25-1.16-4.773 1.193-7.722 3.221-8.847 6.084"/>
            <g stroke="#DDD">
                <path stroke-linecap="round" d="M172.904 85.818h37.626m-43.563 6.604h15.877"/>
                <path stroke-width="1.5" d="M164.746 93.61l-30.86 14.288c-.94.434-2.053.03-2.495-.905l-7.684-16.36a1.86 1.86 0 0 1 .906-2.479l30.86-14.287a1.885 1.885 0 0 1 2.495.904l7.684 16.36a1.86 1.86 0 0 1-.906 2.48v-.001z"/>
                <path d="M157.71 74.522l-10.723 20.06a.942.942 0 0 1-1.11.513l-22.553-4.79m26.756-1.509l16.4 4.012m-34.387 15.784l7.357-14.862"/>
                <path stroke-width="1.5" d="M136.631 45.834c-1.249-6.193 3.274-10.535 7.018-11.994 3.092-1.205 8.484-.95 11.268 3.93a40.262 40.262 0 0 0-1.263-3.024C145.24 16.704 125.2 8.244 108.892 15.848c-16.31 7.605-22.71 28.396-14.297 46.437 1.119 2.399 1.876 2.735 1.876 2.735-1.713-5.155.935-9.617 4.462-11.262 3.763-1.754 8.009-2.472 13.235 2.535"/>
                <path stroke-width="1.5" d="M112.685 14.454c8.627 3.197 16.073 9.699 20.292 18.748 1.933 4.146 3.197 8.385 3.511 12.683-3.666-4.035-9.618-4.966-14.764-2.567-5.147 2.4-8.084 7.477-7.348 12.879l-.19.06c-3.237-3.067-5.875-6.324-7.878-10.62-4.22-9.048-4.415-18.93-1.318-27.595"/>
                <path d="M114.168 56.293s3.656 6.233 10.823 13.322c6.109 6.043 14.397 11.656 14.397 11.656m-2.705-35.477s2.424 6.807 3.248 16.854c.703 8.564-.324 18.52-.324 18.52M96.145 64.904s5.916 7.952 19.96 12.994c12.337 4.43 22.643 3.461 22.643 3.461m16.185-43.869s2.288 9.644-2.875 23.642c-4.537 12.3-11.905 19.572-11.905 19.572"/>
            </g>
            <path fill="#FFF" fill-rule="nonzero" stroke="#EDEDED" stroke-linecap="round" stroke-width="1.5" d="M39.93 78.229c1.696-1.698 1.79-2.36 2.846-4.514 1.056-2.155 1.34-4.84.121-6.908-1.217-2.068-3.834-3.16-5.804-1.79-.991-4.35-5.472-7.613-9.916-7.221-4.445.392-8.284 4.39-8.497 8.846a4.716 4.716 0 0 0-4.44.412c-1.284.87-1.699 2.428-1.652 3.978-3.475-3.205-8.003-3.978-12.44-1.61-4.437 2.366-5.194 5.917-5.726 10.707-.71-.701-2.494-2.359-5.061-1.447-2.567.912-3.162 3.064-3.162 4.246-2.977-1.959-5.723-3.563-10.018-.77-4.296 2.792-11.03 6.463-19.506 7.078-5.651.41 24.195.204 89.537-.615-2.21-1.732-2.21-3.886 0-6.463 3.314-3.866-4.803-3.929-6.282-3.929z"/>
        </g>
    </g>
</svg>
