<svg width="360" height="60" viewBox="0 0 360 60" xmlns="http://www.w3.org/2000/svg" xmlns:xlink="http://www.w3.org/1999/xlink">
    <defs>
        <path id="a" d="M0 0h360v60H0z"/>
    </defs>
    <g fill="none" fill-rule="evenodd">
        <mask id="b" fill="#fff">
            <use xlink:href="#a"/>
        </mask>
        <path d="M361.987 38.417c-2.457-7.742-6.076-7.742-9.972-8.605-3.897-.864-7.376.431-9.064 1.139.834-2.236.361-5.123-1.703-6.825-2.065-1.703-5.3-1.43-6.658-1.008.225-1.236-.11-2.101-.89-2.459-.78-.358-1.856-.05-2.65.904-.181-1.232-.497-3.184-2.66-3.468-2.162-.284-3.095 1.06-3.697 2.236-.708-2.167-1.75-4.275-3.378-5.872-1.627-1.598-3.902-2.633-6.17-2.405-2.27.229-4.427 1.895-4.87 4.132-.66-.353-1.654-.354-2.142.08-.487.434-.487 1.081-.448 1.83-3.64-.634-7.568.796-9.95 3.621-2.381 2.825-3.07 6.983-1.83 10.463-.703-.555-2.917-1.098-4.333-.555a4.688 4.688 0 0 0-2.846 3.314c-.378-.762-1.08-1.396-2.048-1.462-.968-.066-1.706.397-2.181 1.162-3.417-5.178-9.816-7.522-15.677-5.487-5.86 2.035-9.702 8.33-9.175 14.512-2.125-1.344-6.03-1.997-9.438-.261-3.406 1.735-4.243 5.21-4.243 7.197-1.512-1.004-3.862-.717-5.114.598-1.297-.527-4.25-1.24-6.823-.598-2.458.615-3.976 1.66-4.556 3.133" stroke="#EDEDED" stroke-width=".772" stroke-linecap="round" mask="url(#b)"/>
        <g stroke="#DDD" mask="url(#b)">
            <path d="M85.036 39.191h19.375m-22.433 3.401h8.176" stroke-width=".515" stroke-linecap="round"/>
            <path d="M80.835 43.204 64.944 50.56a.97.97 0 0 1-1.285-.466l-3.957-8.424a.958.958 0 0 1 .467-1.277l15.89-7.357a.97.97 0 0 1 1.285.466l3.957 8.424a.958.958 0 0 1-.466 1.277z" stroke-width=".772"/>
            <path d="m77.212 33.375-5.522 10.33a.485.485 0 0 1-.572.263l-11.613-2.466m13.778-.777 8.445 2.066M64.02 50.919l3.789-7.653" stroke-width=".515"/>
            <path d="M66.357 18.602c-.643-3.19 1.686-5.425 3.614-6.176 1.592-.62 4.369-.49 5.802 2.023a20.733 20.733 0 0 0-.65-1.557C70.79 3.602 60.471-.755 52.073 3.161c-8.399 3.916-11.694 14.622-7.362 23.912.576 1.236.966 1.409.966 1.409-.882-2.655.481-4.953 2.298-5.8 1.937-.903 4.124-1.273 6.815 1.306" stroke-width=".772"/>
            <path d="M54.026 2.443a18.67 18.67 0 0 1 10.45 9.654c.995 2.135 1.646 4.318 1.807 6.531-1.887-2.078-4.952-2.557-7.602-1.322-2.65 1.236-4.163 3.85-3.784 6.632l-.098.031c-1.667-1.58-3.025-3.256-4.056-5.469a18.667 18.667 0 0 1-.68-14.21" stroke-width=".772"/>
            <path d="M54.79 23.988s1.883 3.21 5.573 6.86c3.146 3.112 7.414 6.002 7.414 6.002M66.384 18.58s1.248 3.505 1.672 8.68c.362 4.41-.166 9.536-.166 9.536m-22.38-8.375s3.046 4.095 10.277 6.691c6.353 2.281 11.66 1.782 11.66 1.782m8.335-22.59s1.178 4.966-1.48 12.174c-2.337 6.334-6.131 10.079-6.131 10.079" stroke-width=".515"/>
        </g>
        <path d="M22.562 37.283c.873-.874.921-1.215 1.465-2.324.544-1.11.69-2.492.062-3.557-.626-1.065-1.974-1.627-2.988-.922-.51-2.24-2.818-3.92-5.106-3.718-2.29.201-4.266 2.26-4.376 4.555a2.428 2.428 0 0 0-2.286.212c-.661.448-.875 1.25-.85 2.048-1.79-1.65-4.122-2.048-6.407-.829s-2.674 3.047-2.948 5.514c-.366-.361-1.285-1.215-2.606-.745-1.322.47-1.629 1.577-1.629 2.186-1.533-1.009-2.947-1.835-5.158-.396-2.213 1.437-5.68 3.328-10.045 3.644-2.91.212 12.46.105 46.107-.316-1.138-.892-1.138-2.001 0-3.328 1.706-1.991-2.474-2.024-3.235-2.024z" stroke="#EDEDED" stroke-width=".772" fill="#FFF" fill-rule="nonzero" stroke-linecap="round" mask="url(#b)"/>
    </g>
</svg>
