<svg xmlns="http://www.w3.org/2000/svg" width="40" height="40" viewBox="0 0 40 40">
    <g fill="#39C8D0" fill-rule="evenodd">
        <path d="M38.5 12.6c-.2-.5-.8-.8-1.3-.6-.5.2-.8.8-.6 1.3.8 2.1 1.3 4.3 1.3 6.6 0 9.9-8 17.9-17.9 17.9-9.9 0-17.9-7.9-17.9-17.8S10.1 2.1 20 2.1c5 0 9.6 2 13 5.6.4.4 1 .4 1.4 0 .4-.4.4-1 0-1.4-3.7-4-9-6.3-14.5-6.3C9 .1.1 9 .1 20S9 39.9 20 39.9c11 0 19.9-8.9 19.9-19.9 0-2.5-.5-5-1.4-7.4z"/>
        <path d="M20 30c.6 0 1-.4 1-1v-8h8c.6 0 1-.4 1-1s-.4-1-1-1h-8v-8c0-.6-.4-1-1-1s-1 .4-1 1v8h-8c-.6 0-1 .4-1 1s.4 1 1 1h8v8c0 .6.4 1 1 1z"/>
    </g>
</svg>
