<svg xmlns="http://www.w3.org/2000/svg" width="272" height="109" viewBox="0 0 272 109">
    <g fill="none" fill-rule="evenodd">
        <g>
            <g>
                <path d="M0 0H272V109H0z" transform="translate(-39 -938) translate(39 938)"/>
                <g>
                    <g transform="translate(-39 -938) translate(39 938) translate(207)">
                        <rect width="63" height="109" fill="#FFF" rx="3.979"/>
                        <path fill="#DDD" fill-rule="nonzero" d="M59.943 0C61.631 0 63 1.348 63 3.012v102.976c0 1.664-1.369 3.012-3.057 3.012H3.057C1.369 109 0 107.652 0 105.988V3.012C0 1.348 1.369 0 3.057 0h56.886zm0 .757H3.057C1.838.757.842 1.696.772 2.879l-.004.133v102.976c0 1.201.953 2.183 2.154 2.251l.135.004h56.886c1.219 0 2.215-.939 2.285-2.122l.004-.133V3.012c0-1.201-.953-2.183-2.154-2.251l-.135-.004z"/>
                    </g>
                    <g fill="#FFD6B2" fill-rule="nonzero">
                        <g>
                            <path d="M47 7.948c.393 0 .712.339.712.757 0 .388-.275.708-.629.752L47 9.462H0c-.393 0-.712-.34-.712-.757 0-.388.275-.708.629-.752L0 7.948h47zM47 17.031c.393 0 .712.34.712.757 0 .388-.275.708-.629.752l-.083.005H0c-.393 0-.712-.339-.712-.757 0-.388.275-.708.629-.752L0 17.031h47zM47 26.115c.393 0 .712.338.712.757 0 .388-.275.708-.629.751l-.083.005H0c-.393 0-.712-.338-.712-.756 0-.389.275-.709.629-.752L0 26.115h47zM47 35.198c.393 0 .712.339.712.757 0 .388-.275.708-.629.752l-.083.005H0c-.393 0-.712-.34-.712-.757 0-.388.275-.708.629-.752L0 35.198h47zM47 44.281c.393 0 .712.34.712.757 0 .388-.275.708-.629.752l-.083.005H0c-.393 0-.712-.339-.712-.757 0-.388.275-.708.629-.752L0 44.281h47zM47 53.365c.393 0 .712.338.712.757 0 .388-.275.708-.629.751l-.083.005H0c-.393 0-.712-.338-.712-.756 0-.389.275-.709.629-.752L0 53.365h47zM47 62.448c.393 0 .712.339.712.757 0 .388-.275.708-.629.752l-.083.005H0c-.393 0-.712-.34-.712-.757 0-.388.275-.708.629-.752L0 62.448h47zM47 71.531c.393 0 .712.34.712.757 0 .388-.275.708-.629.752l-.083.005H0c-.393 0-.712-.339-.712-.757 0-.388.275-.708.629-.752L0 71.531h47zM28.92 0c.393 0 .712.339.712.757 0 .388-.275.708-.63.752l-.082.005H0c-.393 0-.712-.339-.712-.757 0-.388.275-.708.629-.752L0 0h28.92z" transform="translate(-39 -938) translate(39 938) translate(207) translate(8 18.167)"/>
                        </g>
                    </g>
                </g>
                <g>
                    <path fill="#FFF" d="M0 0H193V109H0z" transform="translate(-39 -938) translate(39 938) translate(2)"/>
                    <path fill="#FFD6B2" fill-rule="nonzero" d="M47.615 35.387c.52 0 .943.424.943.946 0 .49-.371.893-.847.942l-.096.005H18.094c-.52 0-.943-.424-.943-.947 0-.49.371-.893.846-.941l.097-.005h29.521zM174.906 44.849c.52 0 .943.424.943.946 0 .49-.371.893-.846.941l-.097.005H18.094c-.52 0-.943-.423-.943-.946 0-.49.371-.893.846-.941l.097-.005h156.812zM174.906 53.932c.52 0 .943.424.943.946 0 .49-.371.893-.846.942l-.097.005H18.094c-.52 0-.943-.424-.943-.947 0-.49.371-.892.846-.94l.097-.006h156.812zM174.906 63.016c.52 0 .943.423.943.946 0 .49-.371.893-.846.941l-.097.005H18.094c-.52 0-.943-.424-.943-.946 0-.49.371-.893.846-.941l.097-.005h156.812zM175.283 72.099c.52 0 .943.424.943.946 0 .49-.371.893-.846.941l-.097.005H18.093c-.52 0-.942-.423-.942-.946 0-.49.371-.893.846-.941l.097-.005h157.19zM111.687 81.182c.52 0 .942.424.942.946 0 .49-.37.893-.846.942l-.096.005H18.094c-.52 0-.943-.424-.943-.947 0-.49.371-.892.846-.94l.097-.006h93.593z" transform="translate(-39 -938) translate(39 938) translate(2)"/>
                    <path fill="#DDD" fill-rule="nonzero" d="M189.984 0C191.65 0 193 1.356 193 3.028v102.944c0 1.672-1.35 3.028-3.016 3.028H3.016C1.35 109 0 107.644 0 105.972V3.028C0 1.356 1.35 0 3.016 0h186.968zm0 .757H3.016C1.81.757.826 1.702.758 2.894l-.004.134v102.944c0 1.21.941 2.198 2.129 2.267l.133.004h186.968c1.205 0 2.19-.945 2.258-2.137l.004-.134V3.028c0-1.21-.941-2.198-2.129-2.267l-.133-.004z" transform="translate(-39 -938) translate(39 938) translate(2)"/>
                </g>
            </g>
        </g>
    </g>
</svg>
