<svg xmlns="http://www.w3.org/2000/svg" xmlns:xlink="http://www.w3.org/1999/xlink" width="272" height="110" viewBox="0 0 272 110">
    <defs>
        <path id="q02thtsfha" d="M0 0H193V109H0z"/>
    </defs>
    <g fill="none" fill-rule="evenodd">
        <g>
            <g>
                <path d="M0 0H272V109H0z" transform="translate(-362 -805) translate(362 805)"/>
                <g>
                    <g transform="translate(-362 -805) translate(362 805) translate(207)">
                        <rect width="63" height="109" fill="#FFF" rx="3.979"/>
                        <rect width="53.78" height="34.063" x="4.61" y="4.542" fill="#EEE" rx="2"/>
                        <g fill="#DDD" transform="translate(16.902 13.625)">
                            <ellipse cx="9.393" cy="2.057" rx="2.087" ry="2.057"/>
                            <path d="M4.453 10.928c1.608-1.994 4.572-2.363 6.616-.828L8.91 8.48c2.046 1.536 5.056 1.198 6.721-.756l1.331-1.562c1.666-1.954 4.169-1.814 5.592.314l6.67 9.977H0l4.453-5.525z"/>
                        </g>
                    </g>
                    <path fill="#DDD" fill-rule="nonzero" d="M59.927 0C61.624 0 63 1.356 63 3.028v102.944c0 1.672-1.376 3.028-3.073 3.028H3.073C1.376 109 0 107.644 0 105.972V3.028C0 1.356 1.376 0 3.073 0h56.854zm0 .757H3.073c-1.227 0-2.23.945-2.3 2.137l-.005.134v102.944c0 1.21.96 2.198 2.17 2.267l.135.004h56.854c1.227 0 2.23-.945 2.3-2.137l.005-.134V3.028c0-1.21-.96-2.198-2.17-2.267l-.135-.004z" transform="translate(-362 -805) translate(362 805) translate(207)"/>
                    <path fill="#DDD" fill-rule="nonzero" d="M57.43 71.001c.53 0 .96.424.96.947 0 .49-.378.892-.862.94l-.098.006H5.57c-.53 0-.96-.424-.96-.946 0-.49.378-.893.862-.942l.098-.005h51.86zm0 8.274c.53 0 .96.423.96.946 0 .49-.378.893-.862.941l-.098.005H5.57c-.53 0-.96-.423-.96-.946 0-.49.378-.893.862-.941l.098-.005h51.86zm-7.683 8.273c.53 0 .96.424.96.946 0 .49-.378.893-.862.942l-.098.005H5.57c-.53 0-.96-.424-.96-.947 0-.49.378-.892.862-.94l.098-.006h44.177zm7.683-24.823c.53 0 .96.424.96.947 0 .49-.378.892-.862.94l-.098.006H5.57c-.53 0-.96-.424-.96-.946 0-.49.378-.893.862-.942l.098-.005h51.86zm0-8.275c.53 0 .96.423.96.946 0 .49-.378.893-.862.941l-.098.005H5.57c-.53 0-.96-.424-.96-.946 0-.49.378-.893.862-.942l.098-.004h51.86zm-29.81-8.276c.53 0 .96.423.96.946 0 .49-.377.893-.862.941l-.098.005H5.57c-.53 0-.96-.424-.96-.946 0-.49.378-.893.862-.942l.098-.004h22.05z" transform="translate(-362 -805) translate(362 805) translate(207)"/>
                </g>
                <g>
                    <g transform="translate(-362 -805) translate(362 805) translate(2)">
                        <use fill="#FFF" xlink:href="#q02thtsfha"/>
                    </g>
                    <g transform="translate(-362 -805) translate(362 805) translate(2) translate(9.047 9.083)">
                        <rect width="174.906" height="48.444" fill="#EEE" rx="1.464"/>
                        <path fill="#DDD" d="M99.29 16.25l16.058 23.111H60.313l12.343-14.735c.841-1.004 2.384-1.197 3.454-.424l6.03 4.358c1.067.77 2.638.597 3.508-.385l10.713-12.09c.871-.984 2.187-.903 2.929.165zM79.16 9.083c2.082 0 3.77 1.695 3.77 3.785s-1.688 3.785-3.77 3.785-3.77-1.695-3.77-3.785 1.688-3.785 3.77-3.785z"/>
                    </g>
                    <g fill="#DDD" fill-rule="nonzero">
                        <path d="M175.283.568c.52 0 .943.423.943.946 0 .49-.371.893-.846.941l-.097.005H1.508c-.52 0-.943-.424-.943-.946 0-.49.371-.893.846-.941l.097-.005h173.775zM174.906 9.651c.52 0 .943.424.943.946 0 .49-.371.893-.846.942l-.097.004H1.508c-.52 0-.943-.423-.943-.946 0-.49.371-.893.846-.941l.097-.005h173.398zM174.906 18.734c.52 0 .943.424.943.947 0 .49-.371.892-.846.94l-.097.006H1.508c-.52 0-.943-.424-.943-.946 0-.49.371-.893.846-.942l.097-.005h173.398zM116.102 27.818c.52 0 .942.423.942.946 0 .49-.37.893-.846.941l-.096.005H1.508c-.52 0-.943-.424-.943-.946 0-.49.371-.893.846-.941l.097-.005h114.594z" transform="translate(-362 -805) translate(362 805) translate(2) translate(8.293 65.097)"/>
                    </g>
                    <path fill="#DDD" fill-rule="nonzero" d="M189.984 0C191.65 0 193 1.356 193 3.028v102.944c0 1.672-1.35 3.028-3.016 3.028H3.016C1.35 109 0 107.644 0 105.972V3.028C0 1.356 1.35 0 3.016 0h186.968zm0 .757H3.016C1.81.757.826 1.702.758 2.894l-.004.134v102.944c0 1.21.941 2.198 2.129 2.267l.133.004h186.968c1.205 0 2.19-.945 2.258-2.137l.004-.134V3.028c0-1.21-.941-2.198-2.129-2.267l-.133-.004z" transform="translate(-362 -805) translate(362 805) translate(2)"/>
                </g>
            </g>
        </g>
    </g>
</svg>
