<svg xmlns="http://www.w3.org/2000/svg" viewBox="0 0 24 24"><path d="M5.69 23.56a1.65 1.65 0 0 1-1-.31 1.8 1.8 0 0 1-.84-1.63 1.09 1.09 0 0 1 0-.18L5 15.33.55 11A1.72 1.72 0 0 1 0 9.33a1.85 1.85 0 0 1 1.29-1.4h.18L7.67 7l2.58-5.32v-.13A1.79 1.79 0 0 1 12 .44a1.77 1.77 0 0 1 1.67 1.09.58.58 0 0 1 0 .14c.45.89 2.61 5.17 2.88 5.76a1 1 0 0 1-.5 1.32 1 1 0 0 1-1.32-.5c-.22-.47-2-3.93-2.78-5.55L9.24 8.33a1 1 0 0 1-.76.56l-6.32.92 4.57 4.46a1 1 0 0 1 .29.89l-1.09 6.21 5.57-2.94a1 1 0 0 1 .93 0l5.64 3L17 15.16a1 1 0 0 1 .28-.89l4.51-4.4c-.42 0-1.14-.15-1.94-.28a1 1 0 1 1 .31-2c1.23.19 2.27.32 2.27.32A1.8 1.8 0 0 1 24 9.37a1.73 1.73 0 0 1-.45 1.6L19 15.33l1.06 6.06a1.83 1.83 0 0 1-2.69 1.9L12 20.44l-5.44 2.87a1.73 1.73 0 0 1-.87.25zm.23-1.91zm-.35-.08zm12.77-.05zM1.89 9.55h.05z"/></svg>