<svg xmlns="http://www.w3.org/2000/svg" viewBox="0 0 24 24"><path d="M22.74 13.48c-.51-.92 1.7-1.72.91-3.93A2.24 2.24 0 0 0 21.23 8h-4.14c-.67 0-.12-.77.17-2a4.52 4.52 0 0 0-.18-2.8C16 .45 13.2-.29 11.43 1s0 1.84-1.27 4.18-1.07 1.43-2.43 3.06C6.25 10 6.73 10.42 6 10.42H2.18a2 2 0 0 0-2 2v9.2a2 2 0 0 0 2 2h16.57c1.8-.35 3.08-.37 4-2.41s-.63-3.05 0-3.89a4.52 4.52 0 0 0-.01-3.84zM21.59 11a2.94 2.94 0 0 1-.22.31c-.11.16-.19.29-.28.44a2.86 2.86 0 0 0-.42 1.75 2.73 2.73 0 0 0 .32 1 2.81 2.81 0 0 1 .18 1c0 .4-.05.68 0 .65a2.8 2.8 0 0 0-.53 2.11 3.6 3.6 0 0 0 .16.67c0 .11.17.52.14.43a1.19 1.19 0 0 1 0 1.06c-.35.8-.51.89-1.78 1.12l-.36.07H8.18v-6.24a1 1 0 1 0-2 0v6.25h-4v-9.2H6a2.45 2.45 0 0 0 2.22-1.18c.1-.16.34-.64.4-.74a7.21 7.21 0 0 1 .7-1 5.5 5.5 0 0 1 .94-.95l.22-.2a8.46 8.46 0 0 0 1.5-2.26 5.48 5.48 0 0 0 .67-3.49c.78-.56 2.06-.12 2.64 1.3a2.8 2.8 0 0 1-.1 2.1c0 .12-.18.52-.19.56a4.48 4.48 0 0 0-.2.78A2.25 2.25 0 0 0 17.09 10h4.14c.43 0 .44 0 .54.27s.08.3-.18.73z"/></svg>