<svg id="圖層_1" data-name="圖層 1" xmlns="http://www.w3.org/2000/svg" viewBox="0 0 24 24"><defs><style>.cls-1{fill:#f6f6f6;}.cls-2{fill:#ddd;}.cls-3{fill:#ff9100;}.cls-4{fill:#7e7e7e;}</style></defs><title>icon_read</title><g id="Rectangle-9"><rect class="cls-1" x="0.8" y="0.8" width="22.4" height="22.4" rx="6.4" ry="6.4"/></g><path class="cls-2" d="M16.8,24H7.2A7.21,7.21,0,0,1,0,16.8V7.2A7.21,7.21,0,0,1,7.2,0h9.6A7.21,7.21,0,0,1,24,7.2v9.6A7.21,7.21,0,0,1,16.8,24ZM7.2,1.6A5.6,5.6,0,0,0,1.6,7.2v9.6a5.6,5.6,0,0,0,5.6,5.6h9.6a5.6,5.6,0,0,0,5.6-5.6V7.2a5.6,5.6,0,0,0-5.6-5.6Z"/><path class="cls-3" d="M7.79,11A2.4,2.4,0,1,0,4,11,5.86,5.86,0,0,0,1.9,15.74c0,1.55,8,1.45,8,0A5.86,5.86,0,0,0,7.79,11Z"/><g id="Path-5"><path class="cls-4" d="M20.8,9.54h-8a.8.8,0,1,1,0-1.6h8a.8.8,0,1,1,0,1.6Z"/></g><g id="Path-5-2" data-name="Path-5"><path class="cls-4" d="M20.8,12.74h-8a.8.8,0,0,1,0-1.6h8a.8.8,0,0,1,0,1.6Z"/></g><g id="Path-5-3" data-name="Path-5"><path class="cls-4" d="M20.8,15.94h-8a.8.8,0,1,1,0-1.6h8a.8.8,0,1,1,0,1.6Z"/></g></svg>