<svg xmlns="http://www.w3.org/2000/svg" xmlns:xlink="http://www.w3.org/1999/xlink" width="302" height="226" viewBox="0 0 302 226">
    <defs>
        <rect id="ug4s1r05ta" width="302" height="226" x="0" y="0" rx="4"/>
        <rect id="z1czbwxbdb" width="302" height="226" x="0" y="0" rx="4"/>
    </defs>
    <g fill="none" fill-rule="evenodd">
        <g>
            <g transform="translate(-365.000000, -526.000000) translate(365.000000, 526.000000)">
                <rect width="301" height="225" x=".5" y=".5" stroke="#FFF" rx="4"/>
                <mask id="8y4zwi6z7c" fill="#fff">
                    <use xlink:href="#z1czbwxbdb"/>
                </mask>
                <rect width="301" height="225" x=".5" y=".5" stroke="#FFF" rx="4"/>
                <g fill="#DDD" mask="url(#8y4zwi6z7c)">
                    <g transform="translate(108.000000, 69.000000)">
                        <ellipse cx="29.198" cy="5.837" rx="5.84" ry="5.837"/>
                        <path d="M19.37 28.66c1.27-1.53 3.604-1.818 5.206-.649l9.643 7.033c1.606 1.171 3.967.913 5.288-.592l16.907-19.26c1.315-1.498 3.294-1.386 4.426.258L86 52H0l19.37-23.34z"/>
                    </g>
                </g>
            </g>
        </g>
    </g>
</svg>
