<svg width="116" height="40" xmlns="http://www.w3.org/2000/svg">
    <g fill-rule="nonzero" fill="none">
        <path d="M58 40c26.302 0 48.756-16.338 57.86-39.4H.14C9.244 23.662 31.7 40 58 40" fill-opacity=".5" fill="#292929"/>
        <path d="M58 28.096a6.458 6.458 0 0 1-6.449-6.45A6.458 6.458 0 0 1 58 15.197a6.457 6.457 0 0 1 6.449 6.45A6.457 6.457 0 0 1 58 28.097m9.973-15.854H65.21v-1.609a2.111 2.111 0 0 0-2.102-2.102H52.893a2.111 2.111 0 0 0-2.102 2.102v1.61h-2.764a3.368 3.368 0 0 0-3.36 3.357v11.996a3.369 3.369 0 0 0 3.36 3.36h19.946a3.369 3.369 0 0 0 3.36-3.36V15.6a3.368 3.368 0 0 0-3.36-3.356" fill="#FFF"/>
        <path d="M58 18.089a3.562 3.562 0 0 0-3.56 3.558A3.563 3.563 0 0 0 58 25.204a3.563 3.563 0 0 0 3.56-3.555c0-1.967-1.6-3.562-3.56-3.562" fill="#FFF"/>
    </g>
</svg>
