<svg xmlns="http://www.w3.org/2000/svg" viewBox="0 0 24 24"><path class="cls-1" d="M13 14.25h3.5v3a.83.83 0 0 0 .29.67.45.45 0 0 0 .58 0l6.36-5.25A.86.86 0 0 0 24 12a.89.89 0 0 0-.27-.66l-6.36-5.23a.48.48 0 0 0-.3-.11.44.44 0 0 0-.28.1.83.83 0 0 0-.29.67v3H13a1 1 0 0 0-1 1v2.5a1 1 0 0 0 1 .98z"/><path class="cls-1" d="M18.65 19.43a2.84 2.84 0 0 1-.65.38V20a2 2 0 0 1-2 2H4a2 2 0 0 1-2-2V4a2 2 0 0 1 2-2h12a2 2 0 0 1 2 2v.19a2.77 2.77 0 0 1 .64.38L20 5.68V4a4 4 0 0 0-4-4H4a4 4 0 0 0-4 4v16a4 4 0 0 0 4 4h12a4 4 0 0 0 4-4v-1.69z"/></svg>