<svg xmlns="http://www.w3.org/2000/svg" width="24" height="24" viewBox="0 0 24 24">
    <g fill="none" fill-rule="evenodd">
        <path d="M0 0H24V24H0z"/>
        <path fill="#FFF" fill-rule="nonzero" d="M12 2c2.799 0 5.414 1.156 7.291 3.156.36.382.34.984-.042 1.343-.383.36-.985.34-1.344-.042C16.385 4.837 14.268 3.9 12 3.9c-4.473 0-8.099 3.626-8.099 8.1 0 4.472 3.626 8.098 8.099 8.098 4.474 0 8.099-3.625 8.099-8.098 0-1.042-.196-2.056-.573-3-.194-.487.043-1.04.531-1.235.488-.194 1.04.043 1.235.531.466 1.167.708 2.42.708 3.704C22 17.524 17.524 22 12 22 6.477 22 2 17.523 2 12S6.477 2 12 2z"/>
        <path fill="#FFF" d="M10.209 8.38l5.943 3.483c.048.028.064.09.036.137-.009.015-.021.027-.036.036l-5.943 3.483c-.048.028-.11.012-.137-.035-.01-.016-.014-.033-.014-.05V8.465c0-.055.045-.1.1-.1.018 0 .035.005.05.014z"/>
    </g>
</svg>
