<svg xmlns="http://www.w3.org/2000/svg" viewBox="0 0 24 24"><path class="cls-1" d="M12 .16a9.38 9.38 0 0 0-9.37 9.37c0 3.69 2.43 6.79 4.58 9.52L8 20a.81.81 0 0 0 .77.34.84.84 0 0 0 .67-.51.81.81 0 0 0-.19-.83l-.75-1c-2-2.52-4.23-5.38-4.23-8.5a7.73 7.73 0 0 1 15.46 0 9.91 9.91 0 0 1-2.16 5.5 32.55 32.55 0 0 1-2.37 3.1l-3.84 4.72a.82.82 0 0 0 1.28 1l3.81-4.69a34.9 34.9 0 0 0 2.47-3.26 11.44 11.44 0 0 0 2.45-6.38A9.38 9.38 0 0 0 12 .16"/><path class="cls-1" d="M16 9.53a4 4 0 1 0-4 4 4 4 0 0 0 4-4m-6.36 0A2.36 2.36 0 1 1 12 11.88a2.36 2.36 0 0 1-2.36-2.35"/></svg>