<svg xmlns="http://www.w3.org/2000/svg" width="24" height="24" viewBox="0 0 24 24">
    <g fill="none" fill-rule="evenodd">
        <g fill="#7E7E7E">
            <g>
                <g>
                    <path d="M19.5 2.25c2.071 0 3.75 1.679 3.75 3.75v12c0 2.071-1.679 3.75-3.75 3.75h-15C2.429 21.75.75 20.071.75 18V6c0-2.071 1.679-3.75 3.75-3.75zm-3.373 10.171c-.411-.246-.943-.207-1.315.116l-3.46 3.002-.194.153c-.928.664-2.193.656-3.116-.047l-1.055-.802-.142-.093c-.393-.214-.883-.177-1.24.108l-2.491 1.985L3 16.92V18c0 .78.595 1.42 1.356 1.493l.144.007h15c.828 0 1.5-.672 1.5-1.5v-1.518c-.069-.037-.135-.082-.197-.134l-4.528-3.821zM19.5 4.5h-15C3.672 4.5 3 5.172 3 6v8.055l1.202-.957.218-.16c1.19-.802 2.772-.767 3.93.114l1.054.803.09.05c.128.05.276.028.383-.066l3.46-3.002.215-.171c1.247-.916 2.974-.871 4.174.141L21 13.57V6c0-.78-.595-1.42-1.356-1.493L19.5 4.5zm-12 3C8.328 7.5 9 8.172 9 9s-.672 1.5-1.5 1.5S6 9.828 6 9s.672-1.5 1.5-1.5z" transform="translate(-16 -604) translate(0 547) translate(16 57)"/>
                </g>
            </g>
        </g>
    </g>
</svg>
