<svg xmlns="http://www.w3.org/2000/svg" viewBox="0 0 24 24"><path class="cls-1" d="M10.74 12.93a.34.34 0 0 0 .33-.34v-2.47a.33.33 0 0 0-.33-.33.33.33 0 0 0-.33.33v2.47a.34.34 0 0 0 .33.34zm3.29-.1a.34.34 0 0 0 .09-.24v-2.47a.33.33 0 0 0-.33-.33.33.33 0 0 0-.33.33v1.45L12.22 10a.34.34 0 0 0-.29-.16.34.34 0 0 0-.34.33v2.47a.34.34 0 0 0 .34.34.34.34 0 0 0 .34-.34v-1.53l1.21 1.66a.25.25 0 0 0 .13.09h.12a.47.47 0 0 0 .16 0zm2.48-1.45a.34.34 0 0 0-.34-.34h-.92v-.52h.92a.34.34 0 0 0 .34-.34.34.34 0 0 0-.34-.34h-1.29a.34.34 0 0 0-.33.34v2.42a.33.33 0 0 0 .33.33h1.29a.34.34 0 0 0 .34-.33.34.34 0 0 0-.34-.33h-.92v-.53h.92a.34.34 0 0 0 .34-.33zm-8 1.55H9.8a.34.34 0 0 0 .34-.34.34.34 0 0 0-.34-.34h-.92v-2.13a.34.34 0 0 0-.34-.33.33.33 0 0 0-.33.33v2.47a.34.34 0 0 0 .3.34z"/><path class="cls-1" d="M12 0a12 12 0 1 0 12 12A12 12 0 0 0 12 0zm5.67 14l-.12.14a5 5 0 0 1-.69.69c-1.77 1.64-4.68 3.58-5.07 3.28s.55-1.53-.47-1.75h-.21c-3-.43-5.27-2.53-5.27-5.05 0-2.83 2.86-5.12 6.39-5.12 3.54 0 6.4 2.29 6.4 5.12a4.44 4.44 0 0 1-.96 2.69z"/></svg>