<svg xmlns="http://www.w3.org/2000/svg" viewBox="0 0 24 24"><path d="M18.07 24a2.2 2.2 0 0 1-1-.26l-4-2.22a2.1 2.1 0 0 0-2 0l-4 2.21a2.13 2.13 0 0 1-2.64-.5 2.27 2.27 0 0 1-.51-1.88l.77-4.7a2.3 2.3 0 0 0-.63-2l-3.4-3.33A2.3 2.3 0 0 1 .12 9a2.2 2.2 0 0 1 1.74-1.5l4.53-.69A2.18 2.18 0 0 0 8 5.54l2-4.28a2.14 2.14 0 0 1 3.9 0l2 4.28a2.16 2.16 0 0 0 1.64 1.23l4.53.69A2.19 2.19 0 0 1 23.88 9a2.3 2.3 0 0 1-.54 2.36l-3.28 3.33a2.32 2.32 0 0 0-.62 2l.77 4.7a2.27 2.27 0 0 1-.51 1.88 2.13 2.13 0 0 1-1.63.73zM12 2.41L10.06 6.5A4.42 4.42 0 0 1 6.73 9l-4.53.68 3.34 3.39A4.57 4.57 0 0 1 6.78 17L6 21.68l3.9-2.14a4.42 4.42 0 0 1 4.18 0L18 21.67 17.22 17a4.57 4.57 0 0 1 1.24-3.94l3.28-3.33L17.27 9a4.44 4.44 0 0 1-3.33-2.5z"/></svg>