<svg xmlns="http://www.w3.org/2000/svg" viewBox="0 0 24 24"><path class="cls-1" d="M12 20.86A12.1 12.1 0 0 1 .26 13.13v-.12l-.09-.23A2.47 2.47 0 0 1 0 12a3 3 0 0 1 .13-.8c0-.13.07-.2.13-.35A12.1 12.1 0 0 1 12 3.14a12.09 12.09 0 0 1 11.76 7.73A3.61 3.61 0 0 1 24 12a3.35 3.35 0 0 1-.21 1.13A12.09 12.09 0 0 1 12 20.86zm0-15.75a10.19 10.19 0 0 0-9.94 6.5.89.89 0 0 0-.06.19 1 1 0 0 0 0 .2 1 1 0 0 0 0 .17l.08.2A10.19 10.19 0 0 0 12 18.89a10.21 10.21 0 0 0 10-6.5 1.68 1.68 0 0 0 0-.39 2.63 2.63 0 0 0-.07-.42A10.2 10.2 0 0 0 12 5.11z"/><path class="cls-1" d="M15.28 8.44a1.57 1.57 0 0 0 0 3.13 1.58 1.58 0 0 0 1.34-.75 5.19 5.19 0 0 1 .14 1.2A4.84 4.84 0 1 1 12 7.08a4.76 4.76 0 0 1 3.28 1.36z"/></svg>