<svg xmlns="http://www.w3.org/2000/svg" viewBox="0 0 24 24"><path d="M21.57 18.67h-.91c-.19-7.47-.46-9.88-2.93-12.35a7.62 7.62 0 0 0-2.54-1.68V3.29a3.25 3.25 0 0 0-6.5 0v1.25a8.72 8.72 0 0 0-5.06 6.91 33.06 33.06 0 0 0-.32 4.63 1.14 1.14 0 0 0 2.27 0 31.09 31.09 0 0 1 .29-4.28c0-.23.81-5.56 6-5.57a6.18 6.18 0 0 1 4.25 1.69c1.81 1.8 2.07 3.5 2.26 10.75h-16a1.14 1.14 0 0 0 0 2.27h4.88A5.25 5.25 0 0 0 12 24a5.18 5.18 0 0 0 4.74-3h4.83a1.14 1.14 0 0 0 0-2.27zM11.8 4h-.84v-.71a1 1 0 1 1 2 0V4a7.5 7.5 0 0 0-1.16 0zm.2 17.69a3 3 0 0 1-1.94-.75H14a2.94 2.94 0 0 1-2 .75z"/></svg>