<svg xmlns="http://www.w3.org/2000/svg" viewBox="0 0 24 24"><path d="M12 0a12 12 0 1 0 12 12A12 12 0 0 0 12 0zm1.33 19.46h-2.66v-2.67h2.66zm3.34-8.67A8.59 8.59 0 0 1 14.5 13a6.54 6.54 0 0 0-1.17 1.33 3.88 3.88 0 0 0-.16 1.5h-2.5v-.66a6.1 6.1 0 0 1 .33-2 5.3 5.3 0 0 1 1.67-1.84 6.56 6.56 0 0 0 1.5-1.33 2.46 2.46 0 0 0 .33-1 1.51 1.51 0 0 0-.67-1.33 2.76 2.76 0 0 0-1.66-.5 2.28 2.28 0 0 0-1.84.66 3.31 3.31 0 0 0-1 1.84l-2.5-.34a3.8 3.8 0 0 1 1.5-3A5.41 5.41 0 0 1 12 5.13a5.85 5.85 0 0 1 3.83 1.16 3.55 3.55 0 0 1 1.34 2.84 2.83 2.83 0 0 1-.5 1.66z" fill-rule="evenodd"/></svg>