<svg xmlns="http://www.w3.org/2000/svg" width="40" height="40" viewBox="0 0 40 40">
    <g fill="none" fill-rule="evenodd">
        <path fill="#39C8D0" d="M40 20c0 11.047-8.955 20-20 20S0 31.047 0 20C0 8.955 8.955 0 20 0s20 8.955 20 20"/>
        <path fill="#FFF" d="M20 7.952c.46 0 .833.373.833.833l.001 3.807c1.142.077 2.26.311 3.336.691l1.683-3.442c.205-.415.708-.578 1.115-.381.413.201.584.701.382 1.114l-1.645 3.364c2.402 1.21 4.538 3.186 6.205 5.805l.089.12.078.127.838 1.505c.25.448.277.985.082 1.453l-.073.154-.652 1.198c-.053.1-.118.19-.192.277-2.908 4.751-7.303 7.47-12.091 7.47-4.542 0-8.799-2.487-11.7-6.829-.022-.026-.044-.053-.064-.081-.394-.562-.707-1.142-.898-1.528l-.065-.136-.043-.076c-.059-.099-.115-.195-.169-.3-.105-.212-.158-.437-.165-.665-.033-.314.022-.63.165-.917.397-.797.874-1.586 1.45-2.4l.295-.408.129-.205c.073-.12.166-.229.268-.325 1.412-1.772 3.048-3.154 4.83-4.103l-1.71-3.5c-.202-.413-.032-.913.381-1.114.41-.199.914-.034 1.115.381l1.732 3.542c1.167-.443 2.382-.71 3.626-.793V8.785c0-.46.374-.833.834-.833zm-.011 6.278c-3.653 0-6.953 1.862-9.392 4.86l-.227.285-.033.008-.163.262c-.602.808-1.16 1.668-1.632 2.613l.023.057.015.037h-.038c.06.12.133.226.197.345.154.33.398.803.712 1.277l.14.203.02.02c2.49 3.778 6.211 6.183 10.378 6.183 4.302 0 8.118-2.575 10.602-6.566l.184-.302.032-.009.652-1.196-.839-1.509h-.015c-2.485-3.996-6.311-6.568-10.616-6.568zm.853 3.63c.785.148 1.516.5 2.116 1.02.349.303.387.83.085 1.178-.3.348-.826.384-1.175.083-.378-.328-.841-.55-1.336-.643-1.552-.299-3.049.726-3.342 2.274-.292 1.55.73 3.049 2.28 3.344 1.533.297 3.047-.729 3.34-2.277.015-.088.028-.181.038-.273.045-.457.464-.799.912-.745.457.046.792.455.745.912-.013.136-.032.274-.058.411-.41 2.172-2.315 3.689-4.445 3.689-.279 0-.56-.027-.844-.08-2.453-.465-4.068-2.839-3.605-5.29.464-2.45 2.832-4.074 5.289-3.604z"/>
    </g>
</svg>
