<svg xmlns="http://www.w3.org/2000/svg" width="40" height="40" viewBox="0 0 40 40">
    <g fill="none" fill-rule="evenodd">
        <path fill="#39C8D0" d="M40 20c0 11.046-8.954 20-20 20S0 31.045 0 20 8.955 0 20 0s20 8.954 20 20"/>
        <path fill="#FFF" d="M28.94 9.714c2.406 0 4.366 1.96 4.366 4.367l.004 10.06c.009.07.008.143-.002.215l-.002 1.563c0 2.407-1.96 4.367-4.366 4.367H11.05c-2.407 0-4.367-1.96-4.367-4.367V14.526c0-2.653 2.159-4.812 4.812-4.812H28.94zm-5.792 10.5l-2.57 2.506c-.162.157-.372.237-.582.237-.205 0-.41-.075-.572-.227l-2.64-2.48-8.434 4.49v1.18c0 1.488 1.212 2.7 2.7 2.7h17.89c1.488 0 2.7-1.212 2.7-2.7v-1.187l-8.492-4.518zM8.35 14.527v8.323l7.153-3.806-6.637-6.24c-.326.495-.516 1.088-.516 1.723zm22.752-2.06l-6.7 6.527 7.238 3.853v-8.765c0-.605-.2-1.164-.538-1.615zM28.94 11.38H11.495c-.492 0-.957.114-1.372.316l9.863 9.273 9.725-9.477c-.245-.073-.503-.112-.771-.112z"/>
    </g>
</svg>
