<svg xmlns="http://www.w3.org/2000/svg" viewBox="0 0 24 24"><path class="cls-1" d="M18.42.18H13c-2.73 0-4.95 1.94-4.95 4.32v2H5a4.34 4.34 0 0 0-4.37 4.29v11.9a.77.77 0 0 0 0 .15 1 1 0 0 0 1 1H17.5a1 1 0 0 0 1-.93V10.79a4.33 4.33 0 0 0-4.33-4.32h-4.04v-2c0-1.21 1.31-2.24 2.87-2.24h5.42c1.55 0 2.86 1 2.86 2.24v18.27a1 1 0 0 0 2.09 0V4.5c0-2.38-2.22-4.32-4.95-4.32zm-2 10.61v11h-6.01v-3.6a.42.42 0 0 0-.42-.42H8.71a.42.42 0 0 0-.41.42v3.55H2.72V10.79A2.25 2.25 0 0 1 5 8.55h9.25a2.25 2.25 0 0 1 2.22 2.24z"/><rect class="cls-1" x="4.7" y="10.39" width="2.11" height="2.1" rx=".41" ry=".41"/><rect class="cls-1" x="8.36" y="10.39" width="2.11" height="2.1" rx=".41" ry=".41"/><rect class="cls-1" x="12.13" y="10.39" width="2.11" height="2.1" rx=".41" ry=".41"/><rect class="cls-1" x="4.64" y="14.1" width="2.11" height="2.1" rx=".41" ry=".41"/><rect class="cls-1" x="8.3" y="14.1" width="2.11" height="2.1" rx=".41" ry=".41"/><rect class="cls-1" x="12.08" y="14.1" width="2.11" height="2.1" rx=".41" ry=".41"/><rect class="cls-1" x="4.64" y="17.77" width="2.11" height="2.1" rx=".41" ry=".41"/><rect class="cls-1" x="12.08" y="17.77" width="2.11" height="2.1" rx=".41" ry=".41"/></svg>