<svg xmlns="http://www.w3.org/2000/svg" width="40" height="40" viewBox="0 0 40 40">
    <g fill="none" fill-rule="evenodd">
        <path fill="#39C8D0" d="M40 20c0 11.047-8.954 20-20 20S0 31.047 0 20C0 8.955 8.953 0 20 0s20 8.955 20 20"/>
        <path fill="#FFF" d="M16.453 28.75c-.23 0-.45-.095-.607-.262l-7.008-7.455c-.317-.335-.3-.861.035-1.178.335-.315.863-.3 1.178.037l6.385 6.791 13.498-15.155c.304-.343.83-.375 1.177-.067.343.307.373.832.067 1.177L17.074 28.471c-.155.175-.376.276-.61.279h-.011z"/>
    </g>
</svg>
