<svg xmlns="http://www.w3.org/2000/svg" viewBox="0 0 24 24"><path class="cls-1" d="M9.3 10.34a1.16 1.16 0 0 0-1.16 1.16v7.06a1.16 1.16 0 0 0 2.32 0V11.5a1.16 1.16 0 0 0-1.16-1.16zm5.4 0a1.16 1.16 0 0 0-1.16 1.16v7.06a1.16 1.16 0 0 0 2.32 0V11.5a1.16 1.16 0 0 0-1.16-1.16z"/><path class="cls-1" d="M19.52 3.32H15.9a4 4 0 0 0-7.8 0H4.48a2.55 2.55 0 0 0-2.54 2.55v.5a2.54 2.54 0 0 0 1.39 2.25l.81 11.26A4.53 4.53 0 0 0 8.59 24h6.82a4.48 4.48 0 0 0 4.45-4.15l.8-11.27a2.53 2.53 0 0 0 1.4-2.25v-.5a2.55 2.55 0 0 0-2.54-2.51zM12 2.36a1.61 1.61 0 0 1 1.47 1h-3a1.65 1.65 0 0 1 1.53-1zM4.25 5.87a.23.23 0 0 1 .23-.23h15a.23.23 0 0 1 .23.23v.5a.23.23 0 0 1-.23.22h-15a.23.23 0 0 1-.23-.22zm11.16 15.85H8.59a2.21 2.21 0 0 1-2.14-2L5.68 8.91h12.64l-.77 10.81a2.18 2.18 0 0 1-2.14 2z"/></svg>