<svg xmlns="http://www.w3.org/2000/svg" viewBox="0 0 24 24"><path class="cls-1" d="M12 8.06a5.52 5.52 0 1 0 3.9 1.62A5.5 5.5 0 0 0 12 8.06zm2.24 8.85a4 4 0 1 1 1.1-5.58 4 4 0 0 1-1.1 5.58z"/><path class="cls-1" d="M20.7 5.68h-1.79L18.16 4a2.88 2.88 0 0 0-2.62-1.7H8.46A2.88 2.88 0 0 0 5.84 4l-.75 1.68H3.3A3.18 3.18 0 0 0 .12 8.85v10.36a3.18 3.18 0 0 0 3.18 3.17h17.4a3.17 3.17 0 0 0 3.17-3.17V8.85a3.17 3.17 0 0 0-3.17-3.17zM4 9.38h-.5a.75.75 0 1 1 0-1.5H4a.75.75 0 0 1 0 1.5zm12.63 8.8a6.52 6.52 0 1 1 0-9.21 6.49 6.49 0 0 1-.02 9.21z"/></svg>