<svg xmlns="http://www.w3.org/2000/svg" viewBox="0 0 24 24"><path d="M19.83 18.79h-2.09V5.22h2.09zm-9-1a2 2 0 0 1-1.11-1.6l3.08 1.41a2 2 0 0 1-2.02.23zm5.39-.35l-8.87-4v-3l8.87-3.6zM5.74 14.61H4.17V9.4h1.57zM19.83 3.66h-2.09a1.56 1.56 0 0 0-1.57 1.56l-9 3.6a1.56 1.56 0 0 0-1.47-1H4.17A1.56 1.56 0 0 0 2.61 9.4v5.21a1.56 1.56 0 0 0 1.56 1.57h1.57a1.56 1.56 0 0 0 1.47-1l1 .42a.81.81 0 0 0-.08.34 3.61 3.61 0 0 0 2 3.31 3.15 3.15 0 0 0 1.48.34 3.81 3.81 0 0 0 2.51-1 .74.74 0 0 0 .22-.33l1.91.84a1.55 1.55 0 0 0 1.53 1.25h2.09a1.56 1.56 0 0 0 1.56-1.56V5.21a1.55 1.55 0 0 0-1.6-1.55z" fill-rule="evenodd"/></svg>