<svg xmlns="http://www.w3.org/2000/svg" viewBox="0 0 24 24"><path class="cls-1" d="M7.85 6L4 2.25h2.2a1.12 1.12 0 0 0 1.08-1.13A1.12 1.12 0 0 0 6.16 0h-5A1.12 1.12 0 0 0 0 1.12V6a1.12 1.12 0 0 0 1.12 1.12A1.12 1.12 0 0 0 2.25 6V3.72L6.3 7.61a1.17 1.17 0 0 0 .78.31A1.13 1.13 0 0 0 7.85 6zm.04 10.43a1.11 1.11 0 0 0-1.59 0l-4 3.88V18a1.12 1.12 0 0 0-1.13-1.12A1.12 1.12 0 0 0 0 18v4.87A1.12 1.12 0 0 0 1.12 24h5a1.13 1.13 0 0 0 0-2.25H4L7.85 18a1.12 1.12 0 0 0 .04-1.57zM22.88 0h-5a1.12 1.12 0 0 0-1.12 1.12 1.12 1.12 0 0 0 1.12 1.13H20L16.14 6a1.13 1.13 0 0 0 .78 1.94 1.17 1.17 0 0 0 .78-.31l4.05-3.88V6A1.13 1.13 0 0 0 24 6V1.12A1.12 1.12 0 0 0 22.88 0zm0 16.88A1.12 1.12 0 0 0 21.75 18v2.28l-4.05-3.89A1.13 1.13 0 0 0 16.14 18L20 21.75h-2.2a1.13 1.13 0 0 0 0 2.25h5a1.12 1.12 0 0 0 1.2-1.13V18a1.12 1.12 0 0 0-1.12-1.12z"/></svg>