<svg xmlns="http://www.w3.org/2000/svg" width="24" height="24" viewBox="0 0 24 24">
    <g fill="none" fill-rule="evenodd">
        <g fill="#7E7E7E" fill-rule="nonzero">
            <g>
                <g>
                    <path d="M19.445 3c2.328 2.329 2.399 6.06.212 8.472l-.212.223-5.227 5.227c-1.449 1.449-3.798 1.449-5.247 0-1.39-1.391-1.446-3.612-.167-5.07l.167-.177 5.066-5.066c.44-.44 1.152-.44 1.591 0 .403.402.437 1.034.101 1.475l-.1.115-5.067 5.067c-.57.57-.57 1.495 0 2.065.53.53 1.365.567 1.938.113l.127-.113 5.227-5.227c1.522-1.522 1.522-3.99 0-5.512-1.463-1.464-3.801-1.52-5.332-.17l-.18.17-5.99 5.99c-2.27 2.27-2.27 5.95 0 8.22 2.2 2.198 5.722 2.267 8.004.206l.217-.207 5.026-5.026c.44-.44 1.152-.44 1.591 0 .403.402.437 1.034.101 1.475l-.1.115-5.027 5.027c-3.15 3.149-8.254 3.149-11.403 0-3.071-3.071-3.146-8.005-.224-11.168l.224-.234L10.751 3c2.4-2.4 6.293-2.4 8.694 0z" transform="translate(-497 -980) translate(481 865) translate(16 115)"/>
                </g>
            </g>
        </g>
    </g>
</svg>
