<svg xmlns="http://www.w3.org/2000/svg" viewBox="0 0 24 24"><path class="cls-1" d="M2.69 11.15H1.11A1.11 1.11 0 0 0 0 12.26V21a1.11 1.11 0 0 0 1.11 1.11h1.58A1.11 1.11 0 0 0 3.8 21v-8.74a1.11 1.11 0 0 0-1.11-1.11m20.13 4.66c0-.43 1.18-.38 1.18-1.91s-1.52-1.22-1.52-1.69 1-.6 1-1.81c0-.76-.62-1.57-2.6-1.43a27.62 27.62 0 0 0-3.07.31c-1.48.19-2-1.52-1.3-3a7.34 7.34 0 0 0 .66-4.43c-.3-1.13-2.6-1.91-2.89 0C13.79 5 10.1 9.7 6.52 11.43a1.8 1.8 0 0 0-.77 1.68v7.06c0 .82.3 1.09 1.06 1.42 3.43 1.53 6 1.75 11.72 1.75 4.4 0 4.85-1.26 4.85-2.51s-.87-1-.87-1.5S24 18.87 24 17.65s-1.15-1.42-1.15-1.84"/></svg>