<svg xmlns="http://www.w3.org/2000/svg" viewBox="0 0 24 24"><path class="cls-1" d="M18 19.5v.5a2 2 0 0 1-2 2H4a2 2 0 0 1-2-2V4a2 2 0 0 1 2-2h12a2 2 0 0 1 2 2v.5a7.37 7.37 0 0 1 2 .28V4a4 4 0 0 0-4-4H4a4 4 0 0 0-4 4v16a4 4 0 0 0 4 4h12a4 4 0 0 0 4-4v-.78a7.46 7.46 0 0 1-1.9.28z"/><path class="cls-1" d="M17.92 6A6 6 0 1 0 24 11.92 6 6 0 0 0 17.92 6zM17 15.73c-.42 0-.72-.25-.43-1.36l.47-2c.09-.32.1-.44 0-.44a3.31 3.31 0 0 0-1 .43l-.21-.34a5.56 5.56 0 0 1 2.67-1.34c.42 0 .49.5.28 1.25l-.5 2.07c-.09.37-.05.49 0 .49a2.15 2.15 0 0 0 .94-.46l.23.31A4.35 4.35 0 0 1 17 15.73zm1.49-6c-.57 0-.85-.29-.83-.76a1 1 0 0 1 1.14-1 .69.69 0 0 1 .78.76 1 1 0 0 1-1.06 1.01z"/></svg>