<svg xmlns="http://www.w3.org/2000/svg" xmlns:xlink="http://www.w3.org/1999/xlink" width="424" height="399" viewBox="0 0 424 399">
    <defs>
        <linearGradient id="0conbsdw5b" x1="58.995%" x2="45.658%" y1="25.066%" y2="57.127%">
            <stop offset="0%" stop-color="#FFF"/>
            <stop offset="100%" stop-color="#FFF" stop-opacity="0"/>
            <stop offset="100%" stop-color="#FFF" stop-opacity="0"/>
        </linearGradient>
        <linearGradient id="ryf8euyh8d" x1="48.296%" x2="33.027%" y1="46.973%" y2="94.195%">
            <stop offset="0%" stop-color="#FFF"/>
            <stop offset="100%" stop-color="#FFF" stop-opacity="0"/>
        </linearGradient>
        <radialGradient id="mssxp6yslf" cx="59.029%" cy="50%" r="84.99%" fx="59.029%" fy="50%" gradientTransform="matrix(-.10624 -.5883 .99434 -.06286 .156 .879)">
            <stop offset="0%" stop-color="#FF9100"/>
            <stop offset="100%" stop-color="#FFEEDF"/>
        </radialGradient>
        <rect id="l5fje1uqea" width="424" height="399" x="0" y="0" rx="4"/>
        <path id="xcpvub70ve" d="M60.7 119.725c39.13-3.37 47.957-35.336 50.133-64.413C113.009 26.235 93.744 0 66.04 0 38.335 0 0 34.089 0 64.557c0 30.468 21.568 58.537 60.7 55.168z"/>
    </defs>
    <g fill="none" fill-rule="evenodd">
        <g>
            <g transform="translate(-1036 -1322) translate(1036 1322)">
                <mask id="qsdnozg8sc" fill="#fff">
                    <use xlink:href="#l5fje1uqea"/>
                </mask>
                <use fill="#FFEEDF" xlink:href="#l5fje1uqea"/>
                <path fill="url(#0conbsdw5b)" d="M183.117 244.946L430.391 -154.086 477.811 -99.713 230.537 299.319z" mask="url(#qsdnozg8sc)" opacity=".627" transform="rotate(8 330.464 72.617)"/>
                <path fill="url(#ryf8euyh8d)" d="M514.844-287.317L273.798 113.485c-2.164 3.6-6.835 4.764-10.436 2.602-3.596-2.159-4.762-6.825-2.603-10.422l.003-.005L509.542-308l5.302 20.683z" mask="url(#qsdnozg8sc)" opacity=".914" transform="rotate(8 385.844 -94)"/>
                <g mask="url(#qsdnozg8sc)" opacity=".634">
                    <g transform="translate(-35 318)">
                        <mask id="8bipb1sh2g" fill="#fff">
                            <use xlink:href="#xcpvub70ve"/>
                        </mask>
                        <path fill="url(#mssxp6yslf)" d="M-1.22-37.96v202.042h-2.44V-37.96h2.44zm7.319 0v202.042h-2.44V-37.96H6.1zm7.319 0v202.042h-2.44V-37.96h2.44zm7.318 0v202.042h-2.44V-37.96h2.44zm7.319 0v202.042h-2.44V-37.96h2.44zm7.319 0v202.042h-2.44V-37.96h2.44zm7.318 0v202.042h-2.44V-37.96h2.44zm7.319 0v202.042h-2.44V-37.96h2.44zm7.319 0v202.042h-2.44V-37.96h2.44zm7.318 0v202.042h-2.44V-37.96h2.44zm7.319 0v202.042h-2.44V-37.96h2.44zm7.319 0v202.042h-2.44V-37.96h2.44zm7.318 0v202.042h-2.44V-37.96h2.44zm7.32 0v202.042h-2.44V-37.96h2.44zm7.318 0v202.042h-2.44V-37.96h2.44zm7.318 0v202.042h-2.44V-37.96h2.44zm7.32 0v202.042h-2.44V-37.96h2.44z" mask="url(#8bipb1sh2g)" opacity=".375" transform="rotate(45 56.11 63.061)"/>
                    </g>
                </g>
                <path fill="#FF9100" fill-opacity=".4" d="M358.5 348c.828 0 1.5.672 1.5 1.5s-.672 1.5-1.5 1.5-1.5-.672-1.5-1.5.672-1.5 1.5-1.5zm10 0c.828 0 1.5.672 1.5 1.5s-.672 1.5-1.5 1.5-1.5-.672-1.5-1.5.672-1.5 1.5-1.5zm11 0c.828 0 1.5.672 1.5 1.5s-.672 1.5-1.5 1.5-1.5-.672-1.5-1.5.672-1.5 1.5-1.5zm9 0c.828 0 1.5.672 1.5 1.5s-.672 1.5-1.5 1.5-1.5-.672-1.5-1.5.672-1.5 1.5-1.5zm11 0c.828 0 1.5.672 1.5 1.5s-.672 1.5-1.5 1.5-1.5-.672-1.5-1.5.672-1.5 1.5-1.5zm10 0c.828 0 1.5.672 1.5 1.5s-.672 1.5-1.5 1.5-1.5-.672-1.5-1.5.672-1.5 1.5-1.5zm-51-10c.828 0 1.5.672 1.5 1.5s-.672 1.5-1.5 1.5-1.5-.672-1.5-1.5.672-1.5 1.5-1.5zm10 0c.828 0 1.5.672 1.5 1.5s-.672 1.5-1.5 1.5-1.5-.672-1.5-1.5.672-1.5 1.5-1.5zm11 0c.828 0 1.5.672 1.5 1.5s-.672 1.5-1.5 1.5-1.5-.672-1.5-1.5.672-1.5 1.5-1.5zm9 0c.828 0 1.5.672 1.5 1.5s-.672 1.5-1.5 1.5-1.5-.672-1.5-1.5.672-1.5 1.5-1.5zm11 0c.828 0 1.5.672 1.5 1.5s-.672 1.5-1.5 1.5-1.5-.672-1.5-1.5.672-1.5 1.5-1.5zm10 0c.828 0 1.5.672 1.5 1.5s-.672 1.5-1.5 1.5-1.5-.672-1.5-1.5.672-1.5 1.5-1.5zm-51-11c.828 0 1.5.672 1.5 1.5s-.672 1.5-1.5 1.5-1.5-.672-1.5-1.5.672-1.5 1.5-1.5zm10 0c.828 0 1.5.672 1.5 1.5s-.672 1.5-1.5 1.5-1.5-.672-1.5-1.5.672-1.5 1.5-1.5zm11 0c.828 0 1.5.672 1.5 1.5s-.672 1.5-1.5 1.5-1.5-.672-1.5-1.5.672-1.5 1.5-1.5zm9 0c.828 0 1.5.672 1.5 1.5s-.672 1.5-1.5 1.5-1.5-.672-1.5-1.5.672-1.5 1.5-1.5zm11 0c.828 0 1.5.672 1.5 1.5s-.672 1.5-1.5 1.5-1.5-.672-1.5-1.5.672-1.5 1.5-1.5zm10 0c.828 0 1.5.672 1.5 1.5s-.672 1.5-1.5 1.5-1.5-.672-1.5-1.5.672-1.5 1.5-1.5zm-51-11c.828 0 1.5.672 1.5 1.5s-.672 1.5-1.5 1.5-1.5-.672-1.5-1.5.672-1.5 1.5-1.5zm10 0c.828 0 1.5.672 1.5 1.5s-.672 1.5-1.5 1.5-1.5-.672-1.5-1.5.672-1.5 1.5-1.5zm11 0c.828 0 1.5.672 1.5 1.5s-.672 1.5-1.5 1.5-1.5-.672-1.5-1.5.672-1.5 1.5-1.5zm9 0c.828 0 1.5.672 1.5 1.5s-.672 1.5-1.5 1.5-1.5-.672-1.5-1.5.672-1.5 1.5-1.5zm11 0c.828 0 1.5.672 1.5 1.5s-.672 1.5-1.5 1.5-1.5-.672-1.5-1.5.672-1.5 1.5-1.5zm10 0c.828 0 1.5.672 1.5 1.5s-.672 1.5-1.5 1.5-1.5-.672-1.5-1.5.672-1.5 1.5-1.5zm-51-10c.828 0 1.5.672 1.5 1.5s-.672 1.5-1.5 1.5-1.5-.672-1.5-1.5.672-1.5 1.5-1.5zm10 0c.828 0 1.5.672 1.5 1.5s-.672 1.5-1.5 1.5-1.5-.672-1.5-1.5.672-1.5 1.5-1.5zm11 0c.828 0 1.5.672 1.5 1.5s-.672 1.5-1.5 1.5-1.5-.672-1.5-1.5.672-1.5 1.5-1.5zm9 0c.828 0 1.5.672 1.5 1.5s-.672 1.5-1.5 1.5-1.5-.672-1.5-1.5.672-1.5 1.5-1.5zm11 0c.828 0 1.5.672 1.5 1.5s-.672 1.5-1.5 1.5-1.5-.672-1.5-1.5.672-1.5 1.5-1.5zm10 0c.828 0 1.5.672 1.5 1.5s-.672 1.5-1.5 1.5-1.5-.672-1.5-1.5.672-1.5 1.5-1.5z" mask="url(#qsdnozg8sc)"/>
            </g>
        </g>
    </g>
</svg>
