<svg xmlns="http://www.w3.org/2000/svg" xmlns:xlink="http://www.w3.org/1999/xlink" width="792" height="250" viewBox="0 0 792 250">
    <defs>
        <path id="aktpvsdwna" d="M0 0H228V170H0z"/>
    </defs>
    <g fill="none" fill-rule="evenodd">
        <g>
            <g>
                <g>
                    <g transform="translate(-324 -150) translate(0 100) translate(324 50) translate(66 80)">
                        <path fill="#FFC08A" d="M191 159h20c2.21 0 4 1.79 4 4v7h-24v-11z"/>
                        <mask id="zs7gox9dyb" fill="#fff">
                            <use xlink:href="#aktpvsdwna"/>
                        </mask>
                        <g mask="url(#zs7gox9dyb)">
                            <g transform="rotate(-6 834.377 -102.253)">
                                <rect width="121" height="121" fill="#F0F0F0" rx="4"/>
                                <circle cx="32" cy="36" r="16" fill="#E3E3E3"/>
                                <rect width="49" height="6" x="56" y="27" fill="#E3E3E3" rx="2"/>
                                <rect width="89" height="6" x="16" y="60" fill="#E3E3E3" rx="2"/>
                                <rect width="89" height="6" x="16" y="72" fill="#E9EBEC" rx="2"/>
                                <rect width="89" height="6" x="16" y="84" fill="#E9EBEC" rx="2"/>
                                <rect width="49" height="6" x="56" y="37" fill="#E3E3E3" rx="2"/>
                            </g>
                        </g>
                        <g mask="url(#zs7gox9dyb)">
                            <g transform="rotate(17 -148.768 370.054)">
                                <rect width="121" height="121" fill="#FFFAF5" rx="4"/>
                                <circle cx="32" cy="36" r="16" fill="#FFE4CC"/>
                                <rect width="49" height="6" x="56" y="27" fill="#FFE4CC" rx="2"/>
                                <rect width="89" height="6" x="16" y="60" fill="#FFEEDF" rx="2"/>
                                <rect width="89" height="6" x="16" y="72" fill="#FFEEDF" rx="2"/>
                                <rect width="89" height="6" x="16" y="84" fill="#FFEEDF" rx="2"/>
                                <rect width="89" height="6" x="16" y="96" fill="#E8E8E8" rx="2"/>
                                <rect width="49" height="6" x="56" y="37" fill="#FFE4CC" rx="2"/>
                            </g>
                        </g>
                    </g>
                    <path fill="#FFDFC2" d="M80 219.699h51.703c1.143 0 2.231.489 2.99 1.343l7.364 8.287c.759.855 1.847 1.344 2.99 1.344h123.359c2.209 0 4 1.79 4 4V250H76v-26.301c0-2.21 1.79-4 4-4z" transform="translate(-324 -150) translate(0 100) translate(324 50)"/>
                    <path fill="#FFD1A5" d="M84.098 238.934l-1.345 3.352c-1.298.409-2.714.02-3.622-.994l-.164-.181 1.067-3.438 4.064 1.26z" transform="translate(-324 -150) translate(0 100) translate(324 50)"/>
                    <path fill="#292929" d="M82.754 242.285s.121 3.824 7.867 5.908c1.59.428 1.09.908 1.404 1.563l-8.84.244-3.57-3.796-1.05.954-2.566-2.383s1.069-3.58 2.969-3.665l3.785 1.175M130.774 247.886c1.394.313 2.873-.191 2.936 2.078-2.936.08-7.629 0-7.629 0l-6.375-.713.03.713h-3.427s-1.109-5.073.873-5.842l4.434-.122s2.827 2.466 9.158 3.886z" transform="translate(-324 -150) translate(0 100) translate(324 50)"/>
                    <path fill="#FFD1A5" d="M120.943 240.722l.785 4.007c-1.226.9-2.867 1.002-4.194.257l-.239-.134.229-4.035 3.419-.095z" transform="translate(-324 -150) translate(0 100) translate(324 50)"/>
                    <path fill="#292929" d="M104.882 156.502s-6.802 14.597-8.995 34.485c-.474 4.286-1.9 8.442-4.277 12.04-6.749 10.212-12.29 35.47-12.29 35.47l4.876 1.24 32.857-56.083-.967-26.598-11.204-.554z" transform="translate(-324 -150) translate(0 100) translate(324 50)"/>
                    <path fill="#3B3B3B" d="M108.696 156.703s-2.462 18.13 2.8 35.75c.957 3.2 1.16 6.558.707 9.866-1.705 12.42 4.746 39.076 4.746 39.076l4.577-.127 5.697-83.59-18.527-.975z" transform="translate(-324 -150) translate(0 100) translate(324 50)"/>
                    <path fill="#FFD1A5" d="M108.538 123.73s-7.386-1.26-6.317-5.944c1.067-4.684 14.332-21.96 14.332-21.96l10.715-1.491s-.614 2.619-7.355 3.988c-6.741 1.37-11.375 25.407-11.375 25.407" transform="translate(-324 -150) translate(0 100) translate(324 50)"/>
                    <path fill="#FFC085" d="M118.538 98.933c-.676-1.021-1.331-2.058-1.993-3.095 0-.002.008-.011.008-.011l10.715-1.491s-.614 2.618-7.355 3.988c-.47.095-.927.31-1.375.609M118.97 107.477L118.508 115.292 110.904 113.111 112.674 106.844z" transform="translate(-324 -150) translate(0 100) translate(324 50)"/>
                    <path fill="#FFD1A5" d="M118.693 93.975s6.012 8.531 4.56 13.656c-1.721 2.6-9.183-.742-9.183-.742l-.325-11.782 4.948-1.132z" transform="translate(-324 -150) translate(0 100) translate(324 50)"/>
                    <path fill="#212B53" d="M119.798 94.201s-1.887.334-3.246 1.625c-1.358 1.292-.025 6.296-.025 6.296l.11 1.775c.137 2.201-1.578 4.076-3.783 4.137l-.148.004s-9.815-9.245-5.956-13.733c6.79-6.562 13.048-.104 13.048-.104" transform="translate(-324 -150) translate(0 100) translate(324 50)"/>
                    <path fill="#FFC085" d="M118.115 101.879c.122-.62-.394-1.345-1.151-1.62-.758-.274-1.471.006-1.593.625-.122.62.393 1.345 1.15 1.619.759.275 1.472-.005 1.594-.624" transform="translate(-324 -150) translate(0 100) translate(324 50)"/>
                    <path fill="#212B53" d="M121.634 92.3c.036 1.32-1.394 2.43-3.193 2.48-1.8.048-8.067-.849-8.103-2.168-.037-1.319 6.17-2.56 7.971-2.61 1.8-.05 3.29.98 3.325 2.298" transform="translate(-324 -150) translate(0 100) translate(324 50)"/>
                    <path fill="#00AFB8" d="M104.882 156.502s-8.966-47.595 10.531-44.234c19.032 3.281 11.811 45.41 11.811 45.41l-22.342-1.176z" transform="translate(-324 -150) translate(0 100) translate(324 50)"/>
                    <path fill="#FFD1A5" d="M113.73 116.352s-11.992 15.642-9.989 19.867c2.003 4.225 18.556 21.043 19.496 21.986 1.461 1.97-.715 9.764 3.982 6.78 4.698-2.984.678-8.287-.447-9.499l-12.539-19.353 6.873-9.817-7.376-9.965z" transform="translate(-324 -150) translate(0 100) translate(324 50)"/>
                    <path fill="#39C8D0" d="M109.948 121.296l8.448 9.051 3.226-3.468c2.083-2.239 2.899-5.465 1.855-8.339-.35-.965-.9-1.905-1.745-2.694l-.101-.094c-2.386-2.17-6.154-1.722-8.107.845l-3.576 4.7z" transform="translate(-324 -150) translate(0 100) translate(324 50)"/>
                    <g fill-rule="nonzero">
                        <path fill="#DDD" d="M20.468 15.175c-.365.616-.69 1.245-.977 1.883-.01-1.314.064-2.638.267-3.98.347-2.3.878-4.587 1.376-6.87.358-1.642.336-4.59 1.695-5.897.373-.283.463.272.463.512.004.051-.002-.982-.363-.802-2.151 1.085-2.848 4.498-3.537 6.206-1.004 2.494-1.859 5.043-2.21 7.638-.09.655-.138 1.31-.15 1.964-.072-.174-.141-.35-.217-.525-1.241-2.844-2.917-5.62-5.006-8.18-.514-.63-6.98-6.844-7.487-5.893.05.138.155.253.314.344.01.01.01.005.004-.01.38.599 1.46 1.525 1.796 2.05.847 1.321 1.504 2.724 2.173 4.1 1.412 2.907 2.723 5.844 3.993 8.787.296.685.604 1.367.918 2.046C10.278 13.98 5.954 9.832 0 7.458c2.033 1.01 3.367 2.912 4.74 4.368 1.656 1.756 3.4 3.465 5.06 5.22 1.957 2.069 4.26 4.248 6.142 6.538 1.824 3.74 3.596 7.484 4.69 11.416-.448-1.358-.035-3.236-.112-4.661-.061-1.135-.197-2.26-.383-3.384.23.507.428 1.014.518 1.485-.082-.79-.176-1.577-.278-2.359.26-.732.516-1.415.69-1.978.884-2.887 1.938-5.724 3.374-8.489 1.328-2.558 2.852-5.083 4.512-7.532.774-1.141 1.56-2.278 2.34-3.417.51-.746.996-1.94 1.707-2.655-4.595 4.105-9.616 8.24-12.532 13.165" transform="translate(-324 -150) translate(0 100) translate(324 50) translate(0 212)"/>
                        <path fill="#A9A9A9" d="M7 21c0 9.389.728 17 10.5 17S28 30.389 28 21" transform="translate(-324 -150) translate(0 100) translate(324 50) translate(0 212)"/>
                    </g>
                    <g fill-rule="nonzero">
                        <path fill="#DEDEDE" d="M58.827 84s43.515-14.049 54.45-34.18c5.268-9.7-2.21-21.032-13.422-20.817C67.071 29.629 55 80.646 55 80.646L58.827 84z" transform="translate(-324 -150) translate(0 100) translate(324 50) translate(636 122)"/>
                        <path fill="#FFF" d="M56.123 88L55 87.32c1.164-2.026 28.398-49.599 55.07-53.32l.93 1.154C84.952 38.788 56.405 87.51 56.123 88" transform="translate(-324 -150) translate(0 100) translate(324 50) translate(636 122)"/>
                        <path fill="#EEE" d="M26.917 50.997C21.7 44.07 18.667 37.91 17.053 32.57 12.672 18.077 22.443 3.012 37.463.474c8.426-1.424 18.822-.046 28.6 9.801C87.55 31.918 58.6 91 58.6 91H48.154s-.394-12.326-21.237-40.003" transform="translate(-324 -150) translate(0 100) translate(324 50) translate(636 122)"/>
                        <path fill="#DEDEDE" d="M37.09 91S5.955 84.47.307 61.54c-1.756-7.132 4.295-13.899 11.9-13.525C50.764 49.906 48.987 91 48.987 91H37.091z" transform="translate(-324 -150) translate(0 100) translate(324 50) translate(636 122)"/>
                        <path fill="#FFFFFE" d="M52.124 91l-1.291-.3C50.97 90.107 63.898 30.92 31 2.565L32.426 2c33.507 28.88 19.838 88.4 19.698 89" transform="translate(-324 -150) translate(0 100) translate(324 50) translate(636 122)"/>
                        <path fill="#FFF" d="M41.865 92C41.66 91.644 20.965 56.382 1 54.285L1.74 53C22.367 55.165 42.153 89.846 43 91.323L41.865 92z" transform="translate(-324 -150) translate(0 100) translate(324 50) translate(636 122)"/>
                        <path fill="#A9A9A9" d="M29 128L68 128 68 92 29 92z" transform="translate(-324 -150) translate(0 100) translate(324 50) translate(636 122)"/>
                        <path fill="#767676" d="M70.357 96H26.643C25.19 96 24 94.65 24 93c0-1.649 1.19-3 2.643-3h43.714C71.81 90 73 91.351 73 93c0 1.65-1.19 3-2.643 3" transform="translate(-324 -150) translate(0 100) translate(324 50) translate(636 122)"/>
                    </g>
                    <path d="M0 0H792V250H0z" transform="translate(-324 -150) translate(0 100) translate(324 50)"/>
                </g>
            </g>
        </g>
    </g>
</svg>
